G04 EAGLE Gerber RS-274X export*
G75*
%MOMM*%
%FSLAX34Y34*%
%LPD*%
%INTop Copper*%
%IPPOS*%
%AMOC8*
5,1,8,0,0,1.08239X$1,22.5*%
G01*
%ADD10R,1.600000X1.300000*%
%ADD11R,1.080000X1.050000*%
%ADD12R,1.050000X1.080000*%
%ADD13R,0.740000X0.925000*%
%ADD14R,0.925000X0.740000*%
%ADD15R,0.381000X1.143000*%
%ADD16R,0.600000X0.500000*%
%ADD17P,1.515346X8X202.500000*%
%ADD18C,1.400000*%
%ADD19R,1.905000X1.905000*%
%ADD20C,1.905000*%
%ADD21C,1.333500*%
%ADD22R,1.100000X1.000000*%
%ADD23C,0.081278*%
%ADD24R,1.500000X1.300000*%
%ADD25R,0.600000X0.700000*%
%ADD26R,1.000000X1.100000*%
%ADD27R,0.700000X0.600000*%
%ADD28R,0.838200X0.254000*%
%ADD29R,1.295400X1.092200*%
%ADD30C,0.182878*%
%ADD31R,0.723900X0.215900*%
%ADD32C,0.231141*%
%ADD33R,0.901700X0.850900*%
%ADD34R,0.280000X0.430000*%
%ADD35R,1.803000X1.600000*%
%ADD36R,0.508000X0.889000*%
%ADD37R,1.905000X0.889000*%
%ADD38P,0.649434X8X22.500000*%
%ADD39C,0.254000*%
%ADD40C,0.381000*%
%ADD41P,0.324717X8X22.500000*%
%ADD42C,0.127000*%
%ADD43C,0.508000*%
%ADD44P,0.865912X8X22.500000*%

G36*
X511928Y1286D02*
X511928Y1286D01*
X512047Y1293D01*
X512085Y1306D01*
X512126Y1311D01*
X512236Y1354D01*
X512349Y1391D01*
X512384Y1413D01*
X512421Y1428D01*
X512517Y1497D01*
X512618Y1561D01*
X512646Y1591D01*
X512679Y1614D01*
X512755Y1706D01*
X512836Y1793D01*
X512856Y1828D01*
X512881Y1859D01*
X512932Y1967D01*
X512990Y2071D01*
X513000Y2111D01*
X513017Y2147D01*
X513039Y2264D01*
X513069Y2379D01*
X513073Y2439D01*
X513077Y2459D01*
X513075Y2480D01*
X513079Y2540D01*
X513079Y215138D01*
X513064Y215256D01*
X513057Y215375D01*
X513044Y215413D01*
X513039Y215454D01*
X512996Y215564D01*
X512959Y215677D01*
X512937Y215712D01*
X512922Y215749D01*
X512853Y215845D01*
X512789Y215946D01*
X512759Y215974D01*
X512736Y216007D01*
X512644Y216083D01*
X512557Y216164D01*
X512522Y216184D01*
X512491Y216209D01*
X512383Y216260D01*
X512279Y216318D01*
X512239Y216328D01*
X512203Y216345D01*
X512086Y216367D01*
X511971Y216397D01*
X511911Y216401D01*
X511891Y216405D01*
X511870Y216403D01*
X511810Y216407D01*
X495423Y216407D01*
X495325Y216395D01*
X495226Y216392D01*
X495168Y216375D01*
X495108Y216367D01*
X495016Y216331D01*
X494921Y216303D01*
X494868Y216273D01*
X494812Y216250D01*
X494732Y216192D01*
X494647Y216142D01*
X494571Y216076D01*
X494555Y216064D01*
X494547Y216054D01*
X494526Y216036D01*
X493386Y214896D01*
X492752Y214261D01*
X492691Y214183D01*
X492623Y214111D01*
X492594Y214058D01*
X492557Y214010D01*
X492517Y213919D01*
X492469Y213832D01*
X492454Y213774D01*
X492430Y213718D01*
X492415Y213620D01*
X492390Y213524D01*
X492384Y213424D01*
X492380Y213404D01*
X492382Y213392D01*
X492380Y213364D01*
X492380Y174666D01*
X492392Y174568D01*
X492395Y174469D01*
X492412Y174411D01*
X492420Y174351D01*
X492456Y174259D01*
X492484Y174164D01*
X492514Y174111D01*
X492537Y174055D01*
X492595Y173975D01*
X492645Y173890D01*
X492711Y173814D01*
X492723Y173798D01*
X492733Y173790D01*
X492751Y173769D01*
X493650Y172871D01*
X493650Y144629D01*
X492751Y143731D01*
X492691Y143653D01*
X492623Y143581D01*
X492594Y143528D01*
X492557Y143480D01*
X492517Y143389D01*
X492469Y143302D01*
X492454Y143244D01*
X492430Y143188D01*
X492415Y143090D01*
X492390Y142994D01*
X492384Y142894D01*
X492380Y142874D01*
X492382Y142862D01*
X492380Y142834D01*
X492380Y108325D01*
X491115Y107060D01*
X467592Y107060D01*
X467537Y107089D01*
X467497Y107097D01*
X467460Y107113D01*
X467343Y107132D01*
X467226Y107158D01*
X467186Y107157D01*
X467146Y107163D01*
X467028Y107152D01*
X466909Y107149D01*
X466870Y107137D01*
X466830Y107134D01*
X466718Y107093D01*
X466604Y107060D01*
X460629Y107060D01*
X460511Y107045D01*
X460392Y107038D01*
X460354Y107025D01*
X460313Y107020D01*
X460203Y106977D01*
X460090Y106940D01*
X460055Y106918D01*
X460018Y106903D01*
X459922Y106834D01*
X459821Y106770D01*
X459793Y106740D01*
X459760Y106717D01*
X459684Y106625D01*
X459603Y106538D01*
X459583Y106503D01*
X459558Y106472D01*
X459507Y106364D01*
X459449Y106260D01*
X459439Y106220D01*
X459422Y106184D01*
X459400Y106067D01*
X459370Y105952D01*
X459366Y105892D01*
X459362Y105872D01*
X459364Y105851D01*
X459360Y105791D01*
X459360Y96895D01*
X457826Y95362D01*
X457766Y95284D01*
X457698Y95212D01*
X457669Y95159D01*
X457632Y95111D01*
X457592Y95020D01*
X457544Y94933D01*
X457529Y94875D01*
X457505Y94819D01*
X457490Y94721D01*
X457465Y94625D01*
X457459Y94525D01*
X457455Y94505D01*
X457457Y94493D01*
X457455Y94465D01*
X457455Y53452D01*
X455818Y51815D01*
X28052Y51815D01*
X26415Y53452D01*
X26415Y112918D01*
X28052Y114555D01*
X98948Y114555D01*
X100585Y112918D01*
X100585Y98044D01*
X100600Y97926D01*
X100607Y97807D01*
X100620Y97769D01*
X100625Y97728D01*
X100668Y97618D01*
X100705Y97505D01*
X100727Y97470D01*
X100742Y97433D01*
X100811Y97337D01*
X100875Y97236D01*
X100905Y97208D01*
X100928Y97175D01*
X101020Y97099D01*
X101107Y97018D01*
X101142Y96998D01*
X101173Y96973D01*
X101281Y96922D01*
X101385Y96864D01*
X101425Y96854D01*
X101461Y96837D01*
X101578Y96815D01*
X101693Y96785D01*
X101753Y96781D01*
X101773Y96777D01*
X101794Y96779D01*
X101854Y96775D01*
X380111Y96775D01*
X380229Y96790D01*
X380348Y96797D01*
X380386Y96810D01*
X380427Y96815D01*
X380537Y96858D01*
X380650Y96895D01*
X380685Y96917D01*
X380722Y96932D01*
X380818Y97001D01*
X380919Y97065D01*
X380947Y97095D01*
X380980Y97118D01*
X381056Y97210D01*
X381137Y97297D01*
X381157Y97332D01*
X381182Y97363D01*
X381233Y97471D01*
X381291Y97575D01*
X381301Y97615D01*
X381318Y97651D01*
X381340Y97768D01*
X381370Y97883D01*
X381374Y97943D01*
X381378Y97963D01*
X381376Y97984D01*
X381380Y98044D01*
X381380Y102196D01*
X381365Y102314D01*
X381358Y102433D01*
X381345Y102471D01*
X381340Y102512D01*
X381297Y102622D01*
X381260Y102735D01*
X381238Y102770D01*
X381223Y102807D01*
X381154Y102903D01*
X381090Y103004D01*
X381060Y103032D01*
X381037Y103065D01*
X380945Y103141D01*
X380858Y103222D01*
X380823Y103242D01*
X380792Y103267D01*
X380684Y103318D01*
X380580Y103376D01*
X380540Y103386D01*
X380504Y103403D01*
X380387Y103425D01*
X380272Y103455D01*
X380212Y103459D01*
X380192Y103463D01*
X380171Y103461D01*
X380111Y103465D01*
X377518Y103465D01*
X376625Y104358D01*
X376625Y116622D01*
X377518Y117515D01*
X381905Y117515D01*
X382003Y117527D01*
X382102Y117530D01*
X382160Y117547D01*
X382220Y117555D01*
X382312Y117591D01*
X382408Y117619D01*
X382460Y117649D01*
X382516Y117672D01*
X382596Y117730D01*
X423291Y117730D01*
X423409Y117745D01*
X423528Y117752D01*
X423566Y117765D01*
X423607Y117770D01*
X423717Y117813D01*
X423830Y117850D01*
X423865Y117872D01*
X423902Y117887D01*
X423998Y117956D01*
X424099Y118020D01*
X424127Y118050D01*
X424160Y118073D01*
X424236Y118165D01*
X424317Y118252D01*
X424337Y118287D01*
X424362Y118318D01*
X424413Y118426D01*
X424471Y118530D01*
X424481Y118570D01*
X424498Y118606D01*
X424520Y118723D01*
X424550Y118838D01*
X424554Y118898D01*
X424558Y118918D01*
X424556Y118939D01*
X424560Y118999D01*
X424560Y148209D01*
X424545Y148327D01*
X424538Y148446D01*
X424525Y148484D01*
X424520Y148525D01*
X424477Y148635D01*
X424440Y148748D01*
X424418Y148783D01*
X424403Y148820D01*
X424334Y148916D01*
X424270Y149017D01*
X424240Y149045D01*
X424217Y149078D01*
X424125Y149154D01*
X424038Y149235D01*
X424003Y149255D01*
X423972Y149280D01*
X423864Y149331D01*
X423760Y149389D01*
X423720Y149399D01*
X423684Y149416D01*
X423567Y149438D01*
X423452Y149468D01*
X423392Y149472D01*
X423372Y149476D01*
X423351Y149474D01*
X423291Y149478D01*
X407240Y149478D01*
X406272Y150446D01*
X406272Y151444D01*
X406260Y151542D01*
X406257Y151641D01*
X406240Y151700D01*
X406232Y151760D01*
X406196Y151852D01*
X406168Y151947D01*
X406138Y151999D01*
X406115Y152055D01*
X406057Y152135D01*
X406007Y152221D01*
X405941Y152296D01*
X405929Y152313D01*
X405919Y152320D01*
X405901Y152342D01*
X402659Y155584D01*
X402580Y155644D01*
X402508Y155712D01*
X402455Y155741D01*
X402407Y155778D01*
X402316Y155818D01*
X402230Y155866D01*
X402171Y155881D01*
X402115Y155905D01*
X402018Y155920D01*
X401922Y155945D01*
X401822Y155951D01*
X401801Y155955D01*
X401789Y155953D01*
X401761Y155955D01*
X397256Y155955D01*
X397138Y155940D01*
X397019Y155933D01*
X396981Y155920D01*
X396940Y155915D01*
X396830Y155872D01*
X396717Y155835D01*
X396682Y155813D01*
X396645Y155798D01*
X396549Y155729D01*
X396448Y155665D01*
X396420Y155635D01*
X396387Y155612D01*
X396311Y155520D01*
X396230Y155433D01*
X396210Y155398D01*
X396185Y155367D01*
X396134Y155259D01*
X396076Y155155D01*
X396066Y155115D01*
X396049Y155079D01*
X396027Y154962D01*
X395997Y154847D01*
X395993Y154786D01*
X395989Y154767D01*
X395991Y154746D01*
X395987Y154686D01*
X395987Y153113D01*
X394130Y151256D01*
X393894Y151256D01*
X393796Y151244D01*
X393697Y151241D01*
X393638Y151224D01*
X393578Y151216D01*
X393486Y151180D01*
X393391Y151152D01*
X393339Y151122D01*
X393283Y151099D01*
X393203Y151041D01*
X393117Y150991D01*
X393042Y150925D01*
X393025Y150913D01*
X393018Y150903D01*
X392996Y150885D01*
X390701Y148589D01*
X384115Y148589D01*
X384017Y148577D01*
X383918Y148574D01*
X383859Y148557D01*
X383799Y148549D01*
X383707Y148513D01*
X383612Y148485D01*
X383573Y148462D01*
X378809Y148462D01*
X378691Y148447D01*
X378572Y148440D01*
X378534Y148427D01*
X378493Y148422D01*
X378383Y148379D01*
X378270Y148342D01*
X378235Y148320D01*
X378198Y148305D01*
X378102Y148236D01*
X378001Y148172D01*
X377973Y148142D01*
X377940Y148119D01*
X377864Y148027D01*
X377783Y147940D01*
X377763Y147905D01*
X377738Y147874D01*
X377687Y147766D01*
X377629Y147662D01*
X377619Y147622D01*
X377602Y147586D01*
X377580Y147469D01*
X377550Y147354D01*
X377546Y147294D01*
X377542Y147274D01*
X377544Y147253D01*
X377540Y147193D01*
X377540Y145910D01*
X377555Y145792D01*
X377562Y145673D01*
X377575Y145635D01*
X377580Y145594D01*
X377623Y145484D01*
X377660Y145371D01*
X377682Y145336D01*
X377697Y145299D01*
X377766Y145203D01*
X377830Y145102D01*
X377860Y145074D01*
X377883Y145041D01*
X377975Y144965D01*
X378062Y144884D01*
X378097Y144864D01*
X378128Y144839D01*
X378236Y144788D01*
X378340Y144730D01*
X378380Y144720D01*
X378416Y144703D01*
X378533Y144681D01*
X378648Y144651D01*
X378708Y144647D01*
X378728Y144643D01*
X378749Y144645D01*
X378809Y144641D01*
X379552Y144641D01*
X380445Y143748D01*
X380445Y137484D01*
X379552Y136591D01*
X372288Y136591D01*
X371145Y137735D01*
X371067Y137795D01*
X370995Y137863D01*
X370942Y137892D01*
X370894Y137929D01*
X370803Y137969D01*
X370716Y138017D01*
X370658Y138032D01*
X370602Y138056D01*
X370504Y138071D01*
X370408Y138096D01*
X370308Y138102D01*
X370288Y138106D01*
X370276Y138104D01*
X370248Y138106D01*
X357166Y138106D01*
X349214Y146059D01*
X349136Y146119D01*
X349064Y146187D01*
X349011Y146216D01*
X348963Y146253D01*
X348872Y146293D01*
X348785Y146341D01*
X348727Y146356D01*
X348671Y146380D01*
X348573Y146395D01*
X348477Y146420D01*
X348377Y146426D01*
X348357Y146430D01*
X348345Y146428D01*
X348317Y146430D01*
X344804Y146430D01*
X344686Y146415D01*
X344567Y146408D01*
X344529Y146395D01*
X344488Y146390D01*
X344378Y146347D01*
X344265Y146310D01*
X344230Y146288D01*
X344193Y146273D01*
X344097Y146204D01*
X343996Y146140D01*
X343968Y146110D01*
X343935Y146087D01*
X343859Y145995D01*
X343778Y145908D01*
X343758Y145873D01*
X343733Y145842D01*
X343682Y145734D01*
X343624Y145630D01*
X343614Y145590D01*
X343597Y145554D01*
X343575Y145437D01*
X343545Y145322D01*
X343541Y145262D01*
X343537Y145242D01*
X343539Y145221D01*
X343535Y145161D01*
X343535Y144458D01*
X342499Y143423D01*
X342463Y143408D01*
X342367Y143339D01*
X342266Y143275D01*
X342238Y143245D01*
X342205Y143222D01*
X342129Y143130D01*
X342048Y143043D01*
X342028Y143008D01*
X342003Y142977D01*
X341952Y142869D01*
X341894Y142765D01*
X341884Y142725D01*
X341867Y142689D01*
X341845Y142572D01*
X341815Y142457D01*
X341811Y142397D01*
X341807Y142377D01*
X341809Y142356D01*
X341805Y142296D01*
X341805Y137794D01*
X341820Y137676D01*
X341827Y137557D01*
X341840Y137519D01*
X341845Y137478D01*
X341888Y137368D01*
X341925Y137255D01*
X341947Y137220D01*
X341962Y137183D01*
X342031Y137087D01*
X342095Y136986D01*
X342125Y136958D01*
X342148Y136925D01*
X342240Y136849D01*
X342327Y136768D01*
X342362Y136748D01*
X342393Y136723D01*
X342501Y136672D01*
X342605Y136614D01*
X342645Y136604D01*
X342681Y136587D01*
X342798Y136565D01*
X342913Y136535D01*
X342973Y136531D01*
X342993Y136527D01*
X343014Y136529D01*
X343074Y136525D01*
X343222Y136525D01*
X344115Y135632D01*
X344115Y128368D01*
X343222Y127475D01*
X334958Y127475D01*
X334065Y128368D01*
X334065Y135632D01*
X334960Y136527D01*
X335064Y136540D01*
X335183Y136547D01*
X335221Y136560D01*
X335262Y136565D01*
X335372Y136608D01*
X335485Y136645D01*
X335520Y136667D01*
X335557Y136682D01*
X335653Y136751D01*
X335754Y136815D01*
X335782Y136845D01*
X335815Y136868D01*
X335891Y136960D01*
X335972Y137047D01*
X335992Y137082D01*
X336017Y137113D01*
X336068Y137221D01*
X336126Y137325D01*
X336136Y137365D01*
X336153Y137401D01*
X336175Y137518D01*
X336205Y137633D01*
X336209Y137693D01*
X336213Y137713D01*
X336211Y137734D01*
X336215Y137794D01*
X336215Y142296D01*
X336200Y142414D01*
X336193Y142533D01*
X336180Y142571D01*
X336175Y142612D01*
X336132Y142722D01*
X336095Y142835D01*
X336073Y142870D01*
X336058Y142907D01*
X335989Y143003D01*
X335925Y143104D01*
X335895Y143132D01*
X335872Y143165D01*
X335780Y143241D01*
X335693Y143322D01*
X335658Y143342D01*
X335627Y143367D01*
X335532Y143412D01*
X334907Y144036D01*
X334813Y144109D01*
X334724Y144188D01*
X334688Y144206D01*
X334656Y144231D01*
X334547Y144279D01*
X334441Y144333D01*
X334402Y144341D01*
X334364Y144357D01*
X334247Y144376D01*
X334131Y144402D01*
X334090Y144401D01*
X334050Y144407D01*
X333932Y144396D01*
X333813Y144393D01*
X333774Y144381D01*
X333734Y144378D01*
X333622Y144337D01*
X333507Y144304D01*
X333472Y144284D01*
X333434Y144270D01*
X333336Y144203D01*
X333233Y144143D01*
X333188Y144103D01*
X333171Y144091D01*
X333158Y144076D01*
X333112Y144036D01*
X332642Y143565D01*
X325378Y143565D01*
X324485Y144458D01*
X324485Y144526D01*
X324470Y144644D01*
X324463Y144763D01*
X324450Y144801D01*
X324445Y144842D01*
X324402Y144952D01*
X324365Y145065D01*
X324343Y145100D01*
X324328Y145137D01*
X324259Y145233D01*
X324195Y145334D01*
X324165Y145362D01*
X324142Y145395D01*
X324050Y145471D01*
X323963Y145552D01*
X323928Y145572D01*
X323897Y145597D01*
X323789Y145648D01*
X323685Y145706D01*
X323645Y145716D01*
X323609Y145733D01*
X323492Y145755D01*
X323377Y145785D01*
X323317Y145789D01*
X323297Y145793D01*
X323276Y145791D01*
X323216Y145795D01*
X306182Y145795D01*
X301370Y150607D01*
X301370Y152417D01*
X301355Y152535D01*
X301348Y152653D01*
X301335Y152692D01*
X301330Y152732D01*
X301287Y152843D01*
X301250Y152956D01*
X301228Y152990D01*
X301213Y153028D01*
X301144Y153124D01*
X301080Y153225D01*
X301050Y153252D01*
X301027Y153285D01*
X300935Y153361D01*
X300848Y153443D01*
X300813Y153462D01*
X300782Y153488D01*
X300674Y153539D01*
X300570Y153596D01*
X300530Y153606D01*
X300494Y153623D01*
X300377Y153646D01*
X300262Y153676D01*
X300202Y153679D01*
X300182Y153683D01*
X300161Y153682D01*
X300101Y153686D01*
X299339Y153686D01*
X299221Y153671D01*
X299102Y153663D01*
X299064Y153651D01*
X299023Y153646D01*
X298913Y153602D01*
X298800Y153565D01*
X298765Y153544D01*
X298728Y153529D01*
X298632Y153459D01*
X298531Y153395D01*
X298503Y153366D01*
X298470Y153342D01*
X298394Y153250D01*
X298313Y153164D01*
X298293Y153128D01*
X298268Y153097D01*
X298217Y152989D01*
X298159Y152885D01*
X298149Y152846D01*
X298132Y152809D01*
X298110Y152693D01*
X298080Y152577D01*
X298076Y152517D01*
X298072Y152497D01*
X298074Y152477D01*
X298070Y152417D01*
X298070Y151614D01*
X296376Y149921D01*
X296323Y149853D01*
X296263Y149791D01*
X296230Y149735D01*
X295209Y148753D01*
X295204Y148747D01*
X295191Y148735D01*
X294378Y147922D01*
X293228Y147945D01*
X293220Y147944D01*
X293203Y147945D01*
X291782Y147945D01*
X291712Y147965D01*
X291579Y147976D01*
X291567Y147978D01*
X291562Y147977D01*
X291552Y147978D01*
X288889Y148031D01*
X288758Y148017D01*
X288627Y148009D01*
X288601Y148001D01*
X288573Y147998D01*
X288449Y147952D01*
X288325Y147911D01*
X288301Y147896D01*
X288275Y147887D01*
X288167Y147811D01*
X288056Y147741D01*
X288037Y147721D01*
X288014Y147705D01*
X287928Y147605D01*
X287838Y147509D01*
X287824Y147485D01*
X287806Y147464D01*
X287748Y147346D01*
X287684Y147231D01*
X287677Y147204D01*
X287665Y147179D01*
X287638Y147050D01*
X287605Y146923D01*
X287602Y146884D01*
X287599Y146868D01*
X287600Y146846D01*
X287595Y146762D01*
X287595Y145108D01*
X286702Y144215D01*
X274638Y144215D01*
X274091Y144763D01*
X273997Y144836D01*
X273907Y144915D01*
X273871Y144933D01*
X273839Y144958D01*
X273730Y145005D01*
X273624Y145060D01*
X273585Y145068D01*
X273547Y145084D01*
X273430Y145103D01*
X273314Y145129D01*
X273273Y145128D01*
X273233Y145134D01*
X273115Y145123D01*
X272996Y145120D01*
X272957Y145108D01*
X272917Y145105D01*
X272805Y145064D01*
X272690Y145031D01*
X272656Y145011D01*
X272617Y144997D01*
X272519Y144930D01*
X272416Y144870D01*
X272371Y144830D01*
X272354Y144818D01*
X272341Y144803D01*
X272296Y144763D01*
X270788Y143255D01*
X270294Y143255D01*
X270176Y143240D01*
X270057Y143233D01*
X270019Y143220D01*
X269978Y143215D01*
X269868Y143172D01*
X269755Y143135D01*
X269720Y143113D01*
X269683Y143098D01*
X269587Y143029D01*
X269486Y142965D01*
X269458Y142935D01*
X269425Y142912D01*
X269349Y142820D01*
X269268Y142733D01*
X269248Y142698D01*
X269223Y142667D01*
X269172Y142559D01*
X269114Y142455D01*
X269104Y142415D01*
X269087Y142379D01*
X269065Y142262D01*
X269035Y142147D01*
X269031Y142087D01*
X269027Y142067D01*
X269029Y142046D01*
X269025Y141986D01*
X269025Y139918D01*
X268132Y139025D01*
X256868Y139025D01*
X255975Y139918D01*
X255975Y152182D01*
X256868Y153075D01*
X268132Y153075D01*
X269067Y152139D01*
X269116Y152017D01*
X269163Y151886D01*
X269174Y151869D01*
X269182Y151850D01*
X269263Y151738D01*
X269341Y151623D01*
X269357Y151609D01*
X269368Y151593D01*
X269476Y151504D01*
X269580Y151412D01*
X269598Y151403D01*
X269613Y151390D01*
X269739Y151331D01*
X269863Y151267D01*
X269883Y151263D01*
X269901Y151254D01*
X270038Y151228D01*
X270173Y151198D01*
X270194Y151198D01*
X270213Y151195D01*
X270352Y151203D01*
X270491Y151207D01*
X270511Y151213D01*
X270531Y151214D01*
X270663Y151257D01*
X270797Y151296D01*
X270814Y151306D01*
X270833Y151312D01*
X270951Y151387D01*
X271071Y151457D01*
X271092Y151476D01*
X271102Y151483D01*
X271116Y151498D01*
X271191Y151564D01*
X272287Y152660D01*
X272296Y152671D01*
X272322Y152695D01*
X273408Y153871D01*
X273451Y153931D01*
X273502Y153985D01*
X273543Y154060D01*
X273593Y154130D01*
X273620Y154199D01*
X273656Y154264D01*
X273677Y154346D01*
X273708Y154426D01*
X273717Y154500D01*
X273735Y154572D01*
X273745Y154732D01*
X273745Y156872D01*
X274638Y157765D01*
X286702Y157765D01*
X287964Y156502D01*
X288074Y156417D01*
X288181Y156328D01*
X288199Y156320D01*
X288215Y156307D01*
X288343Y156252D01*
X288469Y156193D01*
X288488Y156189D01*
X288507Y156181D01*
X288645Y156159D01*
X288781Y156133D01*
X288801Y156134D01*
X288821Y156131D01*
X288960Y156144D01*
X289098Y156153D01*
X289118Y156159D01*
X289138Y156161D01*
X289269Y156208D01*
X289401Y156251D01*
X289418Y156262D01*
X289437Y156269D01*
X289552Y156347D01*
X289670Y156421D01*
X289684Y156436D01*
X289700Y156447D01*
X289792Y156551D01*
X289888Y156653D01*
X289897Y156670D01*
X289911Y156686D01*
X289974Y156810D01*
X290041Y156931D01*
X290046Y156951D01*
X290055Y156969D01*
X290086Y157105D01*
X290121Y157239D01*
X290122Y157267D01*
X290125Y157279D01*
X290124Y157300D01*
X290131Y157400D01*
X290131Y158001D01*
X291024Y158894D01*
X293401Y158894D01*
X293500Y158907D01*
X293599Y158910D01*
X293657Y158926D01*
X293717Y158934D01*
X293809Y158971D01*
X293904Y158998D01*
X293956Y159029D01*
X294012Y159051D01*
X294059Y159085D01*
X296485Y159085D01*
X296503Y159071D01*
X296593Y159032D01*
X296680Y158984D01*
X296739Y158969D01*
X296794Y158945D01*
X296892Y158929D01*
X296988Y158904D01*
X297088Y158898D01*
X297108Y158895D01*
X297121Y158896D01*
X297149Y158894D01*
X297752Y158894D01*
X297870Y158909D01*
X297988Y158917D01*
X298027Y158929D01*
X298067Y158934D01*
X298178Y158978D01*
X298291Y159015D01*
X298325Y159036D01*
X298363Y159051D01*
X298459Y159121D01*
X298560Y159185D01*
X298587Y159214D01*
X298620Y159238D01*
X298696Y159330D01*
X298778Y159416D01*
X298797Y159452D01*
X298823Y159483D01*
X298874Y159591D01*
X298931Y159695D01*
X298941Y159734D01*
X298958Y159771D01*
X298981Y159887D01*
X299011Y160003D01*
X299014Y160063D01*
X299018Y160083D01*
X299017Y160103D01*
X299021Y160163D01*
X299021Y162417D01*
X299006Y162535D01*
X298998Y162653D01*
X298986Y162692D01*
X298981Y162732D01*
X298937Y162843D01*
X298900Y162956D01*
X298879Y162990D01*
X298864Y163028D01*
X298794Y163124D01*
X298730Y163225D01*
X298701Y163252D01*
X298677Y163285D01*
X298585Y163361D01*
X298499Y163443D01*
X298463Y163462D01*
X298432Y163488D01*
X298324Y163539D01*
X298220Y163596D01*
X298181Y163606D01*
X298144Y163623D01*
X298028Y163646D01*
X297912Y163676D01*
X297852Y163679D01*
X297832Y163683D01*
X297812Y163682D01*
X297752Y163686D01*
X297149Y163686D01*
X297050Y163673D01*
X296951Y163670D01*
X296893Y163654D01*
X296833Y163646D01*
X296741Y163609D01*
X296646Y163582D01*
X296594Y163551D01*
X296538Y163529D01*
X296491Y163495D01*
X294065Y163495D01*
X294047Y163509D01*
X293957Y163548D01*
X293870Y163596D01*
X293811Y163611D01*
X293756Y163635D01*
X293658Y163651D01*
X293562Y163676D01*
X293462Y163682D01*
X293442Y163685D01*
X293429Y163684D01*
X293401Y163686D01*
X291024Y163686D01*
X290131Y164579D01*
X290131Y165180D01*
X290113Y165318D01*
X290100Y165457D01*
X290093Y165476D01*
X290091Y165496D01*
X290040Y165625D01*
X289993Y165756D01*
X289981Y165773D01*
X289974Y165791D01*
X289892Y165904D01*
X289814Y166019D01*
X289799Y166032D01*
X289787Y166049D01*
X289680Y166138D01*
X289576Y166229D01*
X289558Y166239D01*
X289542Y166252D01*
X289416Y166311D01*
X289292Y166374D01*
X289273Y166379D01*
X289254Y166387D01*
X289118Y166413D01*
X288982Y166444D01*
X288962Y166443D01*
X288942Y166447D01*
X288804Y166438D01*
X288664Y166434D01*
X288645Y166428D01*
X288625Y166427D01*
X288493Y166384D01*
X288359Y166346D01*
X288341Y166335D01*
X288322Y166329D01*
X288204Y166255D01*
X288085Y166184D01*
X288064Y166166D01*
X288053Y166159D01*
X288039Y166144D01*
X287964Y166078D01*
X286702Y164815D01*
X274638Y164815D01*
X273745Y165708D01*
X273745Y167641D01*
X273731Y167750D01*
X273726Y167860D01*
X273712Y167907D01*
X273705Y167956D01*
X273665Y168059D01*
X273632Y168164D01*
X273607Y168206D01*
X273588Y168252D01*
X273524Y168341D01*
X273466Y168435D01*
X273431Y168469D01*
X273402Y168509D01*
X273316Y168580D01*
X273237Y168656D01*
X273195Y168681D01*
X273157Y168712D01*
X273057Y168759D01*
X272961Y168814D01*
X272913Y168827D01*
X272869Y168848D01*
X272761Y168868D01*
X272654Y168897D01*
X272578Y168903D01*
X272557Y168908D01*
X272539Y168906D01*
X272494Y168910D01*
X262879Y169045D01*
X262873Y169044D01*
X262861Y169045D01*
X261709Y169045D01*
X260906Y169871D01*
X260901Y169875D01*
X260893Y169884D01*
X257414Y173364D01*
X257336Y173424D01*
X257264Y173492D01*
X257211Y173521D01*
X257163Y173558D01*
X257072Y173598D01*
X256985Y173646D01*
X256927Y173661D01*
X256871Y173685D01*
X256773Y173700D01*
X256677Y173725D01*
X256577Y173731D01*
X256557Y173735D01*
X256545Y173733D01*
X256517Y173735D01*
X251244Y173735D01*
X251126Y173720D01*
X251007Y173713D01*
X250969Y173700D01*
X250928Y173695D01*
X250818Y173652D01*
X250705Y173615D01*
X250670Y173593D01*
X250633Y173578D01*
X250537Y173509D01*
X250436Y173445D01*
X250408Y173415D01*
X250375Y173392D01*
X250299Y173300D01*
X250218Y173213D01*
X250198Y173178D01*
X250173Y173147D01*
X250122Y173039D01*
X250064Y172935D01*
X250054Y172895D01*
X250037Y172859D01*
X250015Y172742D01*
X249985Y172627D01*
X249981Y172567D01*
X249977Y172547D01*
X249979Y172526D01*
X249975Y172466D01*
X249975Y170398D01*
X249082Y169505D01*
X237818Y169505D01*
X236925Y170398D01*
X236925Y182662D01*
X237818Y183555D01*
X249082Y183555D01*
X249975Y182662D01*
X249975Y180594D01*
X249990Y180476D01*
X249997Y180357D01*
X250010Y180319D01*
X250015Y180278D01*
X250058Y180168D01*
X250095Y180055D01*
X250117Y180020D01*
X250132Y179983D01*
X250201Y179887D01*
X250265Y179786D01*
X250295Y179758D01*
X250318Y179725D01*
X250410Y179649D01*
X250497Y179568D01*
X250532Y179548D01*
X250563Y179523D01*
X250671Y179472D01*
X250775Y179414D01*
X250815Y179404D01*
X250851Y179387D01*
X250968Y179365D01*
X251083Y179335D01*
X251143Y179331D01*
X251163Y179327D01*
X251184Y179329D01*
X251244Y179325D01*
X259358Y179325D01*
X261366Y177316D01*
X263699Y174983D01*
X263771Y174927D01*
X263835Y174865D01*
X263896Y174831D01*
X263951Y174788D01*
X264034Y174752D01*
X264112Y174707D01*
X264179Y174689D01*
X264243Y174662D01*
X264332Y174647D01*
X264419Y174624D01*
X264541Y174614D01*
X264557Y174612D01*
X264564Y174612D01*
X264579Y174611D01*
X272458Y174500D01*
X272585Y174515D01*
X272713Y174523D01*
X272743Y174532D01*
X272774Y174536D01*
X272894Y174581D01*
X273015Y174621D01*
X273042Y174637D01*
X273072Y174649D01*
X273176Y174722D01*
X273284Y174791D01*
X273306Y174814D01*
X273331Y174832D01*
X273414Y174929D01*
X273502Y175022D01*
X273517Y175050D01*
X273538Y175074D01*
X273594Y175189D01*
X273656Y175301D01*
X273663Y175331D01*
X273677Y175360D01*
X273703Y175485D01*
X273735Y175609D01*
X273738Y175654D01*
X273741Y175671D01*
X273740Y175693D01*
X273745Y175770D01*
X273745Y177472D01*
X274638Y178365D01*
X286702Y178365D01*
X287595Y177472D01*
X287595Y175828D01*
X287611Y175697D01*
X287622Y175565D01*
X287631Y175540D01*
X287635Y175513D01*
X287683Y175390D01*
X287727Y175265D01*
X287742Y175242D01*
X287752Y175217D01*
X287829Y175110D01*
X287903Y175000D01*
X287923Y174982D01*
X287938Y174960D01*
X288041Y174875D01*
X288139Y174787D01*
X288163Y174774D01*
X288183Y174757D01*
X288303Y174700D01*
X288420Y174639D01*
X288447Y174633D01*
X288471Y174621D01*
X288601Y174597D01*
X288730Y174566D01*
X288768Y174565D01*
X288783Y174562D01*
X288805Y174563D01*
X288891Y174559D01*
X290789Y174600D01*
X290874Y174612D01*
X290960Y174615D01*
X291029Y174635D01*
X292438Y174635D01*
X292446Y174636D01*
X292465Y174635D01*
X293614Y174659D01*
X294427Y173847D01*
X294433Y173842D01*
X294446Y173828D01*
X295465Y172851D01*
X295506Y172782D01*
X295595Y172680D01*
X295602Y172671D01*
X295606Y172669D01*
X295612Y172661D01*
X298070Y170204D01*
X298070Y170163D01*
X298085Y170045D01*
X298092Y169927D01*
X298105Y169888D01*
X298110Y169848D01*
X298153Y169737D01*
X298190Y169624D01*
X298212Y169590D01*
X298227Y169552D01*
X298296Y169456D01*
X298360Y169355D01*
X298390Y169328D01*
X298413Y169295D01*
X298505Y169219D01*
X298592Y169137D01*
X298627Y169118D01*
X298658Y169092D01*
X298766Y169041D01*
X298870Y168984D01*
X298910Y168974D01*
X298946Y168957D01*
X299063Y168934D01*
X299178Y168904D01*
X299238Y168901D01*
X299258Y168897D01*
X299279Y168898D01*
X299339Y168894D01*
X300101Y168894D01*
X300219Y168909D01*
X300338Y168917D01*
X300376Y168929D01*
X300417Y168934D01*
X300527Y168978D01*
X300640Y169015D01*
X300675Y169036D01*
X300712Y169051D01*
X300808Y169121D01*
X300909Y169185D01*
X300937Y169214D01*
X300970Y169238D01*
X301046Y169330D01*
X301127Y169416D01*
X301147Y169452D01*
X301172Y169483D01*
X301223Y169591D01*
X301281Y169695D01*
X301291Y169734D01*
X301308Y169771D01*
X301330Y169887D01*
X301360Y170003D01*
X301364Y170063D01*
X301368Y170083D01*
X301366Y170103D01*
X301370Y170163D01*
X301370Y171973D01*
X306182Y176785D01*
X323216Y176785D01*
X323334Y176800D01*
X323453Y176807D01*
X323491Y176820D01*
X323532Y176825D01*
X323642Y176868D01*
X323755Y176905D01*
X323790Y176927D01*
X323827Y176942D01*
X323923Y177011D01*
X324024Y177075D01*
X324052Y177105D01*
X324085Y177128D01*
X324161Y177220D01*
X324242Y177307D01*
X324262Y177342D01*
X324287Y177373D01*
X324338Y177481D01*
X324396Y177585D01*
X324406Y177625D01*
X324423Y177661D01*
X324445Y177778D01*
X324475Y177893D01*
X324479Y177953D01*
X324483Y177973D01*
X324481Y177994D01*
X324485Y178054D01*
X324485Y178390D01*
X324498Y178472D01*
X324524Y178609D01*
X324523Y178628D01*
X324526Y178648D01*
X324513Y178787D01*
X324505Y178926D01*
X324499Y178945D01*
X324497Y178965D01*
X324449Y179096D01*
X324407Y179228D01*
X324396Y179245D01*
X324389Y179264D01*
X324311Y179380D01*
X324236Y179497D01*
X324222Y179511D01*
X324211Y179527D01*
X324106Y179620D01*
X324005Y179715D01*
X323987Y179725D01*
X323972Y179738D01*
X323848Y179801D01*
X323726Y179869D01*
X323707Y179874D01*
X323689Y179883D01*
X323553Y179913D01*
X323418Y179948D01*
X323391Y179950D01*
X323379Y179952D01*
X323358Y179952D01*
X323258Y179958D01*
X301365Y179958D01*
X300100Y181223D01*
X300100Y192665D01*
X301669Y194233D01*
X301742Y194328D01*
X301821Y194417D01*
X301839Y194453D01*
X301864Y194485D01*
X301911Y194594D01*
X301966Y194700D01*
X301974Y194739D01*
X301990Y194777D01*
X302009Y194894D01*
X302035Y195010D01*
X302034Y195051D01*
X302040Y195091D01*
X302029Y195209D01*
X302026Y195328D01*
X302014Y195367D01*
X302011Y195407D01*
X301970Y195520D01*
X301937Y195634D01*
X301917Y195668D01*
X301903Y195707D01*
X301836Y195805D01*
X301776Y195908D01*
X301736Y195953D01*
X301724Y195970D01*
X301709Y195983D01*
X301669Y196028D01*
X295124Y202574D01*
X295046Y202634D01*
X294974Y202702D01*
X294921Y202731D01*
X294873Y202768D01*
X294782Y202808D01*
X294695Y202856D01*
X294637Y202871D01*
X294581Y202895D01*
X294483Y202910D01*
X294387Y202935D01*
X294287Y202941D01*
X294267Y202945D01*
X294255Y202943D01*
X294227Y202945D01*
X261732Y202945D01*
X254484Y210194D01*
X254406Y210254D01*
X254334Y210322D01*
X254281Y210351D01*
X254233Y210388D01*
X254142Y210428D01*
X254055Y210476D01*
X253997Y210491D01*
X253941Y210515D01*
X253843Y210530D01*
X253747Y210555D01*
X253647Y210561D01*
X253627Y210565D01*
X253615Y210563D01*
X253587Y210565D01*
X239014Y210565D01*
X238896Y210550D01*
X238777Y210543D01*
X238739Y210530D01*
X238698Y210525D01*
X238588Y210482D01*
X238475Y210445D01*
X238440Y210423D01*
X238403Y210408D01*
X238307Y210339D01*
X238206Y210275D01*
X238178Y210245D01*
X238145Y210222D01*
X238069Y210130D01*
X237988Y210043D01*
X237968Y210008D01*
X237943Y209977D01*
X237892Y209869D01*
X237834Y209765D01*
X237824Y209725D01*
X237807Y209689D01*
X237785Y209572D01*
X237755Y209457D01*
X237751Y209397D01*
X237747Y209377D01*
X237749Y209356D01*
X237745Y209296D01*
X237745Y200772D01*
X236108Y199135D01*
X214488Y199135D01*
X213241Y200382D01*
X213132Y200467D01*
X213025Y200556D01*
X213006Y200565D01*
X212990Y200577D01*
X212862Y200633D01*
X212737Y200692D01*
X212717Y200695D01*
X212698Y200703D01*
X212560Y200725D01*
X212424Y200751D01*
X212404Y200750D01*
X212384Y200753D01*
X212245Y200740D01*
X212107Y200732D01*
X212088Y200725D01*
X212068Y200724D01*
X211936Y200676D01*
X211805Y200634D01*
X211787Y200623D01*
X211768Y200616D01*
X211653Y200538D01*
X211536Y200463D01*
X211522Y200449D01*
X211505Y200437D01*
X211413Y200333D01*
X211318Y200232D01*
X211308Y200214D01*
X211295Y200199D01*
X211231Y200075D01*
X211164Y199953D01*
X211159Y199934D01*
X211150Y199916D01*
X211120Y199780D01*
X211085Y199645D01*
X211083Y199617D01*
X211080Y199605D01*
X211081Y199585D01*
X211075Y199485D01*
X211075Y186802D01*
X209438Y185165D01*
X208473Y185165D01*
X208335Y185148D01*
X208197Y185135D01*
X208177Y185128D01*
X208157Y185125D01*
X208028Y185074D01*
X207897Y185027D01*
X207880Y185016D01*
X207862Y185008D01*
X207749Y184927D01*
X207634Y184849D01*
X207621Y184833D01*
X207604Y184822D01*
X207516Y184714D01*
X207424Y184610D01*
X207414Y184592D01*
X207402Y184577D01*
X207342Y184451D01*
X207279Y184327D01*
X207275Y184307D01*
X207266Y184289D01*
X207240Y184152D01*
X207209Y184017D01*
X207210Y183996D01*
X207206Y183977D01*
X207215Y183838D01*
X207219Y183699D01*
X207225Y183679D01*
X207226Y183659D01*
X207269Y183527D01*
X207307Y183393D01*
X207318Y183376D01*
X207324Y183357D01*
X207399Y183239D01*
X207469Y183119D01*
X207488Y183098D01*
X207494Y183088D01*
X207509Y183074D01*
X207575Y182999D01*
X208995Y181579D01*
X208995Y177831D01*
X208701Y177538D01*
X208616Y177428D01*
X208528Y177321D01*
X208519Y177302D01*
X208506Y177286D01*
X208451Y177158D01*
X208392Y177033D01*
X208388Y177013D01*
X208380Y176994D01*
X208358Y176856D01*
X208332Y176720D01*
X208333Y176700D01*
X208330Y176680D01*
X208343Y176541D01*
X208352Y176403D01*
X208358Y176384D01*
X208360Y176364D01*
X208407Y176233D01*
X208450Y176101D01*
X208461Y176083D01*
X208468Y176064D01*
X208546Y175950D01*
X208620Y175832D01*
X208635Y175818D01*
X208646Y175801D01*
X208750Y175709D01*
X208852Y175614D01*
X208870Y175604D01*
X208885Y175591D01*
X209008Y175528D01*
X209130Y175460D01*
X209150Y175455D01*
X209168Y175446D01*
X209304Y175416D01*
X209438Y175381D01*
X209466Y175379D01*
X209478Y175376D01*
X209499Y175377D01*
X209599Y175371D01*
X210710Y175371D01*
X210808Y175383D01*
X210907Y175386D01*
X210965Y175403D01*
X211025Y175411D01*
X211117Y175447D01*
X211212Y175475D01*
X211265Y175505D01*
X211321Y175528D01*
X211401Y175586D01*
X211486Y175636D01*
X211562Y175702D01*
X211578Y175714D01*
X211586Y175724D01*
X211607Y175742D01*
X215189Y179325D01*
X218656Y179325D01*
X218774Y179340D01*
X218893Y179347D01*
X218931Y179360D01*
X218972Y179365D01*
X219082Y179408D01*
X219195Y179445D01*
X219230Y179467D01*
X219267Y179482D01*
X219363Y179551D01*
X219464Y179615D01*
X219492Y179645D01*
X219525Y179668D01*
X219601Y179760D01*
X219682Y179847D01*
X219702Y179882D01*
X219727Y179913D01*
X219778Y180021D01*
X219836Y180125D01*
X219846Y180165D01*
X219863Y180201D01*
X219885Y180318D01*
X219915Y180433D01*
X219919Y180493D01*
X219923Y180513D01*
X219921Y180534D01*
X219925Y180594D01*
X219925Y182662D01*
X220818Y183555D01*
X232082Y183555D01*
X232975Y182662D01*
X232975Y170398D01*
X232082Y169505D01*
X220818Y169505D01*
X219925Y170398D01*
X219925Y172466D01*
X219910Y172584D01*
X219903Y172703D01*
X219890Y172741D01*
X219885Y172782D01*
X219842Y172892D01*
X219805Y173005D01*
X219783Y173040D01*
X219768Y173077D01*
X219699Y173173D01*
X219635Y173274D01*
X219605Y173302D01*
X219582Y173335D01*
X219490Y173411D01*
X219403Y173492D01*
X219368Y173512D01*
X219337Y173537D01*
X219229Y173588D01*
X219125Y173646D01*
X219085Y173656D01*
X219049Y173673D01*
X218932Y173695D01*
X218817Y173725D01*
X218757Y173729D01*
X218737Y173733D01*
X218716Y173731D01*
X218656Y173735D01*
X218030Y173735D01*
X217932Y173723D01*
X217833Y173720D01*
X217775Y173703D01*
X217715Y173695D01*
X217623Y173659D01*
X217528Y173631D01*
X217475Y173601D01*
X217419Y173578D01*
X217339Y173520D01*
X217254Y173470D01*
X217178Y173404D01*
X217162Y173392D01*
X217154Y173382D01*
X217133Y173364D01*
X213551Y169781D01*
X200088Y169781D01*
X199970Y169766D01*
X199852Y169759D01*
X199813Y169746D01*
X199773Y169741D01*
X199662Y169698D01*
X199549Y169661D01*
X199515Y169639D01*
X199477Y169624D01*
X199381Y169555D01*
X199280Y169491D01*
X199253Y169461D01*
X199220Y169438D01*
X199144Y169346D01*
X199062Y169259D01*
X199043Y169224D01*
X199017Y169193D01*
X198966Y169085D01*
X198909Y168981D01*
X198899Y168941D01*
X198882Y168905D01*
X198859Y168788D01*
X198829Y168673D01*
X198826Y168613D01*
X198822Y168593D01*
X198823Y168572D01*
X198819Y168512D01*
X198819Y168148D01*
X198834Y168030D01*
X198842Y167911D01*
X198854Y167873D01*
X198859Y167832D01*
X198903Y167722D01*
X198940Y167609D01*
X198961Y167574D01*
X198976Y167537D01*
X199046Y167441D01*
X199110Y167340D01*
X199139Y167312D01*
X199163Y167279D01*
X199255Y167203D01*
X199341Y167122D01*
X199377Y167102D01*
X199408Y167077D01*
X199516Y167026D01*
X199620Y166968D01*
X199659Y166958D01*
X199696Y166941D01*
X199812Y166919D01*
X199928Y166889D01*
X199988Y166885D01*
X200008Y166881D01*
X200028Y166883D01*
X200088Y166879D01*
X203937Y166879D01*
X204845Y165971D01*
X204938Y165898D01*
X205028Y165819D01*
X205064Y165801D01*
X205096Y165776D01*
X205205Y165729D01*
X205311Y165675D01*
X205351Y165666D01*
X205388Y165650D01*
X205505Y165631D01*
X205621Y165605D01*
X205662Y165606D01*
X205702Y165600D01*
X205820Y165611D01*
X205939Y165615D01*
X205978Y165626D01*
X206018Y165630D01*
X206131Y165670D01*
X206245Y165703D01*
X206280Y165723D01*
X206318Y165737D01*
X206416Y165804D01*
X206519Y165864D01*
X206564Y165904D01*
X206581Y165916D01*
X206594Y165931D01*
X206640Y165971D01*
X207183Y166515D01*
X217697Y166515D01*
X218590Y165622D01*
X218590Y156958D01*
X217697Y156065D01*
X207183Y156065D01*
X206640Y156609D01*
X206545Y156682D01*
X206456Y156761D01*
X206420Y156779D01*
X206388Y156804D01*
X206279Y156851D01*
X206173Y156905D01*
X206134Y156914D01*
X206096Y156930D01*
X205979Y156949D01*
X205863Y156975D01*
X205822Y156974D01*
X205782Y156980D01*
X205664Y156969D01*
X205545Y156965D01*
X205506Y156954D01*
X205466Y156950D01*
X205354Y156910D01*
X205239Y156877D01*
X205205Y156857D01*
X205166Y156843D01*
X205068Y156776D01*
X204965Y156715D01*
X204920Y156676D01*
X204903Y156664D01*
X204890Y156649D01*
X204845Y156609D01*
X203937Y155701D01*
X200088Y155701D01*
X199970Y155686D01*
X199852Y155679D01*
X199813Y155666D01*
X199773Y155661D01*
X199662Y155618D01*
X199549Y155581D01*
X199515Y155559D01*
X199477Y155544D01*
X199381Y155475D01*
X199280Y155411D01*
X199253Y155381D01*
X199220Y155358D01*
X199144Y155266D01*
X199062Y155179D01*
X199043Y155144D01*
X199017Y155113D01*
X198966Y155005D01*
X198909Y154901D01*
X198899Y154861D01*
X198882Y154825D01*
X198859Y154708D01*
X198829Y154593D01*
X198829Y154589D01*
X197926Y153686D01*
X197739Y153686D01*
X197621Y153671D01*
X197502Y153663D01*
X197464Y153651D01*
X197423Y153646D01*
X197313Y153602D01*
X197200Y153565D01*
X197165Y153544D01*
X197128Y153529D01*
X197032Y153459D01*
X196931Y153395D01*
X196903Y153366D01*
X196870Y153342D01*
X196794Y153250D01*
X196713Y153164D01*
X196693Y153128D01*
X196668Y153097D01*
X196617Y152989D01*
X196559Y152885D01*
X196549Y152846D01*
X196532Y152809D01*
X196510Y152693D01*
X196480Y152577D01*
X196476Y152517D01*
X196472Y152497D01*
X196474Y152477D01*
X196470Y152417D01*
X196470Y151289D01*
X196482Y151191D01*
X196485Y151092D01*
X196502Y151034D01*
X196510Y150974D01*
X196546Y150882D01*
X196574Y150787D01*
X196604Y150734D01*
X196627Y150678D01*
X196685Y150598D01*
X196735Y150513D01*
X196801Y150437D01*
X196813Y150421D01*
X196823Y150413D01*
X196841Y150392D01*
X198017Y149216D01*
X198095Y149156D01*
X198167Y149088D01*
X198220Y149059D01*
X198268Y149022D01*
X198359Y148982D01*
X198446Y148934D01*
X198504Y148919D01*
X198560Y148895D01*
X198658Y148880D01*
X198754Y148855D01*
X198854Y148849D01*
X198874Y148845D01*
X198886Y148847D01*
X198914Y148845D01*
X199606Y148845D01*
X199724Y148860D01*
X199843Y148867D01*
X199881Y148880D01*
X199922Y148885D01*
X200032Y148928D01*
X200145Y148965D01*
X200180Y148987D01*
X200217Y149002D01*
X200313Y149071D01*
X200414Y149135D01*
X200442Y149165D01*
X200475Y149188D01*
X200551Y149280D01*
X200632Y149367D01*
X200652Y149402D01*
X200677Y149433D01*
X200728Y149541D01*
X200786Y149645D01*
X200796Y149685D01*
X200813Y149721D01*
X200835Y149838D01*
X200865Y149953D01*
X200869Y150013D01*
X200873Y150033D01*
X200871Y150054D01*
X200875Y150114D01*
X200875Y152182D01*
X201768Y153075D01*
X213032Y153075D01*
X213925Y152182D01*
X213925Y139918D01*
X213032Y139025D01*
X201768Y139025D01*
X200875Y139918D01*
X200875Y141986D01*
X200860Y142104D01*
X200853Y142223D01*
X200840Y142261D01*
X200835Y142302D01*
X200792Y142412D01*
X200755Y142525D01*
X200733Y142560D01*
X200718Y142597D01*
X200649Y142693D01*
X200585Y142794D01*
X200555Y142822D01*
X200532Y142855D01*
X200440Y142931D01*
X200353Y143012D01*
X200318Y143032D01*
X200287Y143057D01*
X200179Y143108D01*
X200075Y143166D01*
X200035Y143176D01*
X199999Y143193D01*
X199882Y143215D01*
X199767Y143245D01*
X199707Y143249D01*
X199687Y143253D01*
X199666Y143251D01*
X199606Y143255D01*
X196073Y143255D01*
X190880Y148448D01*
X190880Y152281D01*
X190863Y152418D01*
X190850Y152557D01*
X190843Y152576D01*
X190840Y152596D01*
X190789Y152725D01*
X190742Y152856D01*
X190731Y152873D01*
X190723Y152892D01*
X190642Y153004D01*
X190564Y153119D01*
X190548Y153133D01*
X190537Y153149D01*
X190429Y153238D01*
X190325Y153330D01*
X190307Y153339D01*
X190292Y153352D01*
X190166Y153411D01*
X190042Y153474D01*
X190022Y153479D01*
X190004Y153487D01*
X189868Y153514D01*
X189732Y153544D01*
X189711Y153543D01*
X189692Y153547D01*
X189553Y153539D01*
X189414Y153534D01*
X189394Y153529D01*
X189374Y153527D01*
X189242Y153485D01*
X189108Y153446D01*
X189091Y153436D01*
X189072Y153429D01*
X188954Y153355D01*
X188834Y153284D01*
X188813Y153266D01*
X188803Y153259D01*
X188789Y153244D01*
X188713Y153178D01*
X188697Y153161D01*
X168148Y153161D01*
X168030Y153146D01*
X167911Y153139D01*
X167873Y153126D01*
X167832Y153121D01*
X167722Y153078D01*
X167609Y153041D01*
X167574Y153019D01*
X167537Y153004D01*
X167441Y152935D01*
X167340Y152871D01*
X167312Y152841D01*
X167279Y152818D01*
X167203Y152726D01*
X167122Y152639D01*
X167102Y152604D01*
X167077Y152573D01*
X167026Y152465D01*
X166968Y152361D01*
X166958Y152321D01*
X166941Y152285D01*
X166919Y152168D01*
X166889Y152053D01*
X166885Y151993D01*
X166881Y151973D01*
X166883Y151952D01*
X166879Y151892D01*
X166879Y148742D01*
X165837Y147700D01*
X149123Y147700D01*
X148039Y148784D01*
X147998Y148889D01*
X147961Y149002D01*
X147939Y149037D01*
X147924Y149074D01*
X147855Y149170D01*
X147791Y149271D01*
X147761Y149299D01*
X147738Y149332D01*
X147646Y149408D01*
X147559Y149489D01*
X147524Y149509D01*
X147493Y149534D01*
X147385Y149585D01*
X147281Y149643D01*
X147241Y149653D01*
X147205Y149670D01*
X147088Y149692D01*
X146973Y149722D01*
X146913Y149726D01*
X146893Y149730D01*
X146872Y149728D01*
X146812Y149732D01*
X131389Y149732D01*
X131290Y149720D01*
X131191Y149717D01*
X131133Y149700D01*
X131073Y149692D01*
X130981Y149656D01*
X130886Y149628D01*
X130834Y149598D01*
X130777Y149575D01*
X130697Y149517D01*
X130612Y149467D01*
X130537Y149401D01*
X130520Y149389D01*
X130512Y149379D01*
X130491Y149361D01*
X128323Y147192D01*
X112977Y147192D01*
X112902Y147267D01*
X112902Y165153D01*
X112977Y165228D01*
X127053Y165228D01*
X129221Y163059D01*
X129299Y162999D01*
X129372Y162931D01*
X129425Y162902D01*
X129472Y162865D01*
X129563Y162825D01*
X129650Y162777D01*
X129709Y162762D01*
X129764Y162738D01*
X129862Y162723D01*
X129958Y162698D01*
X130058Y162692D01*
X130078Y162688D01*
X130091Y162690D01*
X130119Y162688D01*
X146678Y162688D01*
X146796Y162703D01*
X146915Y162710D01*
X146953Y162723D01*
X146994Y162728D01*
X147104Y162771D01*
X147217Y162808D01*
X147252Y162830D01*
X147289Y162845D01*
X147385Y162914D01*
X147486Y162978D01*
X147514Y163008D01*
X147547Y163031D01*
X147623Y163123D01*
X147704Y163210D01*
X147724Y163245D01*
X147749Y163276D01*
X147800Y163384D01*
X147858Y163488D01*
X147868Y163528D01*
X147885Y163564D01*
X147907Y163681D01*
X147937Y163796D01*
X147941Y163856D01*
X147945Y163876D01*
X147943Y163897D01*
X147947Y163957D01*
X147947Y164062D01*
X147992Y164143D01*
X148007Y164201D01*
X148031Y164257D01*
X148046Y164355D01*
X148071Y164451D01*
X148077Y164551D01*
X148081Y164571D01*
X148079Y164583D01*
X148081Y164611D01*
X148081Y168377D01*
X149123Y169419D01*
X149955Y169419D01*
X150093Y169436D01*
X150231Y169449D01*
X150250Y169456D01*
X150270Y169459D01*
X150400Y169510D01*
X150530Y169557D01*
X150547Y169568D01*
X150566Y169576D01*
X150678Y169657D01*
X150793Y169735D01*
X150807Y169751D01*
X150823Y169762D01*
X150912Y169870D01*
X151004Y169974D01*
X151013Y169992D01*
X151026Y170007D01*
X151085Y170133D01*
X151149Y170257D01*
X151153Y170277D01*
X151162Y170295D01*
X151188Y170432D01*
X151218Y170567D01*
X151218Y170588D01*
X151221Y170607D01*
X151213Y170746D01*
X151209Y170885D01*
X151203Y170905D01*
X151202Y170925D01*
X151159Y171057D01*
X151120Y171191D01*
X151110Y171208D01*
X151104Y171227D01*
X151029Y171345D01*
X150959Y171465D01*
X150940Y171486D01*
X150933Y171496D01*
X150918Y171510D01*
X150852Y171585D01*
X149605Y172832D01*
X149605Y190388D01*
X151242Y192025D01*
X168497Y192025D01*
X168595Y192037D01*
X168694Y192040D01*
X168752Y192057D01*
X168812Y192065D01*
X168904Y192101D01*
X168999Y192129D01*
X169052Y192159D01*
X169108Y192182D01*
X169188Y192240D01*
X169273Y192290D01*
X169349Y192356D01*
X169365Y192368D01*
X169373Y192378D01*
X169394Y192396D01*
X184634Y207637D01*
X184719Y207746D01*
X184808Y207853D01*
X184817Y207872D01*
X184829Y207888D01*
X184885Y208016D01*
X184944Y208141D01*
X184947Y208161D01*
X184955Y208180D01*
X184977Y208318D01*
X185003Y208454D01*
X185002Y208474D01*
X185005Y208494D01*
X184992Y208633D01*
X184984Y208771D01*
X184977Y208790D01*
X184976Y208810D01*
X184928Y208942D01*
X184886Y209073D01*
X184875Y209091D01*
X184868Y209110D01*
X184790Y209225D01*
X184715Y209342D01*
X184701Y209356D01*
X184689Y209373D01*
X184585Y209465D01*
X184484Y209560D01*
X184466Y209570D01*
X184451Y209583D01*
X184327Y209646D01*
X184205Y209714D01*
X184186Y209719D01*
X184168Y209728D01*
X184032Y209758D01*
X183897Y209793D01*
X183869Y209795D01*
X183857Y209798D01*
X183837Y209797D01*
X183737Y209803D01*
X173099Y209803D01*
X172981Y209788D01*
X172862Y209781D01*
X172824Y209768D01*
X172783Y209763D01*
X172673Y209720D01*
X172560Y209683D01*
X172525Y209661D01*
X172488Y209646D01*
X172392Y209577D01*
X172291Y209513D01*
X172263Y209483D01*
X172230Y209460D01*
X172154Y209368D01*
X172073Y209281D01*
X172053Y209246D01*
X172028Y209215D01*
X171977Y209107D01*
X171919Y209003D01*
X171909Y208963D01*
X171892Y208927D01*
X171870Y208810D01*
X171840Y208695D01*
X171836Y208635D01*
X171832Y208615D01*
X171834Y208594D01*
X171830Y208534D01*
X171830Y201151D01*
X170068Y199389D01*
X132867Y199389D01*
X131825Y200431D01*
X131825Y207239D01*
X132342Y207756D01*
X132403Y207834D01*
X132471Y207906D01*
X132500Y207959D01*
X132537Y208007D01*
X132577Y208098D01*
X132625Y208185D01*
X132640Y208243D01*
X132664Y208299D01*
X132679Y208397D01*
X132704Y208493D01*
X132710Y208593D01*
X132714Y208613D01*
X132712Y208625D01*
X132714Y208653D01*
X132714Y211671D01*
X132720Y211698D01*
X132736Y211735D01*
X132755Y211853D01*
X132781Y211969D01*
X132780Y212010D01*
X132786Y212049D01*
X132775Y212168D01*
X132772Y212287D01*
X132760Y212326D01*
X132757Y212366D01*
X132716Y212478D01*
X132714Y212485D01*
X132714Y216492D01*
X133607Y217385D01*
X134366Y217385D01*
X134484Y217400D01*
X134603Y217407D01*
X134641Y217420D01*
X134682Y217425D01*
X134792Y217468D01*
X134905Y217505D01*
X134940Y217527D01*
X134977Y217542D01*
X135073Y217611D01*
X135174Y217675D01*
X135202Y217705D01*
X135235Y217728D01*
X135311Y217820D01*
X135392Y217907D01*
X135412Y217942D01*
X135437Y217973D01*
X135488Y218081D01*
X135546Y218185D01*
X135556Y218225D01*
X135573Y218261D01*
X135595Y218378D01*
X135625Y218493D01*
X135629Y218553D01*
X135633Y218573D01*
X135631Y218594D01*
X135635Y218654D01*
X135635Y237378D01*
X137272Y239015D01*
X200406Y239015D01*
X200524Y239030D01*
X200643Y239037D01*
X200681Y239050D01*
X200722Y239055D01*
X200832Y239098D01*
X200945Y239135D01*
X200980Y239157D01*
X201017Y239172D01*
X201113Y239241D01*
X201214Y239305D01*
X201242Y239335D01*
X201275Y239358D01*
X201351Y239450D01*
X201432Y239537D01*
X201452Y239572D01*
X201477Y239603D01*
X201528Y239711D01*
X201586Y239815D01*
X201596Y239855D01*
X201613Y239891D01*
X201635Y240008D01*
X201665Y240123D01*
X201669Y240183D01*
X201673Y240203D01*
X201671Y240224D01*
X201675Y240284D01*
X201675Y266588D01*
X203312Y268225D01*
X228488Y268225D01*
X230125Y266588D01*
X230125Y230124D01*
X230140Y230006D01*
X230147Y229887D01*
X230160Y229849D01*
X230165Y229808D01*
X230208Y229698D01*
X230245Y229585D01*
X230267Y229550D01*
X230282Y229513D01*
X230351Y229417D01*
X230415Y229316D01*
X230445Y229288D01*
X230468Y229255D01*
X230560Y229179D01*
X230647Y229098D01*
X230682Y229078D01*
X230713Y229053D01*
X230821Y229002D01*
X230925Y228944D01*
X230965Y228934D01*
X231001Y228917D01*
X231118Y228895D01*
X231233Y228865D01*
X231293Y228861D01*
X231313Y228857D01*
X231334Y228859D01*
X231394Y228855D01*
X234696Y228855D01*
X234814Y228870D01*
X234933Y228877D01*
X234971Y228890D01*
X235012Y228895D01*
X235122Y228938D01*
X235235Y228975D01*
X235270Y228997D01*
X235307Y229012D01*
X235403Y229081D01*
X235504Y229145D01*
X235532Y229175D01*
X235565Y229198D01*
X235641Y229290D01*
X235722Y229377D01*
X235742Y229412D01*
X235767Y229443D01*
X235818Y229551D01*
X235876Y229655D01*
X235880Y229672D01*
X252842Y246635D01*
X333898Y246635D01*
X335535Y244998D01*
X335535Y194422D01*
X335236Y194124D01*
X335163Y194029D01*
X335084Y193940D01*
X335065Y193904D01*
X335041Y193872D01*
X334993Y193763D01*
X334939Y193656D01*
X334931Y193617D01*
X334915Y193580D01*
X334896Y193462D01*
X334870Y193346D01*
X334871Y193306D01*
X334865Y193266D01*
X334876Y193147D01*
X334880Y193028D01*
X334891Y192990D01*
X334894Y192950D01*
X334900Y192935D01*
X334900Y181223D01*
X334858Y181182D01*
X334773Y181072D01*
X334684Y180965D01*
X334675Y180946D01*
X334663Y180930D01*
X334608Y180803D01*
X334548Y180677D01*
X334545Y180657D01*
X334537Y180638D01*
X334515Y180500D01*
X334489Y180364D01*
X334490Y180344D01*
X334487Y180324D01*
X334500Y180185D01*
X334508Y180047D01*
X334515Y180028D01*
X334516Y180008D01*
X334564Y179876D01*
X334606Y179745D01*
X334617Y179728D01*
X334624Y179708D01*
X334702Y179593D01*
X334777Y179476D01*
X334791Y179462D01*
X334803Y179445D01*
X334907Y179353D01*
X335008Y179258D01*
X335026Y179248D01*
X335041Y179235D01*
X335165Y179171D01*
X335287Y179104D01*
X335306Y179099D01*
X335324Y179090D01*
X335460Y179060D01*
X335595Y179025D01*
X335623Y179023D01*
X335635Y179020D01*
X335655Y179021D01*
X335755Y179015D01*
X342642Y179015D01*
X343535Y178122D01*
X343535Y177419D01*
X343550Y177301D01*
X343557Y177182D01*
X343570Y177144D01*
X343575Y177103D01*
X343618Y176993D01*
X343655Y176880D01*
X343677Y176845D01*
X343692Y176808D01*
X343761Y176712D01*
X343825Y176611D01*
X343855Y176583D01*
X343878Y176550D01*
X343970Y176474D01*
X344057Y176393D01*
X344092Y176373D01*
X344123Y176348D01*
X344231Y176297D01*
X344335Y176239D01*
X344375Y176229D01*
X344411Y176212D01*
X344528Y176190D01*
X344643Y176160D01*
X344703Y176156D01*
X344723Y176152D01*
X344744Y176154D01*
X344804Y176150D01*
X345065Y176150D01*
X352680Y168535D01*
X352680Y162710D01*
X352692Y162612D01*
X352695Y162513D01*
X352712Y162455D01*
X352720Y162395D01*
X352756Y162303D01*
X352784Y162208D01*
X352814Y162155D01*
X352837Y162099D01*
X352895Y162019D01*
X352945Y161934D01*
X353011Y161858D01*
X353023Y161842D01*
X353033Y161834D01*
X353051Y161813D01*
X364110Y150755D01*
X364110Y150228D01*
X364125Y150110D01*
X364132Y149991D01*
X364145Y149953D01*
X364150Y149912D01*
X364193Y149802D01*
X364230Y149689D01*
X364252Y149654D01*
X364267Y149617D01*
X364336Y149521D01*
X364400Y149420D01*
X364430Y149392D01*
X364453Y149359D01*
X364545Y149283D01*
X364632Y149202D01*
X364667Y149182D01*
X364698Y149157D01*
X364806Y149106D01*
X364910Y149048D01*
X364950Y149038D01*
X364986Y149021D01*
X365103Y148999D01*
X365218Y148969D01*
X365278Y148965D01*
X365298Y148961D01*
X365319Y148963D01*
X365379Y148959D01*
X365582Y148959D01*
X366533Y148007D01*
X366642Y147922D01*
X366750Y147834D01*
X366768Y147825D01*
X366784Y147813D01*
X366912Y147757D01*
X367037Y147698D01*
X367057Y147694D01*
X367076Y147686D01*
X367214Y147664D01*
X367350Y147638D01*
X367370Y147640D01*
X367390Y147636D01*
X367529Y147649D01*
X367667Y147658D01*
X367686Y147664D01*
X367707Y147666D01*
X367838Y147713D01*
X367970Y147756D01*
X367987Y147767D01*
X368006Y147774D01*
X368121Y147852D01*
X368238Y147926D01*
X368252Y147941D01*
X368269Y147952D01*
X368361Y148057D01*
X368456Y148158D01*
X368466Y148176D01*
X368480Y148191D01*
X368543Y148315D01*
X368610Y148436D01*
X368615Y148456D01*
X368624Y148474D01*
X368655Y148610D01*
X368689Y148744D01*
X368691Y148772D01*
X368694Y148784D01*
X368693Y148805D01*
X368700Y148905D01*
X368700Y150780D01*
X370270Y152350D01*
X372364Y152350D01*
X372366Y152351D01*
X372368Y152350D01*
X372411Y152370D01*
X372455Y152389D01*
X372455Y152391D01*
X372457Y152392D01*
X372490Y152477D01*
X372490Y154686D01*
X372489Y154688D01*
X372490Y154690D01*
X372470Y154733D01*
X372452Y154777D01*
X372450Y154777D01*
X372449Y154779D01*
X372364Y154812D01*
X369648Y154812D01*
X368680Y155780D01*
X368680Y162941D01*
X368665Y163059D01*
X368658Y163178D01*
X368645Y163216D01*
X368640Y163257D01*
X368597Y163367D01*
X368560Y163480D01*
X368538Y163515D01*
X368523Y163552D01*
X368454Y163648D01*
X368390Y163749D01*
X368360Y163777D01*
X368337Y163810D01*
X368245Y163886D01*
X368158Y163967D01*
X368123Y163987D01*
X368092Y164012D01*
X367984Y164063D01*
X367880Y164121D01*
X367840Y164131D01*
X367804Y164148D01*
X367687Y164170D01*
X367572Y164200D01*
X367512Y164204D01*
X367492Y164208D01*
X367471Y164206D01*
X367411Y164210D01*
X362263Y164210D01*
X361370Y165103D01*
X361370Y177797D01*
X361705Y178131D01*
X361765Y178209D01*
X361833Y178281D01*
X361862Y178334D01*
X361899Y178382D01*
X361939Y178473D01*
X361987Y178560D01*
X362002Y178618D01*
X362026Y178674D01*
X362041Y178772D01*
X362066Y178868D01*
X362072Y178968D01*
X362076Y178988D01*
X362074Y179000D01*
X362076Y179028D01*
X362076Y188390D01*
X363035Y189349D01*
X363120Y189458D01*
X363209Y189565D01*
X363217Y189584D01*
X363230Y189600D01*
X363285Y189727D01*
X363344Y189853D01*
X363348Y189873D01*
X363356Y189892D01*
X363378Y190030D01*
X363404Y190166D01*
X363403Y190186D01*
X363406Y190206D01*
X363393Y190345D01*
X363384Y190483D01*
X363378Y190502D01*
X363376Y190522D01*
X363329Y190654D01*
X363286Y190785D01*
X363275Y190803D01*
X363268Y190822D01*
X363190Y190937D01*
X363116Y191054D01*
X363101Y191068D01*
X363090Y191085D01*
X362985Y191177D01*
X362884Y191272D01*
X362867Y191282D01*
X362851Y191295D01*
X362727Y191359D01*
X362606Y191426D01*
X362586Y191431D01*
X362568Y191440D01*
X362432Y191470D01*
X362298Y191505D01*
X362270Y191507D01*
X362258Y191510D01*
X362237Y191509D01*
X362137Y191515D01*
X362062Y191515D01*
X360425Y193152D01*
X360425Y225948D01*
X362062Y227585D01*
X385968Y227585D01*
X387605Y225948D01*
X387605Y204582D01*
X382325Y199303D01*
X382264Y199224D01*
X382196Y199152D01*
X382167Y199099D01*
X382130Y199051D01*
X382091Y198960D01*
X382043Y198874D01*
X382028Y198815D01*
X382004Y198760D01*
X381988Y198662D01*
X381963Y198566D01*
X381957Y198466D01*
X381954Y198445D01*
X381955Y198433D01*
X381953Y198405D01*
X381953Y190627D01*
X381968Y190509D01*
X381976Y190390D01*
X381988Y190352D01*
X381993Y190311D01*
X382037Y190201D01*
X382074Y190088D01*
X382095Y190053D01*
X382110Y190016D01*
X382180Y189920D01*
X382244Y189819D01*
X382273Y189791D01*
X382297Y189758D01*
X382389Y189682D01*
X382475Y189601D01*
X382511Y189581D01*
X382542Y189556D01*
X382650Y189505D01*
X382754Y189447D01*
X382793Y189437D01*
X382830Y189420D01*
X382946Y189398D01*
X383062Y189368D01*
X383122Y189364D01*
X383142Y189360D01*
X383162Y189362D01*
X383222Y189358D01*
X386281Y189358D01*
X386379Y189370D01*
X386478Y189373D01*
X386501Y189380D01*
X395833Y189380D01*
X395879Y189368D01*
X395979Y189362D01*
X395999Y189358D01*
X396011Y189360D01*
X396039Y189358D01*
X396162Y189358D01*
X397130Y188390D01*
X397130Y181180D01*
X396757Y180807D01*
X396696Y180728D01*
X396628Y180656D01*
X396599Y180603D01*
X396562Y180555D01*
X396522Y180464D01*
X396474Y180378D01*
X396459Y180319D01*
X396435Y180264D01*
X396420Y180165D01*
X396395Y180070D01*
X396389Y179970D01*
X396385Y179949D01*
X396387Y179937D01*
X396385Y179909D01*
X396385Y177973D01*
X395492Y177080D01*
X394470Y177080D01*
X394332Y177063D01*
X394193Y177050D01*
X394174Y177043D01*
X394154Y177040D01*
X394025Y176989D01*
X393894Y176942D01*
X393877Y176931D01*
X393859Y176923D01*
X393746Y176842D01*
X393631Y176764D01*
X393618Y176748D01*
X393601Y176737D01*
X393512Y176629D01*
X393421Y176525D01*
X393411Y176507D01*
X393398Y176492D01*
X393339Y176366D01*
X393276Y176242D01*
X393272Y176222D01*
X393263Y176204D01*
X393237Y176067D01*
X393206Y175932D01*
X393207Y175911D01*
X393203Y175892D01*
X393212Y175753D01*
X393216Y175614D01*
X393222Y175594D01*
X393223Y175574D01*
X393266Y175442D01*
X393304Y175308D01*
X393315Y175291D01*
X393321Y175272D01*
X393395Y175154D01*
X393466Y175034D01*
X393484Y175013D01*
X393491Y175003D01*
X393506Y174989D01*
X393572Y174914D01*
X394782Y173704D01*
X394782Y173703D01*
X396122Y172364D01*
X396122Y162814D01*
X396137Y162696D01*
X396144Y162577D01*
X396157Y162539D01*
X396162Y162498D01*
X396205Y162388D01*
X396242Y162275D01*
X396264Y162240D01*
X396279Y162203D01*
X396348Y162107D01*
X396412Y162006D01*
X396442Y161978D01*
X396465Y161945D01*
X396557Y161869D01*
X396644Y161788D01*
X396679Y161768D01*
X396710Y161743D01*
X396818Y161692D01*
X396922Y161634D01*
X396962Y161624D01*
X396998Y161607D01*
X397115Y161585D01*
X397230Y161555D01*
X397290Y161551D01*
X397310Y161547D01*
X397331Y161549D01*
X397391Y161545D01*
X401507Y161545D01*
X401605Y161557D01*
X401704Y161560D01*
X401763Y161577D01*
X401823Y161585D01*
X401915Y161621D01*
X402010Y161649D01*
X402062Y161679D01*
X402118Y161702D01*
X402198Y161760D01*
X402284Y161810D01*
X402359Y161876D01*
X402376Y161888D01*
X402383Y161898D01*
X402405Y161916D01*
X405901Y165412D01*
X405961Y165491D01*
X406029Y165563D01*
X406058Y165616D01*
X406095Y165664D01*
X406135Y165755D01*
X406183Y165841D01*
X406198Y165900D01*
X406222Y165956D01*
X406237Y166054D01*
X406262Y166149D01*
X406268Y166249D01*
X406272Y166270D01*
X406270Y166282D01*
X406272Y166310D01*
X406272Y167308D01*
X407240Y168276D01*
X423291Y168276D01*
X423409Y168291D01*
X423528Y168298D01*
X423566Y168311D01*
X423607Y168316D01*
X423717Y168359D01*
X423830Y168396D01*
X423865Y168418D01*
X423902Y168433D01*
X423998Y168502D01*
X424099Y168566D01*
X424127Y168596D01*
X424160Y168619D01*
X424236Y168711D01*
X424317Y168798D01*
X424337Y168833D01*
X424362Y168864D01*
X424413Y168972D01*
X424471Y169076D01*
X424481Y169116D01*
X424498Y169152D01*
X424520Y169269D01*
X424550Y169384D01*
X424554Y169444D01*
X424558Y169464D01*
X424556Y169485D01*
X424560Y169545D01*
X424560Y216795D01*
X425825Y218060D01*
X440315Y218060D01*
X441782Y216593D01*
X441876Y216520D01*
X441965Y216441D01*
X442001Y216423D01*
X442033Y216398D01*
X442142Y216350D01*
X442248Y216296D01*
X442287Y216288D01*
X442325Y216272D01*
X442442Y216253D01*
X442558Y216227D01*
X442599Y216228D01*
X442639Y216222D01*
X442757Y216233D01*
X442876Y216236D01*
X442915Y216248D01*
X442955Y216251D01*
X443067Y216292D01*
X443182Y216325D01*
X443217Y216345D01*
X443255Y216359D01*
X443353Y216426D01*
X443456Y216486D01*
X443501Y216526D01*
X443518Y216538D01*
X443531Y216553D01*
X443577Y216593D01*
X444328Y217345D01*
X456592Y217345D01*
X457485Y216452D01*
X457485Y216154D01*
X457500Y216036D01*
X457507Y215917D01*
X457520Y215879D01*
X457525Y215838D01*
X457568Y215728D01*
X457605Y215615D01*
X457627Y215580D01*
X457642Y215543D01*
X457711Y215447D01*
X457775Y215346D01*
X457805Y215318D01*
X457828Y215285D01*
X457920Y215209D01*
X458007Y215128D01*
X458042Y215108D01*
X458073Y215083D01*
X458181Y215032D01*
X458285Y214974D01*
X458325Y214964D01*
X458361Y214947D01*
X458478Y214925D01*
X458593Y214895D01*
X458653Y214891D01*
X458673Y214887D01*
X458694Y214889D01*
X458754Y214885D01*
X459956Y214885D01*
X460074Y214900D01*
X460193Y214907D01*
X460231Y214920D01*
X460272Y214925D01*
X460382Y214968D01*
X460495Y215005D01*
X460530Y215027D01*
X460567Y215042D01*
X460663Y215111D01*
X460764Y215175D01*
X460792Y215205D01*
X460825Y215228D01*
X460901Y215320D01*
X460982Y215407D01*
X461002Y215442D01*
X461027Y215473D01*
X461078Y215581D01*
X461136Y215685D01*
X461146Y215725D01*
X461163Y215761D01*
X461185Y215878D01*
X461215Y215993D01*
X461219Y216053D01*
X461223Y216073D01*
X461221Y216094D01*
X461225Y216154D01*
X461225Y216952D01*
X462118Y217845D01*
X473382Y217845D01*
X474633Y216593D01*
X474728Y216520D01*
X474817Y216441D01*
X474853Y216423D01*
X474885Y216398D01*
X474994Y216351D01*
X475100Y216296D01*
X475139Y216288D01*
X475177Y216272D01*
X475294Y216253D01*
X475410Y216227D01*
X475451Y216228D01*
X475491Y216222D01*
X475609Y216233D01*
X475728Y216236D01*
X475767Y216248D01*
X475807Y216251D01*
X475920Y216292D01*
X476034Y216325D01*
X476068Y216345D01*
X476107Y216359D01*
X476205Y216426D01*
X476308Y216486D01*
X476353Y216526D01*
X476370Y216538D01*
X476383Y216553D01*
X476428Y216593D01*
X477895Y218060D01*
X479552Y218060D01*
X479670Y218075D01*
X479789Y218082D01*
X479827Y218095D01*
X479868Y218100D01*
X479978Y218143D01*
X480091Y218180D01*
X480126Y218202D01*
X480163Y218217D01*
X480259Y218286D01*
X480360Y218350D01*
X480388Y218380D01*
X480421Y218403D01*
X480497Y218495D01*
X480578Y218582D01*
X480598Y218617D01*
X480623Y218648D01*
X480674Y218756D01*
X480732Y218860D01*
X480742Y218900D01*
X480759Y218936D01*
X480781Y219053D01*
X480811Y219168D01*
X480815Y219228D01*
X480819Y219248D01*
X480817Y219269D01*
X480821Y219329D01*
X480821Y219562D01*
X492518Y231259D01*
X492604Y231368D01*
X492692Y231475D01*
X492701Y231494D01*
X492713Y231510D01*
X492769Y231638D01*
X492828Y231763D01*
X492831Y231783D01*
X492840Y231802D01*
X492861Y231940D01*
X492887Y232076D01*
X492886Y232096D01*
X492889Y232116D01*
X492876Y232255D01*
X492868Y232393D01*
X492862Y232412D01*
X492860Y232432D01*
X492812Y232564D01*
X492770Y232695D01*
X492759Y232713D01*
X492752Y232732D01*
X492674Y232847D01*
X492600Y232964D01*
X492585Y232978D01*
X492573Y232995D01*
X492469Y233087D01*
X492368Y233182D01*
X492350Y233192D01*
X492335Y233205D01*
X492211Y233268D01*
X492089Y233336D01*
X492070Y233341D01*
X492052Y233350D01*
X491916Y233380D01*
X491781Y233415D01*
X491753Y233417D01*
X491741Y233420D01*
X491721Y233419D01*
X491621Y233425D01*
X456078Y233425D01*
X455929Y233574D01*
X455929Y251566D01*
X456078Y251715D01*
X463296Y251715D01*
X463414Y251730D01*
X463533Y251737D01*
X463571Y251750D01*
X463612Y251755D01*
X463722Y251798D01*
X463835Y251835D01*
X463870Y251857D01*
X463907Y251872D01*
X464003Y251941D01*
X464104Y252005D01*
X464132Y252035D01*
X464165Y252058D01*
X464241Y252150D01*
X464322Y252237D01*
X464342Y252272D01*
X464367Y252303D01*
X464418Y252411D01*
X464476Y252515D01*
X464486Y252555D01*
X464503Y252591D01*
X464525Y252708D01*
X464555Y252823D01*
X464559Y252883D01*
X464563Y252903D01*
X464561Y252924D01*
X464565Y252984D01*
X464565Y267339D01*
X464553Y267437D01*
X464550Y267536D01*
X464533Y267594D01*
X464525Y267654D01*
X464489Y267746D01*
X464461Y267841D01*
X464431Y267894D01*
X464408Y267950D01*
X464350Y268030D01*
X464300Y268115D01*
X464234Y268191D01*
X464222Y268207D01*
X464212Y268215D01*
X464194Y268236D01*
X462025Y270404D01*
X462025Y271671D01*
X462024Y271681D01*
X462025Y271690D01*
X462004Y271839D01*
X462003Y271858D01*
X462001Y271864D01*
X461985Y271987D01*
X461982Y271996D01*
X461981Y272005D01*
X461929Y272157D01*
X461708Y272690D01*
X461708Y275950D01*
X461929Y276483D01*
X461931Y276492D01*
X461936Y276500D01*
X461973Y276645D01*
X462013Y276790D01*
X462013Y276799D01*
X462015Y276808D01*
X462025Y276969D01*
X462025Y280776D01*
X463444Y282195D01*
X467251Y282195D01*
X467261Y282196D01*
X467270Y282195D01*
X467419Y282216D01*
X467567Y282235D01*
X467576Y282238D01*
X467585Y282239D01*
X467737Y282291D01*
X468270Y282512D01*
X471530Y282512D01*
X472063Y282291D01*
X472072Y282289D01*
X472080Y282284D01*
X472225Y282247D01*
X472370Y282207D01*
X472379Y282207D01*
X472388Y282205D01*
X472549Y282195D01*
X476356Y282195D01*
X477775Y280776D01*
X477775Y276969D01*
X477776Y276959D01*
X477775Y276950D01*
X477796Y276801D01*
X477815Y276653D01*
X477818Y276644D01*
X477819Y276635D01*
X477871Y276483D01*
X478092Y275950D01*
X478092Y272690D01*
X477871Y272157D01*
X477869Y272148D01*
X477864Y272140D01*
X477827Y271995D01*
X477787Y271850D01*
X477787Y271841D01*
X477785Y271832D01*
X477775Y271671D01*
X477775Y270404D01*
X475606Y268236D01*
X475546Y268158D01*
X475478Y268086D01*
X475449Y268033D01*
X475412Y267985D01*
X475372Y267894D01*
X475324Y267807D01*
X475309Y267749D01*
X475285Y267693D01*
X475270Y267595D01*
X475245Y267499D01*
X475239Y267399D01*
X475235Y267379D01*
X475237Y267367D01*
X475235Y267339D01*
X475235Y258441D01*
X475247Y258343D01*
X475250Y258244D01*
X475267Y258186D01*
X475275Y258126D01*
X475311Y258034D01*
X475339Y257939D01*
X475369Y257886D01*
X475392Y257830D01*
X475450Y257750D01*
X475500Y257665D01*
X475566Y257589D01*
X475578Y257573D01*
X475588Y257565D01*
X475606Y257544D01*
X481064Y252086D01*
X481142Y252026D01*
X481214Y251958D01*
X481267Y251929D01*
X481315Y251892D01*
X481406Y251852D01*
X481493Y251804D01*
X481551Y251789D01*
X481607Y251765D01*
X481705Y251750D01*
X481801Y251725D01*
X481901Y251719D01*
X481921Y251715D01*
X481933Y251717D01*
X481961Y251715D01*
X495406Y251715D01*
X501384Y245736D01*
X501462Y245676D01*
X501534Y245608D01*
X501587Y245579D01*
X501635Y245542D01*
X501726Y245502D01*
X501813Y245454D01*
X501871Y245439D01*
X501927Y245415D01*
X502025Y245400D01*
X502121Y245375D01*
X502221Y245369D01*
X502241Y245365D01*
X502253Y245367D01*
X502281Y245365D01*
X511810Y245365D01*
X511928Y245380D01*
X512047Y245387D01*
X512085Y245400D01*
X512126Y245405D01*
X512236Y245448D01*
X512349Y245485D01*
X512384Y245507D01*
X512421Y245522D01*
X512517Y245591D01*
X512618Y245655D01*
X512646Y245685D01*
X512679Y245708D01*
X512755Y245800D01*
X512836Y245887D01*
X512856Y245922D01*
X512881Y245953D01*
X512932Y246061D01*
X512990Y246165D01*
X513000Y246205D01*
X513017Y246241D01*
X513039Y246358D01*
X513069Y246473D01*
X513073Y246533D01*
X513077Y246553D01*
X513075Y246574D01*
X513079Y246634D01*
X513079Y302260D01*
X513064Y302378D01*
X513057Y302497D01*
X513044Y302535D01*
X513039Y302576D01*
X512996Y302686D01*
X512959Y302799D01*
X512937Y302834D01*
X512922Y302871D01*
X512853Y302967D01*
X512789Y303068D01*
X512759Y303096D01*
X512736Y303129D01*
X512644Y303205D01*
X512557Y303286D01*
X512522Y303306D01*
X512491Y303331D01*
X512383Y303382D01*
X512279Y303440D01*
X512239Y303450D01*
X512203Y303467D01*
X512086Y303489D01*
X511971Y303519D01*
X511911Y303523D01*
X511891Y303527D01*
X511870Y303525D01*
X511810Y303529D01*
X2540Y303529D01*
X2422Y303514D01*
X2303Y303507D01*
X2265Y303494D01*
X2224Y303489D01*
X2114Y303446D01*
X2001Y303409D01*
X1966Y303387D01*
X1929Y303372D01*
X1833Y303303D01*
X1732Y303239D01*
X1704Y303209D01*
X1671Y303186D01*
X1595Y303094D01*
X1514Y303007D01*
X1494Y302972D01*
X1469Y302941D01*
X1418Y302833D01*
X1360Y302729D01*
X1350Y302689D01*
X1333Y302653D01*
X1311Y302536D01*
X1281Y302421D01*
X1277Y302361D01*
X1273Y302341D01*
X1275Y302321D01*
X1273Y302314D01*
X1274Y302307D01*
X1271Y302260D01*
X1271Y2540D01*
X1286Y2422D01*
X1293Y2303D01*
X1306Y2265D01*
X1311Y2224D01*
X1354Y2114D01*
X1391Y2001D01*
X1413Y1966D01*
X1428Y1929D01*
X1497Y1833D01*
X1561Y1732D01*
X1591Y1704D01*
X1614Y1671D01*
X1706Y1595D01*
X1793Y1514D01*
X1828Y1494D01*
X1859Y1469D01*
X1967Y1418D01*
X2071Y1360D01*
X2111Y1350D01*
X2147Y1333D01*
X2264Y1311D01*
X2379Y1281D01*
X2439Y1277D01*
X2459Y1273D01*
X2480Y1275D01*
X2540Y1271D01*
X511810Y1271D01*
X511928Y1286D01*
G37*
G36*
X27956Y54492D02*
X27956Y54492D01*
X27963Y54373D01*
X27976Y54335D01*
X27981Y54294D01*
X28024Y54184D01*
X28061Y54071D01*
X28083Y54036D01*
X28098Y53999D01*
X28168Y53903D01*
X28231Y53802D01*
X28261Y53774D01*
X28284Y53741D01*
X28376Y53666D01*
X28463Y53584D01*
X28498Y53564D01*
X28529Y53539D01*
X28637Y53488D01*
X28741Y53430D01*
X28781Y53420D01*
X28817Y53403D01*
X28934Y53381D01*
X29049Y53351D01*
X29110Y53347D01*
X29130Y53343D01*
X29150Y53345D01*
X29210Y53341D01*
X452222Y53341D01*
X452320Y53353D01*
X452419Y53356D01*
X452477Y53373D01*
X452537Y53381D01*
X452548Y53385D01*
X454660Y53385D01*
X454778Y53400D01*
X454897Y53407D01*
X454935Y53420D01*
X454976Y53425D01*
X455086Y53468D01*
X455199Y53505D01*
X455234Y53527D01*
X455271Y53542D01*
X455367Y53611D01*
X455468Y53675D01*
X455496Y53705D01*
X455529Y53728D01*
X455605Y53820D01*
X455686Y53907D01*
X455706Y53942D01*
X455731Y53973D01*
X455782Y54081D01*
X455840Y54185D01*
X455850Y54225D01*
X455867Y54261D01*
X455889Y54378D01*
X455919Y54493D01*
X455923Y54553D01*
X455927Y54573D01*
X455925Y54594D01*
X455929Y54654D01*
X455929Y93980D01*
X455914Y94098D01*
X455907Y94217D01*
X455894Y94255D01*
X455889Y94296D01*
X455846Y94406D01*
X455809Y94519D01*
X455787Y94554D01*
X455772Y94591D01*
X455703Y94687D01*
X455639Y94788D01*
X455609Y94816D01*
X455586Y94849D01*
X455494Y94925D01*
X455407Y95006D01*
X455372Y95026D01*
X455341Y95051D01*
X455233Y95102D01*
X455129Y95160D01*
X455089Y95170D01*
X455053Y95187D01*
X454936Y95209D01*
X454821Y95239D01*
X454761Y95243D01*
X454741Y95247D01*
X454720Y95245D01*
X454660Y95249D01*
X99059Y95249D01*
X99059Y111760D01*
X99044Y111878D01*
X99037Y111997D01*
X99024Y112035D01*
X99019Y112076D01*
X98976Y112186D01*
X98939Y112299D01*
X98917Y112334D01*
X98902Y112371D01*
X98833Y112467D01*
X98769Y112568D01*
X98739Y112596D01*
X98716Y112629D01*
X98624Y112705D01*
X98537Y112786D01*
X98502Y112806D01*
X98471Y112831D01*
X98363Y112882D01*
X98259Y112940D01*
X98219Y112950D01*
X98183Y112967D01*
X98066Y112989D01*
X97951Y113019D01*
X97891Y113023D01*
X97871Y113027D01*
X97850Y113025D01*
X97790Y113029D01*
X29210Y113029D01*
X29092Y113014D01*
X28973Y113007D01*
X28935Y112994D01*
X28894Y112989D01*
X28784Y112946D01*
X28671Y112909D01*
X28636Y112887D01*
X28599Y112872D01*
X28503Y112803D01*
X28402Y112739D01*
X28374Y112709D01*
X28341Y112686D01*
X28266Y112594D01*
X28184Y112507D01*
X28164Y112472D01*
X28139Y112441D01*
X28088Y112333D01*
X28030Y112229D01*
X28020Y112189D01*
X28003Y112153D01*
X27981Y112036D01*
X27951Y111921D01*
X27947Y111861D01*
X27943Y111841D01*
X27945Y111820D01*
X27944Y111810D01*
X27943Y111807D01*
X27944Y111804D01*
X27941Y111760D01*
X27941Y54610D01*
X27956Y54492D01*
G37*
%LPC*%
G36*
X28052Y195325D02*
X28052Y195325D01*
X26415Y196962D01*
X26415Y251348D01*
X28052Y252985D01*
X115458Y252985D01*
X117095Y251348D01*
X117095Y196962D01*
X115458Y195325D01*
X28052Y195325D01*
G37*
%LPD*%
G36*
X457265Y97167D02*
X457265Y97167D01*
X457331Y97169D01*
X457374Y97187D01*
X457421Y97195D01*
X457478Y97229D01*
X457538Y97254D01*
X457573Y97285D01*
X457614Y97310D01*
X457656Y97361D01*
X457704Y97405D01*
X457726Y97447D01*
X457755Y97484D01*
X457776Y97546D01*
X457807Y97605D01*
X457815Y97659D01*
X457827Y97696D01*
X457826Y97736D01*
X457834Y97790D01*
X457834Y108586D01*
X465582Y108586D01*
X465647Y108597D01*
X465713Y108599D01*
X465756Y108617D01*
X465803Y108625D01*
X465860Y108659D01*
X465920Y108684D01*
X465955Y108715D01*
X465996Y108740D01*
X466038Y108791D01*
X466086Y108835D01*
X466108Y108877D01*
X466137Y108914D01*
X466158Y108976D01*
X466189Y109035D01*
X466197Y109089D01*
X466209Y109126D01*
X466208Y109166D01*
X466216Y109220D01*
X466216Y149654D01*
X466208Y149733D01*
X466210Y149812D01*
X466188Y149926D01*
X466176Y150042D01*
X466152Y150117D01*
X466138Y150195D01*
X466094Y150302D01*
X466058Y150413D01*
X466020Y150482D01*
X465990Y150555D01*
X465924Y150652D01*
X465867Y150753D01*
X465815Y150813D01*
X465771Y150878D01*
X465687Y150959D01*
X465611Y151047D01*
X465548Y151094D01*
X465491Y151149D01*
X465393Y151212D01*
X465300Y151282D01*
X465229Y151316D01*
X465162Y151358D01*
X465053Y151399D01*
X464948Y151449D01*
X464871Y151468D01*
X464797Y151496D01*
X464682Y151514D01*
X464569Y151541D01*
X464490Y151544D01*
X464412Y151556D01*
X464296Y151550D01*
X464179Y151554D01*
X464102Y151540D01*
X464023Y151536D01*
X463910Y151507D01*
X463795Y151487D01*
X463722Y151458D01*
X463646Y151438D01*
X463572Y151398D01*
X463433Y151343D01*
X463271Y151237D01*
X463193Y151195D01*
X462360Y150590D01*
X461023Y149908D01*
X459594Y149444D01*
X459359Y149407D01*
X459359Y158655D01*
X459352Y158721D01*
X459355Y158787D01*
X459353Y158798D01*
X459359Y158845D01*
X459359Y168093D01*
X459594Y168056D01*
X461023Y167592D01*
X462360Y166910D01*
X463193Y166305D01*
X463261Y166266D01*
X463324Y166218D01*
X463429Y166168D01*
X463530Y166110D01*
X463605Y166085D01*
X463676Y166051D01*
X463789Y166023D01*
X463900Y165987D01*
X463978Y165978D01*
X464055Y165959D01*
X464171Y165955D01*
X464287Y165942D01*
X464366Y165949D01*
X464445Y165946D01*
X464559Y165966D01*
X464675Y165977D01*
X464751Y165999D01*
X464829Y166013D01*
X464937Y166056D01*
X465048Y166090D01*
X465118Y166128D01*
X465191Y166157D01*
X465288Y166221D01*
X465390Y166276D01*
X465451Y166327D01*
X465517Y166371D01*
X465599Y166453D01*
X465687Y166529D01*
X465736Y166591D01*
X465792Y166647D01*
X465855Y166745D01*
X465927Y166836D01*
X465961Y166907D01*
X466005Y166973D01*
X466047Y167082D01*
X466098Y167186D01*
X466118Y167263D01*
X466147Y167336D01*
X466158Y167419D01*
X466195Y167564D01*
X466204Y167757D01*
X466216Y167846D01*
X466216Y203161D01*
X466205Y203226D01*
X466203Y203292D01*
X466185Y203335D01*
X466177Y203382D01*
X466143Y203439D01*
X466118Y203499D01*
X466087Y203534D01*
X466062Y203575D01*
X466011Y203617D01*
X465967Y203665D01*
X465925Y203687D01*
X465888Y203716D01*
X465826Y203737D01*
X465767Y203768D01*
X465713Y203776D01*
X465676Y203788D01*
X465636Y203787D01*
X465582Y203795D01*
X462024Y203795D01*
X462002Y203807D01*
X461913Y203820D01*
X461864Y203833D01*
X461843Y203830D01*
X461817Y203834D01*
X440054Y203834D01*
X440054Y215900D01*
X440043Y215965D01*
X440041Y216031D01*
X440023Y216074D01*
X440015Y216121D01*
X439981Y216178D01*
X439956Y216238D01*
X439925Y216273D01*
X439900Y216314D01*
X439849Y216356D01*
X439805Y216404D01*
X439763Y216426D01*
X439726Y216455D01*
X439664Y216476D01*
X439605Y216507D01*
X439551Y216515D01*
X439514Y216527D01*
X439474Y216526D01*
X439420Y216534D01*
X426720Y216534D01*
X426655Y216523D01*
X426589Y216521D01*
X426546Y216503D01*
X426499Y216495D01*
X426442Y216461D01*
X426382Y216436D01*
X426347Y216405D01*
X426306Y216380D01*
X426265Y216329D01*
X426216Y216285D01*
X426194Y216243D01*
X426165Y216206D01*
X426144Y216144D01*
X426113Y216085D01*
X426105Y216031D01*
X426093Y215994D01*
X426094Y215954D01*
X426086Y215900D01*
X426086Y116204D01*
X383540Y116204D01*
X383475Y116193D01*
X383409Y116191D01*
X383366Y116173D01*
X383319Y116165D01*
X383262Y116131D01*
X383202Y116106D01*
X383167Y116075D01*
X383126Y116050D01*
X383085Y115999D01*
X383036Y115955D01*
X383014Y115913D01*
X382985Y115876D01*
X382964Y115814D01*
X382933Y115755D01*
X382925Y115701D01*
X382913Y115664D01*
X382913Y115644D01*
X382913Y115643D01*
X382913Y115621D01*
X382906Y115570D01*
X382906Y97790D01*
X382917Y97725D01*
X382919Y97659D01*
X382937Y97616D01*
X382945Y97569D01*
X382979Y97512D01*
X383004Y97452D01*
X383035Y97417D01*
X383060Y97376D01*
X383111Y97335D01*
X383155Y97286D01*
X383197Y97264D01*
X383234Y97235D01*
X383296Y97214D01*
X383355Y97183D01*
X383409Y97175D01*
X383446Y97163D01*
X383486Y97164D01*
X383540Y97156D01*
X457200Y97156D01*
X457265Y97167D01*
G37*
G36*
X114418Y196866D02*
X114418Y196866D01*
X114537Y196873D01*
X114575Y196886D01*
X114616Y196891D01*
X114726Y196934D01*
X114839Y196971D01*
X114874Y196993D01*
X114911Y197008D01*
X115007Y197078D01*
X115108Y197141D01*
X115136Y197171D01*
X115169Y197194D01*
X115245Y197286D01*
X115326Y197373D01*
X115346Y197408D01*
X115371Y197439D01*
X115422Y197547D01*
X115480Y197651D01*
X115490Y197691D01*
X115507Y197727D01*
X115529Y197844D01*
X115559Y197959D01*
X115563Y198020D01*
X115567Y198040D01*
X115565Y198060D01*
X115569Y198120D01*
X115569Y205526D01*
X115554Y205644D01*
X115547Y205763D01*
X115534Y205801D01*
X115529Y205842D01*
X115486Y205952D01*
X115449Y206065D01*
X115427Y206100D01*
X115412Y206137D01*
X115343Y206233D01*
X115279Y206334D01*
X115249Y206362D01*
X115226Y206395D01*
X115134Y206471D01*
X115047Y206552D01*
X115012Y206572D01*
X114981Y206597D01*
X114873Y206648D01*
X114769Y206706D01*
X114729Y206716D01*
X114693Y206733D01*
X114576Y206755D01*
X114461Y206785D01*
X114401Y206789D01*
X114381Y206793D01*
X114360Y206791D01*
X114300Y206795D01*
X105667Y206795D01*
X104774Y207688D01*
X104774Y211671D01*
X104780Y211699D01*
X104796Y211736D01*
X104815Y211854D01*
X104841Y211970D01*
X104840Y212010D01*
X104846Y212050D01*
X104835Y212169D01*
X104831Y212288D01*
X104820Y212326D01*
X104817Y212366D01*
X104776Y212479D01*
X104774Y212485D01*
X104774Y216671D01*
X104780Y216699D01*
X104796Y216735D01*
X104796Y216736D01*
X104815Y216854D01*
X104841Y216969D01*
X104841Y216970D01*
X104840Y217010D01*
X104846Y217050D01*
X104835Y217169D01*
X104832Y217287D01*
X104831Y217287D01*
X104831Y217288D01*
X104820Y217326D01*
X104817Y217366D01*
X104776Y217479D01*
X104774Y217485D01*
X104774Y221492D01*
X105667Y222385D01*
X114300Y222385D01*
X114418Y222400D01*
X114537Y222407D01*
X114575Y222420D01*
X114616Y222425D01*
X114726Y222468D01*
X114839Y222505D01*
X114874Y222527D01*
X114911Y222542D01*
X115007Y222611D01*
X115108Y222675D01*
X115136Y222705D01*
X115169Y222728D01*
X115245Y222820D01*
X115326Y222907D01*
X115346Y222942D01*
X115371Y222973D01*
X115422Y223081D01*
X115480Y223185D01*
X115490Y223225D01*
X115507Y223261D01*
X115529Y223378D01*
X115559Y223493D01*
X115563Y223553D01*
X115567Y223573D01*
X115565Y223594D01*
X115569Y223654D01*
X115569Y250190D01*
X115554Y250308D01*
X115547Y250427D01*
X115534Y250465D01*
X115529Y250506D01*
X115486Y250616D01*
X115449Y250729D01*
X115427Y250764D01*
X115412Y250801D01*
X115343Y250897D01*
X115279Y250998D01*
X115249Y251026D01*
X115226Y251059D01*
X115134Y251135D01*
X115047Y251216D01*
X115012Y251236D01*
X114981Y251261D01*
X114873Y251312D01*
X114769Y251370D01*
X114729Y251380D01*
X114693Y251397D01*
X114576Y251419D01*
X114461Y251449D01*
X114401Y251453D01*
X114381Y251457D01*
X114360Y251455D01*
X114300Y251459D01*
X29210Y251459D01*
X29092Y251444D01*
X28973Y251437D01*
X28935Y251424D01*
X28894Y251419D01*
X28784Y251376D01*
X28671Y251339D01*
X28636Y251317D01*
X28599Y251302D01*
X28503Y251233D01*
X28402Y251169D01*
X28374Y251139D01*
X28341Y251116D01*
X28266Y251024D01*
X28184Y250937D01*
X28164Y250902D01*
X28139Y250871D01*
X28088Y250763D01*
X28030Y250659D01*
X28020Y250619D01*
X28003Y250583D01*
X27981Y250466D01*
X27951Y250351D01*
X27947Y250291D01*
X27943Y250271D01*
X27944Y250254D01*
X27943Y250249D01*
X27944Y250239D01*
X27941Y250190D01*
X27941Y198120D01*
X27956Y198002D01*
X27963Y197883D01*
X27976Y197845D01*
X27981Y197804D01*
X28024Y197694D01*
X28061Y197581D01*
X28083Y197546D01*
X28098Y197509D01*
X28168Y197413D01*
X28231Y197312D01*
X28261Y197284D01*
X28284Y197251D01*
X28376Y197176D01*
X28463Y197094D01*
X28498Y197074D01*
X28529Y197049D01*
X28637Y196998D01*
X28741Y196940D01*
X28781Y196930D01*
X28817Y196913D01*
X28934Y196891D01*
X29049Y196861D01*
X29110Y196857D01*
X29130Y196853D01*
X29150Y196855D01*
X29210Y196851D01*
X114300Y196851D01*
X114418Y196866D01*
G37*
G36*
X332858Y194326D02*
X332858Y194326D01*
X332977Y194333D01*
X333015Y194346D01*
X333056Y194351D01*
X333166Y194394D01*
X333279Y194431D01*
X333314Y194453D01*
X333351Y194468D01*
X333447Y194538D01*
X333548Y194601D01*
X333576Y194631D01*
X333609Y194654D01*
X333685Y194746D01*
X333766Y194833D01*
X333786Y194868D01*
X333811Y194899D01*
X333862Y195007D01*
X333920Y195111D01*
X333930Y195151D01*
X333947Y195187D01*
X333969Y195304D01*
X333999Y195419D01*
X334003Y195480D01*
X334007Y195500D01*
X334005Y195520D01*
X334009Y195580D01*
X334009Y243840D01*
X333994Y243958D01*
X333987Y244077D01*
X333974Y244115D01*
X333969Y244156D01*
X333926Y244266D01*
X333889Y244379D01*
X333867Y244414D01*
X333852Y244451D01*
X333783Y244547D01*
X333719Y244648D01*
X333689Y244676D01*
X333666Y244709D01*
X333574Y244785D01*
X333487Y244866D01*
X333452Y244886D01*
X333421Y244911D01*
X333313Y244962D01*
X333209Y245020D01*
X333169Y245030D01*
X333133Y245047D01*
X333016Y245069D01*
X332901Y245099D01*
X332841Y245103D01*
X332821Y245107D01*
X332800Y245105D01*
X332740Y245109D01*
X254000Y245109D01*
X253902Y245097D01*
X253803Y245094D01*
X253745Y245077D01*
X253684Y245069D01*
X253592Y245033D01*
X253497Y245005D01*
X253445Y244975D01*
X253389Y244952D01*
X253309Y244894D01*
X253223Y244844D01*
X253148Y244778D01*
X253131Y244766D01*
X253124Y244756D01*
X253103Y244738D01*
X237863Y229498D01*
X237802Y229419D01*
X237734Y229347D01*
X237705Y229294D01*
X237668Y229246D01*
X237628Y229155D01*
X237580Y229069D01*
X237565Y229010D01*
X237541Y228954D01*
X237526Y228856D01*
X237501Y228761D01*
X237495Y228671D01*
X237493Y228661D01*
X237494Y228655D01*
X237491Y228640D01*
X237493Y228628D01*
X237491Y228600D01*
X237491Y227997D01*
X237503Y227899D01*
X237506Y227800D01*
X237523Y227742D01*
X237531Y227682D01*
X237567Y227590D01*
X237595Y227495D01*
X237625Y227442D01*
X237648Y227386D01*
X237706Y227306D01*
X237745Y227240D01*
X237745Y213360D01*
X237760Y213242D01*
X237767Y213123D01*
X237780Y213085D01*
X237785Y213044D01*
X237828Y212934D01*
X237865Y212821D01*
X237887Y212786D01*
X237902Y212749D01*
X237971Y212653D01*
X238035Y212552D01*
X238065Y212524D01*
X238088Y212491D01*
X238180Y212416D01*
X238267Y212334D01*
X238302Y212314D01*
X238333Y212289D01*
X238441Y212238D01*
X238545Y212180D01*
X238585Y212170D01*
X238621Y212153D01*
X238738Y212131D01*
X238853Y212101D01*
X238913Y212097D01*
X238933Y212093D01*
X238954Y212095D01*
X239014Y212091D01*
X254744Y212091D01*
X261993Y204843D01*
X262071Y204782D01*
X262143Y204714D01*
X262196Y204685D01*
X262244Y204648D01*
X262335Y204608D01*
X262421Y204560D01*
X262480Y204545D01*
X262536Y204521D01*
X262634Y204506D01*
X262729Y204481D01*
X262829Y204475D01*
X262850Y204471D01*
X262862Y204473D01*
X262890Y204471D01*
X295384Y204471D01*
X305173Y194683D01*
X305251Y194622D01*
X305323Y194554D01*
X305376Y194525D01*
X305424Y194488D01*
X305515Y194448D01*
X305601Y194400D01*
X305660Y194385D01*
X305716Y194361D01*
X305814Y194346D01*
X305909Y194321D01*
X306009Y194315D01*
X306030Y194311D01*
X306042Y194313D01*
X306070Y194311D01*
X332740Y194311D01*
X332858Y194326D01*
G37*
G36*
X235068Y200676D02*
X235068Y200676D01*
X235187Y200683D01*
X235225Y200696D01*
X235266Y200701D01*
X235376Y200744D01*
X235489Y200781D01*
X235524Y200803D01*
X235561Y200818D01*
X235657Y200888D01*
X235758Y200951D01*
X235786Y200981D01*
X235819Y201004D01*
X235895Y201096D01*
X235976Y201183D01*
X235996Y201218D01*
X236021Y201249D01*
X236072Y201357D01*
X236130Y201461D01*
X236140Y201501D01*
X236157Y201537D01*
X236179Y201654D01*
X236209Y201769D01*
X236213Y201830D01*
X236217Y201850D01*
X236215Y201870D01*
X236219Y201930D01*
X236219Y226060D01*
X236204Y226178D01*
X236197Y226297D01*
X236184Y226335D01*
X236179Y226376D01*
X236136Y226486D01*
X236099Y226599D01*
X236077Y226634D01*
X236062Y226671D01*
X235993Y226767D01*
X235929Y226868D01*
X235899Y226896D01*
X235876Y226929D01*
X235784Y227005D01*
X235697Y227086D01*
X235662Y227106D01*
X235631Y227131D01*
X235523Y227182D01*
X235419Y227240D01*
X235379Y227250D01*
X235343Y227267D01*
X235226Y227289D01*
X235111Y227319D01*
X235051Y227323D01*
X235031Y227327D01*
X235010Y227325D01*
X234950Y227329D01*
X228599Y227329D01*
X228599Y265430D01*
X228584Y265548D01*
X228577Y265667D01*
X228564Y265705D01*
X228559Y265746D01*
X228516Y265856D01*
X228479Y265969D01*
X228457Y266004D01*
X228442Y266041D01*
X228373Y266137D01*
X228309Y266238D01*
X228279Y266266D01*
X228256Y266299D01*
X228164Y266375D01*
X228077Y266456D01*
X228042Y266476D01*
X228011Y266501D01*
X227903Y266552D01*
X227799Y266610D01*
X227759Y266620D01*
X227723Y266637D01*
X227606Y266659D01*
X227491Y266689D01*
X227431Y266693D01*
X227411Y266697D01*
X227390Y266695D01*
X227330Y266699D01*
X204470Y266699D01*
X204352Y266684D01*
X204233Y266677D01*
X204195Y266664D01*
X204154Y266659D01*
X204044Y266616D01*
X203931Y266579D01*
X203896Y266557D01*
X203859Y266542D01*
X203763Y266473D01*
X203662Y266409D01*
X203634Y266379D01*
X203601Y266356D01*
X203526Y266264D01*
X203444Y266177D01*
X203424Y266142D01*
X203399Y266111D01*
X203348Y266003D01*
X203290Y265899D01*
X203280Y265859D01*
X203263Y265823D01*
X203241Y265706D01*
X203211Y265591D01*
X203207Y265531D01*
X203203Y265511D01*
X203205Y265490D01*
X203204Y265474D01*
X203203Y265473D01*
X203203Y265472D01*
X203201Y265430D01*
X203201Y237489D01*
X138430Y237489D01*
X138312Y237474D01*
X138193Y237467D01*
X138155Y237454D01*
X138114Y237449D01*
X138004Y237406D01*
X137891Y237369D01*
X137856Y237347D01*
X137819Y237332D01*
X137723Y237263D01*
X137622Y237199D01*
X137594Y237169D01*
X137561Y237146D01*
X137486Y237054D01*
X137404Y236967D01*
X137384Y236932D01*
X137359Y236901D01*
X137308Y236793D01*
X137250Y236689D01*
X137240Y236649D01*
X137223Y236613D01*
X137201Y236496D01*
X137171Y236381D01*
X137167Y236321D01*
X137163Y236301D01*
X137164Y236285D01*
X137163Y236280D01*
X137164Y236270D01*
X137161Y236220D01*
X137161Y223654D01*
X137176Y223536D01*
X137183Y223417D01*
X137196Y223379D01*
X137201Y223338D01*
X137244Y223228D01*
X137281Y223115D01*
X137303Y223080D01*
X137318Y223043D01*
X137388Y222947D01*
X137451Y222846D01*
X137481Y222818D01*
X137504Y222785D01*
X137596Y222709D01*
X137683Y222628D01*
X137718Y222608D01*
X137749Y222583D01*
X137857Y222532D01*
X137961Y222474D01*
X138001Y222464D01*
X138037Y222447D01*
X138154Y222425D01*
X138269Y222395D01*
X138330Y222391D01*
X138350Y222387D01*
X138370Y222389D01*
X138430Y222385D01*
X143253Y222385D01*
X144146Y221492D01*
X144146Y217509D01*
X144140Y217481D01*
X144124Y217444D01*
X144105Y217326D01*
X144079Y217210D01*
X144080Y217170D01*
X144074Y217130D01*
X144085Y217011D01*
X144089Y216892D01*
X144100Y216854D01*
X144103Y216814D01*
X144144Y216701D01*
X144146Y216695D01*
X144146Y212509D01*
X144140Y212481D01*
X144124Y212444D01*
X144105Y212326D01*
X144079Y212210D01*
X144080Y212170D01*
X144074Y212130D01*
X144085Y212011D01*
X144089Y211892D01*
X144100Y211854D01*
X144103Y211814D01*
X144144Y211701D01*
X144146Y211695D01*
X144146Y207688D01*
X143253Y206795D01*
X138430Y206795D01*
X138312Y206780D01*
X138193Y206773D01*
X138155Y206760D01*
X138114Y206755D01*
X133604Y206755D01*
X133589Y206751D01*
X133573Y206753D01*
X133522Y206732D01*
X133469Y206716D01*
X133458Y206704D01*
X133444Y206698D01*
X133412Y206652D01*
X133375Y206611D01*
X133373Y206595D01*
X133364Y206582D01*
X133351Y206502D01*
X133351Y201168D01*
X133355Y201153D01*
X133353Y201137D01*
X133374Y201086D01*
X133390Y201033D01*
X133402Y201022D01*
X133408Y201008D01*
X133454Y200976D01*
X133495Y200939D01*
X133511Y200937D01*
X133524Y200928D01*
X133604Y200915D01*
X168910Y200915D01*
X169028Y200930D01*
X169147Y200937D01*
X169185Y200950D01*
X169226Y200955D01*
X169336Y200998D01*
X169449Y201035D01*
X169484Y201057D01*
X169521Y201072D01*
X169617Y201142D01*
X169718Y201205D01*
X169746Y201235D01*
X169779Y201258D01*
X169855Y201350D01*
X169936Y201437D01*
X169956Y201472D01*
X169981Y201503D01*
X170032Y201611D01*
X170090Y201715D01*
X170100Y201755D01*
X170117Y201791D01*
X170139Y201908D01*
X170169Y202023D01*
X170173Y202084D01*
X170177Y202104D01*
X170175Y202124D01*
X170179Y202184D01*
X170179Y211329D01*
X204452Y211329D01*
X214749Y201033D01*
X214827Y200972D01*
X214899Y200904D01*
X214952Y200875D01*
X215000Y200838D01*
X215091Y200798D01*
X215177Y200750D01*
X215236Y200735D01*
X215292Y200711D01*
X215390Y200696D01*
X215485Y200671D01*
X215585Y200665D01*
X215606Y200661D01*
X215618Y200663D01*
X215646Y200661D01*
X234950Y200661D01*
X235068Y200676D01*
G37*
G36*
X490285Y108597D02*
X490285Y108597D01*
X490351Y108599D01*
X490394Y108617D01*
X490441Y108625D01*
X490498Y108659D01*
X490558Y108684D01*
X490593Y108715D01*
X490634Y108740D01*
X490676Y108791D01*
X490724Y108835D01*
X490746Y108877D01*
X490775Y108914D01*
X490796Y108976D01*
X490827Y109035D01*
X490835Y109089D01*
X490847Y109126D01*
X490846Y109166D01*
X490854Y109220D01*
X490854Y144264D01*
X490856Y144265D01*
X490979Y144304D01*
X491037Y144336D01*
X491099Y144361D01*
X491206Y144432D01*
X491319Y144495D01*
X491369Y144539D01*
X491425Y144575D01*
X491516Y144666D01*
X491613Y144751D01*
X491653Y144804D01*
X491700Y144851D01*
X491770Y144959D01*
X491848Y145062D01*
X491876Y145122D01*
X491913Y145178D01*
X491960Y145298D01*
X492015Y145414D01*
X492031Y145479D01*
X492055Y145541D01*
X492067Y145627D01*
X492107Y145793D01*
X492112Y145963D01*
X492124Y146050D01*
X492124Y147118D01*
X492114Y147217D01*
X492114Y147317D01*
X492094Y147411D01*
X492084Y147506D01*
X492054Y147601D01*
X492045Y147643D01*
X492045Y152068D01*
X492055Y152093D01*
X492065Y152165D01*
X492097Y152279D01*
X492113Y152519D01*
X492124Y152602D01*
X492124Y156008D01*
X492114Y156107D01*
X492114Y156207D01*
X492094Y156301D01*
X492084Y156396D01*
X492054Y156491D01*
X492045Y156533D01*
X492045Y160958D01*
X492055Y160983D01*
X492065Y161055D01*
X492097Y161169D01*
X492113Y161409D01*
X492124Y161492D01*
X492124Y164898D01*
X492114Y164997D01*
X492114Y165097D01*
X492094Y165191D01*
X492084Y165286D01*
X492054Y165381D01*
X492045Y165423D01*
X492045Y169848D01*
X492055Y169873D01*
X492065Y169945D01*
X492097Y170059D01*
X492113Y170299D01*
X492124Y170382D01*
X492124Y171450D01*
X492117Y171516D01*
X492120Y171583D01*
X492098Y171710D01*
X492084Y171838D01*
X492064Y171901D01*
X492053Y171967D01*
X492005Y172086D01*
X491966Y172209D01*
X491934Y172267D01*
X491909Y172329D01*
X491838Y172436D01*
X491775Y172549D01*
X491731Y172599D01*
X491695Y172655D01*
X491604Y172746D01*
X491519Y172843D01*
X491466Y172883D01*
X491419Y172930D01*
X491311Y173000D01*
X491208Y173078D01*
X491148Y173106D01*
X491092Y173143D01*
X490972Y173190D01*
X490856Y173245D01*
X490854Y173245D01*
X490854Y213741D01*
X490843Y213806D01*
X490841Y213872D01*
X490823Y213915D01*
X490815Y213962D01*
X490781Y214019D01*
X490756Y214079D01*
X490725Y214114D01*
X490700Y214155D01*
X490649Y214197D01*
X490605Y214245D01*
X490563Y214267D01*
X490526Y214296D01*
X490464Y214317D01*
X490405Y214348D01*
X490351Y214356D01*
X490314Y214368D01*
X490274Y214367D01*
X490220Y214375D01*
X480970Y214375D01*
X480821Y214524D01*
X480821Y215900D01*
X480810Y215965D01*
X480808Y216031D01*
X480790Y216074D01*
X480782Y216121D01*
X480748Y216178D01*
X480723Y216238D01*
X480692Y216273D01*
X480667Y216314D01*
X480616Y216356D01*
X480572Y216404D01*
X480530Y216426D01*
X480493Y216455D01*
X480431Y216476D01*
X480372Y216507D01*
X480318Y216515D01*
X480281Y216527D01*
X480241Y216526D01*
X480187Y216534D01*
X478790Y216534D01*
X478725Y216523D01*
X478659Y216521D01*
X478616Y216503D01*
X478569Y216495D01*
X478512Y216461D01*
X478452Y216436D01*
X478417Y216405D01*
X478376Y216380D01*
X478335Y216329D01*
X478286Y216285D01*
X478264Y216243D01*
X478235Y216206D01*
X478214Y216144D01*
X478183Y216085D01*
X478175Y216031D01*
X478163Y215994D01*
X478164Y215954D01*
X478156Y215900D01*
X478156Y203834D01*
X473683Y203834D01*
X473641Y203827D01*
X473599Y203829D01*
X473532Y203807D01*
X473466Y203795D01*
X468630Y203795D01*
X468565Y203784D01*
X468499Y203782D01*
X468456Y203764D01*
X468409Y203756D01*
X468352Y203722D01*
X468292Y203697D01*
X468257Y203666D01*
X468216Y203641D01*
X468175Y203590D01*
X468126Y203546D01*
X468104Y203504D01*
X468075Y203467D01*
X468054Y203405D01*
X468023Y203346D01*
X468015Y203292D01*
X468003Y203255D01*
X468004Y203215D01*
X467996Y203161D01*
X467996Y167640D01*
X468007Y167575D01*
X468009Y167509D01*
X468027Y167466D01*
X468035Y167419D01*
X468069Y167362D01*
X468094Y167302D01*
X468125Y167267D01*
X468150Y167226D01*
X468201Y167185D01*
X468245Y167136D01*
X468287Y167114D01*
X468324Y167085D01*
X468386Y167064D01*
X468445Y167033D01*
X468499Y167025D01*
X468536Y167013D01*
X468576Y167014D01*
X468630Y167006D01*
X470418Y167006D01*
X470534Y166951D01*
X470566Y166943D01*
X470597Y166930D01*
X470756Y166897D01*
X470913Y166859D01*
X470946Y166858D01*
X470979Y166851D01*
X471141Y166851D01*
X471303Y166846D01*
X471335Y166852D01*
X471369Y166852D01*
X471528Y166885D01*
X471687Y166913D01*
X471717Y166925D01*
X471750Y166932D01*
X471899Y166997D01*
X471921Y167006D01*
X475361Y167006D01*
X475361Y158845D01*
X475368Y158779D01*
X475365Y158713D01*
X475367Y158702D01*
X475361Y158655D01*
X475361Y150494D01*
X471929Y150494D01*
X471868Y150526D01*
X471836Y150535D01*
X471806Y150549D01*
X471649Y150587D01*
X471493Y150631D01*
X471459Y150633D01*
X471427Y150641D01*
X471265Y150646D01*
X471104Y150657D01*
X471071Y150653D01*
X471037Y150654D01*
X470878Y150626D01*
X470718Y150604D01*
X470686Y150593D01*
X470653Y150587D01*
X470503Y150528D01*
X470410Y150494D01*
X468630Y150494D01*
X468565Y150483D01*
X468499Y150481D01*
X468456Y150463D01*
X468409Y150455D01*
X468352Y150421D01*
X468292Y150396D01*
X468257Y150365D01*
X468216Y150340D01*
X468175Y150289D01*
X468126Y150245D01*
X468104Y150203D01*
X468075Y150166D01*
X468054Y150104D01*
X468023Y150045D01*
X468015Y149991D01*
X468003Y149954D01*
X468004Y149914D01*
X467996Y149860D01*
X467996Y109220D01*
X468007Y109155D01*
X468009Y109089D01*
X468027Y109046D01*
X468035Y108999D01*
X468069Y108942D01*
X468094Y108882D01*
X468125Y108847D01*
X468150Y108806D01*
X468201Y108765D01*
X468245Y108716D01*
X468287Y108694D01*
X468324Y108665D01*
X468386Y108644D01*
X468445Y108613D01*
X468499Y108605D01*
X468536Y108593D01*
X468576Y108594D01*
X468630Y108586D01*
X490220Y108586D01*
X490285Y108597D01*
G37*
G36*
X170278Y172733D02*
X170278Y172733D01*
X170377Y172736D01*
X170435Y172753D01*
X170496Y172761D01*
X170588Y172797D01*
X170683Y172825D01*
X170735Y172855D01*
X170791Y172878D01*
X170871Y172936D01*
X170957Y172986D01*
X171032Y173052D01*
X171049Y173064D01*
X171056Y173074D01*
X171078Y173093D01*
X184676Y186691D01*
X208280Y186691D01*
X208398Y186706D01*
X208517Y186713D01*
X208555Y186726D01*
X208596Y186731D01*
X208706Y186774D01*
X208819Y186811D01*
X208854Y186833D01*
X208891Y186848D01*
X208987Y186918D01*
X209088Y186981D01*
X209116Y187011D01*
X209149Y187034D01*
X209225Y187126D01*
X209306Y187213D01*
X209326Y187248D01*
X209351Y187279D01*
X209402Y187387D01*
X209460Y187491D01*
X209470Y187531D01*
X209487Y187567D01*
X209509Y187684D01*
X209539Y187799D01*
X209543Y187860D01*
X209547Y187880D01*
X209545Y187900D01*
X209549Y187960D01*
X209549Y201930D01*
X209537Y202028D01*
X209534Y202127D01*
X209517Y202185D01*
X209509Y202246D01*
X209473Y202338D01*
X209445Y202433D01*
X209415Y202485D01*
X209392Y202541D01*
X209334Y202621D01*
X209284Y202707D01*
X209218Y202782D01*
X209206Y202799D01*
X209196Y202806D01*
X209178Y202828D01*
X204098Y207908D01*
X204019Y207968D01*
X203947Y208036D01*
X203894Y208065D01*
X203846Y208102D01*
X203755Y208142D01*
X203669Y208190D01*
X203610Y208205D01*
X203554Y208229D01*
X203456Y208244D01*
X203361Y208269D01*
X203261Y208275D01*
X203240Y208279D01*
X203228Y208277D01*
X203200Y208279D01*
X187960Y208279D01*
X187862Y208267D01*
X187763Y208264D01*
X187705Y208247D01*
X187644Y208239D01*
X187552Y208203D01*
X187457Y208175D01*
X187405Y208145D01*
X187349Y208122D01*
X187269Y208064D01*
X187183Y208014D01*
X187108Y207948D01*
X187091Y207936D01*
X187084Y207926D01*
X187073Y207917D01*
X187072Y207916D01*
X187071Y207915D01*
X187063Y207908D01*
X169654Y190499D01*
X152400Y190499D01*
X152282Y190484D01*
X152163Y190477D01*
X152125Y190464D01*
X152084Y190459D01*
X151974Y190416D01*
X151861Y190379D01*
X151826Y190357D01*
X151789Y190342D01*
X151693Y190273D01*
X151592Y190209D01*
X151564Y190179D01*
X151531Y190156D01*
X151456Y190064D01*
X151374Y189977D01*
X151354Y189942D01*
X151329Y189911D01*
X151278Y189803D01*
X151220Y189699D01*
X151210Y189659D01*
X151193Y189623D01*
X151171Y189506D01*
X151141Y189391D01*
X151137Y189331D01*
X151133Y189311D01*
X151134Y189304D01*
X151133Y189302D01*
X151134Y189286D01*
X151131Y189230D01*
X151131Y173990D01*
X151146Y173872D01*
X151153Y173753D01*
X151166Y173715D01*
X151171Y173674D01*
X151214Y173564D01*
X151251Y173451D01*
X151273Y173416D01*
X151288Y173379D01*
X151358Y173283D01*
X151421Y173182D01*
X151451Y173154D01*
X151474Y173121D01*
X151566Y173046D01*
X151653Y172964D01*
X151688Y172944D01*
X151719Y172919D01*
X151827Y172868D01*
X151931Y172810D01*
X151971Y172800D01*
X152007Y172783D01*
X152124Y172761D01*
X152239Y172731D01*
X152300Y172727D01*
X152320Y172723D01*
X152340Y172725D01*
X152400Y172721D01*
X170180Y172721D01*
X170278Y172733D01*
G37*
G36*
X378578Y193056D02*
X378578Y193056D01*
X378697Y193063D01*
X378735Y193076D01*
X378776Y193081D01*
X378886Y193124D01*
X378999Y193161D01*
X379034Y193183D01*
X379071Y193198D01*
X379167Y193268D01*
X379268Y193331D01*
X379296Y193361D01*
X379329Y193384D01*
X379405Y193476D01*
X379486Y193563D01*
X379506Y193598D01*
X379531Y193629D01*
X379582Y193737D01*
X379640Y193841D01*
X379650Y193881D01*
X379667Y193917D01*
X379689Y194034D01*
X379719Y194149D01*
X379723Y194210D01*
X379727Y194230D01*
X379725Y194250D01*
X379729Y194310D01*
X379729Y198864D01*
X385708Y204843D01*
X385768Y204921D01*
X385836Y204993D01*
X385858Y205032D01*
X385875Y205053D01*
X385881Y205066D01*
X385902Y205094D01*
X385942Y205185D01*
X385990Y205271D01*
X386004Y205327D01*
X386010Y205340D01*
X386011Y205344D01*
X386029Y205386D01*
X386044Y205484D01*
X386069Y205579D01*
X386075Y205679D01*
X386079Y205700D01*
X386077Y205712D01*
X386079Y205740D01*
X386079Y224790D01*
X386064Y224908D01*
X386057Y225027D01*
X386044Y225065D01*
X386039Y225106D01*
X385996Y225216D01*
X385959Y225329D01*
X385937Y225364D01*
X385922Y225401D01*
X385853Y225497D01*
X385789Y225598D01*
X385759Y225626D01*
X385736Y225659D01*
X385644Y225735D01*
X385557Y225816D01*
X385522Y225836D01*
X385491Y225861D01*
X385383Y225912D01*
X385279Y225970D01*
X385239Y225980D01*
X385203Y225997D01*
X385086Y226019D01*
X384971Y226049D01*
X384911Y226053D01*
X384891Y226057D01*
X384870Y226055D01*
X384810Y226059D01*
X363220Y226059D01*
X363102Y226044D01*
X362983Y226037D01*
X362945Y226024D01*
X362904Y226019D01*
X362794Y225976D01*
X362681Y225939D01*
X362646Y225917D01*
X362609Y225902D01*
X362513Y225833D01*
X362412Y225769D01*
X362384Y225739D01*
X362351Y225716D01*
X362276Y225624D01*
X362194Y225537D01*
X362174Y225502D01*
X362149Y225471D01*
X362098Y225363D01*
X362040Y225259D01*
X362030Y225219D01*
X362013Y225183D01*
X361991Y225066D01*
X361961Y224951D01*
X361957Y224891D01*
X361953Y224871D01*
X361954Y224857D01*
X361953Y224853D01*
X361954Y224841D01*
X361951Y224790D01*
X361951Y194310D01*
X361966Y194192D01*
X361973Y194073D01*
X361986Y194035D01*
X361991Y193994D01*
X362034Y193884D01*
X362071Y193771D01*
X362093Y193736D01*
X362108Y193699D01*
X362178Y193603D01*
X362241Y193502D01*
X362271Y193474D01*
X362294Y193441D01*
X362386Y193366D01*
X362473Y193284D01*
X362508Y193264D01*
X362539Y193239D01*
X362647Y193188D01*
X362751Y193130D01*
X362791Y193120D01*
X362827Y193103D01*
X362944Y193081D01*
X363059Y193051D01*
X363120Y193047D01*
X363140Y193043D01*
X363160Y193045D01*
X363220Y193041D01*
X378460Y193041D01*
X378578Y193056D01*
G37*
G36*
X372618Y156338D02*
X372618Y156338D01*
X372619Y156338D01*
X372663Y156357D01*
X372707Y156376D01*
X372708Y156377D01*
X372709Y156378D01*
X372725Y156423D01*
X372743Y156468D01*
X372742Y156469D01*
X372743Y156470D01*
X372706Y156553D01*
X372700Y156560D01*
X372700Y158780D01*
X372707Y158788D01*
X372708Y158791D01*
X372711Y158792D01*
X372744Y158877D01*
X372744Y159434D01*
X375998Y162688D01*
X376428Y162688D01*
X376431Y162689D01*
X376434Y162688D01*
X376517Y162725D01*
X381351Y167559D01*
X381353Y167562D01*
X381355Y167563D01*
X381388Y167648D01*
X381388Y168062D01*
X389206Y175880D01*
X389620Y175880D01*
X389623Y175881D01*
X389626Y175880D01*
X389709Y175917D01*
X395567Y181775D01*
X395569Y181778D01*
X395571Y181779D01*
X395604Y181864D01*
X395604Y187706D01*
X395603Y187708D01*
X395604Y187710D01*
X395584Y187753D01*
X395566Y187797D01*
X395564Y187797D01*
X395563Y187799D01*
X395478Y187832D01*
X363728Y187832D01*
X363726Y187831D01*
X363724Y187832D01*
X363681Y187812D01*
X363637Y187794D01*
X363637Y187792D01*
X363635Y187791D01*
X363602Y187706D01*
X363602Y166116D01*
X363603Y166114D01*
X363602Y166112D01*
X363622Y166069D01*
X363640Y166025D01*
X363642Y166025D01*
X363643Y166023D01*
X363728Y165990D01*
X370206Y165990D01*
X370206Y156477D01*
X370207Y156475D01*
X370206Y156473D01*
X370226Y156430D01*
X370244Y156386D01*
X370246Y156385D01*
X370247Y156383D01*
X370332Y156350D01*
X372522Y156350D01*
X372555Y156338D01*
X372617Y156338D01*
X372618Y156338D01*
G37*
%LPC*%
G36*
X218768Y139025D02*
X218768Y139025D01*
X217875Y139918D01*
X217875Y152182D01*
X218768Y153075D01*
X230032Y153075D01*
X230925Y152182D01*
X230925Y150114D01*
X230940Y149995D01*
X230947Y149877D01*
X230960Y149839D01*
X230965Y149798D01*
X231008Y149688D01*
X231045Y149575D01*
X231067Y149540D01*
X231082Y149503D01*
X231151Y149407D01*
X231215Y149306D01*
X231245Y149278D01*
X231268Y149245D01*
X231360Y149169D01*
X231447Y149088D01*
X231482Y149068D01*
X231513Y149043D01*
X231621Y148992D01*
X231725Y148934D01*
X231765Y148924D01*
X231801Y148907D01*
X231918Y148885D01*
X232033Y148855D01*
X232093Y148851D01*
X232113Y148847D01*
X232134Y148849D01*
X232194Y148845D01*
X237706Y148845D01*
X237824Y148860D01*
X237943Y148867D01*
X237981Y148880D01*
X238022Y148885D01*
X238132Y148928D01*
X238245Y148965D01*
X238280Y148987D01*
X238317Y149002D01*
X238413Y149071D01*
X238514Y149135D01*
X238542Y149165D01*
X238575Y149188D01*
X238651Y149280D01*
X238732Y149367D01*
X238752Y149402D01*
X238777Y149433D01*
X238828Y149541D01*
X238886Y149645D01*
X238896Y149685D01*
X238913Y149721D01*
X238935Y149838D01*
X238965Y149953D01*
X238969Y150013D01*
X238973Y150033D01*
X238971Y150054D01*
X238975Y150114D01*
X238975Y152182D01*
X239868Y153075D01*
X251132Y153075D01*
X252025Y152182D01*
X252025Y139918D01*
X251132Y139025D01*
X239868Y139025D01*
X238975Y139918D01*
X238975Y141986D01*
X238960Y142104D01*
X238953Y142223D01*
X238940Y142261D01*
X238935Y142302D01*
X238892Y142412D01*
X238855Y142525D01*
X238833Y142560D01*
X238818Y142597D01*
X238749Y142693D01*
X238685Y142794D01*
X238655Y142822D01*
X238632Y142855D01*
X238540Y142931D01*
X238453Y143012D01*
X238418Y143032D01*
X238387Y143057D01*
X238279Y143108D01*
X238175Y143166D01*
X238135Y143176D01*
X238099Y143193D01*
X237982Y143215D01*
X237867Y143245D01*
X237807Y143249D01*
X237787Y143253D01*
X237766Y143251D01*
X237706Y143255D01*
X232194Y143255D01*
X232076Y143240D01*
X231957Y143233D01*
X231919Y143220D01*
X231878Y143215D01*
X231768Y143172D01*
X231655Y143135D01*
X231620Y143113D01*
X231583Y143098D01*
X231487Y143029D01*
X231386Y142965D01*
X231358Y142935D01*
X231325Y142912D01*
X231249Y142820D01*
X231168Y142733D01*
X231148Y142698D01*
X231123Y142667D01*
X231072Y142559D01*
X231014Y142455D01*
X231004Y142415D01*
X230987Y142379D01*
X230965Y142262D01*
X230935Y142147D01*
X230931Y142087D01*
X230927Y142067D01*
X230929Y142046D01*
X230925Y141986D01*
X230925Y139918D01*
X230032Y139025D01*
X218768Y139025D01*
G37*
%LPD*%
G36*
X165115Y149230D02*
X165115Y149230D01*
X165131Y149228D01*
X165182Y149249D01*
X165235Y149265D01*
X165246Y149277D01*
X165260Y149283D01*
X165292Y149329D01*
X165329Y149370D01*
X165331Y149386D01*
X165340Y149399D01*
X165353Y149479D01*
X165353Y154687D01*
X187960Y154687D01*
X187975Y154691D01*
X187991Y154689D01*
X188042Y154710D01*
X188095Y154726D01*
X188106Y154738D01*
X188120Y154744D01*
X188152Y154790D01*
X188189Y154831D01*
X188191Y154847D01*
X188200Y154860D01*
X188213Y154940D01*
X188213Y157480D01*
X188209Y157495D01*
X188211Y157511D01*
X188190Y157562D01*
X188174Y157615D01*
X188162Y157626D01*
X188156Y157640D01*
X188110Y157672D01*
X188069Y157709D01*
X188053Y157711D01*
X188040Y157720D01*
X187960Y157733D01*
X180747Y157733D01*
X180691Y157717D01*
X180634Y157707D01*
X180620Y157696D01*
X180612Y157694D01*
X180603Y157684D01*
X180568Y157659D01*
X179674Y156765D01*
X175926Y156765D01*
X175032Y157659D01*
X174981Y157687D01*
X174933Y157720D01*
X174916Y157723D01*
X174909Y157727D01*
X174896Y157726D01*
X174853Y157733D01*
X173127Y157733D01*
X173071Y157717D01*
X173014Y157707D01*
X173000Y157696D01*
X172992Y157694D01*
X172983Y157684D01*
X172948Y157659D01*
X172054Y156765D01*
X168306Y156765D01*
X167412Y157659D01*
X167361Y157687D01*
X167313Y157720D01*
X167296Y157723D01*
X167289Y157727D01*
X167276Y157726D01*
X167233Y157733D01*
X165353Y157733D01*
X165353Y164847D01*
X167233Y164847D01*
X167289Y164863D01*
X167346Y164873D01*
X167360Y164884D01*
X167368Y164886D01*
X167377Y164896D01*
X167412Y164921D01*
X168306Y165815D01*
X172054Y165815D01*
X172948Y164921D01*
X172999Y164893D01*
X173047Y164860D01*
X173064Y164857D01*
X173071Y164853D01*
X173084Y164854D01*
X173127Y164847D01*
X174853Y164847D01*
X174909Y164863D01*
X174966Y164873D01*
X174980Y164884D01*
X174988Y164886D01*
X174997Y164896D01*
X175032Y164921D01*
X175926Y165815D01*
X179674Y165815D01*
X180568Y164921D01*
X180619Y164893D01*
X180667Y164860D01*
X180684Y164857D01*
X180691Y164853D01*
X180704Y164854D01*
X180747Y164847D01*
X187960Y164847D01*
X187975Y164851D01*
X187991Y164849D01*
X188042Y164870D01*
X188095Y164886D01*
X188106Y164898D01*
X188120Y164904D01*
X188152Y164950D01*
X188189Y164991D01*
X188191Y165007D01*
X188200Y165020D01*
X188213Y165100D01*
X188213Y167640D01*
X188209Y167655D01*
X188211Y167671D01*
X188190Y167722D01*
X188174Y167775D01*
X188162Y167786D01*
X188156Y167800D01*
X188110Y167832D01*
X188069Y167869D01*
X188053Y167871D01*
X188040Y167880D01*
X187960Y167893D01*
X149860Y167893D01*
X149845Y167889D01*
X149829Y167891D01*
X149778Y167870D01*
X149725Y167854D01*
X149714Y167842D01*
X149700Y167836D01*
X149668Y167790D01*
X149631Y167749D01*
X149629Y167733D01*
X149620Y167720D01*
X149607Y167640D01*
X149607Y162941D01*
X149611Y162926D01*
X149609Y162910D01*
X149630Y162859D01*
X149646Y162806D01*
X149658Y162795D01*
X149664Y162781D01*
X149710Y162749D01*
X149751Y162712D01*
X149767Y162710D01*
X149780Y162701D01*
X149860Y162688D01*
X149913Y162688D01*
X149988Y162613D01*
X149988Y149807D01*
X149966Y149785D01*
X149913Y149732D01*
X149860Y149732D01*
X149725Y149693D01*
X149631Y149588D01*
X149609Y149448D01*
X149664Y149319D01*
X149780Y149239D01*
X149860Y149226D01*
X165100Y149226D01*
X165115Y149230D01*
G37*
G36*
X356255Y145765D02*
X356255Y145765D01*
X356393Y145773D01*
X356412Y145780D01*
X356432Y145781D01*
X356564Y145829D01*
X356695Y145871D01*
X356713Y145882D01*
X356732Y145889D01*
X356847Y145967D01*
X356964Y146042D01*
X356978Y146056D01*
X356995Y146068D01*
X357087Y146172D01*
X357182Y146273D01*
X357192Y146291D01*
X357205Y146306D01*
X357269Y146430D01*
X357336Y146552D01*
X357341Y146571D01*
X357350Y146589D01*
X357380Y146725D01*
X357415Y146860D01*
X357417Y146888D01*
X357420Y146900D01*
X357419Y146920D01*
X357425Y147020D01*
X357425Y148066D01*
X358160Y148801D01*
X358233Y148895D01*
X358312Y148984D01*
X358330Y149020D01*
X358355Y149052D01*
X358403Y149161D01*
X358457Y149267D01*
X358465Y149306D01*
X358481Y149344D01*
X358500Y149461D01*
X358526Y149577D01*
X358525Y149618D01*
X358531Y149658D01*
X358520Y149776D01*
X358517Y149895D01*
X358505Y149934D01*
X358502Y149974D01*
X358461Y150087D01*
X358428Y150201D01*
X358408Y150236D01*
X358394Y150274D01*
X358327Y150372D01*
X358267Y150475D01*
X358227Y150520D01*
X358215Y150537D01*
X358200Y150550D01*
X358160Y150596D01*
X348360Y160395D01*
X348360Y166220D01*
X348348Y166318D01*
X348345Y166417D01*
X348328Y166475D01*
X348320Y166535D01*
X348284Y166627D01*
X348256Y166722D01*
X348226Y166775D01*
X348203Y166831D01*
X348145Y166911D01*
X348095Y166996D01*
X348029Y167072D01*
X348017Y167088D01*
X348007Y167096D01*
X347989Y167117D01*
X345288Y169817D01*
X345194Y169890D01*
X345105Y169969D01*
X345069Y169987D01*
X345037Y170012D01*
X344928Y170060D01*
X344822Y170114D01*
X344783Y170122D01*
X344745Y170138D01*
X344628Y170157D01*
X344512Y170183D01*
X344471Y170182D01*
X344431Y170188D01*
X344313Y170177D01*
X344194Y170174D01*
X344155Y170162D01*
X344115Y170159D01*
X344003Y170118D01*
X343888Y170085D01*
X343853Y170065D01*
X343815Y170051D01*
X343717Y169984D01*
X343614Y169924D01*
X343569Y169884D01*
X343552Y169872D01*
X343539Y169857D01*
X343493Y169817D01*
X342642Y168965D01*
X335378Y168965D01*
X334907Y169436D01*
X334813Y169509D01*
X334724Y169588D01*
X334688Y169606D01*
X334656Y169631D01*
X334547Y169679D01*
X334441Y169733D01*
X334402Y169741D01*
X334364Y169757D01*
X334247Y169776D01*
X334131Y169802D01*
X334090Y169801D01*
X334050Y169807D01*
X333932Y169796D01*
X333813Y169793D01*
X333774Y169781D01*
X333734Y169778D01*
X333622Y169737D01*
X333507Y169704D01*
X333472Y169684D01*
X333434Y169670D01*
X333336Y169603D01*
X333233Y169543D01*
X333188Y169503D01*
X333171Y169491D01*
X333158Y169476D01*
X333112Y169436D01*
X332642Y168965D01*
X328800Y168965D01*
X328662Y168948D01*
X328524Y168935D01*
X328505Y168928D01*
X328485Y168925D01*
X328355Y168874D01*
X328225Y168827D01*
X328208Y168816D01*
X328189Y168808D01*
X328077Y168727D01*
X327961Y168649D01*
X327948Y168633D01*
X327932Y168622D01*
X327842Y168514D01*
X327751Y168410D01*
X327742Y168392D01*
X327729Y168377D01*
X327670Y168251D01*
X327606Y168127D01*
X327602Y168107D01*
X327593Y168089D01*
X327567Y167952D01*
X327537Y167817D01*
X327537Y167796D01*
X327534Y167777D01*
X327542Y167638D01*
X327546Y167499D01*
X327552Y167479D01*
X327553Y167459D01*
X327596Y167327D01*
X327635Y167193D01*
X327645Y167176D01*
X327651Y167157D01*
X327726Y167039D01*
X327796Y166919D01*
X327815Y166898D01*
X327822Y166888D01*
X327837Y166874D01*
X327903Y166799D01*
X329080Y165622D01*
X329080Y156958D01*
X327903Y155781D01*
X327817Y155671D01*
X327729Y155565D01*
X327720Y155546D01*
X327708Y155530D01*
X327652Y155402D01*
X327593Y155277D01*
X327590Y155257D01*
X327581Y155238D01*
X327560Y155100D01*
X327534Y154964D01*
X327535Y154944D01*
X327532Y154924D01*
X327545Y154785D01*
X327553Y154647D01*
X327560Y154628D01*
X327561Y154608D01*
X327609Y154476D01*
X327651Y154345D01*
X327662Y154327D01*
X327669Y154308D01*
X327747Y154193D01*
X327822Y154076D01*
X327836Y154062D01*
X327848Y154045D01*
X327952Y153953D01*
X328053Y153858D01*
X328071Y153848D01*
X328086Y153835D01*
X328210Y153771D01*
X328332Y153704D01*
X328351Y153699D01*
X328369Y153690D01*
X328505Y153660D01*
X328640Y153625D01*
X328668Y153623D01*
X328680Y153620D01*
X328700Y153621D01*
X328800Y153615D01*
X332642Y153615D01*
X333112Y153144D01*
X333206Y153071D01*
X333296Y152992D01*
X333332Y152974D01*
X333364Y152949D01*
X333473Y152902D01*
X333579Y152847D01*
X333618Y152839D01*
X333656Y152823D01*
X333773Y152804D01*
X333889Y152778D01*
X333930Y152779D01*
X333970Y152773D01*
X334088Y152784D01*
X334207Y152787D01*
X334246Y152799D01*
X334286Y152802D01*
X334398Y152843D01*
X334513Y152876D01*
X334548Y152896D01*
X334586Y152910D01*
X334684Y152977D01*
X334787Y153037D01*
X334832Y153077D01*
X334849Y153089D01*
X334862Y153104D01*
X334907Y153144D01*
X335378Y153615D01*
X342642Y153615D01*
X343535Y152722D01*
X343535Y152019D01*
X343550Y151901D01*
X343557Y151782D01*
X343570Y151744D01*
X343575Y151703D01*
X343618Y151593D01*
X343655Y151480D01*
X343677Y151445D01*
X343692Y151408D01*
X343761Y151312D01*
X343825Y151211D01*
X343855Y151183D01*
X343878Y151150D01*
X343970Y151074D01*
X344057Y150993D01*
X344092Y150973D01*
X344123Y150948D01*
X344231Y150897D01*
X344335Y150839D01*
X344375Y150829D01*
X344411Y150812D01*
X344528Y150790D01*
X344643Y150760D01*
X344703Y150756D01*
X344723Y150752D01*
X344744Y150754D01*
X344804Y150750D01*
X350632Y150750D01*
X355259Y146123D01*
X355368Y146038D01*
X355475Y145949D01*
X355494Y145940D01*
X355510Y145928D01*
X355638Y145872D01*
X355763Y145813D01*
X355783Y145810D01*
X355802Y145801D01*
X355940Y145780D01*
X356076Y145754D01*
X356096Y145755D01*
X356116Y145752D01*
X356255Y145765D01*
G37*
G36*
X332805Y181495D02*
X332805Y181495D01*
X332871Y181497D01*
X332914Y181515D01*
X332961Y181523D01*
X333018Y181557D01*
X333078Y181582D01*
X333113Y181613D01*
X333154Y181638D01*
X333196Y181689D01*
X333244Y181733D01*
X333266Y181775D01*
X333295Y181812D01*
X333316Y181874D01*
X333347Y181933D01*
X333355Y181987D01*
X333367Y182024D01*
X333366Y182064D01*
X333374Y182118D01*
X333374Y191770D01*
X333363Y191835D01*
X333361Y191901D01*
X333343Y191944D01*
X333335Y191991D01*
X333301Y192048D01*
X333276Y192108D01*
X333245Y192143D01*
X333220Y192184D01*
X333169Y192226D01*
X333125Y192274D01*
X333083Y192296D01*
X333046Y192325D01*
X332984Y192346D01*
X332925Y192377D01*
X332871Y192385D01*
X332834Y192397D01*
X332794Y192396D01*
X332740Y192404D01*
X302260Y192404D01*
X302195Y192393D01*
X302129Y192391D01*
X302086Y192373D01*
X302039Y192365D01*
X301982Y192331D01*
X301922Y192306D01*
X301887Y192275D01*
X301846Y192250D01*
X301805Y192199D01*
X301756Y192155D01*
X301734Y192113D01*
X301705Y192076D01*
X301684Y192014D01*
X301653Y191955D01*
X301645Y191901D01*
X301633Y191864D01*
X301634Y191824D01*
X301626Y191770D01*
X301626Y182118D01*
X301637Y182053D01*
X301639Y181987D01*
X301657Y181944D01*
X301665Y181897D01*
X301699Y181840D01*
X301724Y181780D01*
X301755Y181745D01*
X301780Y181704D01*
X301831Y181663D01*
X301875Y181614D01*
X301917Y181592D01*
X301954Y181563D01*
X302016Y181542D01*
X302075Y181511D01*
X302129Y181503D01*
X302166Y181491D01*
X302206Y181492D01*
X302260Y181484D01*
X332740Y181484D01*
X332805Y181495D01*
G37*
G36*
X424182Y151005D02*
X424182Y151005D01*
X424184Y151004D01*
X424227Y151024D01*
X424271Y151042D01*
X424271Y151044D01*
X424273Y151045D01*
X424306Y151130D01*
X424306Y166624D01*
X424305Y166626D01*
X424306Y166628D01*
X424286Y166671D01*
X424268Y166715D01*
X424266Y166715D01*
X424265Y166717D01*
X424180Y166750D01*
X407924Y166750D01*
X407922Y166749D01*
X407920Y166750D01*
X407877Y166730D01*
X407833Y166712D01*
X407833Y166710D01*
X407831Y166709D01*
X407798Y166624D01*
X407798Y165152D01*
X404588Y161942D01*
X404586Y161939D01*
X404584Y161938D01*
X404551Y161853D01*
X404551Y161840D01*
X403420Y160709D01*
X403407Y160709D01*
X403404Y160708D01*
X403401Y160709D01*
X403318Y160672D01*
X402538Y159892D01*
X400558Y159892D01*
X400556Y159891D01*
X400554Y159892D01*
X400511Y159872D01*
X400467Y159854D01*
X400467Y159852D01*
X400465Y159851D01*
X400432Y159766D01*
X400432Y157988D01*
X400433Y157986D01*
X400432Y157984D01*
X400452Y157941D01*
X400470Y157897D01*
X400472Y157897D01*
X400473Y157895D01*
X400558Y157862D01*
X402538Y157862D01*
X407798Y152602D01*
X407798Y151130D01*
X407799Y151128D01*
X407798Y151126D01*
X407818Y151083D01*
X407836Y151039D01*
X407838Y151039D01*
X407839Y151037D01*
X407924Y151004D01*
X424180Y151004D01*
X424182Y151005D01*
G37*
G36*
X394472Y162435D02*
X394472Y162435D01*
X394474Y162434D01*
X394517Y162454D01*
X394561Y162472D01*
X394561Y162474D01*
X394563Y162475D01*
X394596Y162560D01*
X394596Y171680D01*
X394595Y171683D01*
X394596Y171686D01*
X394559Y171769D01*
X392011Y174317D01*
X392008Y174319D01*
X392007Y174321D01*
X391922Y174354D01*
X389890Y174354D01*
X389887Y174353D01*
X389884Y174354D01*
X389801Y174317D01*
X382951Y167467D01*
X382950Y167464D01*
X382947Y167463D01*
X382914Y167378D01*
X382914Y165100D01*
X382915Y165097D01*
X382914Y165094D01*
X382951Y165011D01*
X385491Y162471D01*
X385494Y162470D01*
X385495Y162467D01*
X385580Y162434D01*
X394470Y162434D01*
X394472Y162435D01*
G37*
%LPC*%
G36*
X292352Y70675D02*
X292352Y70675D01*
X289115Y73912D01*
X289115Y78488D01*
X292352Y81725D01*
X296928Y81725D01*
X300165Y78488D01*
X300165Y73912D01*
X296928Y70675D01*
X292352Y70675D01*
G37*
%LPD*%
%LPC*%
G36*
X388872Y70675D02*
X388872Y70675D01*
X385635Y73912D01*
X385635Y78488D01*
X388872Y81725D01*
X393448Y81725D01*
X396685Y78488D01*
X396685Y73912D01*
X393448Y70675D01*
X388872Y70675D01*
G37*
%LPD*%
%LPC*%
G36*
X114552Y70675D02*
X114552Y70675D01*
X111315Y73912D01*
X111315Y78488D01*
X114552Y81725D01*
X119128Y81725D01*
X122365Y78488D01*
X122365Y73912D01*
X119128Y70675D01*
X114552Y70675D01*
G37*
%LPD*%
%LPC*%
G36*
X200912Y70675D02*
X200912Y70675D01*
X197675Y73912D01*
X197675Y78488D01*
X200912Y81725D01*
X205488Y81725D01*
X208725Y78488D01*
X208725Y73912D01*
X205488Y70675D01*
X200912Y70675D01*
G37*
%LPD*%
%LPC*%
G36*
X66039Y275589D02*
X66039Y275589D01*
X66039Y285116D01*
X73359Y285116D01*
X74006Y284943D01*
X74585Y284608D01*
X75058Y284135D01*
X75393Y283556D01*
X75566Y282909D01*
X75566Y275589D01*
X66039Y275589D01*
G37*
%LPD*%
%LPC*%
G36*
X66039Y72389D02*
X66039Y72389D01*
X66039Y81916D01*
X73359Y81916D01*
X74006Y81743D01*
X74585Y81408D01*
X75058Y80935D01*
X75393Y80356D01*
X75566Y79709D01*
X75566Y72389D01*
X66039Y72389D01*
G37*
%LPD*%
%LPC*%
G36*
X66039Y270511D02*
X66039Y270511D01*
X75566Y270511D01*
X75566Y263191D01*
X75393Y262544D01*
X75058Y261965D01*
X74585Y261492D01*
X74006Y261157D01*
X73359Y260984D01*
X66039Y260984D01*
X66039Y270511D01*
G37*
%LPD*%
%LPC*%
G36*
X66039Y67311D02*
X66039Y67311D01*
X75566Y67311D01*
X75566Y59991D01*
X75393Y59344D01*
X75058Y58765D01*
X74585Y58292D01*
X74006Y57957D01*
X73359Y57784D01*
X66039Y57784D01*
X66039Y67311D01*
G37*
%LPD*%
%LPC*%
G36*
X51434Y72389D02*
X51434Y72389D01*
X51434Y79709D01*
X51607Y80356D01*
X51942Y80935D01*
X52415Y81408D01*
X52994Y81743D01*
X53641Y81916D01*
X60961Y81916D01*
X60961Y72389D01*
X51434Y72389D01*
G37*
%LPD*%
%LPC*%
G36*
X51434Y275589D02*
X51434Y275589D01*
X51434Y282909D01*
X51607Y283556D01*
X51942Y284135D01*
X52415Y284608D01*
X52994Y284943D01*
X53641Y285116D01*
X60961Y285116D01*
X60961Y275589D01*
X51434Y275589D01*
G37*
%LPD*%
%LPC*%
G36*
X53641Y260984D02*
X53641Y260984D01*
X52994Y261157D01*
X52415Y261492D01*
X51942Y261965D01*
X51607Y262544D01*
X51434Y263191D01*
X51434Y270511D01*
X60961Y270511D01*
X60961Y260984D01*
X53641Y260984D01*
G37*
%LPD*%
%LPC*%
G36*
X53641Y57784D02*
X53641Y57784D01*
X52994Y57957D01*
X52415Y58292D01*
X51942Y58765D01*
X51607Y59344D01*
X51434Y59991D01*
X51434Y67311D01*
X60961Y67311D01*
X60961Y57784D01*
X53641Y57784D01*
G37*
%LPD*%
G36*
X187380Y159274D02*
X187380Y159274D01*
X187498Y159281D01*
X187537Y159294D01*
X187577Y159299D01*
X187688Y159342D01*
X187801Y159379D01*
X187835Y159401D01*
X187873Y159416D01*
X187969Y159485D01*
X188070Y159549D01*
X188097Y159579D01*
X188130Y159602D01*
X188206Y159694D01*
X188288Y159781D01*
X188307Y159816D01*
X188333Y159847D01*
X188384Y159955D01*
X188441Y160059D01*
X188451Y160099D01*
X188468Y160135D01*
X188491Y160252D01*
X188521Y160367D01*
X188524Y160427D01*
X188528Y160447D01*
X188527Y160468D01*
X188531Y160528D01*
X188531Y162052D01*
X188516Y162170D01*
X188508Y162289D01*
X188496Y162327D01*
X188491Y162368D01*
X188447Y162478D01*
X188410Y162591D01*
X188389Y162626D01*
X188374Y162663D01*
X188304Y162759D01*
X188240Y162860D01*
X188211Y162888D01*
X188187Y162921D01*
X188095Y162997D01*
X188009Y163078D01*
X187973Y163098D01*
X187942Y163123D01*
X187834Y163174D01*
X187730Y163232D01*
X187691Y163242D01*
X187654Y163259D01*
X187538Y163281D01*
X187422Y163311D01*
X187362Y163315D01*
X187342Y163319D01*
X187322Y163317D01*
X187262Y163321D01*
X168148Y163321D01*
X168030Y163306D01*
X167911Y163299D01*
X167873Y163286D01*
X167832Y163281D01*
X167722Y163238D01*
X167609Y163201D01*
X167574Y163179D01*
X167537Y163164D01*
X167441Y163095D01*
X167340Y163031D01*
X167312Y163001D01*
X167279Y162978D01*
X167203Y162886D01*
X167122Y162799D01*
X167102Y162764D01*
X167077Y162733D01*
X167026Y162625D01*
X166968Y162521D01*
X166958Y162481D01*
X166941Y162445D01*
X166919Y162328D01*
X166889Y162213D01*
X166885Y162153D01*
X166881Y162133D01*
X166883Y162112D01*
X166879Y162052D01*
X166879Y160528D01*
X166894Y160410D01*
X166901Y160291D01*
X166914Y160253D01*
X166919Y160212D01*
X166962Y160102D01*
X166999Y159989D01*
X167021Y159954D01*
X167036Y159917D01*
X167105Y159821D01*
X167169Y159720D01*
X167199Y159692D01*
X167222Y159659D01*
X167314Y159583D01*
X167401Y159502D01*
X167436Y159482D01*
X167467Y159457D01*
X167575Y159406D01*
X167679Y159348D01*
X167719Y159338D01*
X167755Y159321D01*
X167872Y159299D01*
X167987Y159269D01*
X168047Y159265D01*
X168067Y159261D01*
X168088Y159263D01*
X168148Y159259D01*
X187262Y159259D01*
X187380Y159274D01*
G37*
G36*
X203256Y157243D02*
X203256Y157243D01*
X203313Y157253D01*
X203327Y157264D01*
X203335Y157266D01*
X203344Y157276D01*
X203379Y157301D01*
X205919Y159841D01*
X205941Y159881D01*
X205961Y159904D01*
X205963Y159915D01*
X205980Y159940D01*
X205983Y159957D01*
X205987Y159964D01*
X205986Y159977D01*
X205993Y160020D01*
X205993Y162560D01*
X205990Y162570D01*
X205991Y162576D01*
X205983Y162595D01*
X205977Y162616D01*
X205967Y162673D01*
X205956Y162687D01*
X205954Y162695D01*
X205944Y162704D01*
X205919Y162739D01*
X203379Y165279D01*
X203328Y165307D01*
X203280Y165340D01*
X203263Y165343D01*
X203256Y165347D01*
X203243Y165346D01*
X203200Y165353D01*
X200660Y165353D01*
X200604Y165337D01*
X200547Y165327D01*
X200533Y165316D01*
X200525Y165314D01*
X200516Y165304D01*
X200481Y165279D01*
X198015Y162813D01*
X190500Y162813D01*
X190485Y162809D01*
X190469Y162811D01*
X190418Y162790D01*
X190365Y162774D01*
X190354Y162762D01*
X190340Y162756D01*
X190308Y162710D01*
X190271Y162669D01*
X190269Y162653D01*
X190260Y162640D01*
X190247Y162560D01*
X190247Y160020D01*
X190251Y160005D01*
X190249Y159989D01*
X190270Y159938D01*
X190286Y159885D01*
X190298Y159874D01*
X190304Y159860D01*
X190350Y159828D01*
X190391Y159791D01*
X190407Y159789D01*
X190420Y159780D01*
X190500Y159767D01*
X198015Y159767D01*
X200481Y157301D01*
X200532Y157273D01*
X200580Y157240D01*
X200597Y157237D01*
X200604Y157233D01*
X200617Y157234D01*
X200660Y157227D01*
X203200Y157227D01*
X203256Y157243D01*
G37*
G36*
X314721Y157485D02*
X314721Y157485D01*
X314737Y157483D01*
X314788Y157504D01*
X314841Y157520D01*
X314852Y157532D01*
X314866Y157538D01*
X314898Y157584D01*
X314935Y157625D01*
X314937Y157641D01*
X314946Y157654D01*
X314959Y157734D01*
X314959Y164846D01*
X314957Y164854D01*
X314957Y164856D01*
X314955Y164861D01*
X314957Y164877D01*
X314936Y164928D01*
X314920Y164981D01*
X314908Y164992D01*
X314902Y165006D01*
X314856Y165038D01*
X314815Y165075D01*
X314799Y165077D01*
X314786Y165086D01*
X314706Y165099D01*
X309562Y165099D01*
X309547Y165095D01*
X309532Y165097D01*
X309481Y165076D01*
X309427Y165060D01*
X309417Y165048D01*
X309402Y165042D01*
X309371Y164996D01*
X309334Y164955D01*
X309331Y164939D01*
X309322Y164926D01*
X309309Y164846D01*
X309309Y164579D01*
X308416Y163686D01*
X307705Y163686D01*
X307649Y163670D01*
X307591Y163659D01*
X307577Y163649D01*
X307569Y163647D01*
X307561Y163637D01*
X307525Y163612D01*
X306473Y162559D01*
X300990Y162559D01*
X300975Y162555D01*
X300959Y162557D01*
X300908Y162536D01*
X300855Y162520D01*
X300844Y162508D01*
X300830Y162502D01*
X300798Y162456D01*
X300761Y162415D01*
X300759Y162399D01*
X300750Y162386D01*
X300737Y162306D01*
X300737Y160274D01*
X300741Y160259D01*
X300739Y160243D01*
X300760Y160192D01*
X300776Y160139D01*
X300788Y160128D01*
X300794Y160114D01*
X300840Y160082D01*
X300881Y160045D01*
X300897Y160043D01*
X300910Y160034D01*
X300990Y160021D01*
X306727Y160021D01*
X307779Y158968D01*
X307830Y158940D01*
X307878Y158907D01*
X307896Y158904D01*
X307903Y158900D01*
X307916Y158901D01*
X307959Y158894D01*
X308416Y158894D01*
X309309Y158001D01*
X309309Y157734D01*
X309314Y157719D01*
X309311Y157703D01*
X309333Y157652D01*
X309348Y157599D01*
X309360Y157588D01*
X309366Y157574D01*
X309412Y157542D01*
X309454Y157505D01*
X309469Y157503D01*
X309482Y157494D01*
X309562Y157481D01*
X314706Y157481D01*
X314721Y157485D01*
G37*
G36*
X390020Y150116D02*
X390020Y150116D01*
X390023Y150115D01*
X390106Y150152D01*
X392736Y152782D01*
X393446Y152782D01*
X393449Y152783D01*
X393452Y152782D01*
X393535Y152819D01*
X394424Y153708D01*
X394426Y153711D01*
X394428Y153712D01*
X394461Y153797D01*
X394461Y154686D01*
X394460Y154689D01*
X394461Y154692D01*
X394424Y154775D01*
X393662Y155537D01*
X393659Y155539D01*
X393658Y155541D01*
X393573Y155574D01*
X390831Y155574D01*
X389508Y156897D01*
X389508Y159639D01*
X389507Y159642D01*
X389508Y159645D01*
X389471Y159728D01*
X388328Y160871D01*
X388325Y160873D01*
X388324Y160875D01*
X388239Y160908D01*
X384810Y160908D01*
X384808Y160907D01*
X384806Y160908D01*
X384763Y160888D01*
X384719Y160870D01*
X384719Y160868D01*
X384717Y160867D01*
X384684Y160782D01*
X384684Y150241D01*
X384685Y150239D01*
X384684Y150237D01*
X384704Y150194D01*
X384722Y150150D01*
X384724Y150150D01*
X384725Y150148D01*
X384810Y150115D01*
X390017Y150115D01*
X390020Y150116D01*
G37*
%LPC*%
G36*
X66039Y237489D02*
X66039Y237489D01*
X66039Y246764D01*
X66325Y246719D01*
X68132Y246132D01*
X69824Y245270D01*
X71360Y244153D01*
X72703Y242810D01*
X73820Y241274D01*
X74682Y239582D01*
X75269Y237775D01*
X75314Y237489D01*
X66039Y237489D01*
G37*
%LPD*%
%LPC*%
G36*
X66039Y34289D02*
X66039Y34289D01*
X66039Y43564D01*
X66325Y43519D01*
X68132Y42932D01*
X69824Y42070D01*
X71360Y40953D01*
X72703Y39610D01*
X73820Y38074D01*
X74682Y36382D01*
X75269Y34575D01*
X75314Y34289D01*
X66039Y34289D01*
G37*
%LPD*%
%LPC*%
G36*
X66039Y232411D02*
X66039Y232411D01*
X75314Y232411D01*
X75269Y232125D01*
X74682Y230318D01*
X73820Y228626D01*
X72703Y227090D01*
X71360Y225747D01*
X69824Y224630D01*
X68132Y223768D01*
X66325Y223181D01*
X66039Y223136D01*
X66039Y232411D01*
G37*
%LPD*%
%LPC*%
G36*
X51686Y237489D02*
X51686Y237489D01*
X51731Y237775D01*
X52318Y239582D01*
X53180Y241274D01*
X54297Y242810D01*
X55640Y244153D01*
X57176Y245270D01*
X58868Y246132D01*
X60675Y246719D01*
X60961Y246764D01*
X60961Y237489D01*
X51686Y237489D01*
G37*
%LPD*%
%LPC*%
G36*
X51686Y34289D02*
X51686Y34289D01*
X51731Y34575D01*
X52318Y36382D01*
X53180Y38074D01*
X54297Y39610D01*
X55640Y40953D01*
X57176Y42070D01*
X58868Y42932D01*
X60675Y43519D01*
X60961Y43564D01*
X60961Y34289D01*
X51686Y34289D01*
G37*
%LPD*%
%LPC*%
G36*
X66039Y29211D02*
X66039Y29211D01*
X75314Y29211D01*
X75269Y28925D01*
X74682Y27118D01*
X73820Y25426D01*
X72703Y23890D01*
X71360Y22547D01*
X69824Y21430D01*
X68132Y20568D01*
X66325Y19981D01*
X66039Y19936D01*
X66039Y29211D01*
G37*
%LPD*%
%LPC*%
G36*
X60675Y223181D02*
X60675Y223181D01*
X58868Y223768D01*
X57176Y224630D01*
X55640Y225747D01*
X54297Y227090D01*
X53180Y228626D01*
X52318Y230318D01*
X51731Y232125D01*
X51686Y232411D01*
X60961Y232411D01*
X60961Y223136D01*
X60675Y223181D01*
G37*
%LPD*%
%LPC*%
G36*
X60675Y19981D02*
X60675Y19981D01*
X58868Y20568D01*
X57176Y21430D01*
X55640Y22547D01*
X54297Y23890D01*
X53180Y25426D01*
X52318Y27118D01*
X51731Y28925D01*
X51686Y29211D01*
X60961Y29211D01*
X60961Y19936D01*
X60675Y19981D01*
G37*
%LPD*%
G36*
X382780Y156339D02*
X382780Y156339D01*
X382782Y156338D01*
X382825Y156358D01*
X382869Y156376D01*
X382869Y156378D01*
X382871Y156379D01*
X382904Y156464D01*
X382904Y161036D01*
X382903Y161038D01*
X382904Y161040D01*
X382884Y161083D01*
X382866Y161127D01*
X382864Y161127D01*
X382863Y161129D01*
X382778Y161162D01*
X376682Y161162D01*
X376679Y161161D01*
X376676Y161162D01*
X376593Y161125D01*
X374307Y158839D01*
X374306Y158836D01*
X374303Y158835D01*
X374270Y158750D01*
X374270Y156477D01*
X374271Y156475D01*
X374270Y156473D01*
X374290Y156430D01*
X374308Y156386D01*
X374310Y156385D01*
X374311Y156383D01*
X374396Y156350D01*
X376522Y156350D01*
X376555Y156338D01*
X382778Y156338D01*
X382780Y156339D01*
G37*
%LPC*%
G36*
X448017Y160749D02*
X448017Y160749D01*
X448054Y160984D01*
X448518Y162413D01*
X449200Y163750D01*
X450083Y164965D01*
X451145Y166027D01*
X452360Y166910D01*
X453697Y167592D01*
X455126Y168056D01*
X455361Y168093D01*
X455361Y160749D01*
X448017Y160749D01*
G37*
%LPD*%
%LPC*%
G36*
X455126Y149444D02*
X455126Y149444D01*
X453697Y149908D01*
X452360Y150590D01*
X451145Y151473D01*
X450083Y152535D01*
X449200Y153750D01*
X448518Y155087D01*
X448054Y156516D01*
X448017Y156751D01*
X455361Y156751D01*
X455361Y149407D01*
X455126Y149444D01*
G37*
%LPD*%
%LPC*%
G36*
X479359Y160749D02*
X479359Y160749D01*
X479359Y167006D01*
X482597Y167006D01*
X485776Y163827D01*
X485776Y160749D01*
X479359Y160749D01*
G37*
%LPD*%
%LPC*%
G36*
X479359Y150494D02*
X479359Y150494D01*
X479359Y156751D01*
X485776Y156751D01*
X485776Y153673D01*
X482597Y150494D01*
X479359Y150494D01*
G37*
%LPD*%
G36*
X382780Y149989D02*
X382780Y149989D01*
X382782Y149988D01*
X382825Y150008D01*
X382869Y150026D01*
X382869Y150028D01*
X382871Y150029D01*
X382904Y150114D01*
X382904Y154686D01*
X382903Y154688D01*
X382904Y154690D01*
X382884Y154733D01*
X382866Y154777D01*
X382864Y154777D01*
X382863Y154779D01*
X382778Y154812D01*
X374396Y154812D01*
X374394Y154811D01*
X374392Y154812D01*
X374349Y154792D01*
X374305Y154774D01*
X374305Y154772D01*
X374303Y154771D01*
X374270Y154686D01*
X374270Y152477D01*
X374271Y152475D01*
X374270Y152473D01*
X374290Y152430D01*
X374308Y152386D01*
X374310Y152385D01*
X374311Y152383D01*
X374396Y152350D01*
X376490Y152350D01*
X376530Y152311D01*
X376533Y152310D01*
X376534Y152307D01*
X376619Y152274D01*
X376630Y152274D01*
X378879Y150025D01*
X378882Y150024D01*
X378883Y150021D01*
X378968Y149988D01*
X382778Y149988D01*
X382780Y149989D01*
G37*
%LPC*%
G36*
X63499Y234949D02*
X63499Y234949D01*
X63499Y234951D01*
X63501Y234951D01*
X63501Y234949D01*
X63499Y234949D01*
G37*
%LPD*%
%LPC*%
G36*
X63499Y273049D02*
X63499Y273049D01*
X63499Y273051D01*
X63501Y273051D01*
X63501Y273049D01*
X63499Y273049D01*
G37*
%LPD*%
%LPC*%
G36*
X63499Y69849D02*
X63499Y69849D01*
X63499Y69851D01*
X63501Y69851D01*
X63501Y69849D01*
X63499Y69849D01*
G37*
%LPD*%
%LPC*%
G36*
X63499Y31749D02*
X63499Y31749D01*
X63499Y31751D01*
X63501Y31751D01*
X63501Y31749D01*
X63499Y31749D01*
G37*
%LPD*%
D10*
X36830Y105570D03*
X36830Y125570D03*
D11*
X176530Y231280D03*
X176530Y248780D03*
X194310Y231280D03*
X194310Y248780D03*
X259080Y238900D03*
X259080Y256400D03*
X276860Y238900D03*
X276860Y256400D03*
X280670Y171590D03*
X280670Y189090D03*
X280670Y150990D03*
X280670Y133490D03*
D10*
X54610Y105570D03*
X54610Y125570D03*
D12*
X432676Y190500D03*
X415176Y190500D03*
X432676Y175260D03*
X415176Y175260D03*
X432676Y142240D03*
X415176Y142240D03*
X432676Y127000D03*
X415176Y127000D03*
D13*
X504190Y223870D03*
X504190Y235870D03*
D14*
X224440Y161290D03*
X212440Y161290D03*
X334930Y161290D03*
X322930Y161290D03*
D13*
X391160Y183230D03*
X391160Y195230D03*
D15*
X364800Y171450D03*
X359100Y171450D03*
D10*
X72390Y105570D03*
X72390Y125570D03*
D16*
X361950Y144934D03*
X361950Y135483D03*
X375920Y140616D03*
X375920Y131165D03*
D10*
X90170Y105570D03*
X90170Y125570D03*
D11*
X36830Y204330D03*
X36830Y186830D03*
X54610Y204330D03*
X54610Y186830D03*
X72390Y204330D03*
X72390Y186830D03*
X90170Y204330D03*
X90170Y186830D03*
X158750Y231280D03*
X158750Y248780D03*
D17*
X477360Y158750D03*
D18*
X457360Y158750D03*
D19*
X63500Y69850D03*
D20*
X63500Y31750D03*
D19*
X63500Y273050D03*
D20*
X63500Y234950D03*
D21*
X121920Y156210D03*
X134620Y168910D03*
X134620Y143510D03*
X109220Y143510D03*
X109220Y168910D03*
X469900Y274320D03*
X482600Y261620D03*
X457200Y261620D03*
X457200Y287020D03*
X482600Y287020D03*
D22*
X433460Y210820D03*
X450460Y210820D03*
D23*
X393620Y154860D02*
X393620Y153640D01*
X392400Y153640D01*
X392400Y154860D01*
X393620Y154860D01*
X393620Y154412D02*
X392400Y154412D01*
X402620Y154860D02*
X402620Y153640D01*
X401400Y153640D01*
X401400Y154860D01*
X402620Y154860D01*
X402620Y154412D02*
X401400Y154412D01*
X393620Y158140D02*
X393620Y159360D01*
X393620Y158140D02*
X392400Y158140D01*
X392400Y159360D01*
X393620Y159360D01*
X393620Y158912D02*
X392400Y158912D01*
X398120Y154860D02*
X398120Y153640D01*
X396900Y153640D01*
X396900Y154860D01*
X398120Y154860D01*
X398120Y154412D02*
X396900Y154412D01*
X398120Y158140D02*
X398120Y159360D01*
X398120Y158140D02*
X396900Y158140D01*
X396900Y159360D01*
X398120Y159360D01*
X398120Y158912D02*
X396900Y158912D01*
X402620Y159360D02*
X402620Y158140D01*
X401400Y158140D01*
X401400Y159360D01*
X402620Y159360D01*
X402620Y158912D02*
X401400Y158912D01*
X402620Y162640D02*
X402620Y163860D01*
X402620Y162640D02*
X401400Y162640D01*
X401400Y163860D01*
X402620Y163860D01*
X402620Y163412D02*
X401400Y163412D01*
X398120Y163860D02*
X398120Y162640D01*
X396900Y162640D01*
X396900Y163860D01*
X398120Y163860D01*
X398120Y163412D02*
X396900Y163412D01*
X393620Y163860D02*
X393620Y162640D01*
X392400Y162640D01*
X392400Y163860D01*
X393620Y163860D01*
X393620Y163412D02*
X392400Y163412D01*
D24*
X156972Y137820D03*
X156972Y156820D03*
D25*
X487600Y242570D03*
X477600Y242570D03*
D26*
X467750Y210820D03*
X484750Y210820D03*
D25*
X329010Y173990D03*
X339010Y173990D03*
X329010Y148590D03*
X339010Y148590D03*
D27*
X339090Y122000D03*
X339090Y132000D03*
D26*
X207400Y146050D03*
X224400Y146050D03*
X245500Y146050D03*
X262500Y146050D03*
X226450Y176530D03*
X243450Y176530D03*
D27*
X401320Y101520D03*
X401320Y91520D03*
X417830Y101520D03*
X417830Y91520D03*
X434340Y101520D03*
X434340Y91520D03*
X450850Y101520D03*
X450850Y91520D03*
D28*
X138430Y204590D03*
X138430Y209590D03*
X138430Y214590D03*
X138430Y219590D03*
X110490Y219590D03*
X110490Y214590D03*
X110490Y209590D03*
X110490Y204590D03*
D29*
X124460Y212090D03*
D30*
X243196Y203454D02*
X255084Y203454D01*
X255084Y199186D01*
X243196Y199186D01*
X243196Y203454D01*
X243196Y200924D02*
X255084Y200924D01*
X255084Y202662D02*
X243196Y202662D01*
X243196Y222454D02*
X255084Y222454D01*
X255084Y218186D01*
X243196Y218186D01*
X243196Y222454D01*
X243196Y219924D02*
X255084Y219924D01*
X255084Y221662D02*
X243196Y221662D01*
X231784Y212954D02*
X219896Y212954D01*
X231784Y212954D02*
X231784Y208686D01*
X219896Y208686D01*
X219896Y212954D01*
X219896Y210424D02*
X231784Y210424D01*
X231784Y212162D02*
X219896Y212162D01*
D31*
X184785Y166290D03*
X184785Y161290D03*
X184785Y156290D03*
X193675Y156290D03*
X193675Y161290D03*
X193675Y166290D03*
X295275Y166290D03*
X295275Y161290D03*
X295275Y156290D03*
X304165Y156290D03*
X304165Y161290D03*
X304165Y166290D03*
D32*
X371380Y157670D03*
X375380Y157670D03*
X371380Y153670D03*
X375380Y153670D03*
X371380Y149670D03*
X375380Y149670D03*
D33*
X192278Y191220D03*
X192278Y179620D03*
X327660Y198840D03*
X327660Y187240D03*
X375920Y195030D03*
X375920Y183430D03*
D34*
X381244Y158750D03*
X386344Y158750D03*
X381244Y152400D03*
X386344Y152400D03*
D25*
X452200Y242570D03*
X462200Y242570D03*
D35*
X161290Y181360D03*
X161290Y209800D03*
D26*
X366150Y110490D03*
X383150Y110490D03*
D36*
X474472Y119380D03*
D37*
X454787Y119380D03*
D38*
X210820Y249174D03*
X220980Y249174D03*
X220980Y239014D03*
X210820Y239014D03*
X210820Y228854D03*
X220980Y228854D03*
X220980Y259334D03*
X210820Y259334D03*
X378460Y208280D03*
X368300Y208280D03*
X368300Y218440D03*
X378460Y218440D03*
X287020Y222250D03*
X266700Y212090D03*
X276860Y212090D03*
X297180Y222250D03*
X266700Y222250D03*
X276860Y222250D03*
X287020Y212090D03*
X297180Y212090D03*
X326390Y210820D03*
X191008Y201930D03*
X200660Y201930D03*
X317500Y210820D03*
X203708Y193548D03*
X317500Y201930D03*
D39*
X156972Y156820D02*
X156862Y156210D01*
X121920Y156210D01*
X224400Y146050D02*
X245500Y146050D01*
D38*
X204470Y179705D03*
X201930Y161290D03*
D40*
X204385Y179620D02*
X192278Y179620D01*
X204385Y179620D02*
X204470Y179705D01*
X201930Y161290D02*
X212440Y161290D01*
D38*
X311150Y161290D03*
X316230Y186690D03*
X307340Y186690D03*
D40*
X311150Y161290D02*
X322930Y161290D01*
D39*
X193675Y166290D02*
X193675Y169672D01*
X196579Y172576D01*
X212393Y172576D01*
X216347Y176530D01*
X226450Y176530D01*
X193675Y156290D02*
X193675Y149606D01*
X197231Y146050D01*
X207400Y146050D01*
X262890Y171840D02*
X280670Y171590D01*
X262890Y171840D02*
X258200Y176530D01*
X243450Y176530D01*
X295275Y169046D02*
X295275Y166290D01*
X292481Y171840D02*
X280670Y171590D01*
X292481Y171840D02*
X295275Y169046D01*
X280670Y150990D02*
X274320Y150740D01*
X269630Y146050D01*
X262500Y146050D01*
X295275Y152772D02*
X295275Y156290D01*
X293243Y150740D02*
X280670Y150990D01*
X293243Y150740D02*
X295275Y152772D01*
X397510Y158750D02*
X402010Y158750D01*
X397510Y158750D02*
X393010Y158750D01*
X393010Y163250D01*
X484750Y210820D02*
X484750Y217542D01*
X491278Y224070D01*
X504190Y223870D01*
D41*
X391000Y172000D03*
X392500Y168000D03*
X388500Y164500D03*
X385000Y166000D03*
X388000Y169000D03*
X406908Y160782D03*
X410718Y160782D03*
X410718Y156972D03*
X410718Y153162D03*
X414528Y153162D03*
X414528Y156972D03*
X414528Y160782D03*
X414528Y164592D03*
X418338Y164592D03*
X418338Y160782D03*
X418338Y156972D03*
X418338Y153162D03*
X410718Y164592D03*
X406908Y156972D03*
X476250Y111760D03*
X480060Y111760D03*
X483870Y111760D03*
X487680Y111760D03*
X480060Y115570D03*
X483870Y115570D03*
X487680Y115570D03*
X487680Y119380D03*
X483870Y119380D03*
X480060Y119380D03*
X480060Y123190D03*
X483870Y123190D03*
X487680Y123190D03*
X480060Y127000D03*
X483870Y127000D03*
X487680Y127000D03*
X476250Y127000D03*
X472440Y130810D03*
X476250Y130810D03*
X480060Y130810D03*
X483870Y130810D03*
X487680Y130810D03*
X487680Y134620D03*
X483870Y134620D03*
X480060Y134620D03*
X476250Y134620D03*
X472440Y134620D03*
X472440Y138430D03*
X476250Y138430D03*
X480060Y138430D03*
X483870Y138430D03*
X487680Y138430D03*
X487680Y142240D03*
X483870Y142240D03*
X480060Y142240D03*
X476250Y142240D03*
X472440Y142240D03*
X472440Y146050D03*
X476250Y146050D03*
X480060Y146050D03*
X483870Y146050D03*
X487680Y146050D03*
X487680Y149860D03*
X487680Y153670D03*
X487680Y157480D03*
X487680Y161290D03*
X487680Y165100D03*
X487680Y168910D03*
X487680Y172720D03*
X483870Y172720D03*
X480060Y172720D03*
X476250Y172720D03*
X472440Y172720D03*
X487680Y176530D03*
X483870Y176530D03*
X480060Y176530D03*
X476250Y176530D03*
X472440Y176530D03*
X472440Y180340D03*
X476250Y180340D03*
X480060Y180340D03*
X483870Y180340D03*
X487680Y180340D03*
X472440Y184150D03*
X472440Y187960D03*
X472440Y191770D03*
X472440Y195580D03*
X472440Y199390D03*
X476250Y184150D03*
X480060Y184150D03*
X483870Y184150D03*
X487680Y184150D03*
X487680Y187960D03*
X483870Y187960D03*
X480060Y187960D03*
X476250Y187960D03*
X476250Y191770D03*
X480060Y191770D03*
X483870Y191770D03*
X487680Y191770D03*
X487680Y195580D03*
X483870Y195580D03*
X480060Y195580D03*
X476250Y195580D03*
X476250Y199390D03*
X480060Y199390D03*
X483870Y199390D03*
X487680Y199390D03*
X422148Y164592D03*
X418338Y156972D03*
X422148Y160782D03*
X422148Y156972D03*
X422148Y153162D03*
D39*
X462200Y242570D02*
X477600Y242570D01*
X476800Y248920D01*
X469900Y255820D01*
X469900Y274320D01*
X504190Y241300D02*
X504190Y235870D01*
X504190Y241300D02*
X502920Y242570D01*
X487600Y242570D01*
X391160Y183230D02*
X375920Y183430D01*
D42*
X371380Y149670D02*
X371380Y145594D01*
X370364Y144578D01*
X361950Y144934D01*
X344170Y173990D02*
X339010Y173990D01*
X350520Y167640D02*
X350520Y161290D01*
X361950Y149860D01*
X361950Y144934D01*
X350520Y167640D02*
X344170Y173990D01*
D39*
X339010Y148590D02*
X339010Y132080D01*
X339090Y132000D01*
D42*
X375380Y140800D02*
X375920Y140616D01*
X375380Y140800D02*
X375380Y149670D01*
X375920Y140616D02*
X375914Y140266D01*
X358061Y140266D01*
X349737Y148590D02*
X339010Y148590D01*
X349737Y148590D02*
X358061Y140266D01*
D39*
X307340Y173990D02*
X304165Y170815D01*
X304165Y166290D01*
X307340Y173990D02*
X329010Y173990D01*
X304165Y156290D02*
X304165Y151765D01*
X307340Y148590D01*
X329010Y148590D01*
D43*
X450460Y210820D02*
X467750Y210820D01*
D41*
X121920Y214630D03*
X127000Y214630D03*
X127000Y209550D03*
X121920Y209550D03*
D38*
X293370Y189230D03*
D44*
X152400Y25400D03*
X355600Y25400D03*
X455080Y47860D03*
X152400Y279400D03*
X254000Y279400D03*
X355600Y279400D03*
D38*
X33020Y137160D03*
X50800Y137160D03*
X68580Y137160D03*
X86360Y137160D03*
X33020Y173990D03*
X50800Y173990D03*
X68580Y173990D03*
X86360Y173990D03*
X356870Y184150D03*
X340360Y193040D03*
X391160Y213360D03*
X293370Y133350D03*
X171958Y136398D03*
X154940Y261620D03*
X162560Y261620D03*
X190500Y261620D03*
X398780Y205740D03*
X403860Y198374D03*
X403860Y190500D03*
X403860Y182626D03*
X403860Y174752D03*
X403860Y121158D03*
X403860Y128778D03*
X403860Y136398D03*
X403860Y143764D03*
X391160Y205740D03*
X419608Y204470D03*
X463550Y103124D03*
X472440Y103124D03*
X481330Y103124D03*
X490220Y103124D03*
X496570Y114300D03*
X496570Y123190D03*
X496570Y132080D03*
X496570Y140970D03*
X496570Y149860D03*
X496570Y158750D03*
X496570Y167640D03*
X496570Y176530D03*
X496570Y185420D03*
X496570Y194310D03*
X496570Y203200D03*
X496570Y212090D03*
X476250Y222250D03*
X467360Y222250D03*
X458470Y222250D03*
X449580Y222250D03*
X440690Y222250D03*
X431800Y222250D03*
X419608Y213360D03*
X422910Y222250D03*
D44*
X250000Y120000D03*
D38*
X352298Y137922D03*
X385572Y129286D03*
X385572Y136906D03*
X352298Y130302D03*
X342900Y113538D03*
X335534Y113538D03*
X267970Y133350D03*
X151638Y121158D03*
X161798Y121158D03*
X171958Y126238D03*
X172720Y261620D03*
X180340Y261620D03*
X198120Y261620D03*
X255270Y269240D03*
X262890Y269240D03*
X273050Y269240D03*
X280670Y269240D03*
X177800Y161290D03*
X170180Y161290D03*
D39*
X177800Y161290D01*
X184785Y161290D01*
D38*
X40640Y137160D03*
X58420Y137160D03*
X76200Y137160D03*
X93980Y137160D03*
X40640Y173990D03*
X58420Y173990D03*
X76200Y173990D03*
X93980Y173990D03*
D44*
X116840Y76200D03*
X203200Y76200D03*
X294640Y76200D03*
X391160Y76200D03*
X502920Y76200D03*
X104140Y127000D03*
X139700Y127000D03*
X104140Y185420D03*
X139700Y185420D03*
X294640Y254000D03*
X314960Y254000D03*
X421640Y247650D03*
X401320Y247650D03*
X440690Y256540D03*
X440690Y292100D03*
X499110Y292100D03*
X499110Y256540D03*
D38*
X234950Y165100D03*
X234950Y157480D03*
X241300Y161290D03*
X344170Y165100D03*
X347980Y193040D03*
X355600Y193040D03*
X344170Y157480D03*
D41*
X366000Y160000D03*
X362000Y160000D03*
X366000Y156000D03*
X399000Y168000D03*
X402992Y168000D03*
X399000Y149500D03*
X402992Y149500D03*
D38*
X410718Y204470D03*
M02*
