G04 EAGLE Gerber RS-274X export*
G75*
%MOMM*%
%FSLAX34Y34*%
%LPD*%
%INCopper Layer 15*%
%IPPOS*%
%AMOC8*
5,1,8,0,0,1.08239X$1,22.5*%
G01*
%ADD10C,1.200000*%
%ADD11C,1.905000*%
%ADD12C,1.333500*%
%ADD13C,0.600000*%
%ADD14C,0.300000*%
%ADD15C,0.800000*%

G36*
X511928Y1286D02*
X511928Y1286D01*
X512047Y1293D01*
X512085Y1306D01*
X512126Y1311D01*
X512236Y1354D01*
X512349Y1391D01*
X512384Y1413D01*
X512421Y1428D01*
X512517Y1497D01*
X512618Y1561D01*
X512646Y1591D01*
X512679Y1614D01*
X512755Y1706D01*
X512836Y1793D01*
X512856Y1828D01*
X512881Y1859D01*
X512932Y1967D01*
X512990Y2071D01*
X513000Y2111D01*
X513017Y2147D01*
X513039Y2264D01*
X513069Y2379D01*
X513073Y2439D01*
X513077Y2459D01*
X513075Y2480D01*
X513079Y2540D01*
X513079Y302260D01*
X513064Y302378D01*
X513057Y302497D01*
X513044Y302535D01*
X513039Y302576D01*
X512996Y302686D01*
X512959Y302799D01*
X512937Y302834D01*
X512922Y302871D01*
X512853Y302967D01*
X512789Y303068D01*
X512759Y303096D01*
X512736Y303129D01*
X512644Y303205D01*
X512557Y303286D01*
X512522Y303306D01*
X512491Y303331D01*
X512383Y303382D01*
X512279Y303440D01*
X512239Y303450D01*
X512203Y303467D01*
X512086Y303489D01*
X511971Y303519D01*
X511911Y303523D01*
X511891Y303527D01*
X511870Y303525D01*
X511810Y303529D01*
X2540Y303529D01*
X2422Y303514D01*
X2303Y303507D01*
X2265Y303494D01*
X2224Y303489D01*
X2114Y303446D01*
X2001Y303409D01*
X1966Y303387D01*
X1929Y303372D01*
X1833Y303303D01*
X1732Y303239D01*
X1704Y303209D01*
X1671Y303186D01*
X1595Y303094D01*
X1514Y303007D01*
X1494Y302972D01*
X1469Y302941D01*
X1418Y302833D01*
X1360Y302729D01*
X1350Y302689D01*
X1333Y302653D01*
X1311Y302536D01*
X1281Y302421D01*
X1277Y302361D01*
X1273Y302341D01*
X1275Y302320D01*
X1271Y302260D01*
X1271Y107529D01*
X1271Y107524D01*
X1271Y107514D01*
X2541Y2525D01*
X2556Y2414D01*
X2563Y2303D01*
X2578Y2257D01*
X2584Y2210D01*
X2627Y2106D01*
X2661Y2001D01*
X2687Y1960D01*
X2705Y1915D01*
X2772Y1826D01*
X2831Y1732D01*
X2866Y1699D01*
X2895Y1660D01*
X2982Y1590D01*
X3063Y1514D01*
X3105Y1491D01*
X3142Y1460D01*
X3244Y1414D01*
X3341Y1360D01*
X3388Y1348D01*
X3432Y1328D01*
X3542Y1309D01*
X3649Y1281D01*
X3723Y1276D01*
X3745Y1272D01*
X3763Y1274D01*
X3810Y1271D01*
X511810Y1271D01*
X511928Y1286D01*
G37*
%LPC*%
G36*
X474997Y108735D02*
X474997Y108735D01*
X473225Y110507D01*
X473225Y113013D01*
X474997Y114785D01*
X475766Y114785D01*
X475884Y114800D01*
X476003Y114807D01*
X476041Y114820D01*
X476082Y114825D01*
X476192Y114868D01*
X476305Y114905D01*
X476340Y114927D01*
X476377Y114942D01*
X476473Y115011D01*
X476574Y115075D01*
X476602Y115105D01*
X476635Y115128D01*
X476711Y115220D01*
X476792Y115307D01*
X476812Y115342D01*
X476837Y115373D01*
X476888Y115481D01*
X476946Y115585D01*
X476956Y115625D01*
X476973Y115661D01*
X476995Y115778D01*
X477025Y115893D01*
X477029Y115953D01*
X477033Y115973D01*
X477031Y115994D01*
X477035Y116054D01*
X477035Y116944D01*
X477086Y117044D01*
X477095Y117083D01*
X477111Y117120D01*
X477130Y117238D01*
X477156Y117354D01*
X477155Y117395D01*
X477161Y117435D01*
X477150Y117553D01*
X477146Y117672D01*
X477135Y117711D01*
X477131Y117751D01*
X477091Y117863D01*
X477058Y117978D01*
X477037Y118012D01*
X477035Y118018D01*
X477035Y120754D01*
X477086Y120854D01*
X477095Y120893D01*
X477111Y120930D01*
X477130Y121048D01*
X477156Y121164D01*
X477155Y121205D01*
X477161Y121245D01*
X477150Y121363D01*
X477146Y121482D01*
X477135Y121521D01*
X477131Y121561D01*
X477091Y121673D01*
X477058Y121788D01*
X477037Y121822D01*
X477035Y121828D01*
X477035Y122706D01*
X477020Y122824D01*
X477013Y122943D01*
X477000Y122981D01*
X476995Y123022D01*
X476952Y123132D01*
X476915Y123245D01*
X476893Y123280D01*
X476878Y123317D01*
X476809Y123413D01*
X476745Y123514D01*
X476715Y123542D01*
X476692Y123575D01*
X476600Y123651D01*
X476513Y123732D01*
X476478Y123752D01*
X476447Y123777D01*
X476339Y123828D01*
X476235Y123886D01*
X476195Y123896D01*
X476159Y123913D01*
X476042Y123935D01*
X475927Y123965D01*
X475867Y123969D01*
X475847Y123973D01*
X475826Y123971D01*
X475766Y123975D01*
X474997Y123975D01*
X473225Y125747D01*
X473225Y126516D01*
X473210Y126634D01*
X473203Y126753D01*
X473190Y126791D01*
X473185Y126832D01*
X473142Y126942D01*
X473105Y127055D01*
X473083Y127090D01*
X473068Y127127D01*
X472999Y127223D01*
X472935Y127324D01*
X472905Y127352D01*
X472882Y127385D01*
X472790Y127461D01*
X472703Y127542D01*
X472668Y127562D01*
X472637Y127587D01*
X472529Y127638D01*
X472425Y127696D01*
X472385Y127706D01*
X472349Y127723D01*
X472232Y127745D01*
X472117Y127775D01*
X472057Y127779D01*
X472037Y127783D01*
X472016Y127781D01*
X471956Y127785D01*
X471187Y127785D01*
X469415Y129557D01*
X469415Y132184D01*
X469466Y132284D01*
X469475Y132323D01*
X469491Y132360D01*
X469510Y132478D01*
X469536Y132594D01*
X469535Y132635D01*
X469541Y132675D01*
X469530Y132793D01*
X469526Y132912D01*
X469515Y132951D01*
X469511Y132991D01*
X469471Y133103D01*
X469438Y133218D01*
X469417Y133252D01*
X469415Y133258D01*
X469415Y135994D01*
X469466Y136094D01*
X469475Y136134D01*
X469491Y136171D01*
X469510Y136288D01*
X469536Y136405D01*
X469535Y136445D01*
X469541Y136485D01*
X469530Y136603D01*
X469526Y136722D01*
X469515Y136761D01*
X469511Y136801D01*
X469471Y136914D01*
X469438Y137028D01*
X469417Y137063D01*
X469415Y137068D01*
X469415Y139804D01*
X469466Y139904D01*
X469475Y139943D01*
X469491Y139980D01*
X469510Y140098D01*
X469536Y140214D01*
X469535Y140255D01*
X469541Y140295D01*
X469530Y140413D01*
X469526Y140532D01*
X469515Y140571D01*
X469511Y140611D01*
X469471Y140723D01*
X469438Y140838D01*
X469417Y140872D01*
X469415Y140878D01*
X469415Y143614D01*
X469466Y143714D01*
X469475Y143753D01*
X469491Y143790D01*
X469510Y143908D01*
X469536Y144024D01*
X469535Y144065D01*
X469541Y144105D01*
X469530Y144223D01*
X469526Y144342D01*
X469515Y144381D01*
X469511Y144421D01*
X469471Y144533D01*
X469438Y144648D01*
X469417Y144682D01*
X469415Y144688D01*
X469415Y147303D01*
X469678Y147565D01*
X469763Y147675D01*
X469852Y147782D01*
X469860Y147801D01*
X469873Y147817D01*
X469928Y147945D01*
X469987Y148070D01*
X469991Y148090D01*
X469999Y148109D01*
X470021Y148247D01*
X470047Y148383D01*
X470046Y148403D01*
X470049Y148423D01*
X470036Y148562D01*
X470027Y148700D01*
X470021Y148719D01*
X470019Y148739D01*
X469972Y148870D01*
X469929Y149002D01*
X469918Y149020D01*
X469912Y149039D01*
X469834Y149153D01*
X469759Y149271D01*
X469744Y149285D01*
X469733Y149302D01*
X469629Y149394D01*
X469528Y149489D01*
X469510Y149499D01*
X469495Y149512D01*
X469371Y149575D01*
X469249Y149643D01*
X469229Y149648D01*
X469211Y149657D01*
X469075Y149687D01*
X468941Y149722D01*
X468913Y149724D01*
X468901Y149727D01*
X468881Y149726D01*
X468780Y149732D01*
X448511Y149732D01*
X448436Y149807D01*
X448436Y167693D01*
X448511Y167768D01*
X470050Y167768D01*
X470188Y167785D01*
X470327Y167798D01*
X470346Y167805D01*
X470366Y167808D01*
X470495Y167859D01*
X470626Y167906D01*
X470643Y167917D01*
X470662Y167925D01*
X470774Y168006D01*
X470889Y168084D01*
X470903Y168100D01*
X470919Y168111D01*
X471008Y168219D01*
X471100Y168323D01*
X471109Y168341D01*
X471122Y168356D01*
X471181Y168482D01*
X471244Y168606D01*
X471249Y168626D01*
X471257Y168644D01*
X471283Y168781D01*
X471314Y168916D01*
X471313Y168937D01*
X471317Y168956D01*
X471308Y169095D01*
X471304Y169234D01*
X471299Y169254D01*
X471297Y169274D01*
X471255Y169406D01*
X471216Y169540D01*
X471206Y169557D01*
X471199Y169576D01*
X471125Y169694D01*
X471054Y169814D01*
X471036Y169835D01*
X471029Y169845D01*
X471014Y169859D01*
X470948Y169934D01*
X469415Y171467D01*
X469415Y174094D01*
X469466Y174194D01*
X469475Y174233D01*
X469491Y174270D01*
X469510Y174388D01*
X469536Y174504D01*
X469535Y174545D01*
X469541Y174585D01*
X469530Y174703D01*
X469526Y174822D01*
X469515Y174861D01*
X469511Y174901D01*
X469471Y175013D01*
X469438Y175128D01*
X469417Y175162D01*
X469415Y175168D01*
X469415Y177904D01*
X469466Y178004D01*
X469475Y178043D01*
X469491Y178080D01*
X469510Y178198D01*
X469536Y178314D01*
X469535Y178355D01*
X469541Y178395D01*
X469530Y178513D01*
X469526Y178632D01*
X469515Y178671D01*
X469511Y178711D01*
X469471Y178823D01*
X469438Y178938D01*
X469417Y178972D01*
X469415Y178978D01*
X469415Y181714D01*
X469466Y181814D01*
X469475Y181854D01*
X469491Y181891D01*
X469510Y182008D01*
X469536Y182125D01*
X469535Y182165D01*
X469541Y182205D01*
X469530Y182323D01*
X469526Y182442D01*
X469515Y182481D01*
X469511Y182521D01*
X469471Y182634D01*
X469438Y182748D01*
X469417Y182783D01*
X469415Y182788D01*
X469415Y185524D01*
X469466Y185624D01*
X469475Y185663D01*
X469491Y185700D01*
X469510Y185818D01*
X469536Y185934D01*
X469535Y185975D01*
X469541Y186015D01*
X469530Y186133D01*
X469526Y186252D01*
X469515Y186291D01*
X469511Y186331D01*
X469471Y186443D01*
X469438Y186558D01*
X469417Y186592D01*
X469415Y186598D01*
X469415Y189334D01*
X469466Y189434D01*
X469475Y189473D01*
X469491Y189510D01*
X469510Y189628D01*
X469536Y189744D01*
X469535Y189785D01*
X469541Y189825D01*
X469530Y189943D01*
X469526Y190062D01*
X469515Y190101D01*
X469511Y190141D01*
X469471Y190253D01*
X469438Y190368D01*
X469417Y190402D01*
X469415Y190408D01*
X469415Y193144D01*
X469466Y193244D01*
X469475Y193283D01*
X469491Y193320D01*
X469510Y193438D01*
X469536Y193554D01*
X469535Y193595D01*
X469541Y193635D01*
X469530Y193753D01*
X469526Y193872D01*
X469515Y193911D01*
X469511Y193951D01*
X469471Y194063D01*
X469438Y194178D01*
X469417Y194212D01*
X469415Y194218D01*
X469415Y196954D01*
X469466Y197054D01*
X469475Y197093D01*
X469491Y197130D01*
X469510Y197248D01*
X469536Y197364D01*
X469535Y197405D01*
X469541Y197445D01*
X469530Y197563D01*
X469526Y197682D01*
X469515Y197721D01*
X469511Y197761D01*
X469471Y197873D01*
X469438Y197988D01*
X469417Y198022D01*
X469415Y198028D01*
X469415Y200643D01*
X471187Y202415D01*
X473814Y202415D01*
X473914Y202364D01*
X473953Y202355D01*
X473990Y202339D01*
X474108Y202320D01*
X474224Y202294D01*
X474265Y202295D01*
X474305Y202289D01*
X474423Y202300D01*
X474542Y202304D01*
X474581Y202315D01*
X474621Y202319D01*
X474733Y202359D01*
X474848Y202392D01*
X474882Y202413D01*
X474888Y202415D01*
X477624Y202415D01*
X477724Y202364D01*
X477763Y202355D01*
X477800Y202339D01*
X477918Y202320D01*
X478034Y202294D01*
X478075Y202295D01*
X478115Y202289D01*
X478233Y202300D01*
X478352Y202304D01*
X478391Y202315D01*
X478431Y202319D01*
X478543Y202359D01*
X478658Y202392D01*
X478692Y202413D01*
X478698Y202415D01*
X481434Y202415D01*
X481534Y202364D01*
X481573Y202355D01*
X481610Y202339D01*
X481728Y202320D01*
X481844Y202294D01*
X481885Y202295D01*
X481925Y202289D01*
X482043Y202300D01*
X482162Y202304D01*
X482201Y202315D01*
X482241Y202319D01*
X482353Y202359D01*
X482468Y202392D01*
X482502Y202413D01*
X482508Y202415D01*
X485244Y202415D01*
X485344Y202364D01*
X485383Y202355D01*
X485420Y202339D01*
X485538Y202320D01*
X485654Y202294D01*
X485695Y202295D01*
X485735Y202289D01*
X485853Y202300D01*
X485972Y202304D01*
X486011Y202315D01*
X486051Y202319D01*
X486163Y202359D01*
X486278Y202392D01*
X486312Y202413D01*
X486318Y202415D01*
X488933Y202415D01*
X490705Y200643D01*
X490705Y198016D01*
X490654Y197916D01*
X490645Y197876D01*
X490629Y197839D01*
X490610Y197722D01*
X490584Y197605D01*
X490585Y197565D01*
X490579Y197525D01*
X490590Y197407D01*
X490594Y197288D01*
X490605Y197249D01*
X490609Y197209D01*
X490649Y197096D01*
X490682Y196982D01*
X490703Y196947D01*
X490705Y196942D01*
X490705Y194206D01*
X490654Y194106D01*
X490645Y194066D01*
X490629Y194029D01*
X490610Y193912D01*
X490584Y193795D01*
X490585Y193755D01*
X490579Y193715D01*
X490590Y193596D01*
X490594Y193478D01*
X490605Y193439D01*
X490609Y193399D01*
X490649Y193286D01*
X490682Y193172D01*
X490703Y193137D01*
X490705Y193132D01*
X490705Y190396D01*
X490654Y190296D01*
X490645Y190256D01*
X490629Y190219D01*
X490610Y190102D01*
X490584Y189985D01*
X490585Y189945D01*
X490579Y189905D01*
X490590Y189787D01*
X490594Y189668D01*
X490605Y189629D01*
X490609Y189589D01*
X490649Y189476D01*
X490682Y189362D01*
X490703Y189327D01*
X490705Y189322D01*
X490705Y186586D01*
X490654Y186486D01*
X490645Y186446D01*
X490629Y186409D01*
X490610Y186292D01*
X490584Y186175D01*
X490585Y186135D01*
X490579Y186095D01*
X490590Y185977D01*
X490594Y185858D01*
X490605Y185819D01*
X490609Y185779D01*
X490649Y185666D01*
X490682Y185552D01*
X490703Y185517D01*
X490705Y185512D01*
X490705Y182776D01*
X490654Y182676D01*
X490645Y182637D01*
X490629Y182600D01*
X490610Y182482D01*
X490584Y182366D01*
X490585Y182325D01*
X490579Y182285D01*
X490590Y182167D01*
X490594Y182048D01*
X490605Y182009D01*
X490609Y181969D01*
X490649Y181857D01*
X490682Y181742D01*
X490703Y181708D01*
X490705Y181702D01*
X490705Y178966D01*
X490654Y178866D01*
X490645Y178826D01*
X490629Y178789D01*
X490610Y178672D01*
X490584Y178555D01*
X490585Y178515D01*
X490579Y178475D01*
X490590Y178357D01*
X490594Y178238D01*
X490605Y178199D01*
X490609Y178159D01*
X490649Y178046D01*
X490682Y177932D01*
X490703Y177897D01*
X490705Y177892D01*
X490705Y175156D01*
X490654Y175056D01*
X490645Y175016D01*
X490629Y174979D01*
X490610Y174862D01*
X490584Y174745D01*
X490585Y174705D01*
X490579Y174665D01*
X490590Y174547D01*
X490594Y174428D01*
X490605Y174389D01*
X490609Y174349D01*
X490649Y174236D01*
X490682Y174122D01*
X490703Y174087D01*
X490705Y174082D01*
X490705Y171346D01*
X490654Y171246D01*
X490645Y171206D01*
X490629Y171169D01*
X490610Y171052D01*
X490584Y170935D01*
X490585Y170895D01*
X490579Y170855D01*
X490590Y170737D01*
X490594Y170618D01*
X490605Y170579D01*
X490609Y170539D01*
X490649Y170426D01*
X490682Y170312D01*
X490703Y170277D01*
X490705Y170272D01*
X490705Y167536D01*
X490654Y167436D01*
X490645Y167396D01*
X490629Y167359D01*
X490610Y167242D01*
X490584Y167125D01*
X490585Y167085D01*
X490579Y167045D01*
X490590Y166927D01*
X490594Y166808D01*
X490605Y166769D01*
X490609Y166729D01*
X490649Y166616D01*
X490682Y166502D01*
X490703Y166467D01*
X490705Y166462D01*
X490705Y163726D01*
X490654Y163626D01*
X490645Y163586D01*
X490629Y163549D01*
X490610Y163432D01*
X490584Y163315D01*
X490585Y163275D01*
X490579Y163235D01*
X490590Y163117D01*
X490594Y162998D01*
X490605Y162959D01*
X490609Y162919D01*
X490649Y162806D01*
X490682Y162692D01*
X490703Y162657D01*
X490705Y162652D01*
X490705Y159916D01*
X490654Y159816D01*
X490645Y159776D01*
X490629Y159739D01*
X490610Y159622D01*
X490584Y159505D01*
X490585Y159465D01*
X490579Y159425D01*
X490590Y159307D01*
X490594Y159188D01*
X490605Y159149D01*
X490609Y159109D01*
X490649Y158996D01*
X490682Y158882D01*
X490703Y158847D01*
X490705Y158842D01*
X490705Y156106D01*
X490654Y156006D01*
X490645Y155966D01*
X490629Y155929D01*
X490610Y155812D01*
X490584Y155695D01*
X490585Y155655D01*
X490579Y155615D01*
X490590Y155497D01*
X490594Y155378D01*
X490605Y155339D01*
X490609Y155299D01*
X490649Y155186D01*
X490682Y155072D01*
X490703Y155037D01*
X490705Y155032D01*
X490705Y152296D01*
X490654Y152196D01*
X490645Y152156D01*
X490629Y152119D01*
X490610Y152002D01*
X490584Y151885D01*
X490585Y151845D01*
X490579Y151805D01*
X490590Y151687D01*
X490594Y151568D01*
X490605Y151529D01*
X490609Y151489D01*
X490649Y151376D01*
X490682Y151262D01*
X490703Y151227D01*
X490705Y151222D01*
X490705Y148486D01*
X490654Y148386D01*
X490645Y148346D01*
X490629Y148309D01*
X490610Y148192D01*
X490584Y148075D01*
X490585Y148035D01*
X490579Y147995D01*
X490590Y147877D01*
X490594Y147758D01*
X490605Y147719D01*
X490609Y147679D01*
X490649Y147566D01*
X490682Y147452D01*
X490703Y147417D01*
X490705Y147412D01*
X490705Y144676D01*
X490654Y144576D01*
X490645Y144536D01*
X490629Y144499D01*
X490610Y144382D01*
X490584Y144265D01*
X490585Y144225D01*
X490579Y144185D01*
X490590Y144067D01*
X490594Y143948D01*
X490605Y143909D01*
X490609Y143869D01*
X490649Y143756D01*
X490682Y143642D01*
X490703Y143607D01*
X490705Y143602D01*
X490705Y140866D01*
X490654Y140766D01*
X490645Y140726D01*
X490629Y140689D01*
X490610Y140572D01*
X490584Y140455D01*
X490585Y140415D01*
X490579Y140375D01*
X490590Y140257D01*
X490594Y140138D01*
X490605Y140099D01*
X490609Y140059D01*
X490649Y139946D01*
X490682Y139832D01*
X490703Y139797D01*
X490705Y139792D01*
X490705Y137056D01*
X490654Y136956D01*
X490645Y136917D01*
X490629Y136880D01*
X490610Y136762D01*
X490584Y136646D01*
X490585Y136605D01*
X490579Y136565D01*
X490590Y136447D01*
X490594Y136328D01*
X490605Y136289D01*
X490609Y136249D01*
X490649Y136137D01*
X490682Y136022D01*
X490703Y135988D01*
X490705Y135982D01*
X490705Y133246D01*
X490654Y133146D01*
X490645Y133106D01*
X490629Y133069D01*
X490610Y132952D01*
X490584Y132835D01*
X490585Y132795D01*
X490579Y132755D01*
X490590Y132637D01*
X490594Y132518D01*
X490605Y132479D01*
X490609Y132439D01*
X490649Y132326D01*
X490682Y132212D01*
X490703Y132177D01*
X490705Y132172D01*
X490705Y129436D01*
X490654Y129336D01*
X490645Y129296D01*
X490629Y129259D01*
X490610Y129142D01*
X490584Y129025D01*
X490585Y128985D01*
X490579Y128945D01*
X490590Y128827D01*
X490594Y128708D01*
X490605Y128669D01*
X490609Y128629D01*
X490649Y128516D01*
X490682Y128402D01*
X490703Y128367D01*
X490705Y128362D01*
X490705Y125626D01*
X490654Y125526D01*
X490645Y125486D01*
X490629Y125449D01*
X490610Y125332D01*
X490584Y125215D01*
X490585Y125175D01*
X490579Y125135D01*
X490590Y125017D01*
X490594Y124898D01*
X490605Y124859D01*
X490609Y124819D01*
X490649Y124706D01*
X490682Y124592D01*
X490703Y124557D01*
X490705Y124552D01*
X490705Y121816D01*
X490654Y121716D01*
X490645Y121676D01*
X490629Y121639D01*
X490610Y121522D01*
X490584Y121405D01*
X490585Y121365D01*
X490579Y121325D01*
X490590Y121207D01*
X490594Y121088D01*
X490605Y121049D01*
X490609Y121009D01*
X490649Y120896D01*
X490682Y120782D01*
X490703Y120747D01*
X490705Y120742D01*
X490705Y118006D01*
X490654Y117906D01*
X490645Y117866D01*
X490629Y117829D01*
X490610Y117712D01*
X490584Y117595D01*
X490585Y117555D01*
X490579Y117515D01*
X490590Y117397D01*
X490594Y117278D01*
X490605Y117239D01*
X490609Y117199D01*
X490649Y117086D01*
X490682Y116972D01*
X490703Y116937D01*
X490705Y116932D01*
X490705Y114196D01*
X490654Y114096D01*
X490645Y114056D01*
X490629Y114019D01*
X490610Y113902D01*
X490584Y113785D01*
X490585Y113745D01*
X490579Y113705D01*
X490590Y113587D01*
X490594Y113468D01*
X490605Y113429D01*
X490609Y113389D01*
X490649Y113276D01*
X490682Y113162D01*
X490703Y113127D01*
X490705Y113122D01*
X490705Y110507D01*
X488933Y108735D01*
X486306Y108735D01*
X486206Y108786D01*
X486166Y108795D01*
X486129Y108811D01*
X486012Y108830D01*
X485895Y108856D01*
X485855Y108855D01*
X485815Y108861D01*
X485697Y108850D01*
X485578Y108846D01*
X485539Y108835D01*
X485499Y108831D01*
X485386Y108791D01*
X485272Y108758D01*
X485237Y108737D01*
X485232Y108735D01*
X482496Y108735D01*
X482396Y108786D01*
X482356Y108795D01*
X482319Y108811D01*
X482202Y108830D01*
X482085Y108856D01*
X482045Y108855D01*
X482005Y108861D01*
X481887Y108850D01*
X481768Y108846D01*
X481729Y108835D01*
X481689Y108831D01*
X481576Y108791D01*
X481462Y108758D01*
X481427Y108737D01*
X481422Y108735D01*
X478686Y108735D01*
X478586Y108786D01*
X478546Y108795D01*
X478509Y108811D01*
X478392Y108830D01*
X478275Y108856D01*
X478235Y108855D01*
X478195Y108861D01*
X478077Y108850D01*
X477958Y108846D01*
X477919Y108835D01*
X477879Y108831D01*
X477766Y108791D01*
X477652Y108758D01*
X477617Y108737D01*
X477612Y108735D01*
X474997Y108735D01*
G37*
%LPD*%
%LPC*%
G36*
X208946Y224329D02*
X208946Y224329D01*
X206295Y226980D01*
X206295Y230728D01*
X208604Y233037D01*
X208677Y233131D01*
X208755Y233220D01*
X208774Y233256D01*
X208799Y233288D01*
X208846Y233397D01*
X208900Y233503D01*
X208909Y233542D01*
X208925Y233580D01*
X208944Y233697D01*
X208970Y233813D01*
X208968Y233854D01*
X208975Y233894D01*
X208964Y234012D01*
X208960Y234131D01*
X208949Y234170D01*
X208945Y234210D01*
X208905Y234322D01*
X208872Y234437D01*
X208851Y234472D01*
X208837Y234510D01*
X208770Y234608D01*
X208710Y234711D01*
X208670Y234756D01*
X208659Y234773D01*
X208643Y234786D01*
X208604Y234832D01*
X206295Y237140D01*
X206295Y240888D01*
X208604Y243197D01*
X208677Y243291D01*
X208755Y243380D01*
X208774Y243416D01*
X208799Y243448D01*
X208846Y243557D01*
X208900Y243663D01*
X208909Y243702D01*
X208925Y243740D01*
X208944Y243857D01*
X208970Y243973D01*
X208968Y244014D01*
X208975Y244054D01*
X208964Y244172D01*
X208960Y244291D01*
X208949Y244330D01*
X208945Y244370D01*
X208905Y244482D01*
X208872Y244597D01*
X208851Y244632D01*
X208837Y244670D01*
X208770Y244768D01*
X208710Y244871D01*
X208670Y244916D01*
X208659Y244933D01*
X208643Y244946D01*
X208604Y244992D01*
X206295Y247300D01*
X206295Y251048D01*
X208604Y253356D01*
X208677Y253451D01*
X208755Y253540D01*
X208774Y253576D01*
X208799Y253608D01*
X208846Y253717D01*
X208900Y253823D01*
X208909Y253862D01*
X208925Y253900D01*
X208944Y254017D01*
X208970Y254133D01*
X208968Y254174D01*
X208975Y254214D01*
X208964Y254332D01*
X208960Y254451D01*
X208949Y254490D01*
X208945Y254530D01*
X208905Y254643D01*
X208872Y254757D01*
X208851Y254791D01*
X208837Y254830D01*
X208770Y254928D01*
X208710Y255031D01*
X208670Y255076D01*
X208659Y255093D01*
X208643Y255106D01*
X208604Y255151D01*
X206295Y257460D01*
X206295Y261208D01*
X208946Y263859D01*
X212694Y263859D01*
X215003Y261550D01*
X215097Y261477D01*
X215186Y261399D01*
X215222Y261380D01*
X215254Y261355D01*
X215363Y261308D01*
X215469Y261254D01*
X215508Y261245D01*
X215546Y261229D01*
X215663Y261210D01*
X215779Y261184D01*
X215820Y261186D01*
X215860Y261179D01*
X215978Y261190D01*
X216097Y261194D01*
X216136Y261205D01*
X216176Y261209D01*
X216288Y261249D01*
X216403Y261282D01*
X216438Y261303D01*
X216476Y261317D01*
X216574Y261384D01*
X216677Y261444D01*
X216722Y261484D01*
X216739Y261495D01*
X216752Y261511D01*
X216798Y261550D01*
X219106Y263859D01*
X222854Y263859D01*
X225505Y261208D01*
X225505Y257460D01*
X223196Y255151D01*
X223123Y255057D01*
X223045Y254968D01*
X223026Y254932D01*
X223001Y254900D01*
X222954Y254791D01*
X222900Y254685D01*
X222891Y254646D01*
X222875Y254608D01*
X222856Y254491D01*
X222830Y254375D01*
X222832Y254334D01*
X222825Y254294D01*
X222836Y254176D01*
X222840Y254057D01*
X222851Y254018D01*
X222855Y253978D01*
X222895Y253866D01*
X222928Y253751D01*
X222949Y253716D01*
X222963Y253678D01*
X223030Y253580D01*
X223090Y253477D01*
X223130Y253432D01*
X223141Y253415D01*
X223157Y253402D01*
X223196Y253356D01*
X225505Y251048D01*
X225505Y247300D01*
X223196Y244992D01*
X223123Y244897D01*
X223045Y244808D01*
X223026Y244772D01*
X223001Y244740D01*
X222954Y244631D01*
X222900Y244525D01*
X222891Y244486D01*
X222875Y244448D01*
X222856Y244331D01*
X222830Y244215D01*
X222832Y244174D01*
X222825Y244134D01*
X222836Y244016D01*
X222840Y243897D01*
X222851Y243858D01*
X222855Y243818D01*
X222895Y243705D01*
X222928Y243591D01*
X222949Y243557D01*
X222963Y243518D01*
X223030Y243420D01*
X223090Y243317D01*
X223130Y243272D01*
X223141Y243255D01*
X223157Y243242D01*
X223196Y243197D01*
X225505Y240888D01*
X225505Y237140D01*
X223196Y234832D01*
X223123Y234737D01*
X223045Y234648D01*
X223026Y234612D01*
X223001Y234580D01*
X222954Y234471D01*
X222900Y234365D01*
X222891Y234326D01*
X222875Y234288D01*
X222856Y234171D01*
X222830Y234055D01*
X222832Y234014D01*
X222825Y233974D01*
X222836Y233856D01*
X222840Y233737D01*
X222851Y233698D01*
X222855Y233658D01*
X222895Y233545D01*
X222928Y233431D01*
X222949Y233397D01*
X222963Y233358D01*
X223030Y233260D01*
X223090Y233157D01*
X223130Y233112D01*
X223141Y233095D01*
X223157Y233082D01*
X223196Y233037D01*
X225505Y230728D01*
X225505Y226980D01*
X222854Y224329D01*
X219106Y224329D01*
X216797Y226638D01*
X216703Y226711D01*
X216614Y226789D01*
X216578Y226808D01*
X216546Y226833D01*
X216437Y226880D01*
X216331Y226934D01*
X216292Y226943D01*
X216254Y226959D01*
X216137Y226978D01*
X216021Y227004D01*
X215980Y227002D01*
X215940Y227009D01*
X215822Y226998D01*
X215703Y226994D01*
X215664Y226983D01*
X215624Y226979D01*
X215512Y226939D01*
X215397Y226906D01*
X215362Y226885D01*
X215324Y226871D01*
X215226Y226804D01*
X215123Y226744D01*
X215078Y226704D01*
X215061Y226693D01*
X215048Y226677D01*
X215002Y226638D01*
X212694Y224329D01*
X208946Y224329D01*
G37*
%LPD*%
%LPC*%
G36*
X264826Y207565D02*
X264826Y207565D01*
X262175Y210216D01*
X262175Y213964D01*
X264484Y216272D01*
X264557Y216367D01*
X264635Y216456D01*
X264654Y216492D01*
X264679Y216524D01*
X264726Y216633D01*
X264780Y216739D01*
X264789Y216778D01*
X264805Y216816D01*
X264824Y216933D01*
X264850Y217049D01*
X264848Y217090D01*
X264855Y217130D01*
X264844Y217248D01*
X264840Y217367D01*
X264829Y217406D01*
X264825Y217446D01*
X264785Y217559D01*
X264752Y217673D01*
X264731Y217707D01*
X264717Y217746D01*
X264650Y217844D01*
X264590Y217947D01*
X264550Y217992D01*
X264539Y218009D01*
X264523Y218022D01*
X264484Y218067D01*
X262175Y220376D01*
X262175Y224124D01*
X264826Y226775D01*
X268574Y226775D01*
X270882Y224466D01*
X270977Y224393D01*
X271066Y224315D01*
X271102Y224296D01*
X271134Y224271D01*
X271243Y224224D01*
X271349Y224170D01*
X271388Y224161D01*
X271426Y224145D01*
X271543Y224126D01*
X271659Y224100D01*
X271700Y224102D01*
X271740Y224095D01*
X271858Y224106D01*
X271977Y224110D01*
X272016Y224121D01*
X272056Y224125D01*
X272169Y224165D01*
X272283Y224198D01*
X272317Y224219D01*
X272356Y224233D01*
X272454Y224300D01*
X272557Y224360D01*
X272602Y224400D01*
X272619Y224411D01*
X272632Y224427D01*
X272677Y224466D01*
X274986Y226775D01*
X278734Y226775D01*
X281043Y224466D01*
X281137Y224393D01*
X281226Y224315D01*
X281262Y224296D01*
X281294Y224271D01*
X281403Y224224D01*
X281509Y224170D01*
X281548Y224161D01*
X281586Y224145D01*
X281703Y224126D01*
X281819Y224100D01*
X281860Y224102D01*
X281900Y224095D01*
X282018Y224106D01*
X282137Y224110D01*
X282176Y224121D01*
X282216Y224125D01*
X282328Y224165D01*
X282443Y224198D01*
X282478Y224219D01*
X282516Y224233D01*
X282614Y224300D01*
X282717Y224360D01*
X282762Y224400D01*
X282779Y224411D01*
X282792Y224427D01*
X282838Y224466D01*
X285146Y226775D01*
X288894Y226775D01*
X291202Y224466D01*
X291297Y224393D01*
X291386Y224315D01*
X291422Y224296D01*
X291454Y224271D01*
X291563Y224224D01*
X291669Y224170D01*
X291708Y224161D01*
X291746Y224145D01*
X291863Y224126D01*
X291979Y224100D01*
X292020Y224102D01*
X292060Y224095D01*
X292178Y224106D01*
X292297Y224110D01*
X292336Y224121D01*
X292376Y224125D01*
X292489Y224165D01*
X292603Y224198D01*
X292637Y224219D01*
X292676Y224233D01*
X292774Y224300D01*
X292877Y224360D01*
X292922Y224400D01*
X292939Y224411D01*
X292952Y224427D01*
X292997Y224466D01*
X295306Y226775D01*
X299054Y226775D01*
X301705Y224124D01*
X301705Y220376D01*
X299396Y218068D01*
X299323Y217973D01*
X299245Y217884D01*
X299226Y217848D01*
X299201Y217816D01*
X299154Y217707D01*
X299100Y217601D01*
X299091Y217562D01*
X299075Y217524D01*
X299056Y217407D01*
X299030Y217291D01*
X299032Y217250D01*
X299025Y217210D01*
X299036Y217092D01*
X299040Y216973D01*
X299051Y216934D01*
X299055Y216894D01*
X299095Y216781D01*
X299128Y216667D01*
X299149Y216633D01*
X299163Y216594D01*
X299230Y216496D01*
X299290Y216393D01*
X299330Y216348D01*
X299341Y216331D01*
X299357Y216318D01*
X299396Y216273D01*
X301705Y213964D01*
X301705Y210216D01*
X299054Y207565D01*
X295306Y207565D01*
X292997Y209874D01*
X292903Y209947D01*
X292814Y210025D01*
X292778Y210044D01*
X292746Y210069D01*
X292637Y210116D01*
X292531Y210170D01*
X292492Y210179D01*
X292454Y210195D01*
X292337Y210214D01*
X292221Y210240D01*
X292180Y210238D01*
X292140Y210245D01*
X292022Y210234D01*
X291903Y210230D01*
X291864Y210219D01*
X291824Y210215D01*
X291712Y210175D01*
X291597Y210142D01*
X291562Y210121D01*
X291524Y210107D01*
X291426Y210040D01*
X291323Y209980D01*
X291278Y209940D01*
X291261Y209929D01*
X291248Y209913D01*
X291202Y209874D01*
X288894Y207565D01*
X285146Y207565D01*
X282837Y209874D01*
X282743Y209947D01*
X282654Y210025D01*
X282618Y210044D01*
X282586Y210069D01*
X282477Y210116D01*
X282371Y210170D01*
X282332Y210179D01*
X282294Y210195D01*
X282177Y210214D01*
X282061Y210240D01*
X282020Y210238D01*
X281980Y210245D01*
X281862Y210234D01*
X281743Y210230D01*
X281704Y210219D01*
X281664Y210215D01*
X281552Y210175D01*
X281437Y210142D01*
X281402Y210121D01*
X281364Y210107D01*
X281266Y210040D01*
X281163Y209980D01*
X281118Y209940D01*
X281101Y209929D01*
X281088Y209913D01*
X281042Y209874D01*
X278734Y207565D01*
X274986Y207565D01*
X272677Y209874D01*
X272583Y209947D01*
X272494Y210025D01*
X272458Y210044D01*
X272426Y210069D01*
X272317Y210116D01*
X272211Y210170D01*
X272172Y210179D01*
X272134Y210195D01*
X272017Y210214D01*
X271901Y210240D01*
X271860Y210238D01*
X271820Y210245D01*
X271702Y210234D01*
X271583Y210230D01*
X271544Y210219D01*
X271504Y210215D01*
X271392Y210175D01*
X271277Y210142D01*
X271242Y210121D01*
X271204Y210107D01*
X271106Y210040D01*
X271003Y209980D01*
X270958Y209940D01*
X270941Y209929D01*
X270928Y209913D01*
X270882Y209874D01*
X268574Y207565D01*
X264826Y207565D01*
G37*
%LPD*%
%LPC*%
G36*
X52017Y58292D02*
X52017Y58292D01*
X51942Y58367D01*
X51942Y81333D01*
X52017Y81408D01*
X74983Y81408D01*
X75058Y81333D01*
X75058Y58367D01*
X74983Y58292D01*
X52017Y58292D01*
G37*
%LPD*%
%LPC*%
G36*
X52017Y223392D02*
X52017Y223392D01*
X51942Y223467D01*
X51942Y246433D01*
X52017Y246508D01*
X74983Y246508D01*
X75058Y246433D01*
X75058Y223467D01*
X74983Y223392D01*
X52017Y223392D01*
G37*
%LPD*%
%LPC*%
G36*
X111442Y145732D02*
X111442Y145732D01*
X111442Y152470D01*
X112475Y152135D01*
X112563Y152118D01*
X112648Y152091D01*
X112718Y152088D01*
X112787Y152075D01*
X112877Y152081D01*
X112966Y152076D01*
X113035Y152090D01*
X113105Y152095D01*
X113190Y152122D01*
X113277Y152141D01*
X113340Y152171D01*
X113407Y152193D01*
X113483Y152241D01*
X113563Y152280D01*
X113616Y152326D01*
X113676Y152363D01*
X113737Y152429D01*
X113805Y152487D01*
X113845Y152544D01*
X113894Y152595D01*
X113937Y152673D01*
X113988Y152747D01*
X114013Y152812D01*
X114047Y152874D01*
X114069Y152960D01*
X114101Y153044D01*
X114109Y153114D01*
X114126Y153182D01*
X114126Y153271D01*
X114136Y153360D01*
X114126Y153430D01*
X114126Y153500D01*
X114104Y153586D01*
X114092Y153675D01*
X114051Y153793D01*
X114048Y153808D01*
X114044Y153814D01*
X114040Y153827D01*
X113728Y154580D01*
X113728Y157840D01*
X114040Y158593D01*
X114063Y158679D01*
X114096Y158762D01*
X114105Y158832D01*
X114124Y158899D01*
X114125Y158989D01*
X114136Y159078D01*
X114128Y159147D01*
X114129Y159217D01*
X114108Y159305D01*
X114097Y159393D01*
X114071Y159458D01*
X114055Y159527D01*
X114013Y159606D01*
X113980Y159689D01*
X113939Y159746D01*
X113906Y159808D01*
X113846Y159874D01*
X113793Y159946D01*
X113739Y159991D01*
X113692Y160043D01*
X113617Y160092D01*
X113548Y160149D01*
X113485Y160179D01*
X113426Y160218D01*
X113341Y160247D01*
X113261Y160285D01*
X113192Y160298D01*
X113125Y160321D01*
X113036Y160328D01*
X112948Y160345D01*
X112878Y160341D01*
X112808Y160346D01*
X112720Y160331D01*
X112631Y160325D01*
X112510Y160294D01*
X112495Y160292D01*
X112489Y160289D01*
X112475Y160285D01*
X111442Y159950D01*
X111442Y166688D01*
X118180Y166688D01*
X117845Y165655D01*
X117828Y165567D01*
X117801Y165482D01*
X117798Y165412D01*
X117785Y165343D01*
X117791Y165253D01*
X117786Y165164D01*
X117800Y165095D01*
X117805Y165025D01*
X117832Y164940D01*
X117851Y164853D01*
X117881Y164790D01*
X117903Y164723D01*
X117951Y164647D01*
X117990Y164567D01*
X118036Y164514D01*
X118073Y164454D01*
X118139Y164393D01*
X118197Y164325D01*
X118254Y164285D01*
X118305Y164236D01*
X118383Y164193D01*
X118457Y164142D01*
X118522Y164117D01*
X118584Y164083D01*
X118670Y164061D01*
X118754Y164029D01*
X118824Y164021D01*
X118892Y164004D01*
X118981Y164004D01*
X119070Y163994D01*
X119140Y164004D01*
X119210Y164004D01*
X119296Y164026D01*
X119385Y164038D01*
X119503Y164079D01*
X119518Y164082D01*
X119524Y164086D01*
X119537Y164090D01*
X120290Y164402D01*
X123550Y164402D01*
X124303Y164090D01*
X124389Y164067D01*
X124472Y164034D01*
X124542Y164025D01*
X124609Y164006D01*
X124699Y164005D01*
X124788Y163994D01*
X124857Y164002D01*
X124927Y164001D01*
X125015Y164022D01*
X125103Y164033D01*
X125168Y164059D01*
X125237Y164075D01*
X125316Y164117D01*
X125399Y164150D01*
X125456Y164191D01*
X125518Y164224D01*
X125584Y164284D01*
X125656Y164337D01*
X125701Y164391D01*
X125753Y164438D01*
X125802Y164513D01*
X125859Y164582D01*
X125889Y164645D01*
X125928Y164704D01*
X125957Y164789D01*
X125995Y164869D01*
X126008Y164938D01*
X126031Y165005D01*
X126038Y165094D01*
X126055Y165182D01*
X126051Y165252D01*
X126056Y165322D01*
X126041Y165410D01*
X126035Y165499D01*
X126004Y165620D01*
X126002Y165635D01*
X125999Y165641D01*
X125995Y165655D01*
X125660Y166688D01*
X132398Y166688D01*
X132398Y159950D01*
X131365Y160285D01*
X131277Y160302D01*
X131192Y160329D01*
X131122Y160332D01*
X131053Y160345D01*
X130963Y160339D01*
X130874Y160344D01*
X130805Y160330D01*
X130735Y160325D01*
X130650Y160298D01*
X130563Y160279D01*
X130500Y160249D01*
X130433Y160227D01*
X130357Y160179D01*
X130277Y160140D01*
X130224Y160094D01*
X130164Y160057D01*
X130103Y159991D01*
X130035Y159933D01*
X129995Y159876D01*
X129946Y159825D01*
X129903Y159747D01*
X129852Y159673D01*
X129827Y159608D01*
X129793Y159546D01*
X129771Y159460D01*
X129739Y159376D01*
X129731Y159306D01*
X129714Y159238D01*
X129714Y159149D01*
X129704Y159060D01*
X129714Y158990D01*
X129714Y158920D01*
X129736Y158834D01*
X129748Y158745D01*
X129789Y158627D01*
X129792Y158612D01*
X129796Y158606D01*
X129800Y158593D01*
X130112Y157840D01*
X130112Y154580D01*
X129800Y153827D01*
X129777Y153741D01*
X129744Y153658D01*
X129735Y153588D01*
X129716Y153521D01*
X129715Y153431D01*
X129704Y153342D01*
X129712Y153273D01*
X129711Y153203D01*
X129732Y153115D01*
X129743Y153027D01*
X129769Y152962D01*
X129785Y152893D01*
X129827Y152814D01*
X129860Y152731D01*
X129901Y152674D01*
X129934Y152612D01*
X129994Y152546D01*
X130047Y152474D01*
X130101Y152429D01*
X130148Y152377D01*
X130223Y152328D01*
X130292Y152271D01*
X130355Y152241D01*
X130414Y152202D01*
X130499Y152173D01*
X130579Y152135D01*
X130648Y152122D01*
X130715Y152099D01*
X130804Y152092D01*
X130892Y152075D01*
X130962Y152079D01*
X131032Y152074D01*
X131120Y152089D01*
X131209Y152095D01*
X131330Y152126D01*
X131345Y152128D01*
X131351Y152131D01*
X131365Y152135D01*
X132398Y152470D01*
X132398Y145732D01*
X125660Y145732D01*
X125995Y146765D01*
X126012Y146853D01*
X126039Y146938D01*
X126042Y147008D01*
X126055Y147077D01*
X126049Y147167D01*
X126054Y147256D01*
X126040Y147325D01*
X126035Y147395D01*
X126008Y147480D01*
X125989Y147567D01*
X125959Y147630D01*
X125937Y147697D01*
X125889Y147773D01*
X125850Y147853D01*
X125804Y147906D01*
X125767Y147966D01*
X125701Y148027D01*
X125643Y148095D01*
X125586Y148135D01*
X125535Y148184D01*
X125457Y148227D01*
X125383Y148278D01*
X125318Y148303D01*
X125256Y148337D01*
X125170Y148359D01*
X125086Y148391D01*
X125016Y148399D01*
X124948Y148416D01*
X124859Y148416D01*
X124770Y148426D01*
X124700Y148416D01*
X124630Y148416D01*
X124544Y148394D01*
X124455Y148382D01*
X124337Y148341D01*
X124322Y148338D01*
X124316Y148334D01*
X124303Y148330D01*
X123550Y148018D01*
X120290Y148018D01*
X119537Y148330D01*
X119451Y148353D01*
X119368Y148386D01*
X119298Y148395D01*
X119231Y148414D01*
X119141Y148415D01*
X119052Y148426D01*
X118983Y148418D01*
X118913Y148419D01*
X118825Y148398D01*
X118737Y148387D01*
X118672Y148361D01*
X118603Y148345D01*
X118524Y148303D01*
X118441Y148270D01*
X118384Y148229D01*
X118322Y148196D01*
X118256Y148136D01*
X118184Y148083D01*
X118139Y148029D01*
X118087Y147982D01*
X118038Y147907D01*
X117981Y147838D01*
X117951Y147775D01*
X117912Y147716D01*
X117883Y147631D01*
X117845Y147551D01*
X117832Y147482D01*
X117809Y147415D01*
X117802Y147326D01*
X117785Y147238D01*
X117789Y147168D01*
X117784Y147098D01*
X117799Y147010D01*
X117805Y146921D01*
X117836Y146800D01*
X117838Y146785D01*
X117841Y146779D01*
X117845Y146765D01*
X118180Y145732D01*
X111442Y145732D01*
G37*
%LPD*%
%LPC*%
G36*
X459422Y263842D02*
X459422Y263842D01*
X459422Y270580D01*
X460455Y270245D01*
X460543Y270228D01*
X460628Y270201D01*
X460698Y270198D01*
X460767Y270185D01*
X460857Y270191D01*
X460946Y270186D01*
X461015Y270200D01*
X461085Y270205D01*
X461170Y270232D01*
X461258Y270251D01*
X461321Y270281D01*
X461387Y270303D01*
X461463Y270351D01*
X461543Y270390D01*
X461597Y270436D01*
X461656Y270473D01*
X461717Y270538D01*
X461785Y270597D01*
X461826Y270654D01*
X461874Y270705D01*
X461917Y270783D01*
X461968Y270857D01*
X461993Y270922D01*
X462027Y270984D01*
X462049Y271070D01*
X462081Y271154D01*
X462089Y271224D01*
X462106Y271292D01*
X462106Y271381D01*
X462116Y271470D01*
X462106Y271540D01*
X462106Y271610D01*
X462084Y271696D01*
X462072Y271785D01*
X462031Y271904D01*
X462028Y271918D01*
X462024Y271924D01*
X462020Y271937D01*
X461708Y272690D01*
X461708Y275950D01*
X462020Y276703D01*
X462043Y276789D01*
X462076Y276872D01*
X462085Y276942D01*
X462104Y277009D01*
X462105Y277099D01*
X462116Y277188D01*
X462108Y277257D01*
X462109Y277327D01*
X462088Y277414D01*
X462077Y277503D01*
X462051Y277568D01*
X462035Y277637D01*
X461993Y277716D01*
X461960Y277799D01*
X461919Y277856D01*
X461886Y277918D01*
X461826Y277984D01*
X461773Y278056D01*
X461719Y278101D01*
X461672Y278153D01*
X461597Y278202D01*
X461528Y278259D01*
X461465Y278289D01*
X461406Y278328D01*
X461322Y278357D01*
X461241Y278395D01*
X461172Y278408D01*
X461105Y278431D01*
X461016Y278438D01*
X460928Y278455D01*
X460858Y278451D01*
X460788Y278456D01*
X460700Y278441D01*
X460611Y278435D01*
X460490Y278404D01*
X460475Y278402D01*
X460469Y278399D01*
X460455Y278395D01*
X459422Y278060D01*
X459422Y284798D01*
X466160Y284798D01*
X465825Y283765D01*
X465808Y283677D01*
X465781Y283592D01*
X465778Y283522D01*
X465765Y283453D01*
X465771Y283363D01*
X465766Y283274D01*
X465780Y283205D01*
X465785Y283135D01*
X465812Y283050D01*
X465831Y282962D01*
X465861Y282899D01*
X465883Y282833D01*
X465931Y282757D01*
X465970Y282677D01*
X466016Y282623D01*
X466053Y282564D01*
X466118Y282503D01*
X466177Y282435D01*
X466234Y282394D01*
X466285Y282346D01*
X466363Y282303D01*
X466437Y282252D01*
X466502Y282227D01*
X466564Y282193D01*
X466650Y282171D01*
X466734Y282139D01*
X466804Y282131D01*
X466872Y282114D01*
X466961Y282114D01*
X467050Y282104D01*
X467120Y282114D01*
X467190Y282114D01*
X467276Y282136D01*
X467365Y282148D01*
X467484Y282189D01*
X467498Y282192D01*
X467504Y282196D01*
X467517Y282200D01*
X468270Y282512D01*
X471530Y282512D01*
X472283Y282200D01*
X472369Y282177D01*
X472452Y282144D01*
X472522Y282135D01*
X472589Y282116D01*
X472679Y282115D01*
X472768Y282104D01*
X472837Y282112D01*
X472907Y282111D01*
X472994Y282132D01*
X473083Y282143D01*
X473148Y282169D01*
X473217Y282185D01*
X473296Y282227D01*
X473379Y282260D01*
X473436Y282301D01*
X473498Y282334D01*
X473564Y282394D01*
X473636Y282447D01*
X473681Y282501D01*
X473733Y282548D01*
X473782Y282623D01*
X473839Y282692D01*
X473869Y282755D01*
X473908Y282814D01*
X473937Y282898D01*
X473975Y282979D01*
X473988Y283048D01*
X474011Y283115D01*
X474018Y283204D01*
X474035Y283292D01*
X474031Y283362D01*
X474036Y283432D01*
X474021Y283520D01*
X474015Y283609D01*
X473984Y283730D01*
X473982Y283745D01*
X473979Y283751D01*
X473975Y283765D01*
X473640Y284798D01*
X480378Y284798D01*
X480378Y278060D01*
X479345Y278395D01*
X479257Y278412D01*
X479172Y278439D01*
X479102Y278442D01*
X479033Y278455D01*
X478943Y278449D01*
X478854Y278454D01*
X478785Y278440D01*
X478715Y278435D01*
X478630Y278408D01*
X478542Y278389D01*
X478479Y278359D01*
X478413Y278337D01*
X478337Y278289D01*
X478257Y278250D01*
X478203Y278204D01*
X478144Y278167D01*
X478083Y278102D01*
X478015Y278043D01*
X477974Y277986D01*
X477926Y277935D01*
X477883Y277857D01*
X477832Y277783D01*
X477807Y277718D01*
X477773Y277656D01*
X477751Y277570D01*
X477719Y277486D01*
X477711Y277416D01*
X477694Y277348D01*
X477694Y277259D01*
X477684Y277170D01*
X477694Y277100D01*
X477694Y277030D01*
X477716Y276944D01*
X477728Y276855D01*
X477769Y276736D01*
X477772Y276722D01*
X477776Y276716D01*
X477780Y276703D01*
X478092Y275950D01*
X478092Y272690D01*
X477780Y271937D01*
X477757Y271851D01*
X477724Y271768D01*
X477715Y271698D01*
X477696Y271631D01*
X477695Y271541D01*
X477684Y271452D01*
X477692Y271383D01*
X477691Y271313D01*
X477712Y271226D01*
X477723Y271137D01*
X477749Y271072D01*
X477765Y271003D01*
X477807Y270924D01*
X477840Y270841D01*
X477881Y270784D01*
X477914Y270722D01*
X477974Y270656D01*
X478027Y270584D01*
X478081Y270539D01*
X478128Y270487D01*
X478203Y270438D01*
X478272Y270381D01*
X478335Y270351D01*
X478394Y270312D01*
X478478Y270283D01*
X478559Y270245D01*
X478628Y270232D01*
X478695Y270209D01*
X478784Y270202D01*
X478872Y270185D01*
X478942Y270189D01*
X479012Y270184D01*
X479100Y270199D01*
X479189Y270205D01*
X479310Y270236D01*
X479325Y270238D01*
X479331Y270241D01*
X479345Y270245D01*
X480378Y270580D01*
X480378Y263842D01*
X473640Y263842D01*
X473975Y264875D01*
X473992Y264963D01*
X474019Y265048D01*
X474022Y265118D01*
X474035Y265187D01*
X474029Y265277D01*
X474034Y265366D01*
X474020Y265435D01*
X474015Y265505D01*
X473988Y265590D01*
X473969Y265678D01*
X473939Y265741D01*
X473917Y265807D01*
X473869Y265883D01*
X473830Y265963D01*
X473784Y266017D01*
X473747Y266076D01*
X473682Y266137D01*
X473623Y266205D01*
X473566Y266246D01*
X473515Y266294D01*
X473437Y266337D01*
X473363Y266388D01*
X473298Y266413D01*
X473236Y266447D01*
X473150Y266469D01*
X473066Y266501D01*
X472996Y266509D01*
X472928Y266526D01*
X472839Y266526D01*
X472750Y266536D01*
X472680Y266526D01*
X472610Y266526D01*
X472524Y266504D01*
X472435Y266492D01*
X472316Y266451D01*
X472302Y266448D01*
X472296Y266444D01*
X472283Y266440D01*
X471530Y266128D01*
X468270Y266128D01*
X467517Y266440D01*
X467431Y266463D01*
X467348Y266496D01*
X467278Y266505D01*
X467211Y266524D01*
X467121Y266525D01*
X467032Y266536D01*
X466963Y266528D01*
X466893Y266529D01*
X466806Y266508D01*
X466717Y266497D01*
X466652Y266471D01*
X466583Y266455D01*
X466504Y266413D01*
X466421Y266380D01*
X466364Y266339D01*
X466302Y266306D01*
X466236Y266246D01*
X466164Y266193D01*
X466119Y266139D01*
X466067Y266092D01*
X466018Y266017D01*
X465961Y265948D01*
X465931Y265885D01*
X465892Y265826D01*
X465863Y265742D01*
X465825Y265661D01*
X465812Y265592D01*
X465789Y265525D01*
X465782Y265436D01*
X465765Y265348D01*
X465769Y265278D01*
X465764Y265208D01*
X465779Y265120D01*
X465785Y265031D01*
X465816Y264910D01*
X465818Y264895D01*
X465821Y264889D01*
X465825Y264875D01*
X466160Y263842D01*
X459422Y263842D01*
G37*
%LPD*%
%LPC*%
G36*
X409465Y150137D02*
X409465Y150137D01*
X407693Y151909D01*
X407693Y152678D01*
X407678Y152796D01*
X407671Y152915D01*
X407658Y152953D01*
X407653Y152994D01*
X407610Y153104D01*
X407573Y153217D01*
X407551Y153252D01*
X407536Y153289D01*
X407467Y153385D01*
X407403Y153486D01*
X407373Y153514D01*
X407350Y153547D01*
X407258Y153623D01*
X407171Y153704D01*
X407136Y153724D01*
X407105Y153749D01*
X406997Y153800D01*
X406893Y153858D01*
X406853Y153868D01*
X406817Y153885D01*
X406700Y153907D01*
X406585Y153937D01*
X406525Y153941D01*
X406505Y153945D01*
X406484Y153943D01*
X406424Y153947D01*
X405655Y153947D01*
X403883Y155719D01*
X403883Y158346D01*
X403934Y158446D01*
X403943Y158485D01*
X403959Y158522D01*
X403978Y158640D01*
X404004Y158756D01*
X404003Y158797D01*
X404009Y158837D01*
X403998Y158955D01*
X403994Y159074D01*
X403983Y159113D01*
X403979Y159153D01*
X403939Y159265D01*
X403906Y159380D01*
X403885Y159414D01*
X403883Y159420D01*
X403883Y162035D01*
X405655Y163807D01*
X406424Y163807D01*
X406542Y163822D01*
X406661Y163829D01*
X406699Y163842D01*
X406740Y163847D01*
X406850Y163890D01*
X406963Y163927D01*
X406998Y163949D01*
X407035Y163964D01*
X407131Y164033D01*
X407232Y164097D01*
X407260Y164127D01*
X407293Y164150D01*
X407369Y164242D01*
X407450Y164329D01*
X407470Y164364D01*
X407495Y164395D01*
X407546Y164503D01*
X407604Y164607D01*
X407614Y164647D01*
X407631Y164683D01*
X407653Y164800D01*
X407683Y164915D01*
X407687Y164975D01*
X407691Y164995D01*
X407689Y165016D01*
X407693Y165076D01*
X407693Y165845D01*
X409465Y167617D01*
X412092Y167617D01*
X412192Y167566D01*
X412232Y167557D01*
X412269Y167541D01*
X412386Y167522D01*
X412503Y167496D01*
X412543Y167497D01*
X412583Y167491D01*
X412701Y167502D01*
X412820Y167506D01*
X412859Y167517D01*
X412899Y167521D01*
X413012Y167561D01*
X413126Y167594D01*
X413161Y167615D01*
X413166Y167617D01*
X415902Y167617D01*
X416002Y167566D01*
X416041Y167557D01*
X416078Y167541D01*
X416196Y167522D01*
X416312Y167496D01*
X416353Y167497D01*
X416393Y167491D01*
X416511Y167502D01*
X416630Y167506D01*
X416669Y167517D01*
X416709Y167521D01*
X416821Y167561D01*
X416936Y167594D01*
X416970Y167615D01*
X416976Y167617D01*
X419712Y167617D01*
X419812Y167566D01*
X419851Y167557D01*
X419888Y167541D01*
X420006Y167522D01*
X420122Y167496D01*
X420163Y167497D01*
X420203Y167491D01*
X420321Y167502D01*
X420440Y167506D01*
X420479Y167517D01*
X420519Y167521D01*
X420631Y167561D01*
X420746Y167594D01*
X420780Y167615D01*
X420786Y167617D01*
X423401Y167617D01*
X425173Y165845D01*
X425173Y163218D01*
X425122Y163118D01*
X425113Y163079D01*
X425097Y163042D01*
X425078Y162924D01*
X425052Y162808D01*
X425053Y162767D01*
X425047Y162727D01*
X425058Y162609D01*
X425062Y162490D01*
X425073Y162451D01*
X425077Y162411D01*
X425117Y162299D01*
X425150Y162184D01*
X425171Y162150D01*
X425173Y162144D01*
X425173Y159408D01*
X425122Y159308D01*
X425113Y159269D01*
X425097Y159232D01*
X425078Y159114D01*
X425052Y158998D01*
X425053Y158957D01*
X425047Y158917D01*
X425058Y158799D01*
X425062Y158680D01*
X425073Y158641D01*
X425077Y158601D01*
X425117Y158489D01*
X425150Y158374D01*
X425171Y158340D01*
X425173Y158334D01*
X425173Y155598D01*
X425122Y155498D01*
X425113Y155459D01*
X425097Y155422D01*
X425078Y155304D01*
X425052Y155188D01*
X425053Y155147D01*
X425047Y155107D01*
X425058Y154989D01*
X425062Y154870D01*
X425073Y154831D01*
X425077Y154791D01*
X425117Y154679D01*
X425150Y154564D01*
X425171Y154530D01*
X425173Y154524D01*
X425173Y151909D01*
X423401Y150137D01*
X420774Y150137D01*
X420674Y150188D01*
X420634Y150197D01*
X420597Y150213D01*
X420480Y150232D01*
X420363Y150258D01*
X420323Y150257D01*
X420283Y150263D01*
X420165Y150252D01*
X420046Y150248D01*
X420007Y150237D01*
X419967Y150233D01*
X419854Y150193D01*
X419740Y150160D01*
X419705Y150139D01*
X419700Y150137D01*
X416964Y150137D01*
X416864Y150188D01*
X416825Y150197D01*
X416788Y150213D01*
X416670Y150232D01*
X416554Y150258D01*
X416513Y150257D01*
X416473Y150263D01*
X416355Y150252D01*
X416236Y150248D01*
X416197Y150237D01*
X416157Y150233D01*
X416045Y150193D01*
X415930Y150160D01*
X415896Y150139D01*
X415890Y150137D01*
X413154Y150137D01*
X413054Y150188D01*
X413014Y150197D01*
X412977Y150213D01*
X412860Y150232D01*
X412743Y150258D01*
X412703Y150257D01*
X412663Y150263D01*
X412545Y150252D01*
X412426Y150248D01*
X412387Y150237D01*
X412347Y150233D01*
X412234Y150193D01*
X412120Y150160D01*
X412085Y150139D01*
X412080Y150137D01*
X409465Y150137D01*
G37*
%LPD*%
%LPC*%
G36*
X366426Y203755D02*
X366426Y203755D01*
X363775Y206406D01*
X363775Y210154D01*
X366084Y212462D01*
X366157Y212557D01*
X366235Y212646D01*
X366254Y212682D01*
X366279Y212714D01*
X366326Y212823D01*
X366380Y212929D01*
X366389Y212968D01*
X366405Y213006D01*
X366424Y213123D01*
X366450Y213239D01*
X366448Y213280D01*
X366455Y213320D01*
X366444Y213438D01*
X366440Y213557D01*
X366429Y213596D01*
X366425Y213636D01*
X366385Y213749D01*
X366352Y213863D01*
X366331Y213897D01*
X366317Y213936D01*
X366250Y214034D01*
X366190Y214137D01*
X366150Y214182D01*
X366139Y214199D01*
X366123Y214212D01*
X366084Y214257D01*
X363775Y216566D01*
X363775Y220314D01*
X366426Y222965D01*
X370174Y222965D01*
X372482Y220656D01*
X372577Y220583D01*
X372666Y220505D01*
X372702Y220486D01*
X372734Y220461D01*
X372843Y220414D01*
X372949Y220360D01*
X372988Y220351D01*
X373026Y220335D01*
X373143Y220316D01*
X373259Y220290D01*
X373300Y220292D01*
X373340Y220285D01*
X373458Y220296D01*
X373577Y220300D01*
X373616Y220311D01*
X373656Y220315D01*
X373769Y220355D01*
X373883Y220388D01*
X373917Y220409D01*
X373956Y220423D01*
X374054Y220490D01*
X374157Y220550D01*
X374202Y220590D01*
X374219Y220601D01*
X374232Y220617D01*
X374277Y220656D01*
X376586Y222965D01*
X380334Y222965D01*
X382985Y220314D01*
X382985Y216566D01*
X380676Y214258D01*
X380603Y214163D01*
X380525Y214074D01*
X380506Y214038D01*
X380481Y214006D01*
X380434Y213897D01*
X380380Y213791D01*
X380371Y213752D01*
X380355Y213714D01*
X380336Y213597D01*
X380310Y213481D01*
X380312Y213440D01*
X380305Y213400D01*
X380316Y213282D01*
X380320Y213163D01*
X380331Y213124D01*
X380335Y213084D01*
X380375Y212971D01*
X380408Y212857D01*
X380429Y212823D01*
X380443Y212784D01*
X380510Y212686D01*
X380570Y212583D01*
X380610Y212538D01*
X380621Y212521D01*
X380637Y212508D01*
X380676Y212463D01*
X382985Y210154D01*
X382985Y206406D01*
X380334Y203755D01*
X376586Y203755D01*
X374277Y206064D01*
X374183Y206137D01*
X374094Y206215D01*
X374058Y206234D01*
X374026Y206259D01*
X373917Y206306D01*
X373811Y206360D01*
X373772Y206369D01*
X373734Y206385D01*
X373617Y206404D01*
X373501Y206430D01*
X373460Y206428D01*
X373420Y206435D01*
X373302Y206424D01*
X373183Y206420D01*
X373144Y206409D01*
X373104Y206405D01*
X372992Y206365D01*
X372877Y206332D01*
X372842Y206311D01*
X372804Y206297D01*
X372706Y206230D01*
X372603Y206170D01*
X372558Y206130D01*
X372541Y206119D01*
X372528Y206103D01*
X372482Y206064D01*
X370174Y203755D01*
X366426Y203755D01*
G37*
%LPD*%
%LPC*%
G36*
X201834Y189023D02*
X201834Y189023D01*
X199183Y191674D01*
X199183Y195448D01*
X199230Y195501D01*
X199249Y195537D01*
X199274Y195569D01*
X199321Y195678D01*
X199375Y195784D01*
X199384Y195823D01*
X199400Y195861D01*
X199419Y195978D01*
X199445Y196094D01*
X199443Y196135D01*
X199450Y196175D01*
X199439Y196293D01*
X199435Y196412D01*
X199424Y196451D01*
X199420Y196491D01*
X199380Y196603D01*
X199347Y196718D01*
X199326Y196753D01*
X199312Y196791D01*
X199245Y196889D01*
X199185Y196992D01*
X199145Y197037D01*
X199134Y197054D01*
X199118Y197067D01*
X199079Y197113D01*
X196731Y199460D01*
X196637Y199533D01*
X196548Y199611D01*
X196512Y199630D01*
X196480Y199655D01*
X196371Y199702D01*
X196265Y199756D01*
X196225Y199765D01*
X196188Y199781D01*
X196071Y199800D01*
X195955Y199826D01*
X195914Y199824D01*
X195874Y199831D01*
X195756Y199820D01*
X195637Y199816D01*
X195598Y199805D01*
X195558Y199801D01*
X195445Y199761D01*
X195331Y199728D01*
X195296Y199707D01*
X195258Y199693D01*
X195160Y199626D01*
X195057Y199566D01*
X195012Y199526D01*
X194995Y199515D01*
X194982Y199499D01*
X194936Y199460D01*
X192882Y197405D01*
X189134Y197405D01*
X186483Y200056D01*
X186483Y203804D01*
X189134Y206455D01*
X192882Y206455D01*
X194936Y204400D01*
X195031Y204327D01*
X195120Y204249D01*
X195156Y204230D01*
X195188Y204205D01*
X195297Y204158D01*
X195403Y204104D01*
X195442Y204095D01*
X195480Y204079D01*
X195597Y204060D01*
X195713Y204034D01*
X195754Y204036D01*
X195794Y204029D01*
X195912Y204040D01*
X196031Y204044D01*
X196070Y204055D01*
X196110Y204059D01*
X196223Y204099D01*
X196337Y204132D01*
X196371Y204153D01*
X196410Y204167D01*
X196508Y204234D01*
X196611Y204294D01*
X196656Y204334D01*
X196673Y204345D01*
X196686Y204361D01*
X196731Y204400D01*
X198786Y206455D01*
X202534Y206455D01*
X205185Y203804D01*
X205185Y200031D01*
X205138Y199977D01*
X205119Y199941D01*
X205095Y199909D01*
X205047Y199800D01*
X204993Y199694D01*
X204984Y199655D01*
X204968Y199617D01*
X204950Y199500D01*
X204923Y199384D01*
X204925Y199343D01*
X204918Y199303D01*
X204929Y199185D01*
X204933Y199066D01*
X204944Y199027D01*
X204948Y198987D01*
X204988Y198875D01*
X205021Y198760D01*
X205042Y198726D01*
X205056Y198687D01*
X205123Y198589D01*
X205183Y198486D01*
X205223Y198441D01*
X205234Y198424D01*
X205250Y198411D01*
X205289Y198366D01*
X208233Y195422D01*
X208233Y191674D01*
X205582Y189023D01*
X201834Y189023D01*
G37*
%LPD*%
%LPC*%
G36*
X315626Y197405D02*
X315626Y197405D01*
X312975Y200056D01*
X312975Y203804D01*
X314649Y205478D01*
X314722Y205572D01*
X314800Y205661D01*
X314819Y205697D01*
X314844Y205729D01*
X314891Y205838D01*
X314945Y205944D01*
X314954Y205983D01*
X314970Y206021D01*
X314989Y206138D01*
X315015Y206254D01*
X315013Y206295D01*
X315020Y206335D01*
X315009Y206453D01*
X315005Y206572D01*
X314994Y206611D01*
X314990Y206651D01*
X314950Y206763D01*
X314917Y206878D01*
X314896Y206913D01*
X314882Y206951D01*
X314815Y207049D01*
X314755Y207152D01*
X314715Y207197D01*
X314704Y207214D01*
X314688Y207227D01*
X314649Y207273D01*
X312975Y208946D01*
X312975Y212694D01*
X315626Y215345D01*
X319374Y215345D01*
X321048Y213671D01*
X321142Y213598D01*
X321231Y213520D01*
X321267Y213501D01*
X321299Y213476D01*
X321408Y213429D01*
X321514Y213375D01*
X321553Y213366D01*
X321591Y213350D01*
X321708Y213331D01*
X321824Y213305D01*
X321865Y213307D01*
X321905Y213300D01*
X322023Y213311D01*
X322142Y213315D01*
X322181Y213326D01*
X322221Y213330D01*
X322333Y213370D01*
X322448Y213403D01*
X322483Y213424D01*
X322521Y213438D01*
X322619Y213505D01*
X322722Y213565D01*
X322767Y213605D01*
X322784Y213616D01*
X322797Y213632D01*
X322843Y213671D01*
X324516Y215345D01*
X328264Y215345D01*
X330915Y212694D01*
X330915Y208946D01*
X328264Y206295D01*
X324516Y206295D01*
X322843Y207969D01*
X322748Y208042D01*
X322659Y208120D01*
X322623Y208139D01*
X322591Y208164D01*
X322482Y208211D01*
X322376Y208265D01*
X322337Y208274D01*
X322299Y208290D01*
X322182Y208309D01*
X322066Y208335D01*
X322025Y208333D01*
X321985Y208340D01*
X321867Y208329D01*
X321748Y208325D01*
X321709Y208314D01*
X321669Y208310D01*
X321557Y208270D01*
X321442Y208237D01*
X321407Y208216D01*
X321369Y208202D01*
X321271Y208135D01*
X321168Y208075D01*
X321123Y208035D01*
X321106Y208024D01*
X321093Y208008D01*
X321048Y207969D01*
X320351Y207273D01*
X320279Y207179D01*
X320200Y207089D01*
X320181Y207053D01*
X320157Y207021D01*
X320109Y206912D01*
X320055Y206806D01*
X320046Y206767D01*
X320030Y206729D01*
X320011Y206612D01*
X319985Y206496D01*
X319987Y206455D01*
X319980Y206415D01*
X319991Y206297D01*
X319995Y206178D01*
X320006Y206139D01*
X320010Y206099D01*
X320050Y205987D01*
X320083Y205872D01*
X320104Y205837D01*
X320118Y205799D01*
X320184Y205701D01*
X320245Y205598D01*
X320285Y205553D01*
X320296Y205536D01*
X320312Y205523D01*
X320351Y205478D01*
X322025Y203804D01*
X322025Y200056D01*
X319374Y197405D01*
X315626Y197405D01*
G37*
%LPD*%
%LPC*%
G36*
X305466Y182165D02*
X305466Y182165D01*
X302815Y184816D01*
X302815Y188564D01*
X305466Y191215D01*
X309214Y191215D01*
X310888Y189541D01*
X310982Y189468D01*
X311071Y189390D01*
X311107Y189371D01*
X311139Y189346D01*
X311248Y189299D01*
X311354Y189245D01*
X311393Y189236D01*
X311431Y189220D01*
X311548Y189201D01*
X311664Y189175D01*
X311705Y189177D01*
X311745Y189170D01*
X311863Y189181D01*
X311982Y189185D01*
X312021Y189196D01*
X312061Y189200D01*
X312173Y189240D01*
X312288Y189273D01*
X312323Y189294D01*
X312361Y189308D01*
X312459Y189375D01*
X312562Y189435D01*
X312607Y189475D01*
X312624Y189486D01*
X312637Y189502D01*
X312683Y189541D01*
X314356Y191215D01*
X318104Y191215D01*
X320755Y188564D01*
X320755Y184816D01*
X318104Y182165D01*
X314356Y182165D01*
X312683Y183839D01*
X312588Y183912D01*
X312499Y183990D01*
X312463Y184009D01*
X312431Y184034D01*
X312322Y184081D01*
X312216Y184135D01*
X312177Y184144D01*
X312139Y184160D01*
X312022Y184179D01*
X311906Y184205D01*
X311865Y184203D01*
X311825Y184210D01*
X311707Y184199D01*
X311588Y184195D01*
X311549Y184184D01*
X311509Y184180D01*
X311396Y184140D01*
X311282Y184107D01*
X311248Y184086D01*
X311209Y184072D01*
X311111Y184005D01*
X311008Y183945D01*
X310963Y183905D01*
X310946Y183894D01*
X310933Y183878D01*
X310888Y183839D01*
X309214Y182165D01*
X305466Y182165D01*
G37*
%LPD*%
%LPC*%
G36*
X387247Y161475D02*
X387247Y161475D01*
X386119Y162604D01*
X386041Y162664D01*
X385968Y162732D01*
X385915Y162761D01*
X385868Y162798D01*
X385777Y162838D01*
X385690Y162886D01*
X385631Y162901D01*
X385576Y162925D01*
X385478Y162940D01*
X385382Y162965D01*
X385282Y162971D01*
X385262Y162975D01*
X385249Y162973D01*
X385221Y162975D01*
X383747Y162975D01*
X381975Y164747D01*
X381975Y167253D01*
X383753Y169031D01*
X383824Y169040D01*
X383943Y169047D01*
X383981Y169060D01*
X384022Y169065D01*
X384132Y169108D01*
X384245Y169145D01*
X384280Y169167D01*
X384317Y169182D01*
X384413Y169251D01*
X384514Y169315D01*
X384542Y169345D01*
X384575Y169368D01*
X384651Y169460D01*
X384732Y169547D01*
X384752Y169582D01*
X384777Y169613D01*
X384828Y169721D01*
X384886Y169825D01*
X384896Y169865D01*
X384913Y169901D01*
X384935Y170018D01*
X384965Y170133D01*
X384969Y170193D01*
X384973Y170213D01*
X384971Y170234D01*
X384972Y170250D01*
X386753Y172031D01*
X386824Y172040D01*
X386943Y172047D01*
X386981Y172060D01*
X387022Y172065D01*
X387132Y172108D01*
X387245Y172145D01*
X387280Y172167D01*
X387317Y172182D01*
X387413Y172251D01*
X387514Y172315D01*
X387542Y172345D01*
X387575Y172368D01*
X387651Y172460D01*
X387732Y172547D01*
X387752Y172582D01*
X387777Y172613D01*
X387828Y172721D01*
X387886Y172825D01*
X387896Y172865D01*
X387913Y172901D01*
X387935Y173018D01*
X387965Y173133D01*
X387969Y173193D01*
X387973Y173213D01*
X387971Y173234D01*
X387972Y173250D01*
X389747Y175025D01*
X392253Y175025D01*
X394025Y173253D01*
X394025Y171279D01*
X394037Y171180D01*
X394040Y171081D01*
X394057Y171023D01*
X394065Y170963D01*
X394101Y170871D01*
X394129Y170776D01*
X394159Y170724D01*
X394182Y170667D01*
X394240Y170587D01*
X394290Y170502D01*
X394356Y170427D01*
X394368Y170410D01*
X394378Y170402D01*
X394396Y170381D01*
X395525Y169253D01*
X395525Y166747D01*
X393753Y164975D01*
X392794Y164975D01*
X392676Y164960D01*
X392557Y164953D01*
X392519Y164940D01*
X392478Y164935D01*
X392368Y164892D01*
X392255Y164855D01*
X392220Y164833D01*
X392183Y164818D01*
X392087Y164749D01*
X391986Y164685D01*
X391958Y164655D01*
X391925Y164632D01*
X391849Y164540D01*
X391768Y164453D01*
X391748Y164418D01*
X391723Y164387D01*
X391672Y164279D01*
X391614Y164175D01*
X391604Y164135D01*
X391587Y164099D01*
X391565Y163982D01*
X391535Y163867D01*
X391531Y163807D01*
X391527Y163787D01*
X391529Y163766D01*
X391525Y163706D01*
X391525Y163247D01*
X389753Y161475D01*
X387247Y161475D01*
G37*
%LPD*%
%LPC*%
G36*
X200056Y156765D02*
X200056Y156765D01*
X197405Y159416D01*
X197405Y163164D01*
X200056Y165815D01*
X203804Y165815D01*
X206455Y163164D01*
X206455Y159416D01*
X203804Y156765D01*
X200056Y156765D01*
G37*
%LPD*%
%LPC*%
G36*
X309276Y156765D02*
X309276Y156765D01*
X306625Y159416D01*
X306625Y163164D01*
X309276Y165815D01*
X313024Y165815D01*
X315675Y163164D01*
X315675Y159416D01*
X313024Y156765D01*
X309276Y156765D01*
G37*
%LPD*%
%LPC*%
G36*
X202596Y175180D02*
X202596Y175180D01*
X199945Y177831D01*
X199945Y181579D01*
X202596Y184230D01*
X206344Y184230D01*
X208995Y181579D01*
X208995Y177831D01*
X206344Y175180D01*
X202596Y175180D01*
G37*
%LPD*%
%LPC*%
G36*
X66039Y34289D02*
X66039Y34289D01*
X66039Y43564D01*
X66325Y43519D01*
X68132Y42932D01*
X69824Y42070D01*
X71360Y40953D01*
X72703Y39610D01*
X73820Y38074D01*
X74682Y36382D01*
X75269Y34575D01*
X75314Y34289D01*
X66039Y34289D01*
G37*
%LPD*%
%LPC*%
G36*
X66039Y275589D02*
X66039Y275589D01*
X66039Y284864D01*
X66325Y284819D01*
X68132Y284232D01*
X69824Y283370D01*
X71360Y282253D01*
X72703Y280910D01*
X73820Y279374D01*
X74682Y277682D01*
X75269Y275875D01*
X75314Y275589D01*
X66039Y275589D01*
G37*
%LPD*%
%LPC*%
G36*
X66039Y29211D02*
X66039Y29211D01*
X75314Y29211D01*
X75269Y28925D01*
X74682Y27118D01*
X73820Y25426D01*
X72703Y23890D01*
X71360Y22547D01*
X69824Y21430D01*
X68132Y20568D01*
X66325Y19981D01*
X66039Y19936D01*
X66039Y29211D01*
G37*
%LPD*%
%LPC*%
G36*
X51686Y34289D02*
X51686Y34289D01*
X51731Y34575D01*
X52318Y36382D01*
X53180Y38074D01*
X54297Y39610D01*
X55640Y40953D01*
X57176Y42070D01*
X58868Y42932D01*
X60675Y43519D01*
X60961Y43564D01*
X60961Y34289D01*
X51686Y34289D01*
G37*
%LPD*%
%LPC*%
G36*
X51686Y275589D02*
X51686Y275589D01*
X51731Y275875D01*
X52318Y277682D01*
X53180Y279374D01*
X54297Y280910D01*
X55640Y282253D01*
X57176Y283370D01*
X58868Y284232D01*
X60675Y284819D01*
X60961Y284864D01*
X60961Y275589D01*
X51686Y275589D01*
G37*
%LPD*%
%LPC*%
G36*
X66039Y270511D02*
X66039Y270511D01*
X75314Y270511D01*
X75269Y270225D01*
X74682Y268418D01*
X73820Y266726D01*
X72703Y265190D01*
X71360Y263847D01*
X69824Y262730D01*
X68132Y261868D01*
X66325Y261281D01*
X66039Y261236D01*
X66039Y270511D01*
G37*
%LPD*%
%LPC*%
G36*
X60675Y19981D02*
X60675Y19981D01*
X58868Y20568D01*
X57176Y21430D01*
X55640Y22547D01*
X54297Y23890D01*
X53180Y25426D01*
X52318Y27118D01*
X51731Y28925D01*
X51686Y29211D01*
X60961Y29211D01*
X60961Y19936D01*
X60675Y19981D01*
G37*
%LPD*%
%LPC*%
G36*
X60675Y261281D02*
X60675Y261281D01*
X58868Y261868D01*
X57176Y262730D01*
X55640Y263847D01*
X54297Y265190D01*
X53180Y266726D01*
X52318Y268418D01*
X51731Y270225D01*
X51686Y270511D01*
X60961Y270511D01*
X60961Y261236D01*
X60675Y261281D01*
G37*
%LPD*%
%LPC*%
G36*
X136842Y171132D02*
X136842Y171132D01*
X136842Y177870D01*
X138155Y177444D01*
X139446Y176786D01*
X140619Y175934D01*
X141644Y174909D01*
X142496Y173736D01*
X143154Y172445D01*
X143580Y171132D01*
X136842Y171132D01*
G37*
%LPD*%
%LPC*%
G36*
X111442Y171132D02*
X111442Y171132D01*
X111442Y177870D01*
X112755Y177444D01*
X114046Y176786D01*
X115219Y175934D01*
X116244Y174909D01*
X117096Y173736D01*
X117754Y172445D01*
X118180Y171132D01*
X111442Y171132D01*
G37*
%LPD*%
%LPC*%
G36*
X484822Y263842D02*
X484822Y263842D01*
X484822Y270580D01*
X486135Y270154D01*
X487426Y269496D01*
X488599Y268644D01*
X489624Y267619D01*
X490476Y266446D01*
X491134Y265155D01*
X491560Y263842D01*
X484822Y263842D01*
G37*
%LPD*%
%LPC*%
G36*
X136842Y145732D02*
X136842Y145732D01*
X136842Y152470D01*
X138155Y152044D01*
X139446Y151386D01*
X140619Y150534D01*
X141644Y149509D01*
X142496Y148336D01*
X143154Y147045D01*
X143580Y145732D01*
X136842Y145732D01*
G37*
%LPD*%
%LPC*%
G36*
X484822Y289242D02*
X484822Y289242D01*
X484822Y295980D01*
X486135Y295554D01*
X487426Y294896D01*
X488599Y294044D01*
X489624Y293019D01*
X490476Y291846D01*
X491134Y290555D01*
X491560Y289242D01*
X484822Y289242D01*
G37*
%LPD*%
%LPC*%
G36*
X459422Y289242D02*
X459422Y289242D01*
X459422Y295980D01*
X460735Y295554D01*
X462026Y294896D01*
X463199Y294044D01*
X464224Y293019D01*
X465076Y291846D01*
X465734Y290555D01*
X466160Y289242D01*
X459422Y289242D01*
G37*
%LPD*%
%LPC*%
G36*
X448240Y289242D02*
X448240Y289242D01*
X448666Y290555D01*
X449324Y291846D01*
X450176Y293019D01*
X451201Y294044D01*
X452374Y294896D01*
X453665Y295554D01*
X454978Y295980D01*
X454978Y289242D01*
X448240Y289242D01*
G37*
%LPD*%
%LPC*%
G36*
X459422Y259398D02*
X459422Y259398D01*
X466160Y259398D01*
X465734Y258085D01*
X465076Y256794D01*
X464224Y255621D01*
X463199Y254596D01*
X462026Y253744D01*
X460735Y253086D01*
X459422Y252660D01*
X459422Y259398D01*
G37*
%LPD*%
%LPC*%
G36*
X125660Y171132D02*
X125660Y171132D01*
X126086Y172445D01*
X126744Y173736D01*
X127596Y174909D01*
X128621Y175934D01*
X129794Y176786D01*
X131085Y177444D01*
X132398Y177870D01*
X132398Y171132D01*
X125660Y171132D01*
G37*
%LPD*%
%LPC*%
G36*
X100260Y171132D02*
X100260Y171132D01*
X100686Y172445D01*
X101344Y173736D01*
X102196Y174909D01*
X103221Y175934D01*
X104394Y176786D01*
X105685Y177444D01*
X106998Y177870D01*
X106998Y171132D01*
X100260Y171132D01*
G37*
%LPD*%
%LPC*%
G36*
X136842Y166688D02*
X136842Y166688D01*
X143580Y166688D01*
X143154Y165375D01*
X142496Y164084D01*
X141644Y162911D01*
X140619Y161886D01*
X139446Y161034D01*
X138155Y160376D01*
X136842Y159950D01*
X136842Y166688D01*
G37*
%LPD*%
%LPC*%
G36*
X448240Y263842D02*
X448240Y263842D01*
X448666Y265155D01*
X449324Y266446D01*
X450176Y267619D01*
X451201Y268644D01*
X452374Y269496D01*
X453665Y270154D01*
X454978Y270580D01*
X454978Y263842D01*
X448240Y263842D01*
G37*
%LPD*%
%LPC*%
G36*
X484822Y284798D02*
X484822Y284798D01*
X491560Y284798D01*
X491134Y283485D01*
X490476Y282194D01*
X489624Y281021D01*
X488599Y279996D01*
X487426Y279144D01*
X486135Y278486D01*
X484822Y278060D01*
X484822Y284798D01*
G37*
%LPD*%
%LPC*%
G36*
X100260Y145732D02*
X100260Y145732D01*
X100686Y147045D01*
X101344Y148336D01*
X102196Y149509D01*
X103221Y150534D01*
X104394Y151386D01*
X105685Y152044D01*
X106998Y152470D01*
X106998Y145732D01*
X100260Y145732D01*
G37*
%LPD*%
%LPC*%
G36*
X136842Y141288D02*
X136842Y141288D01*
X143580Y141288D01*
X143154Y139975D01*
X142496Y138684D01*
X141644Y137511D01*
X140619Y136486D01*
X139446Y135634D01*
X138155Y134976D01*
X136842Y134550D01*
X136842Y141288D01*
G37*
%LPD*%
%LPC*%
G36*
X111442Y141288D02*
X111442Y141288D01*
X118180Y141288D01*
X117754Y139975D01*
X117096Y138684D01*
X116244Y137511D01*
X115219Y136486D01*
X114046Y135634D01*
X112755Y134976D01*
X111442Y134550D01*
X111442Y141288D01*
G37*
%LPD*%
%LPC*%
G36*
X484822Y259398D02*
X484822Y259398D01*
X491560Y259398D01*
X491134Y258085D01*
X490476Y256794D01*
X489624Y255621D01*
X488599Y254596D01*
X487426Y253744D01*
X486135Y253086D01*
X484822Y252660D01*
X484822Y259398D01*
G37*
%LPD*%
%LPC*%
G36*
X473640Y289242D02*
X473640Y289242D01*
X474066Y290555D01*
X474724Y291846D01*
X475576Y293019D01*
X476601Y294044D01*
X477774Y294896D01*
X479065Y295554D01*
X480378Y295980D01*
X480378Y289242D01*
X473640Y289242D01*
G37*
%LPD*%
%LPC*%
G36*
X453665Y253086D02*
X453665Y253086D01*
X452374Y253744D01*
X451201Y254596D01*
X450176Y255621D01*
X449324Y256794D01*
X448666Y258085D01*
X448240Y259398D01*
X454978Y259398D01*
X454978Y252660D01*
X453665Y253086D01*
G37*
%LPD*%
%LPC*%
G36*
X479065Y253086D02*
X479065Y253086D01*
X477774Y253744D01*
X476601Y254596D01*
X475576Y255621D01*
X474724Y256794D01*
X474066Y258085D01*
X473640Y259398D01*
X480378Y259398D01*
X480378Y252660D01*
X479065Y253086D01*
G37*
%LPD*%
%LPC*%
G36*
X105685Y160376D02*
X105685Y160376D01*
X104394Y161034D01*
X103221Y161886D01*
X102196Y162911D01*
X101344Y164084D01*
X100686Y165375D01*
X100260Y166688D01*
X106998Y166688D01*
X106998Y159950D01*
X105685Y160376D01*
G37*
%LPD*%
%LPC*%
G36*
X131085Y134976D02*
X131085Y134976D01*
X129794Y135634D01*
X128621Y136486D01*
X127596Y137511D01*
X126744Y138684D01*
X126086Y139975D01*
X125660Y141288D01*
X132398Y141288D01*
X132398Y134550D01*
X131085Y134976D01*
G37*
%LPD*%
%LPC*%
G36*
X453665Y278486D02*
X453665Y278486D01*
X452374Y279144D01*
X451201Y279996D01*
X450176Y281021D01*
X449324Y282194D01*
X448666Y283485D01*
X448240Y284798D01*
X454978Y284798D01*
X454978Y278060D01*
X453665Y278486D01*
G37*
%LPD*%
%LPC*%
G36*
X105685Y134976D02*
X105685Y134976D01*
X104394Y135634D01*
X103221Y136486D01*
X102196Y137511D01*
X101344Y138684D01*
X100686Y139975D01*
X100260Y141288D01*
X106998Y141288D01*
X106998Y134550D01*
X105685Y134976D01*
G37*
%LPD*%
%LPC*%
G36*
X63499Y273049D02*
X63499Y273049D01*
X63499Y273051D01*
X63501Y273051D01*
X63501Y273049D01*
X63499Y273049D01*
G37*
%LPD*%
%LPC*%
G36*
X63499Y31749D02*
X63499Y31749D01*
X63499Y31751D01*
X63501Y31751D01*
X63501Y31749D01*
X63499Y31749D01*
G37*
%LPD*%
D10*
X477360Y158750D03*
X457360Y158750D03*
D11*
X63500Y69850D03*
X63500Y31750D03*
X63500Y273050D03*
X63500Y234950D03*
D12*
X121920Y156210D03*
X134620Y168910D03*
X134620Y143510D03*
X109220Y143510D03*
X109220Y168910D03*
X469900Y274320D03*
X482600Y261620D03*
X457200Y261620D03*
X457200Y287020D03*
X482600Y287020D03*
D13*
X210820Y249174D03*
X220980Y249174D03*
X220980Y239014D03*
X210820Y239014D03*
X210820Y228854D03*
X220980Y228854D03*
X220980Y259334D03*
X210820Y259334D03*
X378460Y208280D03*
X368300Y208280D03*
X368300Y218440D03*
X378460Y218440D03*
X287020Y222250D03*
X266700Y212090D03*
X276860Y212090D03*
X297180Y222250D03*
X266700Y222250D03*
X276860Y222250D03*
X287020Y212090D03*
X297180Y212090D03*
X326390Y210820D03*
X191008Y201930D03*
X200660Y201930D03*
X317500Y210820D03*
X203708Y193548D03*
X317500Y201930D03*
X204470Y179705D03*
X201930Y161290D03*
X311150Y161290D03*
X316230Y186690D03*
X307340Y186690D03*
D14*
X391000Y172000D03*
X392500Y168000D03*
X388500Y164500D03*
X385000Y166000D03*
X388000Y169000D03*
X406908Y160782D03*
X410718Y160782D03*
X410718Y156972D03*
X410718Y153162D03*
X414528Y153162D03*
X414528Y156972D03*
X414528Y160782D03*
X414528Y164592D03*
X418338Y164592D03*
X418338Y160782D03*
X418338Y156972D03*
X418338Y153162D03*
X410718Y164592D03*
X406908Y156972D03*
X476250Y111760D03*
X480060Y111760D03*
X483870Y111760D03*
X487680Y111760D03*
X480060Y115570D03*
X483870Y115570D03*
X487680Y115570D03*
X487680Y119380D03*
X483870Y119380D03*
X480060Y119380D03*
X480060Y123190D03*
X483870Y123190D03*
X487680Y123190D03*
X480060Y127000D03*
X483870Y127000D03*
X487680Y127000D03*
X476250Y127000D03*
X472440Y130810D03*
X476250Y130810D03*
X480060Y130810D03*
X483870Y130810D03*
X487680Y130810D03*
X487680Y134620D03*
X483870Y134620D03*
X480060Y134620D03*
X476250Y134620D03*
X472440Y134620D03*
X472440Y138430D03*
X476250Y138430D03*
X480060Y138430D03*
X483870Y138430D03*
X487680Y138430D03*
X487680Y142240D03*
X483870Y142240D03*
X480060Y142240D03*
X476250Y142240D03*
X472440Y142240D03*
X472440Y146050D03*
X476250Y146050D03*
X480060Y146050D03*
X483870Y146050D03*
X487680Y146050D03*
X487680Y149860D03*
X487680Y153670D03*
X487680Y157480D03*
X487680Y161290D03*
X487680Y165100D03*
X487680Y168910D03*
X487680Y172720D03*
X483870Y172720D03*
X480060Y172720D03*
X476250Y172720D03*
X472440Y172720D03*
X487680Y176530D03*
X483870Y176530D03*
X480060Y176530D03*
X476250Y176530D03*
X472440Y176530D03*
X472440Y180340D03*
X476250Y180340D03*
X480060Y180340D03*
X483870Y180340D03*
X487680Y180340D03*
X472440Y184150D03*
X472440Y187960D03*
X472440Y191770D03*
X472440Y195580D03*
X472440Y199390D03*
X476250Y184150D03*
X480060Y184150D03*
X483870Y184150D03*
X487680Y184150D03*
X487680Y187960D03*
X483870Y187960D03*
X480060Y187960D03*
X476250Y187960D03*
X476250Y191770D03*
X480060Y191770D03*
X483870Y191770D03*
X487680Y191770D03*
X487680Y195580D03*
X483870Y195580D03*
X480060Y195580D03*
X476250Y195580D03*
X476250Y199390D03*
X480060Y199390D03*
X483870Y199390D03*
X487680Y199390D03*
X422148Y164592D03*
X418338Y156972D03*
X422148Y160782D03*
X422148Y156972D03*
X422148Y153162D03*
X121920Y214630D03*
X127000Y214630D03*
X127000Y209550D03*
X121920Y209550D03*
D13*
X293370Y189230D03*
D15*
X152400Y25400D03*
X355600Y25400D03*
X455080Y47860D03*
X152400Y279400D03*
X254000Y279400D03*
X355600Y279400D03*
D13*
X33020Y137160D03*
X50800Y137160D03*
X68580Y137160D03*
X86360Y137160D03*
X33020Y173990D03*
X50800Y173990D03*
X68580Y173990D03*
X86360Y173990D03*
X356870Y184150D03*
X340360Y193040D03*
X391160Y213360D03*
X293370Y133350D03*
X171958Y136398D03*
X154940Y261620D03*
X162560Y261620D03*
X190500Y261620D03*
X398780Y205740D03*
X403860Y198374D03*
X403860Y190500D03*
X403860Y182626D03*
X403860Y174752D03*
X403860Y121158D03*
X403860Y128778D03*
X403860Y136398D03*
X403860Y143764D03*
X391160Y205740D03*
X419608Y204470D03*
X463550Y103124D03*
X472440Y103124D03*
X481330Y103124D03*
X490220Y103124D03*
X496570Y114300D03*
X496570Y123190D03*
X496570Y132080D03*
X496570Y140970D03*
X496570Y149860D03*
X496570Y158750D03*
X496570Y167640D03*
X496570Y176530D03*
X496570Y185420D03*
X496570Y194310D03*
X496570Y203200D03*
X496570Y212090D03*
X476250Y222250D03*
X467360Y222250D03*
X458470Y222250D03*
X449580Y222250D03*
X440690Y222250D03*
X431800Y222250D03*
X419608Y213360D03*
X422910Y222250D03*
D15*
X250000Y120000D03*
D13*
X352298Y137922D03*
X385572Y129286D03*
X385572Y136906D03*
X352298Y130302D03*
X342900Y113538D03*
X335534Y113538D03*
X267970Y133350D03*
X151638Y121158D03*
X161798Y121158D03*
X171958Y126238D03*
X172720Y261620D03*
X180340Y261620D03*
X198120Y261620D03*
X255270Y269240D03*
X262890Y269240D03*
X273050Y269240D03*
X280670Y269240D03*
X177800Y161290D03*
X170180Y161290D03*
X40640Y137160D03*
X58420Y137160D03*
X76200Y137160D03*
X93980Y137160D03*
X40640Y173990D03*
X58420Y173990D03*
X76200Y173990D03*
X93980Y173990D03*
D15*
X116840Y76200D03*
X203200Y76200D03*
X294640Y76200D03*
X391160Y76200D03*
X502920Y76200D03*
X104140Y127000D03*
X139700Y127000D03*
X104140Y185420D03*
X139700Y185420D03*
X294640Y254000D03*
X314960Y254000D03*
X421640Y247650D03*
X401320Y247650D03*
X440690Y256540D03*
X440690Y292100D03*
X499110Y292100D03*
X499110Y256540D03*
D13*
X234950Y165100D03*
X234950Y157480D03*
X241300Y161290D03*
X344170Y165100D03*
X347980Y193040D03*
X355600Y193040D03*
X344170Y157480D03*
D14*
X366000Y160000D03*
X362000Y160000D03*
X366000Y156000D03*
X399000Y168000D03*
X402992Y168000D03*
X399000Y149500D03*
X402992Y149500D03*
D13*
X410718Y204470D03*
M02*
