M48
;GenerationSoftware,Autodesk,EAGLE,9.6.2*%
;CreationDate,2023-09-30T20:36:14Z*%
FMAT,2
ICI,OFF
METRIC,TZ,000.000
T6C0.150
T5C0.250
T4C0.400
T3C0.800
T2C0.889
T1C1.270
%
G90
M71
T1
X6350Y6985
X6350Y3175
X6350Y27305
X6350Y23495
T2
X45720Y28702
X48260Y28702
X12192Y15621
X13462Y16891
X13462Y14351
X10922Y14351
X10922Y16891
X46990Y27432
X48260Y26162
X45720Y26162
T3
X47736Y15875
X45736Y15875
T4
X10414Y18542
X13970Y18542
X29464Y25400
X31496Y25400
X25400Y27940
X44069Y25654
X44069Y29210
X49911Y29210
X49911Y25654
X40132Y24765
X15240Y27940
X35560Y27940
X15240Y2540
X35560Y2540
X45508Y4786
X25000Y12000
X11684Y7620
X20320Y7620
X29464Y7620
X39116Y7620
X50292Y7620
X10414Y12700
X13970Y12700
X42164Y24765
T5
X3302Y13716
X5080Y13716
X6858Y13716
X8636Y13716
X3302Y17399
X5080Y17399
X6858Y17399
X8636Y17399
X35687Y18415
X34036Y19304
X39116Y21336
X29337Y13335
X17196Y13640
X15494Y26162
X16256Y26162
X19050Y26162
X39878Y20574
X40386Y19837
X40386Y19050
X40386Y18263
X40386Y17475
X40386Y12878
X40386Y13640
X40386Y14376
X39116Y20574
X41961Y20447
X46355Y10312
X47244Y10312
X48133Y10312
X49022Y10312
X49657Y11430
X49657Y12319
X49657Y13208
X49657Y14097
X49657Y14986
X49657Y15875
X49657Y16764
X49657Y17653
X49657Y18542
X49657Y19431
X49657Y20320
X49657Y21209
X47625Y22225
X46736Y22225
X45847Y22225
X44958Y22225
X44069Y22225
X43180Y22225
X41961Y21336
X42291Y22225
X22098Y24917
X35230Y13792
X38557Y12929
X38557Y13691
X35230Y13030
X22098Y23901
X33553Y11354
X26797Y13335
X15164Y12116
X16180Y12116
X17196Y12624
X17272Y26162
X18034Y26162
X19812Y26162
X25527Y26924
X26289Y26924
X27305Y26924
X28067Y26924
X17780Y16129
X17018Y16129
X4064Y13716
X5842Y13716
X7620Y13716
X9398Y13716
X4064Y17399
X5842Y17399
X7620Y17399
X9398Y17399
X21082Y23901
X21082Y22885
X22098Y22885
X22098Y25933
X21082Y25933
X37846Y20828
X36830Y20828
X36830Y21844
X37846Y21844
X28702Y22225
X26670Y21209
X27686Y21209
X29718Y22225
X26670Y22225
X27686Y22225
X28702Y21209
X23495Y16510
X23495Y15748
X24130Y16129
X34417Y16510
X34798Y19304
X35560Y19304
X34417Y15748
X41072Y20447
X21082Y24917
X32639Y21082
X19101Y20193
X20066Y20193
X31750Y21082
X20371Y19355
X31750Y20193
X20447Y17971
X20193Y16129
X31115Y16129
X31623Y18669
X30734Y18669
X40386Y12116
X29337Y18923
X29718Y21209
X34290Y11354
T6
X41453Y16459
X41834Y16459
X41834Y16078
X41834Y15697
X41834Y15316
X41072Y16459
X40691Y15697
X47625Y11176
X48006Y11176
X48387Y11176
X48768Y11176
X48006Y11557
X48387Y11557
X48768Y11557
X48768Y11938
X48387Y11938
X48006Y11938
X42215Y16078
X48006Y12319
X48387Y12319
X48768Y12319
X48006Y12700
X48387Y12700
X48768Y12700
X47625Y12700
X47244Y13081
X47625Y13081
X48006Y13081
X48387Y13081
X48768Y13081
X48768Y13462
X48387Y13462
X48006Y13462
X47625Y13462
X47244Y13462
X47244Y13843
X47625Y13843
X48006Y13843
X48387Y13843
X48768Y13843
X48768Y14224
X48387Y14224
X48006Y14224
X47625Y14224
X47244Y14224
X47244Y14605
X47625Y14605
X48006Y14605
X48387Y14605
X48768Y14605
X48768Y14986
X48768Y15367
X48768Y15748
X48768Y16129
X48768Y16510
X48768Y16891
X48768Y17272
X48387Y17272
X48006Y17272
X47625Y17272
X47244Y17272
X48768Y17653
X48387Y17653
X47625Y17653
X47244Y17653
X47244Y18034
X47625Y18034
X48006Y18034
X48387Y18034
X48768Y18034
X47244Y18415
X47244Y18796
X47244Y19177
X47244Y19558
X47244Y19939
X47625Y18415
X48006Y18415
X48387Y18415
X48768Y18415
X48768Y18796
X48387Y18796
X48006Y18796
X47625Y18796
X47625Y19177
X48006Y19177
X48387Y19177
X48768Y19177
X48006Y17653
X48768Y19558
X48387Y19558
X48006Y19558
X47625Y19558
X47625Y19939
X48006Y19939
X48387Y19939
X48768Y19939
X42215Y16459
X41834Y15697
X38800Y16900
X36600Y16000
X36200Y16000
X36600Y15600
X39900Y16800
X40299Y16800
X39900Y14950
X40299Y14950
X42215Y15697
X42215Y15316
X12192Y21463
X12700Y21463
X12700Y20955
X12192Y20955
X39100Y17200
X39250Y16800
X38850Y16450
X38500Y16600
X40691Y16078
X41072Y16078
X41072Y15697
X41072Y15316
X41453Y15316
X41453Y15697
X41453Y16078
M30