G04 EAGLE Gerber RS-274X export*
G75*
%MOMM*%
%FSLAX34Y34*%
%LPD*%
%INSolderpaste Top*%
%IPPOS*%
%AMOC8*
5,1,8,0,0,1.08239X$1,22.5*%
G01*
%ADD10R,1.600000X1.300000*%
%ADD11R,1.080000X1.050000*%
%ADD12R,1.050000X1.080000*%
%ADD13R,0.740000X0.925000*%
%ADD14R,0.925000X0.740000*%
%ADD15R,0.381000X1.143000*%
%ADD16R,0.600000X0.500000*%
%ADD17R,1.100000X1.000000*%
%ADD18C,0.081278*%
%ADD19R,1.500000X1.300000*%
%ADD20R,0.600000X0.700000*%
%ADD21R,1.000000X1.100000*%
%ADD22R,0.700000X0.600000*%
%ADD23R,0.838200X0.254000*%
%ADD24R,1.295400X1.092200*%
%ADD25C,0.182878*%
%ADD26R,0.723900X0.215900*%
%ADD27R,0.901700X0.850900*%
%ADD28R,0.280000X0.430000*%
%ADD29R,1.803000X1.600000*%
%ADD30R,0.508000X0.889000*%
%ADD31R,1.905000X0.889000*%


D10*
X36830Y105570D03*
X36830Y125570D03*
D11*
X176530Y231280D03*
X176530Y248780D03*
X194310Y231280D03*
X194310Y248780D03*
X259080Y238900D03*
X259080Y256400D03*
X276860Y238900D03*
X276860Y256400D03*
X280670Y171590D03*
X280670Y189090D03*
X280670Y150990D03*
X280670Y133490D03*
D10*
X54610Y105570D03*
X54610Y125570D03*
D12*
X432676Y190500D03*
X415176Y190500D03*
X432676Y175260D03*
X415176Y175260D03*
X432676Y142240D03*
X415176Y142240D03*
X432676Y127000D03*
X415176Y127000D03*
D13*
X504190Y223870D03*
X504190Y235870D03*
D14*
X224440Y161290D03*
X212440Y161290D03*
X334930Y161290D03*
X322930Y161290D03*
D13*
X391160Y183230D03*
X391160Y195230D03*
D15*
X364800Y171450D03*
X359100Y171450D03*
D10*
X72390Y105570D03*
X72390Y125570D03*
D16*
X361950Y144934D03*
X361950Y135483D03*
X375920Y140616D03*
X375920Y131165D03*
D10*
X90170Y105570D03*
X90170Y125570D03*
D11*
X36830Y204330D03*
X36830Y186830D03*
X54610Y204330D03*
X54610Y186830D03*
X72390Y204330D03*
X72390Y186830D03*
X90170Y204330D03*
X90170Y186830D03*
X158750Y231280D03*
X158750Y248780D03*
D17*
X433460Y210820D03*
X450460Y210820D03*
D18*
X393620Y154860D02*
X393620Y153640D01*
X392400Y153640D01*
X392400Y154860D01*
X393620Y154860D01*
X393620Y154412D02*
X392400Y154412D01*
X402620Y154860D02*
X402620Y153640D01*
X401400Y153640D01*
X401400Y154860D01*
X402620Y154860D01*
X402620Y154412D02*
X401400Y154412D01*
X393620Y158140D02*
X393620Y159360D01*
X393620Y158140D02*
X392400Y158140D01*
X392400Y159360D01*
X393620Y159360D01*
X393620Y158912D02*
X392400Y158912D01*
X398120Y154860D02*
X398120Y153640D01*
X396900Y153640D01*
X396900Y154860D01*
X398120Y154860D01*
X398120Y154412D02*
X396900Y154412D01*
X398120Y158140D02*
X398120Y159360D01*
X398120Y158140D02*
X396900Y158140D01*
X396900Y159360D01*
X398120Y159360D01*
X398120Y158912D02*
X396900Y158912D01*
X402620Y159360D02*
X402620Y158140D01*
X401400Y158140D01*
X401400Y159360D01*
X402620Y159360D01*
X402620Y158912D02*
X401400Y158912D01*
X402620Y162640D02*
X402620Y163860D01*
X402620Y162640D02*
X401400Y162640D01*
X401400Y163860D01*
X402620Y163860D01*
X402620Y163412D02*
X401400Y163412D01*
X398120Y163860D02*
X398120Y162640D01*
X396900Y162640D01*
X396900Y163860D01*
X398120Y163860D01*
X398120Y163412D02*
X396900Y163412D01*
X393620Y163860D02*
X393620Y162640D01*
X392400Y162640D01*
X392400Y163860D01*
X393620Y163860D01*
X393620Y163412D02*
X392400Y163412D01*
D19*
X156972Y137820D03*
X156972Y156820D03*
D20*
X487600Y242570D03*
X477600Y242570D03*
D21*
X467750Y210820D03*
X484750Y210820D03*
D20*
X329010Y173990D03*
X339010Y173990D03*
X329010Y148590D03*
X339010Y148590D03*
D22*
X339090Y122000D03*
X339090Y132000D03*
D21*
X207400Y146050D03*
X224400Y146050D03*
X245500Y146050D03*
X262500Y146050D03*
X226450Y176530D03*
X243450Y176530D03*
D22*
X401320Y101520D03*
X401320Y91520D03*
X417830Y101520D03*
X417830Y91520D03*
X434340Y101520D03*
X434340Y91520D03*
X450850Y101520D03*
X450850Y91520D03*
D23*
X138430Y204590D03*
X138430Y209590D03*
X138430Y214590D03*
X138430Y219590D03*
X110490Y219590D03*
X110490Y214590D03*
X110490Y209590D03*
X110490Y204590D03*
D24*
X124460Y212090D03*
D25*
X243196Y203454D02*
X255084Y203454D01*
X255084Y199186D01*
X243196Y199186D01*
X243196Y203454D01*
X243196Y200924D02*
X255084Y200924D01*
X255084Y202662D02*
X243196Y202662D01*
X243196Y222454D02*
X255084Y222454D01*
X255084Y218186D01*
X243196Y218186D01*
X243196Y222454D01*
X243196Y219924D02*
X255084Y219924D01*
X255084Y221662D02*
X243196Y221662D01*
X231784Y212954D02*
X219896Y212954D01*
X231784Y212954D02*
X231784Y208686D01*
X219896Y208686D01*
X219896Y212954D01*
X219896Y210424D02*
X231784Y210424D01*
X231784Y212162D02*
X219896Y212162D01*
D26*
X184785Y166290D03*
X184785Y161290D03*
X184785Y156290D03*
X193675Y156290D03*
X193675Y161290D03*
X193675Y166290D03*
X295275Y166290D03*
X295275Y161290D03*
X295275Y156290D03*
X304165Y156290D03*
X304165Y161290D03*
X304165Y166290D03*
D27*
X192278Y191220D03*
X192278Y179620D03*
X327660Y198840D03*
X327660Y187240D03*
X375920Y195030D03*
X375920Y183430D03*
D28*
X381244Y158750D03*
X386344Y158750D03*
X381244Y152400D03*
X386344Y152400D03*
D20*
X452200Y242570D03*
X462200Y242570D03*
D29*
X161290Y181360D03*
X161290Y209800D03*
D21*
X366150Y110490D03*
X383150Y110490D03*
D30*
X474472Y119380D03*
D31*
X454787Y119380D03*
M02*
