G04 ================== begin FILE IDENTIFICATION RECORD ==================*
G04 Layout Name:  d:/nbraam/projects/karlendean/mpmt_flash/hardware/watermon3d.brd*
G04 Film Name:    COPPER_PLANE2*
G04 File Format:  Gerber RS274X*
G04 File Origin:  Cadence Allegro 17.4-S013*
G04 Origin Date:  Mon Aug 14 10:05:56 2023*
G04 *
G04 Layer:  VIA CLASS/PLANE 2*
G04 Layer:  PIN/PLANE 2*
G04 Layer:  ETCH/PLANE 2*
G04 *
G04 Offset:    (0.0000 0.0000)*
G04 Mirror:    No*
G04 Mode:      Positive*
G04 Rotation:  0*
G04 FullContactRelief:  No*
G04 UndefLineWidth:     0.0000*
G04 ================== end FILE IDENTIFICATION RECORD ====================*
%FSLAX55Y55*MOMM*%
%IR0*IPPOS*OFA0.00000B0.00000*MIA0B0*SFA1.00000B1.00000*%
%ADD17C,.3*%
%ADD16C,.4*%
%ADD11C,.6*%
%ADD14O,4.2X1.7*%
%ADD13O,3.7X1.7*%
%ADD10C,3.*%
%ADD12C,1.7*%
%ADD15R,1.7X1.7*%
%ADD18C,2.565*%
%ADD19C,.2*%
%ADD20C,.25*%
%ADD22C,1.0004*%
%ADD25C,2.1004*%
%ADD24C,3.4004*%
%ADD26C,2.7004*%
%ADD21R,2.8504X2.0504*%
%ADD23C,2.9654*%
G75*
%LPD*%
G75*
G36*
G01X40000Y40010D02*
Y9959990D01*
X4460000D01*
Y40010D01*
X40000D01*
G37*
%LPC*%
G75*
G36*
G01X1180010Y8710020D02*
X1319990D01*
G02X1360000Y8730020I40010J-30020D01*
G02Y8629980I0J-50020D01*
G02X1319990Y8649980I0J50020D01*
G01X1192440D01*
X1179560Y8637090D01*
G03X1186630Y8620020I7068J-7072D01*
G01X1250000D01*
G02X1271230Y8611230I0J-30033D01*
G01X1292890Y8589570D01*
X1295230Y8589790D01*
G02X1300000Y8590020I4791J-49789D01*
G02X1249980Y8540000I0J-50020D01*
G02X1250210Y8544770I50019J-21D01*
G01X1250430Y8547110D01*
X1237570Y8559980D01*
X1234770D01*
G03X1227310Y8543320I-3J-9999D01*
G02X1240020Y8510000I-37320J-33320D01*
G02X1190000Y8459980I-50020J0D01*
G02X1151420Y8478160I0J50026D01*
G01X1149920Y8479980D01*
X1139000D01*
X870020Y8211000D01*
Y7002140D01*
X991230Y6880940D01*
G02X1000020Y6859710I-21243J-21230D01*
G01Y6760290D01*
G02X991230Y6739060I-30033J0D01*
G01X870020Y6617860D01*
Y6012430D01*
X1202430Y5680020D01*
X1290000D01*
G02X1311230Y5671230I0J-30033D01*
G01X1341310Y5641150D01*
X1343650Y5641370D01*
G02X1348420Y5641600I4791J-49789D01*
G02X1398360Y5594390I0J-50019D01*
G03X1415420Y5587880I9985J559D01*
G01X1479980Y5652440D01*
Y7339430D01*
X1408040Y7411360D01*
X1405700Y7411140D01*
G02X1400930Y7410910I-4791J49789D01*
G02X1350910Y7460930I0J50020D01*
G02X1398110Y7510870I50020J0D01*
G03X1404620Y7527930I-559J9985D01*
G01X1382110Y7550430D01*
X1379770Y7550210D01*
G02X1375000Y7549980I-4791J49789D01*
G02Y7650020I0J50020D01*
G02X1396030Y7645380I-9J-50018D01*
G03X1410190Y7655380I4203J9073D01*
G02X1409980Y7660000I49812J4579D01*
G02X1460000Y7710020I50020J0D01*
G02X1478030Y7706660I6J-50021D01*
G03X1491360Y7718320I3609J9324D01*
G02X1489980Y7730000I48641J11669D01*
G02X1590020I50020J0D01*
G02X1589790Y7725230I-50019J21D01*
G01X1589570Y7722890D01*
X1622910Y7689550D01*
G03X1639980Y7696620I7072J7068D01*
G01Y7720000D01*
G02X1648770Y7741230I30033J0D01*
G01X1849980Y7942430D01*
Y8097570D01*
X1787110Y8160430D01*
X1784770Y8160210D01*
G02X1780000Y8159980I-4791J49789D01*
G02Y8260020I0J50020D01*
G02X1782900Y8259940I71J-50022D01*
G03X1790560Y8276990I586J9982D01*
G01X1667110Y8400430D01*
X1664770Y8400210D01*
G02X1660000Y8399980I-4791J49789D01*
G02X1710020Y8450000I0J50020D01*
G02X1709790Y8445230I-50019J21D01*
G01X1709570Y8442890D01*
X1941230Y8211230D01*
G02X1943440Y8208760I-21235J-21223D01*
G03X1959370Y8209170I7810J6246D01*
G02X2000000Y8230020I40630J-29162D01*
G02X2002900Y8229940I71J-50022D01*
G03X2010560Y8246990I586J9982D01*
G01X1827110Y8430430D01*
X1824770Y8430210D01*
G02X1820000Y8429980I-4791J49789D01*
G02X1870020Y8480000I0J50020D01*
G02X1869790Y8475230I-50019J21D01*
G01X1869570Y8472890D01*
X2101230Y8241230D01*
G02X2110020Y8220000I-21243J-21230D01*
G01Y8146860D01*
G02X2101230Y8125630I-30033J0D01*
G01X2030020Y8054430D01*
Y7880010D01*
G02X2021230Y7858780I-30033J0D01*
G01X1820020Y7657580D01*
Y2692420D01*
X2557420Y1955020D01*
X2829990D01*
G02X2870000Y1975020I40010J-30020D01*
G02Y1874980I0J-50020D01*
G02X2829990Y1894980I0J50020D01*
G01X2585040D01*
G03X2577970Y1877910I-2J-9998D01*
G01X2641230Y1814650D01*
G02X2650020Y1793420I-21243J-21230D01*
G01Y1242430D01*
X2712430Y1180020D01*
X2723310D01*
Y1187610D01*
X2721190Y1189110D01*
G02X2699980Y1230000I28810J40890D01*
G02X2729970Y1275840I50028J0D01*
G03Y1294160I-3998J9160D01*
G02Y1385840I20038J45840D01*
G03Y1404160I-3998J9160D01*
G02X2699980Y1450000I20038J45840D01*
G02X2750000Y1500020I50020J0D01*
G02X2795840Y1470030I0J-50028D01*
G03X2814160I9160J3998D01*
G02X2905840I45840J-20038D01*
G03X2924160I9160J3998D01*
G02X2970000Y1500020I45840J-20038D01*
G02X3020020Y1450000I0J-50020D01*
G02X2990030Y1404160I-50028J0D01*
G03Y1385840I3998J-9160D01*
G02Y1294160I-20038J-45840D01*
G03Y1275840I3998J-9160D01*
G02X3020020Y1230000I-20038J-45840D01*
G02X2970000Y1179980I-50020J0D01*
G02X2924160Y1209970I0J50028D01*
G03X2905840I-9160J-3998D01*
G02X2814160I-45840J20038D01*
G03X2795840I-9160J-3998D01*
G02X2778810Y1189110I-45833J20037D01*
G01X2776690Y1187610D01*
Y1180020D01*
X2783140D01*
G02X2804370Y1171230I0J-30033D01*
G01X2890570Y1085020D01*
X3147490D01*
G02X3187500Y1105020I40010J-30020D01*
G02Y1004980I0J-50020D01*
G02X3147490Y1024980I0J50020D01*
G01X2878140D01*
G02X2856910Y1033770I0J30033D01*
G01X2770710Y1119980D01*
X2700000D01*
G02X2678770Y1128770I0J30033D01*
G01X2598770Y1208770D01*
G02X2589980Y1230000I21243J21230D01*
G01Y1780990D01*
X2096650Y2274310D01*
G03X2079650Y2266040I-7073J-7069D01*
G02X2080020Y2260000I-49648J-6073D01*
G02X2032820Y2210060I-50020J0D01*
G03X2026310Y2193000I559J-9985D01*
G01X2041230Y2178090D01*
G02X2050020Y2156860I-21243J-21230D01*
G01Y1670000D01*
G02X2041230Y1648770I-30033J0D01*
G01X2009570Y1617110D01*
X2009790Y1614770D01*
G02X2010020Y1610000I-49789J-4791D01*
G02X1960000Y1660020I-50020J0D01*
G02X1964770Y1659790I-21J-50019D01*
G01X1967110Y1659570D01*
X1989980Y1682430D01*
Y2144430D01*
X1928770Y2205630D01*
G02X1919980Y2226860I21243J21230D01*
G01Y2331000D01*
X1648770Y2602200D01*
G02X1639980Y2623430I21243J21230D01*
G01Y4834430D01*
X1577090Y4897310D01*
G03X1560020Y4890240I-7072J-7068D01*
G01Y4640000D01*
G02X1551230Y4618770I-30033J0D01*
G01X1411230Y4478770D01*
G02X1390000Y4469980I-21230J21243D01*
G01X1350010D01*
G02X1310000Y4449980I-40010J30020D01*
G02Y4550020I0J50020D01*
G02X1350010Y4530020I0J-50020D01*
G01X1377570D01*
X1460560Y4613010D01*
G03X1452900Y4630060I-7074J7068D01*
G02X1450000Y4629980I-2829J49942D01*
G02X1408330Y4652330I0J50020D01*
G03X1391670I-8330J-5532D01*
G02X1350000Y4629980I-41670J27670D01*
G02Y4730020I0J50020D01*
G02X1391670Y4707670I0J-50020D01*
G03X1408330I8330J5532D01*
G02X1450000Y4730020I41670J-27670D01*
G02X1483320Y4717310I0J-50030D01*
G03X1499980Y4724770I6661J7457D01*
G01Y4917860D01*
X1488770Y4929060D01*
G02X1479980Y4950290I21243J21230D01*
G01Y5049710D01*
G02X1488770Y5070940I30033J0D01*
G01X1559980Y5142140D01*
Y5566520D01*
G03X1542910Y5573590I-9998J2D01*
G01X1356310Y5387000D01*
G03X1362820Y5369940I7069J-7075D01*
G02X1397500Y5353100I-2821J-49940D01*
G03X1412500I7500J6616D01*
G02X1450000Y5370020I37500J-33096D01*
G02Y5269980I0J-50020D01*
G02X1412500Y5286900I0J50016D01*
G03X1397500I-7500J-6616D01*
G02X1360000Y5269980I-37500J33096D01*
G02X1309980Y5320000I0J50020D01*
G02X1321400Y5351810I50013J0D01*
G03X1317440Y5359990I-3862J3179D01*
G02X1316860Y5359980I-807J30006D01*
G01X912140D01*
X580020Y5027860D01*
Y4630010D01*
G02X600020Y4590000I-30020J-40010D01*
G02X499980I-50020J0D01*
G02X519980Y4630010I50020J0D01*
G01Y5000240D01*
G03X502910Y5007310I-9998J2D01*
G01X354370Y4858770D01*
G02X333140Y4849980I-21230J21243D01*
G01X262430D01*
X239570Y4827110D01*
X239790Y4824770D01*
G02X240020Y4820000I-49789J-4791D01*
G02X190000Y4870020I-50020J0D01*
G02X194770Y4869790I-21J-50019D01*
G01X197110Y4869570D01*
X228770Y4901230D01*
G02X250000Y4910020I21230J-21243D01*
G01X320710D01*
X861910Y5451230D01*
G02X883140Y5460020I21230J-21243D01*
G01X1287560D01*
X1352120Y5524580D01*
G03X1345610Y5541640I-7069J7075D01*
G02X1298400Y5591580I2809J49940D01*
G02X1298630Y5596350I50019J-21D01*
G01X1298850Y5598690D01*
X1277570Y5619980D01*
X1254770D01*
G03X1247310Y5603320I-3J-9999D01*
G02X1260020Y5570000I-37320J-33320D01*
G02X1159980I-50020J0D01*
G02X1160210Y5574770I50019J-21D01*
G01X1160430Y5577110D01*
X807090Y5930450D01*
G03X790020Y5923380I-7072J-7068D01*
G01Y5590000D01*
G02X781230Y5568770I-30033J0D01*
G01X729570Y5517110D01*
X729790Y5514770D01*
G02X730020Y5510000I-49789J-4791D01*
G02X629980I-50020J0D01*
G02X630060Y5512900I50022J71D01*
G03X613010Y5520560I-9982J586D01*
G01X557690Y5465240D01*
X557320Y5464420D01*
G02X551230Y5455630I-27327J12429D01*
G01X380020Y5284430D01*
Y5260010D01*
G02X400020Y5220000I-30020J-40010D01*
G02X350000Y5169980I-50020J0D01*
G02X316680Y5182690I0J50030D01*
G03X300020Y5175230I-6661J-7457D01*
G01Y5071010D01*
G02X291230Y5049780I-30033J0D01*
G01X269440Y5027990D01*
X269710Y5025600D01*
G02X270020Y5020000I-49712J-5561D01*
G02X220000Y4969980I-50020J0D01*
G02X186680Y4982690I0J50030D01*
G03X170020Y4975230I-6661J-7457D01*
G01Y4970080D01*
X171840Y4968580D01*
G02X190020Y4930000I-31846J-38580D01*
G02X89980I-50020J0D01*
G02X109980Y4970010I50020J0D01*
G01Y5053140D01*
G02X118770Y5074370I30033J0D01*
G01X199980Y5155570D01*
Y5459710D01*
G02X208770Y5480940I30033J0D01*
G01X379060Y5651230D01*
G02X400290Y5660020I21230J-21243D01*
G01X554430D01*
X609980Y5715570D01*
Y6387860D01*
X498770Y6499060D01*
G02X489980Y6520290I21243J21230D01*
G01Y6879710D01*
G02X498770Y6900940I30033J0D01*
G01X609980Y7012140D01*
Y8313140D01*
G02X618770Y8334370I30033J0D01*
G01X620590Y8336190D01*
X620930Y8337510D01*
G02X628770Y8351230I29068J-7510D01*
G01X754870Y8477320D01*
G03X754860Y8484400I-3537J3535D01*
G02X740120Y8519860I35283J35460D01*
G02X790140Y8569880I50020J0D01*
G02X840080Y8522670I0J-50019D01*
G03X857140Y8516160I9985J559D01*
G01X878050Y8537070D01*
G03Y8551210I-7073J7070D01*
G02X863410Y8586570I35383J35360D01*
G02X913430Y8636590I50020J0D01*
G02X963370Y8589390I0J-50020D01*
G03X980430Y8582880I9985J559D01*
G01X984400Y8586860D01*
G03X984690Y8600700I-7069J7071D01*
G02X971450Y8634600I36779J33900D01*
G02X1021470Y8684620I50020J0D01*
G02X1071410Y8637420I0J-50020D01*
G03X1088470Y8630910I9985J559D01*
G01X1158780Y8701230D01*
G02X1180010Y8710020I21230J-21243D01*
G37*
G36*
G01X635840Y2690030D02*
G03X654160I9160J3998D01*
G02X700000Y2720020I45840J-20038D01*
G02X750020Y2670000I0J-50020D01*
G02X720030Y2624160I-50028J0D01*
G03Y2605840I3998J-9160D01*
G02X750020Y2560000I-20038J-45840D01*
G02X700000Y2509980I-50020J0D01*
G02X654160Y2539970I0J50028D01*
G03X635840I-9160J-3998D01*
G02X544160I-45840J20038D01*
G03X525840I-9160J-3998D01*
G02X434160I-45840J20038D01*
G03X415840I-9160J-3998D01*
G02X370000Y2509980I-45840J20038D01*
G02X319980Y2560000I0J50020D01*
G02X349970Y2605840I50028J0D01*
G03Y2624160I-3998J9160D01*
G02X319980Y2670000I20038J45840D01*
G02X370000Y2720020I50020J0D01*
G02X415840Y2690030I0J-50028D01*
G03X434160I9160J3998D01*
G02X525840I45840J-20038D01*
G03X544160I9160J3998D01*
G02X635840I45840J-20038D01*
G37*
G36*
G01X1835840Y2150030D02*
G03X1854160I9160J3998D01*
G02X1900000Y2180020I45840J-20038D01*
G02X1950020Y2130000I0J-50020D01*
G02X1920030Y2084160I-50028J0D01*
G03Y2065840I3998J-9160D01*
G02X1950020Y2020000I-20038J-45840D01*
G02X1900000Y1969980I-50020J0D01*
G02X1854160Y1999970I0J50028D01*
G03X1835840I-9160J-3998D01*
G02X1744160I-45840J20038D01*
G03X1725840I-9160J-3998D01*
G02X1634160I-45840J20038D01*
G03X1615840I-9160J-3998D01*
G02X1570000Y1969980I-45840J20038D01*
G02X1519980Y2020000I0J50020D01*
G02X1549970Y2065840I50028J0D01*
G03Y2084160I-3998J9160D01*
G02X1519980Y2130000I20038J45840D01*
G02X1570000Y2180020I50020J0D01*
G02X1615840Y2150030I0J-50028D01*
G03X1634160I9160J3998D01*
G02X1725840I45840J-20038D01*
G03X1744160I9160J3998D01*
G02X1835840I45840J-20038D01*
G37*
G36*
G01X695840Y1940030D02*
G03X714160I9160J3998D01*
G02X760000Y1970020I45840J-20038D01*
G02X810020Y1920000I0J-50020D01*
G02X787670Y1878330I-50020J0D01*
G03Y1861670I5532J-8330D01*
G02X810020Y1820000I-27670J-41670D01*
G02X760000Y1769980I-50020J0D01*
G02X714160Y1799970I0J50028D01*
G03X695840I-9160J-3998D01*
G02X650000Y1769980I-45840J20038D01*
G02X604160Y1799970I0J50028D01*
G03X585840I-9160J-3998D01*
G02X494160I-45840J20038D01*
G03X475840I-9160J-3998D01*
G02X430000Y1769980I-45840J20038D01*
G02X379980Y1820000I0J50020D01*
G02X402330Y1861670I50020J0D01*
G03Y1878330I-5532J8330D01*
G02X379980Y1920000I27670J41670D01*
G02X430000Y1970020I50020J0D01*
G02X475840Y1940030I0J-50028D01*
G03X494160I9160J3998D01*
G02X585840I45840J-20038D01*
G03X604160I9160J3998D01*
G02X650000Y1970020I45840J-20038D01*
G02X695840Y1940030I0J-50028D01*
G37*
G36*
G01X3028830Y2532890D02*
G02X3050000Y2540020I21178J-27887D01*
G02X3071770Y2532430I0J-35016D01*
G03X3078640Y2533060I3105J3918D01*
G02X3105000Y2545020I26360J-23069D01*
G02X3139790Y2514040I0J-35024D01*
G03X3154220Y2506270I9929J1156D01*
G02X3170000Y2510020I15767J-31273D01*
G02X3205020Y2475000I0J-35020D01*
G02X3197350Y2453120I-35023J-7D01*
G03Y2446880I3900J-3120D01*
G02X3205020Y2425000I-27353J-21873D01*
G02X3134980I-35020J0D01*
G02X3142650Y2446880I35023J7D01*
G03Y2453120I-3900J3120D01*
G02X3135210Y2470960I27349J21877D01*
G03X3120780Y2478730I-9929J-1156D01*
G02X3114230Y2476220I-15744J31283D01*
G03X3107560Y2462890I2629J-9649D01*
G02X3110020Y2450000I-32559J-12894D01*
G02X3039980I-35020J0D01*
G02X3041640Y2460650I35019J-4D01*
G03X3036080Y2472860I-9528J3032D01*
G02X3024500Y2481000I13934J32130D01*
G03X3011170Y2482110I-7282J-6857D01*
G02X2990000Y2474980I-21178J27887D01*
G02Y2545020I0J35020D01*
G02X3015500Y2534000I0J-35013D01*
G03X3028830Y2532890I7282J6857D01*
G37*
G36*
G01X2958000Y3104030D02*
G02X2990000Y3120020I32000J-24025D01*
G02X3019060Y3107510I0J-40007D01*
G03X3035060Y3109510I7266J6873D01*
G02X3070000Y3130020I34940J-19506D01*
G02Y3049980I0J-40020D01*
G02X3040940Y3062490I0J40007D01*
G03X3024940Y3060490I-7266J-6873D01*
G02X2990000Y3039980I-34940J19506D01*
G02X2958000Y3055970I0J40015D01*
G03X2942000I-8000J-6003D01*
G02X2910000Y3039980I-32000J24025D01*
G02Y3120020I0J40020D01*
G02X2942000Y3104030I0J-40015D01*
G03X2958000I8000J6003D01*
G37*
G36*
G01X3028230Y3382430D02*
G02X3071770I21770J-27426D01*
G03X3078640Y3383060I3105J3918D01*
G02X3105000Y3395020I26360J-23069D01*
G02X3139790Y3364040I0J-35024D01*
G03X3154220Y3356270I9929J1156D01*
G02X3170000Y3360020I15767J-31273D01*
G02X3205020Y3325000I0J-35020D01*
G02X3197350Y3303120I-35023J-7D01*
G03Y3296880I3900J-3120D01*
G02X3205020Y3275000I-27353J-21873D01*
G02X3134980I-35020J0D01*
G02X3142650Y3296880I35023J7D01*
G03Y3303120I-3900J3120D01*
G02X3135210Y3320960I27349J21877D01*
G03X3120780Y3328730I-9929J-1156D01*
G02X3114230Y3326220I-15744J31283D01*
G03X3107560Y3312890I2629J-9649D01*
G02X3110020Y3300000I-32559J-12894D01*
G02X3039980I-35020J0D01*
G02X3041640Y3310650I35019J-4D01*
G03X3036080Y3322860I-9528J3032D01*
G02X3023640Y3331940I13923J32136D01*
G03X3016770Y3332570I-3765J-3288D01*
G02X2995000Y3324980I-21770J27426D01*
G02Y3395020I0J35020D01*
G02X3021360Y3383060I0J-35029D01*
G03X3028230Y3382430I3765J3288D01*
G37*
G36*
G01X2958000Y3954030D02*
G02X2990000Y3970020I32000J-24025D01*
G02X3019060Y3957510I0J-40007D01*
G03X3035060Y3959510I7266J6873D01*
G02X3070000Y3980020I34940J-19506D01*
G02Y3899980I0J-40020D01*
G02X3040940Y3912490I0J40007D01*
G03X3024940Y3910490I-7266J-6873D01*
G02X2990000Y3889980I-34940J19506D01*
G02X2958000Y3905970I0J40015D01*
G03X2942000I-8000J-6003D01*
G02X2910000Y3889980I-32000J24025D01*
G02Y3970020I0J40020D01*
G02X2942000Y3954030I0J-40015D01*
G03X2958000I8000J6003D01*
G37*
G36*
G01X3028230Y4232430D02*
G02X3071770I21770J-27426D01*
G03X3078640Y4233060I3105J3918D01*
G02X3105000Y4245020I26360J-23069D01*
G02X3139790Y4214040I0J-35024D01*
G03X3154220Y4206270I9929J1156D01*
G02X3170000Y4210020I15767J-31273D01*
G02X3205020Y4175000I0J-35020D01*
G02X3197350Y4153120I-35023J-7D01*
G03Y4146880I3900J-3120D01*
G02X3205020Y4125000I-27353J-21873D01*
G02X3134980I-35020J0D01*
G02X3142650Y4146880I35023J7D01*
G03Y4153120I-3900J3120D01*
G02X3135210Y4170960I27349J21877D01*
G03X3120780Y4178730I-9929J-1156D01*
G02X3114230Y4176220I-15744J31283D01*
G03X3107560Y4162890I2629J-9649D01*
G02X3110020Y4150000I-32559J-12894D01*
G02X3039980I-35020J0D01*
G02X3041640Y4160650I35019J-4D01*
G03X3036080Y4172860I-9528J3032D01*
G02X3023640Y4181940I13923J32136D01*
G03X3016770Y4182570I-3765J-3288D01*
G02X2995000Y4174980I-21770J27426D01*
G02Y4245020I0J35020D01*
G02X3021360Y4233060I0J-35029D01*
G03X3028230Y4232430I3765J3288D01*
G37*
G36*
G01X2958000Y4804030D02*
G02X2990000Y4820020I32000J-24025D01*
G02X3019060Y4807510I0J-40007D01*
G03X3035060Y4809510I7266J6873D01*
G02X3070000Y4830020I34940J-19506D01*
G02Y4749980I0J-40020D01*
G02X3040940Y4762490I0J40007D01*
G03X3024940Y4760490I-7266J-6873D01*
G02X2990000Y4739980I-34940J19506D01*
G02X2958000Y4755970I0J40015D01*
G03X2942000I-8000J-6003D01*
G02X2910000Y4739980I-32000J24025D01*
G02Y4820020I0J40020D01*
G02X2942000Y4804030I0J-40015D01*
G03X2958000I8000J6003D01*
G37*
G36*
G01X3028230Y5082430D02*
G02X3071770I21770J-27426D01*
G03X3078640Y5083060I3105J3918D01*
G02X3105000Y5095020I26360J-23069D01*
G02X3139790Y5064040I0J-35024D01*
G03X3154220Y5056270I9929J1156D01*
G02X3170000Y5060020I15767J-31273D01*
G02X3205020Y5025000I0J-35020D01*
G02X3197350Y5003120I-35023J-7D01*
G03Y4996880I3900J-3120D01*
G02X3205020Y4975000I-27353J-21873D01*
G02X3134980I-35020J0D01*
G02X3142650Y4996880I35023J7D01*
G03Y5003120I-3900J3120D01*
G02X3135210Y5020960I27349J21877D01*
G03X3120780Y5028730I-9929J-1156D01*
G02X3114230Y5026220I-15744J31283D01*
G03X3107560Y5012890I2629J-9649D01*
G02X3110020Y5000000I-32559J-12894D01*
G02X3039980I-35020J0D01*
G02X3041640Y5010650I35019J-4D01*
G03X3036080Y5022860I-9528J3032D01*
G02X3023640Y5031940I13923J32136D01*
G03X3016770Y5032570I-3765J-3288D01*
G02X2995000Y5024980I-21770J27426D01*
G02Y5095020I0J35020D01*
G02X3021360Y5083060I0J-35029D01*
G03X3028230Y5082430I3765J3288D01*
G37*
G36*
G01X2958000Y5654030D02*
G02X2990000Y5670020I32000J-24025D01*
G02X3019060Y5657510I0J-40007D01*
G03X3035060Y5659510I7266J6873D01*
G02X3070000Y5680020I34940J-19506D01*
G02Y5599980I0J-40020D01*
G02X3040940Y5612490I0J40007D01*
G03X3024940Y5610490I-7266J-6873D01*
G02X2990000Y5589980I-34940J19506D01*
G02X2958000Y5605970I0J40015D01*
G03X2942000I-8000J-6003D01*
G02X2910000Y5589980I-32000J24025D01*
G02Y5670020I0J40020D01*
G02X2942000Y5654030I0J-40015D01*
G03X2958000I8000J6003D01*
G37*
G36*
G01X3028230Y5932430D02*
G02X3071770I21770J-27426D01*
G03X3078640Y5933060I3105J3918D01*
G02X3105000Y5945020I26360J-23069D01*
G02X3139790Y5914040I0J-35024D01*
G03X3154220Y5906270I9929J1156D01*
G02X3170000Y5910020I15767J-31273D01*
G02X3205020Y5875000I0J-35020D01*
G02X3197350Y5853120I-35023J-7D01*
G03Y5846880I3900J-3120D01*
G02X3205020Y5825000I-27353J-21873D01*
G02X3134980I-35020J0D01*
G02X3142650Y5846880I35023J7D01*
G03Y5853120I-3900J3120D01*
G02X3135210Y5870960I27349J21877D01*
G03X3120780Y5878730I-9929J-1156D01*
G02X3114230Y5876220I-15744J31284D01*
G03X3107560Y5862890I2629J-9649D01*
G02X3110020Y5850000I-32559J-12894D01*
G02X3039980I-35020J0D01*
G02X3041640Y5860650I35019J-4D01*
G03X3036080Y5872860I-9528J3032D01*
G02X3023640Y5881940I13923J32136D01*
G03X3016770Y5882570I-3765J-3288D01*
G02X2995000Y5874980I-21770J27426D01*
G02Y5945020I0J35020D01*
G02X3021360Y5933060I0J-35029D01*
G03X3028230Y5932430I3765J3288D01*
G37*
G36*
G01X2958000Y6504030D02*
G02X2990000Y6520020I32000J-24025D01*
G02X3019060Y6507510I0J-40007D01*
G03X3035060Y6509510I7266J6873D01*
G02X3070000Y6530020I34940J-19506D01*
G02Y6449980I0J-40020D01*
G02X3040940Y6462490I0J40007D01*
G03X3024940Y6460490I-7266J-6873D01*
G02X2990000Y6439980I-34940J19506D01*
G02X2958000Y6455970I0J40015D01*
G03X2942000I-8000J-6003D01*
G02X2910000Y6439980I-32000J24025D01*
G02Y6520020I0J40020D01*
G02X2942000Y6504030I0J-40015D01*
G03X2958000I8000J6003D01*
G37*
G36*
G01X3028230Y6782430D02*
G02X3071770I21770J-27426D01*
G03X3078640Y6783060I3105J3918D01*
G02X3105000Y6795020I26360J-23069D01*
G02X3139790Y6764040I0J-35024D01*
G03X3154220Y6756270I9929J1156D01*
G02X3170000Y6760020I15767J-31273D01*
G02X3205020Y6725000I0J-35020D01*
G02X3197350Y6703120I-35023J-7D01*
G03Y6696880I3900J-3120D01*
G02X3205020Y6675000I-27353J-21873D01*
G02X3134980I-35020J0D01*
G02X3142650Y6696880I35023J7D01*
G03Y6703120I-3900J3120D01*
G02X3135210Y6720960I27349J21877D01*
G03X3120780Y6728730I-9929J-1156D01*
G02X3114230Y6726220I-15744J31284D01*
G03X3107560Y6712890I2629J-9649D01*
G02X3110020Y6700000I-32559J-12894D01*
G02X3039980I-35020J0D01*
G02X3041640Y6710650I35019J-4D01*
G03X3036080Y6722860I-9528J3032D01*
G02X3023640Y6731940I13923J32136D01*
G03X3016770Y6732570I-3765J-3288D01*
G02X2995000Y6724980I-21770J27426D01*
G02Y6795020I0J35020D01*
G02X3021360Y6783060I0J-35029D01*
G03X3028230Y6782430I3765J3288D01*
G37*
G36*
G01X2968000Y7354030D02*
G02X3000000Y7370020I32000J-24025D01*
G02X3029060Y7357510I0J-40007D01*
G03X3045060Y7359510I7266J6873D01*
G02X3080000Y7380020I34940J-19506D01*
G02Y7299980I0J-40020D01*
G02X3050940Y7312490I0J40007D01*
G03X3034940Y7310490I-7266J-6873D01*
G02X3000000Y7289980I-34940J19506D01*
G02X2968000Y7305970I0J40015D01*
G03X2952000I-8000J-6003D01*
G02X2920000Y7289980I-32000J24025D01*
G02Y7370020I0J40020D01*
G02X2952000Y7354030I0J-40015D01*
G03X2968000I8000J6003D01*
G37*
G36*
G01X3028230Y7632430D02*
G02X3071770I21770J-27426D01*
G03X3078640Y7633060I3105J3918D01*
G02X3105000Y7645020I26360J-23069D01*
G02X3139790Y7614040I0J-35024D01*
G03X3154220Y7606270I9929J1156D01*
G02X3170000Y7610020I15767J-31273D01*
G02X3205020Y7575000I0J-35020D01*
G02X3197350Y7553120I-35023J-7D01*
G03Y7546880I3900J-3120D01*
G02X3205020Y7525000I-27353J-21873D01*
G02X3134980I-35020J0D01*
G02X3142650Y7546880I35023J7D01*
G03Y7553120I-3900J3120D01*
G02X3135210Y7570960I27349J21877D01*
G03X3120780Y7578730I-9929J-1156D01*
G02X3114230Y7576220I-15744J31284D01*
G03X3107560Y7562890I2629J-9649D01*
G02X3110020Y7550000I-32559J-12894D01*
G02X3039980I-35020J0D01*
G02X3041640Y7560650I35019J-4D01*
G03X3036080Y7572860I-9528J3032D01*
G02X3023640Y7581940I13923J32136D01*
G03X3016770Y7582570I-3765J-3288D01*
G02X2995000Y7574980I-21770J27426D01*
G02Y7645020I0J35020D01*
G02X3021360Y7633060I0J-35029D01*
G03X3028230Y7632430I3765J3288D01*
G37*
G36*
G01X2968000Y8204030D02*
G02X3000000Y8220020I32000J-24025D01*
G02X3029060Y8207510I0J-40007D01*
G03X3045060Y8209510I7266J6873D01*
G02X3080000Y8230020I34940J-19506D01*
G02Y8149980I0J-40020D01*
G02X3050940Y8162490I0J40007D01*
G03X3034940Y8160490I-7266J-6873D01*
G02X3000000Y8139980I-34940J19506D01*
G02X2968000Y8155970I0J40015D01*
G03X2952000I-8000J-6003D01*
G02X2920000Y8139980I-32000J24025D01*
G02Y8220020I0J40020D01*
G02X2952000Y8204030I0J-40015D01*
G03X2968000I8000J6003D01*
G37*
G36*
G01X2995200Y7913870D02*
G03X2985200Y7924980I-9940J1109D01*
G01X2985000D01*
G02Y7995020I0J35020D01*
G02X3007500Y7986840I5J-35022D01*
G02X3030000Y7995020I22495J-26842D01*
G02X3065020Y7960000I0J-35020D01*
G02X3057350Y7938120I-35023J-7D01*
G03Y7931880I3900J-3120D01*
G02X3065020Y7910000I-27353J-21873D01*
G02X2994980I-35020J0D01*
G02X2995200Y7913870I35017J-49D01*
G37*
G36*
G01X3680160Y7696670D02*
G03Y7703330I-3728J3330D01*
G02X3669980Y7730000I29846J26670D01*
G02X3750020I40020J0D01*
G02X3739840Y7703330I-40026J0D01*
G03Y7696670I3728J-3330D01*
G02Y7643330I-29846J-26670D01*
G03Y7636670I3728J-3330D01*
G02X3750020Y7610000I-29846J-26670D01*
G02X3669980I-40020J0D01*
G02X3680160Y7636670I40026J0D01*
G03Y7643330I-3728J3330D01*
G02Y7696670I29846J26670D01*
G37*
G36*
G01Y7456670D02*
G03Y7463330I-3728J3330D01*
G02X3669980Y7490000I29846J26670D01*
G02X3750020I40020J0D01*
G02X3739840Y7463330I-40026J0D01*
G03Y7456670I3728J-3330D01*
G02Y7403330I-29846J-26670D01*
G03Y7396670I3728J-3330D01*
G02X3750020Y7370000I-29846J-26670D01*
G02X3669980I-40020J0D01*
G02X3680160Y7396670I40026J0D01*
G03Y7403330I-3728J3330D01*
G02Y7456670I29846J26670D01*
G37*
G36*
G01X2995200Y7063870D02*
G03X2985200Y7074980I-9940J1109D01*
G01X2985000D01*
G02Y7145020I0J35020D01*
G02X3007500Y7136840I5J-35022D01*
G02X3030000Y7145020I22495J-26842D01*
G02X3065020Y7110000I0J-35020D01*
G02X3057350Y7088120I-35023J-7D01*
G03Y7081880I3900J-3120D01*
G02X3065020Y7060000I-27353J-21873D01*
G02X2994980I-35020J0D01*
G02X2995200Y7063870I35017J-49D01*
G37*
G36*
G01X3680160Y6846670D02*
G03Y6853330I-3728J3330D01*
G02X3669980Y6880000I29846J26670D01*
G02X3750020I40020J0D01*
G02X3739840Y6853330I-40026J0D01*
G03Y6846670I3728J-3330D01*
G02Y6793330I-29846J-26670D01*
G03Y6786670I3728J-3330D01*
G02X3750020Y6760000I-29846J-26670D01*
G02X3669980I-40020J0D01*
G02X3680160Y6786670I40026J0D01*
G03Y6793330I-3728J3330D01*
G02Y6846670I29846J26670D01*
G37*
G36*
G01Y6606670D02*
G03Y6613330I-3728J3330D01*
G02X3669980Y6640000I29846J26670D01*
G02X3750020I40020J0D01*
G02X3739840Y6613330I-40026J0D01*
G03Y6606670I3728J-3330D01*
G02Y6553330I-29846J-26670D01*
G03Y6546670I3728J-3330D01*
G02X3750020Y6520000I-29846J-26670D01*
G02X3669980I-40020J0D01*
G02X3680160Y6546670I40026J0D01*
G03Y6553330I-3728J3330D01*
G02Y6606670I29846J26670D01*
G37*
G36*
G01X2995200Y6213870D02*
G03X2985200Y6224980I-9940J1109D01*
G01X2985000D01*
G02Y6295020I0J35020D01*
G02X3007500Y6286840I5J-35022D01*
G02X3030000Y6295020I22495J-26842D01*
G02X3065020Y6260000I0J-35020D01*
G02X3057350Y6238120I-35023J-7D01*
G03Y6231880I3900J-3120D01*
G02X3065020Y6210000I-27353J-21873D01*
G02X2994980I-35020J0D01*
G02X2995200Y6213870I35017J-49D01*
G37*
G36*
G01X3680160Y5996670D02*
G03Y6003330I-3728J3330D01*
G02X3669980Y6030000I29846J26670D01*
G02X3750020I40020J0D01*
G02X3739840Y6003330I-40026J0D01*
G03Y5996670I3728J-3330D01*
G02Y5943330I-29846J-26670D01*
G03Y5936670I3728J-3330D01*
G02X3750020Y5910000I-29846J-26670D01*
G02X3669980I-40020J0D01*
G02X3680160Y5936670I40026J0D01*
G03Y5943330I-3728J3330D01*
G02Y5996670I29846J26670D01*
G37*
G36*
G01Y5756670D02*
G03Y5763330I-3728J3330D01*
G02X3669980Y5790000I29846J26670D01*
G02X3750020I40020J0D01*
G02X3739840Y5763330I-40026J0D01*
G03Y5756670I3728J-3330D01*
G02Y5703330I-29846J-26670D01*
G03Y5696670I3728J-3330D01*
G02X3750020Y5670000I-29846J-26670D01*
G02X3669980I-40020J0D01*
G02X3680160Y5696670I40026J0D01*
G03Y5703330I-3728J3330D01*
G02Y5756670I29846J26670D01*
G37*
G36*
G01X2995200Y5363870D02*
G03X2985200Y5374980I-9940J1109D01*
G01X2985000D01*
G02Y5445020I0J35020D01*
G02X3007500Y5436840I5J-35022D01*
G02X3030000Y5445020I22495J-26842D01*
G02X3065020Y5410000I0J-35020D01*
G02X3057350Y5388120I-35023J-7D01*
G03Y5381880I3900J-3120D01*
G02X3065020Y5360000I-27353J-21873D01*
G02X2994980I-35020J0D01*
G02X2995200Y5363870I35017J-49D01*
G37*
G36*
G01X606120Y5283200D02*
G03X591130Y5281530I-6768J-7360D01*
G02X550000Y5259980I-41130J28475D01*
G02Y5360020I0J50020D01*
G02X583880Y5346800I0J-50024D01*
G03X598870Y5348470I6768J7360D01*
G02X640000Y5370020I41130J-28475D01*
G02Y5269980I0J-50020D01*
G02X606120Y5283200I0J50024D01*
G37*
G36*
G01X3680160Y5206670D02*
G03Y5213330I-3728J3330D01*
G02X3669980Y5240000I29846J26670D01*
G02X3750020I40020J0D01*
G02X3739840Y5213330I-40026J0D01*
G03Y5206670I3728J-3330D01*
G02Y5153330I-29846J-26670D01*
G03Y5146670I3728J-3330D01*
G02Y5093330I-29846J-26670D01*
G03Y5086670I3728J-3330D01*
G02X3750020Y5060000I-29846J-26670D01*
G02X3669980I-40020J0D01*
G02X3680160Y5086670I40026J0D01*
G03Y5093330I-3728J3330D01*
G02Y5146670I29846J26670D01*
G03Y5153330I-3728J3330D01*
G02Y5206670I29846J26670D01*
G37*
G36*
G01Y4906670D02*
G03Y4913330I-3728J3330D01*
G02X3669980Y4940000I29846J26670D01*
G02X3750020I40020J0D01*
G02X3739840Y4913330I-40026J0D01*
G03Y4906670I3728J-3330D01*
G02Y4853330I-29846J-26670D01*
G03Y4846670I3728J-3330D01*
G02X3750020Y4820000I-29846J-26670D01*
G02X3669980I-40020J0D01*
G02X3680160Y4846670I40026J0D01*
G03Y4853330I-3728J3330D01*
G02Y4906670I29846J26670D01*
G37*
G36*
G01X2995200Y4513870D02*
G03X2985200Y4524980I-9940J1109D01*
G01X2985000D01*
G02Y4595020I0J35020D01*
G02X3007500Y4586840I5J-35022D01*
G02X3030000Y4595020I22495J-26842D01*
G02X3065020Y4560000I0J-35020D01*
G02X3057350Y4538120I-35023J-7D01*
G03Y4531880I3900J-3120D01*
G02X3065020Y4510000I-27353J-21873D01*
G02X2994980I-35020J0D01*
G02X2995200Y4513870I35017J-49D01*
G37*
G36*
G01X3680160Y4356670D02*
G03Y4363330I-3728J3330D01*
G02X3669980Y4390000I29846J26670D01*
G02X3750020I40020J0D01*
G02X3739840Y4363330I-40026J0D01*
G03Y4356670I3728J-3330D01*
G02Y4303330I-29846J-26670D01*
G03Y4296670I3728J-3330D01*
G02Y4243330I-29846J-26670D01*
G03Y4236670I3728J-3330D01*
G02X3750020Y4210000I-29846J-26670D01*
G02X3669980I-40020J0D01*
G02X3680160Y4236670I40026J0D01*
G03Y4243330I-3728J3330D01*
G02Y4296670I29846J26670D01*
G03Y4303330I-3728J3330D01*
G02Y4356670I29846J26670D01*
G37*
G36*
G01Y4056670D02*
G03Y4063330I-3728J3330D01*
G02X3669980Y4090000I29846J26670D01*
G02X3750020I40020J0D01*
G02X3739840Y4063330I-40026J0D01*
G03Y4056670I3728J-3330D01*
G02Y4003330I-29846J-26670D01*
G03Y3996670I3728J-3330D01*
G02X3750020Y3970000I-29846J-26670D01*
G02X3669980I-40020J0D01*
G02X3680160Y3996670I40026J0D01*
G03Y4003330I-3728J3330D01*
G02Y4056670I29846J26670D01*
G37*
G36*
G01X2995200Y3663870D02*
G03X2985200Y3674980I-9940J1109D01*
G01X2985000D01*
G02Y3745020I0J35020D01*
G02X3007500Y3736840I5J-35022D01*
G02X3030000Y3745020I22495J-26842D01*
G02X3065020Y3710000I0J-35020D01*
G02X3057350Y3688120I-35023J-7D01*
G03Y3681880I3900J-3120D01*
G02X3065020Y3660000I-27353J-21873D01*
G02X2994980I-35020J0D01*
G02X2995200Y3663870I35017J-49D01*
G37*
G36*
G01X3680160Y3506670D02*
G03Y3513330I-3728J3330D01*
G02X3669980Y3540000I29846J26670D01*
G02X3750020I40020J0D01*
G02X3739840Y3513330I-40026J0D01*
G03Y3506670I3728J-3330D01*
G02Y3453330I-29846J-26670D01*
G03Y3446670I3728J-3330D01*
G02Y3393330I-29846J-26670D01*
G03Y3386670I3728J-3330D01*
G02X3750020Y3360000I-29846J-26670D01*
G02X3669980I-40020J0D01*
G02X3680160Y3386670I40026J0D01*
G03Y3393330I-3728J3330D01*
G02Y3446670I29846J26670D01*
G03Y3453330I-3728J3330D01*
G02Y3506670I29846J26670D01*
G37*
G36*
G01Y3206670D02*
G03Y3213330I-3728J3330D01*
G02X3669980Y3240000I29846J26670D01*
G02X3750020I40020J0D01*
G02X3739840Y3213330I-40026J0D01*
G03Y3206670I3728J-3330D01*
G02Y3153330I-29846J-26670D01*
G03Y3146670I3728J-3330D01*
G02X3750020Y3120000I-29846J-26670D01*
G02X3669980I-40020J0D01*
G02X3680160Y3146670I40026J0D01*
G03Y3153330I-3728J3330D01*
G02Y3206670I29846J26670D01*
G37*
G36*
G01X2995200Y2813870D02*
G03X2985200Y2824980I-9940J1109D01*
G01X2985000D01*
G02Y2895020I0J35020D01*
G02X3007500Y2886840I5J-35022D01*
G02X3030000Y2895020I22495J-26842D01*
G02X3065020Y2860000I0J-35020D01*
G02X3057350Y2838120I-35023J-7D01*
G03Y2831880I3900J-3120D01*
G02X3065020Y2810000I-27353J-21873D01*
G02X2994980I-35020J0D01*
G02X2995200Y2813870I35017J-49D01*
G37*
G36*
G01X3680160Y2656670D02*
G03Y2663330I-3728J3330D01*
G02X3669980Y2690000I29846J26670D01*
G02X3750020I40020J0D01*
G02X3739840Y2663330I-40026J0D01*
G03Y2656670I3728J-3330D01*
G02Y2603330I-29846J-26670D01*
G03Y2596670I3728J-3330D01*
G02Y2543330I-29846J-26670D01*
G03Y2536670I3728J-3330D01*
G02X3750020Y2510000I-29846J-26670D01*
G02X3669980I-40020J0D01*
G02X3680160Y2536670I40026J0D01*
G03Y2543330I-3728J3330D01*
G02Y2596670I29846J26670D01*
G03Y2603330I-3728J3330D01*
G02Y2656670I29846J26670D01*
G37*
G36*
G01Y2356670D02*
G03Y2363330I-3728J3330D01*
G02X3669980Y2390000I29846J26670D01*
G02X3750020I40020J0D01*
G02X3739840Y2363330I-40026J0D01*
G03Y2356670I3728J-3330D01*
G02Y2303330I-29846J-26670D01*
G03Y2296670I3728J-3330D01*
G02X3750020Y2270000I-29846J-26670D01*
G02X3669980I-40020J0D01*
G02X3680160Y2296670I40026J0D01*
G03Y2303330I-3728J3330D01*
G02Y2356670I29846J26670D01*
G37*
G36*
G01X2150000Y905020D02*
X2350000D01*
G02Y634980I0J-135020D01*
G01X2150000D01*
G02Y905020I0J135020D01*
G37*
G36*
G01X2125000Y1475020D02*
X2375000D01*
G02Y1264980I0J-105020D01*
G01X2125000D01*
G02Y1475020I0J105020D01*
G37*
G36*
G01X2749980Y8875000D02*
Y9045000D01*
G02X2800000Y9095020I50020J0D01*
G01X2970000D01*
G02X3020020Y9045000I0J-50020D01*
G01Y8875000D01*
G02X2970000Y8824980I-50020J0D01*
G01X2800000D01*
G02X2749980Y8875000I0J50020D01*
G37*
G36*
G01X3994980Y9186000D02*
Y9356000D01*
G02X4015000Y9376020I20020J0D01*
G01X4185000D01*
G02X4205020Y9356000I0J-20020D01*
G01Y9186000D01*
G02X4185000Y9165980I-20020J0D01*
G01X4015000D01*
G02X3994980Y9186000I0J20020D01*
G37*
G54D22*
X305000Y4690000D03*
X1430000Y8430000D03*
X1080000Y6810000D03*
X4030000Y1640000D03*
X880000Y3480000D03*
X3326550Y6476900D03*
Y5626900D03*
X3280000Y8230000D03*
X1635000Y7970000D03*
X870000Y3590000D03*
X3326550Y3076900D03*
X952700Y8125000D03*
X3326550Y4776900D03*
Y7326900D03*
Y2226900D03*
Y3926900D03*
X2640000Y3910000D03*
Y2330000D03*
Y2210000D03*
Y4030000D03*
Y5730000D03*
Y5610000D03*
Y7310000D03*
Y7430000D03*
G54D25*
X4100000Y9017000D03*
Y8509000D03*
X2631000Y8960000D03*
X1615000D03*
X1869000D03*
X2123000D03*
X2377000D03*
G54D24*
X4200000Y9700000D03*
Y300000D03*
X300000Y9700000D03*
Y300000D03*
G54D26*
X4100000Y8763000D03*
G54D21*
X960000Y9820000D03*
G54D23*
X3500000Y7920000D03*
Y7180000D03*
%LPD*%
G75*
G36*
G01X429290Y5559980D02*
X543380D01*
G02X550450Y5542910I2J-9998D01*
G01X508770Y5501230D01*
G03X502680Y5492440I21237J-21219D01*
G01X502310Y5491620D01*
X328770Y5318090D01*
G03X319980Y5296860I21243J-21230D01*
G01Y5260010D01*
G03X316680Y5257310I29996J-40029D01*
G02X300020Y5264770I-6661J7457D01*
G01Y5430710D01*
X429290Y5559980D01*
G37*
G36*
G01X590020Y6850710D02*
X672910Y6933590D01*
G02X689980Y6926520I7072J-7068D01*
G01Y6473480D01*
G02X672910Y6466410I-9998J-2D01*
G01X590020Y6549290D01*
Y6850710D01*
G37*
G54D10*
X300000Y300000D03*
Y9700000D03*
X4200000Y300000D03*
Y9700000D03*
G54D20*
G01X866670Y9890000D02*
Y9750000D01*
X933330D01*
G01X983330Y9778000D02*
X993330Y9761660D01*
X1006660Y9752330D01*
X1021670Y9750000D01*
X1035000Y9752330D01*
X1048330Y9764000D01*
X1056670Y9778000D01*
X1058330Y9792000D01*
X1055000Y9808330D01*
X1043330Y9820000D01*
X1031670Y9824670D01*
X1016670D01*
G01X1031670D02*
X1041670Y9831670D01*
X1050000Y9843330D01*
X1053330Y9857330D01*
X1050000Y9871330D01*
X1041670Y9883000D01*
X1026670Y9890000D01*
X1011670Y9887670D01*
X996670Y9878330D01*
G54D11*
X100000Y100000D03*
Y530000D03*
X205000Y2202500D03*
X230000Y2320000D03*
X180000Y3170000D03*
Y3430000D03*
X200000Y4200000D03*
X190000Y4820000D03*
X220000Y5020000D03*
X140000Y4930000D03*
X200000Y5800000D03*
X180000Y6570000D03*
Y6830000D03*
X200000Y7800000D03*
Y8600000D03*
Y9400000D03*
X520000Y100000D03*
Y520000D03*
X270000Y1330000D03*
X620000Y1477500D03*
X430000Y1920000D03*
X540000D03*
Y1820000D03*
X430000D03*
X620000Y2300000D03*
X370000Y2560000D03*
X480000D03*
X590000D03*
Y2670000D03*
X480000D03*
X370000D03*
X400000Y4500000D03*
X305000Y4690000D03*
X550000Y4590000D03*
X300000Y4960000D03*
Y4800000D03*
X450000Y5510000D03*
X600000Y5430000D03*
X350000Y5220000D03*
X550000Y5310000D03*
X530000Y5720000D03*
X500000Y6100000D03*
X560000Y7900000D03*
Y8170000D03*
X600000Y9800000D03*
X1000000Y200000D03*
X755000Y1040000D03*
X890000Y1215000D03*
X970000Y1690000D03*
X855000Y1595000D03*
X650000Y1920000D03*
X760000D03*
Y1820000D03*
X650000D03*
X940000Y2295000D03*
X700000Y2560000D03*
Y2670000D03*
X640000Y3170000D03*
X770000Y3230000D03*
X640000Y3430000D03*
X870000Y3590000D03*
X880000Y3480000D03*
X770000Y3750000D03*
X800000Y4200000D03*
Y4780000D03*
X910000Y4490000D03*
X1000000Y5250000D03*
X680000Y5510000D03*
X640000Y5320000D03*
Y6570000D03*
Y6830000D03*
X920000Y7050000D03*
X850000Y6810000D03*
X952700Y8125000D03*
X790140Y8519860D03*
X913430Y8586570D03*
X800000Y9000000D03*
X1220000Y1930000D03*
X1160000Y2110000D03*
X1360000Y3390000D03*
Y3690000D03*
X1240000Y4390000D03*
X1190000Y4790000D03*
X1310000Y4500000D03*
X1350000Y4680000D03*
X1200000Y5250000D03*
X1360000Y5320000D03*
X1220000Y5800000D03*
X1210000Y5570000D03*
X1348420Y5591580D03*
X1100000Y6680000D03*
X1080000Y6810000D03*
X1015000Y7165000D03*
X1200000Y7600000D03*
X1375000D03*
X1300000Y8540000D03*
X1190000Y8510000D03*
X1360000Y8680000D03*
X1021470Y8634600D03*
X1400000Y800000D03*
X1560000Y1730000D03*
X1570000Y2020000D03*
X1680000D03*
Y2130000D03*
X1570000D03*
X1400000Y2600000D03*
X1550000Y3100000D03*
X1530000Y4050000D03*
X1550000Y4500000D03*
X1450000Y4680000D03*
X1630000Y5000000D03*
X1470000Y5420000D03*
X1450000Y5320000D03*
X1420000Y6020000D03*
X1430000Y6450000D03*
X1400000Y6780000D03*
X1460000Y7660000D03*
X1400930Y7460930D03*
X1540000Y7730000D03*
X1635000Y7970000D03*
X1690000Y7860000D03*
X1430000Y8430000D03*
X1660000Y8450000D03*
X1490000Y8720000D03*
X1400000Y9800000D03*
X2000000Y200000D03*
X1960000Y1610000D03*
X1790000Y2020000D03*
Y2130000D03*
X1900000D03*
Y2020000D03*
X2030000Y2260000D03*
X2080000Y2700000D03*
X2050000Y3140000D03*
X1980000Y3500000D03*
Y3970000D03*
X1970000Y4630000D03*
X1880000Y5860000D03*
X2070000Y6060000D03*
X1920000Y6500000D03*
X1950000Y6900000D03*
X1870000Y7440000D03*
X2000000Y8180000D03*
X1780000Y8210000D03*
X1820000Y8480000D03*
X2160000Y1640000D03*
Y1940000D03*
X2490000Y2880000D03*
X2160000Y3640000D03*
Y3340000D03*
X2150000Y4450000D03*
X2160000Y5040000D03*
X2350000Y4800000D03*
X2160000Y5340000D03*
X2300000Y6500000D03*
X2160000Y7040000D03*
Y6740000D03*
X2400000Y7660000D03*
X2150000Y7900000D03*
X2200000Y9800000D03*
X2800000Y200000D03*
Y600000D03*
X2870000Y970000D03*
X2750000Y1070000D03*
Y1230000D03*
X2860000Y1340000D03*
Y1230000D03*
X2750000Y1340000D03*
X2860000Y1450000D03*
X2750000D03*
X2660000Y2050000D03*
X2860000D03*
X2870000Y1925000D03*
X2660000Y2450000D03*
X2840000D03*
X2640000Y2330000D03*
Y2210000D03*
X2880000Y2580000D03*
X2640000Y3160000D03*
X2880000Y3430000D03*
X2660000Y3750000D03*
X2860000D03*
X2640000Y4030000D03*
Y3910000D03*
X2880000Y4280000D03*
X2660000Y4150000D03*
X2840000D03*
X2880000Y5130000D03*
X2750000Y5000000D03*
X2660000Y5450000D03*
X2860000D03*
X2660000Y5850000D03*
X2840000D03*
X2640000Y5610000D03*
Y5730000D03*
X2880000Y5980000D03*
X2700000Y6650000D03*
X2880000Y6830000D03*
X2660000Y7150000D03*
X2860000D03*
X2640000Y7430000D03*
Y7310000D03*
X2840000Y7550000D03*
X2660000D03*
X2880000Y7680000D03*
X2600000Y8000000D03*
X2800000Y8400000D03*
X3200000Y600000D03*
X3240000Y960000D03*
X3145000Y1195000D03*
X2970000Y1340000D03*
Y1230000D03*
X3187500Y1055000D03*
X2970000Y1450000D03*
X2990000Y1930000D03*
X3110000D03*
X3200000Y2000000D03*
X3000000Y9800000D03*
X3600000Y200000D03*
Y2000000D03*
X3326550Y2226900D03*
Y3076900D03*
Y3926900D03*
Y4776900D03*
Y5626900D03*
Y6476900D03*
Y7326900D03*
X3280000Y8230000D03*
X3400000Y9000000D03*
X3970000Y100000D03*
Y530000D03*
X3860000Y970000D03*
X3920000Y1195000D03*
X3950000Y1830000D03*
X3750000Y1780000D03*
X4000000Y2200000D03*
X3870000Y2670000D03*
Y2930000D03*
Y3520000D03*
Y3780000D03*
Y4370000D03*
Y4630000D03*
Y5480000D03*
Y5220000D03*
Y6070000D03*
Y6330000D03*
Y6920000D03*
Y7180000D03*
Y7770000D03*
Y8030000D03*
X3800000Y8400000D03*
Y9800000D03*
X4400000Y100000D03*
Y530000D03*
X4200000Y800000D03*
X4090000Y1070000D03*
X4400000Y1200000D03*
X4030000Y1640000D03*
X4400000Y2000000D03*
X4320000Y2450000D03*
X4330000Y2670000D03*
Y2930000D03*
Y3520000D03*
X4320000Y3300000D03*
X4330000Y3780000D03*
Y4370000D03*
X4320000Y4150000D03*
X4330000Y4630000D03*
X4320000Y5000000D03*
X4330000Y5480000D03*
Y5220000D03*
X4280000Y5850000D03*
X4330000Y6070000D03*
Y6330000D03*
Y6920000D03*
X4280000Y6700000D03*
X4330000Y7180000D03*
Y7770000D03*
Y8030000D03*
X4400000Y8400000D03*
G54D12*
X1615000Y8960000D03*
X1869000D03*
X2123000D03*
X2377000D03*
X2631000D03*
X4100000Y8509000D03*
Y8763000D03*
Y9017000D03*
G54D13*
X2250000Y770000D03*
G54D14*
Y1370000D03*
G54D15*
X2885000Y8960000D03*
X4100000Y9271000D03*
G54D16*
X3230000Y2200000D03*
X3180000Y2260000D03*
X3170000Y2320000D03*
X3070000D03*
X3000000D03*
X2960000Y2380000D03*
Y2445000D03*
X3170000Y2570000D03*
X3180000Y2640000D03*
X3230000Y2780000D03*
Y3050000D03*
X3180000Y3110000D03*
X3170000Y3180000D03*
X3070000Y3170000D03*
X3000000D03*
X2960000Y3230000D03*
X3180000Y2980000D03*
X3010000Y2930000D03*
X2940000D03*
X2910000Y3080000D03*
X3070000Y3090000D03*
X2990000Y3080000D03*
X3170000Y3420000D03*
X2960000Y3300000D03*
X3180000Y3490000D03*
X3230000Y3900000D03*
X3180000Y3960000D03*
Y3830000D03*
X3010000Y3780000D03*
X2940000D03*
X3230000Y3630000D03*
X2910000Y3930000D03*
X3070000Y3940000D03*
X2990000Y3930000D03*
X3170000Y4270000D03*
Y4030000D03*
X3070000Y4020000D03*
X3000000D03*
X2960000Y4080000D03*
Y4150000D03*
X3180000Y4340000D03*
X3230000Y4750000D03*
X3180000Y4680000D03*
X3010000Y4630000D03*
X2940000D03*
X3230000Y4480000D03*
X2960000Y5000000D03*
Y4930000D03*
X3000000Y4870000D03*
X3070000D03*
X3170000Y4880000D03*
Y5120000D03*
X3180000Y4810000D03*
X2910000Y4780000D03*
X3070000Y4790000D03*
X2990000Y4780000D03*
X2940000Y5480000D03*
X3010000D03*
X3230000Y5330000D03*
X3180000Y5190000D03*
X3230000Y5600000D03*
X3180000Y5660000D03*
X3170000Y5730000D03*
X3070000Y5720000D03*
X3000000D03*
X2960000Y5780000D03*
Y5850000D03*
X3180000Y5530000D03*
X2990000Y5630000D03*
X3070000Y5640000D03*
X2910000Y5630000D03*
X3170000Y5970000D03*
X3180000Y6040000D03*
X3230000Y6100000D03*
X2960000Y6630000D03*
X3000000Y6570000D03*
X3070000D03*
X3170000Y6580000D03*
X3180000Y6510000D03*
X3230000Y6450000D03*
X3180000Y6380000D03*
X3010000Y6330000D03*
X2940000D03*
X2910000Y6480000D03*
X3070000Y6490000D03*
X2990000Y6480000D03*
X2960000Y6700000D03*
X3170000Y6820000D03*
X3230000Y6985000D03*
X3180000Y6890000D03*
X3230000Y7300000D03*
X2940000Y7180000D03*
X3010000D03*
X3180000Y7230000D03*
Y7360000D03*
X3000000Y7330000D03*
X3080000Y7340000D03*
X2920000Y7330000D03*
X3170000Y7430000D03*
Y7670000D03*
X3070000Y7420000D03*
X3000000D03*
X2960000Y7480000D03*
Y7550000D03*
X3180000Y7740000D03*
X3230000Y7800000D03*
X3010000Y8030000D03*
X3180000Y8080000D03*
X2940000Y8030000D03*
X2920000Y8180000D03*
X3000000D03*
X3080000Y8190000D03*
X3350000Y2140000D03*
X3480000Y2200000D03*
X3610000D03*
X3350000Y2780000D03*
X3480000D03*
X3610000D03*
X3350000Y2990000D03*
X3480000Y3050000D03*
X3610000D03*
X3350000Y3840000D03*
X3480000Y3900000D03*
X3610000D03*
X3350000Y3630000D03*
X3480000D03*
X3610000D03*
Y4750000D03*
X3480000D03*
X3350000Y4690000D03*
Y4480000D03*
X3480000D03*
X3610000D03*
Y5330000D03*
X3480000D03*
X3350000D03*
Y5540000D03*
X3480000Y5600000D03*
X3610000D03*
Y6100000D03*
X3480000D03*
X3350000D03*
X3610000Y6450000D03*
X3480000D03*
X3350000Y6380000D03*
Y6985000D03*
X3610000D03*
X3480000D03*
X3320000Y7230000D03*
X3350000Y7800000D03*
X3740000Y2190000D03*
X3790000Y2290000D03*
Y2370000D03*
X3710000Y2270000D03*
Y2330000D03*
Y2390000D03*
X3790000Y2530000D03*
X3740000Y2780000D03*
X3790000Y2690000D03*
Y2610000D03*
X3710000Y2690000D03*
Y2570000D03*
Y2510000D03*
Y2630000D03*
X3740000Y3040000D03*
X3790000Y3140000D03*
Y3220000D03*
X3710000Y3120000D03*
Y3180000D03*
Y3240000D03*
X3790000Y3380000D03*
Y3540000D03*
Y3460000D03*
X3710000Y3540000D03*
Y3420000D03*
Y3360000D03*
Y3480000D03*
X3740000Y3890000D03*
X3790000Y3990000D03*
X3740000Y3630000D03*
X3710000Y3970000D03*
X3790000Y4070000D03*
Y4230000D03*
Y4310000D03*
X3710000Y4270000D03*
Y4210000D03*
Y4030000D03*
Y4090000D03*
Y4330000D03*
X3740000Y4740000D03*
Y4480000D03*
X3790000Y4390000D03*
X3710000D03*
X3790000Y5080000D03*
Y4920000D03*
Y4840000D03*
X3710000Y4820000D03*
Y4940000D03*
Y4880000D03*
Y5060000D03*
Y5120000D03*
X3790000Y5160000D03*
Y5240000D03*
X3740000Y5330000D03*
X3710000Y5240000D03*
Y5180000D03*
X3740000Y5590000D03*
X3790000Y5690000D03*
Y5770000D03*
X3710000Y5670000D03*
Y5730000D03*
Y5790000D03*
X3790000Y6010000D03*
Y5930000D03*
X3740000Y6110000D03*
X3710000Y6030000D03*
Y5970000D03*
Y5910000D03*
X3790000Y6620000D03*
Y6540000D03*
X3740000Y6440000D03*
X3710000Y6520000D03*
Y6640000D03*
Y6580000D03*
X3790000Y6780000D03*
Y6860000D03*
X3740000Y6995000D03*
X3710000Y6880000D03*
Y6760000D03*
Y6820000D03*
X3790000Y7390000D03*
X3740000Y7290000D03*
X3625000Y7300000D03*
X3710000Y7370000D03*
X3790000Y7470000D03*
Y7630000D03*
Y7710000D03*
X3710000Y7430000D03*
Y7490000D03*
Y7610000D03*
Y7730000D03*
Y7670000D03*
X3740000Y7810000D03*
X3620000Y7800000D03*
G54D17*
X3170000Y2425000D03*
Y2475000D03*
X3075000Y2450000D03*
X3050000Y2505000D03*
X2990000Y2510000D03*
X3105000D03*
X3030000Y2810000D03*
X2985000Y2860000D03*
X3030000D03*
X3170000Y3275000D03*
Y3325000D03*
X3075000Y3300000D03*
X3050000Y3355000D03*
X2995000Y3360000D03*
X3105000D03*
X3030000Y3660000D03*
X2985000Y3710000D03*
X3030000D03*
X3075000Y4150000D03*
X3170000Y4125000D03*
Y4175000D03*
X3050000Y4205000D03*
X2995000Y4210000D03*
X3105000D03*
X3030000Y4560000D03*
X2985000D03*
X3030000Y4510000D03*
X3075000Y5000000D03*
X3170000Y5025000D03*
Y4975000D03*
X3105000Y5060000D03*
X2995000D03*
X3050000Y5055000D03*
X3030000Y5360000D03*
Y5410000D03*
X2985000D03*
X3170000Y5825000D03*
Y5875000D03*
X3075000Y5850000D03*
X3050000Y5905000D03*
X2995000Y5910000D03*
X3105000D03*
X3030000Y6210000D03*
X2985000Y6260000D03*
X3030000D03*
X3075000Y6700000D03*
X3170000Y6725000D03*
Y6675000D03*
X3105000Y6760000D03*
X2995000D03*
X3050000Y6755000D03*
X3030000Y7060000D03*
Y7110000D03*
X2985000D03*
X3075000Y7550000D03*
X3170000Y7575000D03*
Y7525000D03*
X3105000Y7610000D03*
X2995000D03*
X3050000Y7605000D03*
X3030000Y7910000D03*
Y7960000D03*
X2985000D03*
G54D18*
X3500000Y7180000D03*
Y7920000D03*
G54D19*
G01X190000Y4820000D02*
X250000Y4880000D01*
X333140D01*
X883140Y5430000D01*
X1299990D01*
X1510000Y5640010D01*
Y7351860D01*
X1400930Y7460930D01*
G01X140000Y4930000D02*
Y5053140D01*
X230000Y5143140D01*
Y5459710D01*
X400290Y5630000D01*
X566860D01*
X640000Y5703140D01*
Y6400290D01*
X520000Y6520290D01*
Y6879710D01*
X640000Y6999710D01*
Y8313140D01*
X650000Y8323140D01*
Y8330000D01*
X790140Y8470140D01*
Y8519860D01*
G01X550000Y4590000D02*
Y5040290D01*
X899710Y5390000D01*
X1316860D01*
X1550000Y5623140D01*
Y7425000D01*
X1375000Y7600000D01*
G01X220000Y5020000D02*
Y5021010D01*
X270000Y5071010D01*
Y5443140D01*
X416860Y5590000D01*
X583430D01*
X680000Y5686570D01*
Y6416860D01*
X560000Y6536860D01*
Y6863140D01*
X680000Y6983140D01*
Y8296570D01*
X913430Y8530000D01*
Y8586570D01*
G01X350000Y5220000D02*
Y5296860D01*
X530000Y5476860D01*
Y5480000D01*
X720000Y5670000D01*
Y8280000D01*
X1021470Y8581470D01*
Y8634600D01*
G01X680000Y5510000D02*
X760000Y5590000D01*
Y8259990D01*
X1180010Y8680000D01*
X1360000D01*
G01X1210000Y5570000D02*
X800000Y5980000D01*
Y6646860D01*
X930000Y6776860D01*
Y6843140D01*
X800000Y6973140D01*
Y8240000D01*
X1150000Y8590000D01*
X1250000D01*
X1300000Y8540000D01*
G01X1348420Y5591580D02*
X1290000Y5650000D01*
X1190000D01*
X840000Y6000000D01*
Y6630290D01*
X970000Y6760290D01*
Y6859710D01*
X840000Y6989710D01*
Y8223430D01*
X1126570Y8510000D01*
X1190000D01*
G01X1460000Y7660000D02*
X1590000Y7530000D01*
Y5129710D01*
X1510000Y5049710D01*
Y4950290D01*
X1530000Y4930290D01*
Y4640000D01*
X1390000Y4500000D01*
X1310000D01*
G01X1540000Y7730000D02*
X1630000Y7640000D01*
Y5113140D01*
X1550000Y5033140D01*
Y4966860D01*
X1670000Y4846860D01*
Y2623430D01*
X1950000Y2343430D01*
Y2226860D01*
X2020000Y2156860D01*
Y1670000D01*
X1960000Y1610000D01*
G01X1660000Y8450000D02*
X1920000Y8190000D01*
Y7913430D01*
X1710000Y7703430D01*
Y2640000D01*
X2030000Y2320000D01*
Y2260000D01*
G01X1630000Y5000000D02*
X1670000Y5040000D01*
Y7720000D01*
X1880000Y7930000D01*
Y8110000D01*
X1780000Y8210000D01*
G01X2009980Y770000D02*
X2250000D01*
G01X2870000Y1925000D02*
X2544990D01*
X1790000Y2679990D01*
Y7670010D01*
X2000000Y7880010D01*
Y8066860D01*
X2080000Y8146860D01*
Y8220000D01*
X1820000Y8480000D01*
G01X3187500Y1055000D02*
X2878140D01*
X2783140Y1150000D01*
X2700000D01*
X2620000Y1230000D01*
Y1793420D01*
X1750000Y2663420D01*
Y7686860D01*
X1960000Y7896860D01*
Y8140000D01*
X2000000Y8180000D01*
G01X2250000Y629980D02*
Y770000D01*
G01D02*
Y910020D01*
G01Y770000D02*
X2490020D01*
G01X2885000Y8819980D02*
Y8960000D01*
G01D02*
Y9100020D01*
G01Y8960000D02*
X3025020D01*
G01X3959980Y8763000D02*
X4100000D01*
G01D02*
X4240020D01*
M02*
