G04 ================== begin FILE IDENTIFICATION RECORD ==================*
G04 Layout Name:  d:/nbraam/projects/karlendean/mpmt_flash/hardware/watermon3d.brd*
G04 Film Name:    COPPER_PLANE1*
G04 File Format:  Gerber RS274X*
G04 File Origin:  Cadence Allegro 17.4-S013*
G04 Origin Date:  Mon Aug 14 10:05:56 2023*
G04 *
G04 Layer:  VIA CLASS/PLANE 1*
G04 Layer:  PIN/PLANE 1*
G04 Layer:  ETCH/PLANE 1*
G04 *
G04 Offset:    (0.0000 0.0000)*
G04 Mirror:    No*
G04 Mode:      Positive*
G04 Rotation:  0*
G04 FullContactRelief:  No*
G04 UndefLineWidth:     0.0000*
G04 ================== end FILE IDENTIFICATION RECORD ====================*
%FSLAX55Y55*MOMM*%
%IR0*IPPOS*OFA0.00000B0.00000*MIA0B0*SFA1.00000B1.00000*%
%ADD17C,.3*%
%ADD16C,.4*%
%ADD11C,.6*%
%ADD14O,4.2X1.7*%
%ADD13O,3.7X1.7*%
%ADD10C,3.*%
%ADD12C,1.7*%
%ADD15R,1.7X1.7*%
%ADD18C,2.565*%
%ADD19C,.2*%
%ADD20C,.25*%
%ADD21C,1.0004*%
%ADD22C,2.1004*%
%ADD24C,3.4004*%
%ADD23C,2.7004*%
%ADD25R,2.8504X2.0504*%
G75*
%LPD*%
G75*
G36*
G01X40010Y40010D02*
Y9959990D01*
X4459990D01*
Y40010D01*
X40010D01*
G37*
%LPC*%
G75*
G36*
G01X3994980Y9186000D02*
Y9356000D01*
G02X4015000Y9376020I20020J0D01*
G01X4185000D01*
G02X4205020Y9356000I0J-20020D01*
G01Y9186000D01*
G02X4185000Y9165980I-20020J0D01*
G01X4015000D01*
G02X3994980Y9186000I0J20020D01*
G37*
G36*
G01X2749980Y8875000D02*
Y9045000D01*
G02X2800000Y9095020I50020J0D01*
G01X2970000D01*
G02X3020020Y9045000I0J-50020D01*
G01Y8875000D01*
G02X2970000Y8824980I-50020J0D01*
G01X2800000D01*
G02X2749980Y8875000I0J50020D01*
G37*
G36*
G01X2125000Y1475020D02*
X2375000D01*
G02Y1264980I0J-105020D01*
G01X2125000D01*
G02Y1475020I0J105020D01*
G37*
G36*
G01X2150000Y905020D02*
X2350000D01*
G02Y634980I0J-135020D01*
G01X2150000D01*
G02Y905020I0J135020D01*
G37*
G36*
G01X3039980Y2469980D02*
X2949980D01*
Y2900020D01*
X3065020D01*
Y2807960D01*
X3150020Y2717960D01*
Y2542470D01*
G03X3167090Y2535400I10000J3D01*
G01X3239980Y2608290D01*
Y2750020D01*
X3760020D01*
Y2229980D01*
X3376710D01*
X3376540Y2225150D01*
G02X3276560I-49990J1751D01*
G01X3276390Y2229980D01*
X3239980D01*
Y2291710D01*
X3126710Y2404980D01*
X3039980D01*
Y2469980D01*
G37*
G36*
G01Y3319980D02*
X2949980D01*
Y3750020D01*
X3065020D01*
Y3657960D01*
X3150020Y3567960D01*
Y3392470D01*
G03X3167090Y3385400I10000J3D01*
G01X3239980Y3458290D01*
Y3600020D01*
X3760020D01*
Y3079980D01*
X3376710D01*
X3376540Y3075150D01*
G02X3276560I-49990J1751D01*
G01X3276390Y3079980D01*
X3239980D01*
Y3141710D01*
X3126710Y3254980D01*
X3039980D01*
Y3319980D01*
G37*
G36*
G01Y4169980D02*
X2949980D01*
Y4600020D01*
X3065020D01*
Y4507960D01*
X3150020Y4417960D01*
Y4242470D01*
G03X3167090Y4235400I10000J3D01*
G01X3239980Y4308290D01*
Y4450020D01*
X3760020D01*
Y3929980D01*
X3376710D01*
X3376540Y3925150D01*
G02X3276560I-49990J1751D01*
G01X3276390Y3929980D01*
X3239980D01*
Y3991710D01*
X3126710Y4104980D01*
X3039980D01*
Y4169980D01*
G37*
G36*
G01X1408330Y4652330D02*
G03X1391670I-8330J-5532D01*
G02X1350000Y4629980I-41670J27670D01*
G02Y4730020I0J50020D01*
G02X1391670Y4707670I0J-50020D01*
G03X1408330I8330J5532D01*
G02X1450000Y4730020I41670J-27670D01*
G02Y4629980I0J-50020D01*
G02X1408330Y4652330I0J50020D01*
G37*
G36*
G01X606120Y5283200D02*
G03X591130Y5281530I-6768J-7360D01*
G02X550000Y5259980I-41130J28475D01*
G02Y5360020I0J50020D01*
G02X583880Y5346800I0J-50024D01*
G03X598870Y5348470I6768J7360D01*
G02X640000Y5370020I41130J-28475D01*
G02Y5269980I0J-50020D01*
G02X606120Y5283200I0J50024D01*
G37*
G36*
G01X1412500Y5286900D02*
G03X1397500I-7500J-6616D01*
G02X1360000Y5269980I-37500J33096D01*
G02Y5370020I0J50020D01*
G02X1397500Y5353100I0J-50016D01*
G03X1412500I7500J6616D01*
G02X1450000Y5370020I37500J-33096D01*
G02Y5269980I0J-50020D01*
G02X1412500Y5286900I0J50016D01*
G37*
G36*
G01X3039980Y5019980D02*
X2949980D01*
Y5450020D01*
X3065020D01*
Y5357960D01*
X3150020Y5267960D01*
Y5092470D01*
G03X3167090Y5085400I10000J3D01*
G01X3239980Y5158290D01*
Y5300020D01*
X3760020D01*
Y4779980D01*
X3376710D01*
X3376540Y4775150D01*
G02X3276560I-49990J1751D01*
G01X3276390Y4779980D01*
X3239980D01*
Y4841710D01*
X3126710Y4954980D01*
X3039980D01*
Y5019980D01*
G37*
G36*
G01Y5869980D02*
X2949980D01*
Y6300020D01*
X3065020D01*
Y6207960D01*
X3150020Y6117960D01*
Y5942470D01*
G03X3167090Y5935400I10000J3D01*
G01X3239980Y6008290D01*
Y6070020D01*
X3760020D01*
Y5629980D01*
X3376710D01*
X3376540Y5625150D01*
G02X3276560I-49990J1751D01*
G01X3276390Y5629980D01*
X3239980D01*
Y5691710D01*
X3126710Y5804980D01*
X3039980D01*
Y5869980D01*
G37*
G36*
G01X2968000Y8204030D02*
G02X3000000Y8220020I32000J-24025D01*
G02X3029060Y8207510I0J-40007D01*
G03X3045060Y8209510I7266J6873D01*
G02X3080000Y8230020I34940J-19506D01*
G02Y8149980I0J-40020D01*
G02X3050940Y8162490I0J40007D01*
G03X3034940Y8160490I-7266J-6873D01*
G02X3000000Y8139980I-34940J19506D01*
G02X2968000Y8155970I0J40015D01*
G03X2952000I-8000J-6003D01*
G02X2920000Y8139980I-32000J24025D01*
G02Y8220020I0J40020D01*
G02X2952000Y8204030I0J-40015D01*
G03X2968000I8000J6003D01*
G37*
G36*
G01X1491360Y7718320D02*
G02X1489980Y7730000I48641J11669D01*
G02X1540000Y7679980I50020J0D01*
G02X1521970Y7683340I-6J50021D01*
G03X1508640Y7671680I-3609J-9324D01*
G02X1510020Y7660000I-48641J-11669D01*
G02X1460000Y7609980I-50020J0D01*
G02X1438970Y7614620I9J50018D01*
G03X1424810Y7604620I-4203J-9073D01*
G02X1425020Y7600000I-49812J-4579D01*
G02X1375000Y7650020I-50020J0D01*
G02X1396030Y7645380I-9J-50018D01*
G03X1410190Y7655380I4203J9073D01*
G02X1409980Y7660000I49812J4579D01*
G02X1460000Y7710020I50020J0D01*
G02X1478030Y7706660I6J-50021D01*
G03X1491360Y7718320I3609J9324D01*
G37*
G36*
G01X2968000Y7354030D02*
G02X3000000Y7370020I32000J-24025D01*
G02X3029060Y7357510I0J-40007D01*
G03X3045060Y7359510I7266J6873D01*
G02X3080000Y7380020I34940J-19506D01*
G02Y7299980I0J-40020D01*
G02X3050940Y7312490I0J40007D01*
G03X3034940Y7310490I-7266J-6873D01*
G02X3000000Y7289980I-34940J19506D01*
G02X2968000Y7305970I0J40015D01*
G03X2952000I-8000J-6003D01*
G02X2920000Y7289980I-32000J24025D01*
G02Y7370020I0J40020D01*
G02X2952000Y7354030I0J-40015D01*
G03X2968000I8000J6003D01*
G37*
G36*
G01X2958000Y6504030D02*
G02X2990000Y6520020I32000J-24025D01*
G02X3019060Y6507510I0J-40007D01*
G03X3035060Y6509510I7266J6873D01*
G02X3070000Y6530020I34940J-19506D01*
G02Y6449980I0J-40020D01*
G02X3040940Y6462490I0J40007D01*
G03X3024940Y6460490I-7266J-6873D01*
G02X2990000Y6439980I-34940J19506D01*
G02X2958000Y6455970I0J40015D01*
G03X2942000I-8000J-6003D01*
G02X2910000Y6439980I-32000J24025D01*
G02Y6520020I0J40020D01*
G02X2942000Y6504030I0J-40015D01*
G03X2958000I8000J6003D01*
G37*
G36*
G01Y5654030D02*
G02X2990000Y5670020I32000J-24025D01*
G02X3019060Y5657510I0J-40007D01*
G03X3035060Y5659510I7266J6873D01*
G02X3070000Y5680020I34940J-19506D01*
G02Y5599980I0J-40020D01*
G02X3040940Y5612490I0J40007D01*
G03X3024940Y5610490I-7266J-6873D01*
G02X2990000Y5589980I-34940J19506D01*
G02X2958000Y5605970I0J40015D01*
G03X2942000I-8000J-6003D01*
G02X2910000Y5589980I-32000J24025D01*
G02Y5670020I0J40020D01*
G02X2942000Y5654030I0J-40015D01*
G03X2958000I8000J6003D01*
G37*
G36*
G01Y4804030D02*
G02X2990000Y4820020I32000J-24025D01*
G02X3019060Y4807510I0J-40007D01*
G03X3035060Y4809510I7266J6873D01*
G02X3070000Y4830020I34940J-19506D01*
G02Y4749980I0J-40020D01*
G02X3040940Y4762490I0J40007D01*
G03X3024940Y4760490I-7266J-6873D01*
G02X2990000Y4739980I-34940J19506D01*
G02X2958000Y4755970I0J40015D01*
G03X2942000I-8000J-6003D01*
G02X2910000Y4739980I-32000J24025D01*
G02Y4820020I0J40020D01*
G02X2942000Y4804030I0J-40015D01*
G03X2958000I8000J6003D01*
G37*
G36*
G01Y3954030D02*
G02X2990000Y3970020I32000J-24025D01*
G02X3019060Y3957510I0J-40007D01*
G03X3035060Y3959510I7266J6873D01*
G02X3070000Y3980020I34940J-19506D01*
G02Y3899980I0J-40020D01*
G02X3040940Y3912490I0J40007D01*
G03X3024940Y3910490I-7266J-6873D01*
G02X2990000Y3889980I-34940J19506D01*
G02X2958000Y3905970I0J40015D01*
G03X2942000I-8000J-6003D01*
G02X2910000Y3889980I-32000J24025D01*
G02Y3970020I0J40020D01*
G02X2942000Y3954030I0J-40015D01*
G03X2958000I8000J6003D01*
G37*
G36*
G01Y3104030D02*
G02X2990000Y3120020I32000J-24025D01*
G02X3019060Y3107510I0J-40007D01*
G03X3035060Y3109510I7266J6873D01*
G02X3070000Y3130020I34940J-19506D01*
G02Y3049980I0J-40020D01*
G02X3040940Y3062490I0J40007D01*
G03X3024940Y3060490I-7266J-6873D01*
G02X2990000Y3039980I-34940J19506D01*
G02X2958000Y3055970I0J40015D01*
G03X2942000I-8000J-6003D01*
G02X2910000Y3039980I-32000J24025D01*
G02Y3120020I0J40020D01*
G02X2942000Y3104030I0J-40015D01*
G03X2958000I8000J6003D01*
G37*
G36*
G01X2905840Y1470030D02*
G03X2924160I9160J3998D01*
G02X2970000Y1500020I45840J-20038D01*
G02X3020020Y1450000I0J-50020D01*
G02X2990030Y1404160I-50028J0D01*
G03Y1385840I3998J-9160D01*
G02Y1294160I-20038J-45840D01*
G03Y1275840I3998J-9160D01*
G02X3020020Y1230000I-20038J-45840D01*
G02X2970000Y1179980I-50020J0D01*
G02X2924160Y1209970I0J50028D01*
G03X2905840I-9160J-3998D01*
G02X2814160I-45840J20038D01*
G03X2795840I-9160J-3998D01*
G02X2750000Y1179980I-45840J20038D01*
G02X2699980Y1230000I0J50020D01*
G02X2729970Y1275840I50028J0D01*
G03Y1294160I-3998J9160D01*
G02Y1385840I20038J45840D01*
G03Y1404160I-3998J9160D01*
G02X2699980Y1450000I20038J45840D01*
G02X2750000Y1500020I50020J0D01*
G02X2795840Y1470030I0J-50028D01*
G03X2814160I9160J3998D01*
G02X2905840I45840J-20038D01*
G37*
G36*
G01X695840Y1940030D02*
G03X714160I9160J3998D01*
G02X760000Y1970020I45840J-20038D01*
G02X810020Y1920000I0J-50020D01*
G02X787670Y1878330I-50020J0D01*
G03Y1861670I5532J-8330D01*
G02X810020Y1820000I-27670J-41670D01*
G02X760000Y1769980I-50020J0D01*
G02X714160Y1799970I0J50028D01*
G03X695840I-9160J-3998D01*
G02X650000Y1769980I-45840J20038D01*
G02X604160Y1799970I0J50028D01*
G03X585840I-9160J-3998D01*
G02X494160I-45840J20038D01*
G03X475840I-9160J-3998D01*
G02X430000Y1769980I-45840J20038D01*
G02X379980Y1820000I0J50020D01*
G02X402330Y1861670I50020J0D01*
G03Y1878330I-5532J8330D01*
G02X379980Y1920000I27670J41670D01*
G02X430000Y1970020I50020J0D01*
G02X475840Y1940030I0J-50028D01*
G03X494160I9160J3998D01*
G02X585840I45840J-20038D01*
G03X604160I9160J3998D01*
G02X650000Y1970020I45840J-20038D01*
G02X695840Y1940030I0J-50028D01*
G37*
G36*
G01X1835840Y2150030D02*
G03X1854160I9160J3998D01*
G02X1900000Y2180020I45840J-20038D01*
G02X1950020Y2130000I0J-50020D01*
G02X1920030Y2084160I-50028J0D01*
G03Y2065840I3998J-9160D01*
G02X1950020Y2020000I-20038J-45840D01*
G02X1900000Y1969980I-50020J0D01*
G02X1854160Y1999970I0J50028D01*
G03X1835840I-9160J-3998D01*
G02X1744160I-45840J20038D01*
G03X1725840I-9160J-3998D01*
G02X1634160I-45840J20038D01*
G03X1615840I-9160J-3998D01*
G02X1570000Y1969980I-45840J20038D01*
G02X1519980Y2020000I0J50020D01*
G02X1549970Y2065840I50028J0D01*
G03Y2084160I-3998J9160D01*
G02X1519980Y2130000I20038J45840D01*
G02X1570000Y2180020I50020J0D01*
G02X1615840Y2150030I0J-50028D01*
G03X1634160I9160J3998D01*
G02X1725840I45840J-20038D01*
G03X1744160I9160J3998D01*
G02X1835840I45840J-20038D01*
G37*
G36*
G01X635840Y2690030D02*
G03X654160I9160J3998D01*
G02X700000Y2720020I45840J-20038D01*
G02X750020Y2670000I0J-50020D01*
G02X720030Y2624160I-50028J0D01*
G03Y2605840I3998J-9160D01*
G02X750020Y2560000I-20038J-45840D01*
G02X700000Y2509980I-50020J0D01*
G02X654160Y2539970I0J50028D01*
G03X635840I-9160J-3998D01*
G02X544160I-45840J20038D01*
G03X525840I-9160J-3998D01*
G02X434160I-45840J20038D01*
G03X415840I-9160J-3998D01*
G02X370000Y2509980I-45840J20038D01*
G02X319980Y2560000I0J50020D01*
G02X349970Y2605840I50028J0D01*
G03Y2624160I-3998J9160D01*
G02X319980Y2670000I20038J45840D01*
G02X370000Y2720020I50020J0D01*
G02X415840Y2690030I0J-50028D01*
G03X434160I9160J3998D01*
G02X525840I45840J-20038D01*
G03X544160I9160J3998D01*
G02X635840I45840J-20038D01*
G37*
G36*
G01X3573860Y7770020D02*
X3760020D01*
Y7329980D01*
X3573860D01*
G03X3569190Y7311140I-1J-9999D01*
G02X3648270Y7180000I-69196J-131140D01*
G02X3351730I-148270J0D01*
G02X3430810Y7311140I148276J0D01*
G03X3426140Y7329980I-4669J8841D01*
G01X3376710D01*
X3376540Y7325150D01*
G02X3276560I-49990J1751D01*
G01X3276390Y7329980D01*
X3239980D01*
Y7391710D01*
X3126710Y7504980D01*
X3039980D01*
Y7569980D01*
X2949980D01*
Y8000020D01*
X3065020D01*
Y7907960D01*
X3150020Y7817960D01*
Y7642470D01*
G03X3167090Y7635400I10000J3D01*
G01X3239980Y7708290D01*
Y7770020D01*
X3426140D01*
G03X3430810Y7788860I1J9999D01*
G02X3351730Y7920000I69196J131140D01*
G02X3648270I148270J0D01*
G02X3569190Y7788860I-148276J0D01*
G03X3573860Y7770020I4669J-8841D01*
G37*
G36*
G01X3167090Y6785400D02*
X3239980Y6858290D01*
Y6955020D01*
X3760020D01*
Y6479980D01*
X3376710D01*
X3376540Y6475150D01*
G02X3276560I-49990J1751D01*
G01X3276390Y6479980D01*
X3239980D01*
Y6541710D01*
X3126710Y6654980D01*
X3039980D01*
Y6719980D01*
X2949980D01*
Y7150020D01*
X3065020D01*
Y7057960D01*
X3150020Y6967960D01*
Y6792470D01*
G03X3167090Y6785400I10000J3D01*
G37*
G54D21*
X2640000Y7430000D03*
Y7310000D03*
Y5610000D03*
Y5730000D03*
Y4030000D03*
Y2210000D03*
X850000Y6810000D03*
X2640000Y2330000D03*
Y3910000D03*
X2030000Y2260000D03*
X1190000Y8510000D03*
X1360000Y8680000D03*
X3187500Y1055000D03*
X952700Y8125000D03*
X870000Y3590000D03*
X1635000Y7970000D03*
X3280000Y8230000D03*
X880000Y3480000D03*
X4030000Y1640000D03*
X1080000Y6810000D03*
X1430000Y8430000D03*
X1630000Y5000000D03*
X2870000Y1925000D03*
X1780000Y8210000D03*
X2000000Y8180000D03*
X1960000Y1610000D03*
X1021470Y8634600D03*
X913430Y8586570D03*
X140000Y4930000D03*
X790140Y8519860D03*
X190000Y4820000D03*
X1348420Y5591580D03*
X350000Y5220000D03*
X680000Y5510000D03*
X305000Y4690000D03*
X1210000Y5570000D03*
X1660000Y8450000D03*
X1300000Y8540000D03*
X550000Y4590000D03*
X1400930Y7460930D03*
X1820000Y8480000D03*
X220000Y5020000D03*
X1310000Y4500000D03*
G54D22*
X2377000Y8960000D03*
X2123000D03*
X1869000D03*
X1615000D03*
X2631000D03*
X4100000Y8509000D03*
Y9017000D03*
G54D24*
X300000Y300000D03*
Y9700000D03*
X4200000Y300000D03*
Y9700000D03*
G54D23*
X4100000Y8763000D03*
G54D25*
X960000Y9820000D03*
%LPD*%
G75*
G36*
G01X3260000Y2730000D02*
X3740000D01*
Y2250000D01*
X3370920D01*
G03X3282180I-44370J-23106D01*
G01X3260000D01*
Y2300000D01*
X3135000Y2425000D01*
X3060000D01*
Y2470000D01*
X3130000D01*
X3260000Y2600000D01*
Y2730000D01*
G37*
G36*
G01X2970000Y2880000D02*
X3045000D01*
Y2800000D01*
X3130000Y2710000D01*
Y2571190D01*
G03X3129980Y2570000I39999J-1267D01*
G03X3130000Y2568810I40019J77D01*
G01Y2498310D01*
X3121710Y2490020D01*
X3039980D01*
Y2490000D01*
X2970000D01*
Y2880000D01*
G37*
G36*
G01X3260000Y3580000D02*
X3740000D01*
Y3100000D01*
X3370920D01*
G03X3282180I-44370J-23106D01*
G01X3260000D01*
Y3150000D01*
X3135000Y3275000D01*
X3060000D01*
Y3320000D01*
X3130000D01*
X3260000Y3450000D01*
Y3580000D01*
G37*
G36*
G01X2970000Y3730000D02*
X3045000D01*
Y3650000D01*
X3130000Y3560000D01*
Y3421190D01*
G03X3129980Y3420000I39999J-1267D01*
G03X3130000Y3418810I40019J77D01*
G01Y3348310D01*
X3121710Y3340020D01*
X3039980D01*
Y3340000D01*
X2970000D01*
Y3730000D01*
G37*
G36*
G01X3260000Y4430000D02*
X3740000D01*
Y3950000D01*
X3370920D01*
G03X3282180I-44370J-23106D01*
G01X3260000D01*
Y4000000D01*
X3135000Y4125000D01*
X3060000D01*
Y4170000D01*
X3130000D01*
X3260000Y4300000D01*
Y4430000D01*
G37*
G36*
G01X2970000Y4580000D02*
X3045000D01*
Y4500000D01*
X3130000Y4410000D01*
Y4271190D01*
G03X3129980Y4270000I39999J-1267D01*
G03X3130000Y4268810I40019J77D01*
G01Y4198310D01*
X3121710Y4190020D01*
X3039980D01*
Y4190000D01*
X2970000D01*
Y4580000D01*
G37*
G36*
G01X3260000Y5280000D02*
X3740000D01*
Y4800000D01*
X3370920D01*
G03X3282180I-44370J-23106D01*
G01X3260000D01*
Y4850000D01*
X3135000Y4975000D01*
X3060000D01*
Y5020000D01*
X3130000D01*
X3260000Y5150000D01*
Y5280000D01*
G37*
G36*
G01X2970000Y5430000D02*
X3045000D01*
Y5350000D01*
X3130000Y5260000D01*
Y5121190D01*
G03X3129980Y5120000I39999J-1267D01*
G03X3130000Y5118810I40019J77D01*
G01Y5048310D01*
X3121710Y5040020D01*
X3039980D01*
Y5040000D01*
X2970000D01*
Y5430000D01*
G37*
G36*
G01X3260000Y6050000D02*
X3740000D01*
Y5650000D01*
X3370920D01*
G03X3282180I-44370J-23106D01*
G01X3260000D01*
Y5700000D01*
X3135000Y5825000D01*
X3060000D01*
Y5870000D01*
X3130000D01*
X3260000Y6000000D01*
Y6050000D01*
G37*
G36*
G01X2970000Y6280000D02*
X3045000D01*
Y6200000D01*
X3130000Y6110000D01*
Y5971190D01*
G03X3129980Y5970000I39999J-1267D01*
G03X3130000Y5968810I40019J77D01*
G01Y5898310D01*
X3121710Y5890020D01*
X3039980D01*
Y5890000D01*
X2970000D01*
Y6280000D01*
G37*
G36*
G01X3260000Y6935000D02*
X3740000D01*
Y6500000D01*
X3370920D01*
G03X3282180I-44370J-23106D01*
G01X3260000D01*
Y6550000D01*
X3135000Y6675000D01*
X3060000D01*
Y6720000D01*
X3130000D01*
X3260000Y6850000D01*
Y6935000D01*
G37*
G36*
G01X2970000Y7130000D02*
X3045000D01*
Y7050000D01*
X3130000Y6960000D01*
Y6821190D01*
G03X3129980Y6820000I39999J-1267D01*
G03X3130000Y6818810I40019J77D01*
G01Y6748310D01*
X3121710Y6740020D01*
X3039980D01*
Y6740000D01*
X2970000D01*
Y7130000D01*
G37*
G36*
G01X3260000Y7750000D02*
X3740000D01*
Y7350000D01*
X3370920D01*
G03X3282180I-44370J-23106D01*
G01X3260000D01*
Y7400000D01*
X3135000Y7525000D01*
X3060000D01*
Y7570000D01*
X3130000D01*
X3260000Y7700000D01*
Y7750000D01*
G37*
G36*
G01X2970000Y7980000D02*
X3045000D01*
Y7900000D01*
X3130000Y7810000D01*
Y7671190D01*
G03X3129980Y7670000I39999J-1267D01*
G03X3130000Y7668810I40019J77D01*
G01Y7598310D01*
X3121710Y7590020D01*
X3039980D01*
Y7590000D01*
X2970000D01*
Y7980000D01*
G37*
G54D10*
X300000Y300000D03*
Y9700000D03*
X4200000Y300000D03*
Y9700000D03*
G54D20*
G01X866670Y9890000D02*
Y9750000D01*
X933330D01*
G01X988330Y9866670D02*
X998330Y9880660D01*
X1010000Y9887670D01*
X1023330Y9890000D01*
X1040000Y9885330D01*
X1051670Y9873670D01*
X1055000Y9859670D01*
X1053330Y9845660D01*
X1046670Y9834000D01*
X1013330Y9810670D01*
X998330Y9794330D01*
X988330Y9771000D01*
X985000Y9750000D01*
X1055000D01*
G54D11*
X100000Y100000D03*
Y530000D03*
X205000Y2202500D03*
X230000Y2320000D03*
X180000Y3170000D03*
Y3430000D03*
X200000Y4200000D03*
X190000Y4820000D03*
X220000Y5020000D03*
X140000Y4930000D03*
X200000Y5800000D03*
X180000Y6570000D03*
Y6830000D03*
X200000Y7800000D03*
Y8600000D03*
Y9400000D03*
X520000Y100000D03*
Y520000D03*
X270000Y1330000D03*
X620000Y1477500D03*
X430000Y1920000D03*
X540000D03*
Y1820000D03*
X430000D03*
X620000Y2300000D03*
X370000Y2560000D03*
X480000D03*
X590000D03*
Y2670000D03*
X480000D03*
X370000D03*
X400000Y4500000D03*
X305000Y4690000D03*
X550000Y4590000D03*
X300000Y4960000D03*
Y4800000D03*
X450000Y5510000D03*
X600000Y5430000D03*
X350000Y5220000D03*
X550000Y5310000D03*
X530000Y5720000D03*
X500000Y6100000D03*
X560000Y7900000D03*
Y8170000D03*
X600000Y9800000D03*
X1000000Y200000D03*
X755000Y1040000D03*
X890000Y1215000D03*
X970000Y1690000D03*
X855000Y1595000D03*
X650000Y1920000D03*
X760000D03*
Y1820000D03*
X650000D03*
X940000Y2295000D03*
X700000Y2560000D03*
Y2670000D03*
X640000Y3170000D03*
X770000Y3230000D03*
X640000Y3430000D03*
X870000Y3590000D03*
X880000Y3480000D03*
X770000Y3750000D03*
X800000Y4200000D03*
Y4780000D03*
X910000Y4490000D03*
X1000000Y5250000D03*
X680000Y5510000D03*
X640000Y5320000D03*
Y6570000D03*
Y6830000D03*
X920000Y7050000D03*
X850000Y6810000D03*
X952700Y8125000D03*
X790140Y8519860D03*
X913430Y8586570D03*
X800000Y9000000D03*
X1220000Y1930000D03*
X1160000Y2110000D03*
X1360000Y3390000D03*
Y3690000D03*
X1240000Y4390000D03*
X1190000Y4790000D03*
X1310000Y4500000D03*
X1350000Y4680000D03*
X1200000Y5250000D03*
X1360000Y5320000D03*
X1220000Y5800000D03*
X1210000Y5570000D03*
X1348420Y5591580D03*
X1100000Y6680000D03*
X1080000Y6810000D03*
X1015000Y7165000D03*
X1200000Y7600000D03*
X1375000D03*
X1300000Y8540000D03*
X1190000Y8510000D03*
X1360000Y8680000D03*
X1021470Y8634600D03*
X1400000Y800000D03*
X1560000Y1730000D03*
X1570000Y2020000D03*
X1680000D03*
Y2130000D03*
X1570000D03*
X1400000Y2600000D03*
X1550000Y3100000D03*
X1530000Y4050000D03*
X1550000Y4500000D03*
X1450000Y4680000D03*
X1630000Y5000000D03*
X1470000Y5420000D03*
X1450000Y5320000D03*
X1420000Y6020000D03*
X1430000Y6450000D03*
X1400000Y6780000D03*
X1460000Y7660000D03*
X1400930Y7460930D03*
X1540000Y7730000D03*
X1635000Y7970000D03*
X1690000Y7860000D03*
X1430000Y8430000D03*
X1660000Y8450000D03*
X1490000Y8720000D03*
X1400000Y9800000D03*
X2000000Y200000D03*
X1960000Y1610000D03*
X1790000Y2020000D03*
Y2130000D03*
X1900000D03*
Y2020000D03*
X2030000Y2260000D03*
X2080000Y2700000D03*
X2050000Y3140000D03*
X1980000Y3500000D03*
Y3970000D03*
X1970000Y4630000D03*
X1880000Y5860000D03*
X2070000Y6060000D03*
X1920000Y6500000D03*
X1950000Y6900000D03*
X1870000Y7440000D03*
X2000000Y8180000D03*
X1780000Y8210000D03*
X1820000Y8480000D03*
X2160000Y1640000D03*
Y1940000D03*
X2490000Y2880000D03*
X2160000Y3640000D03*
Y3340000D03*
X2150000Y4450000D03*
X2160000Y5040000D03*
X2350000Y4800000D03*
X2160000Y5340000D03*
X2300000Y6500000D03*
X2160000Y7040000D03*
Y6740000D03*
X2400000Y7660000D03*
X2150000Y7900000D03*
X2200000Y9800000D03*
X2800000Y200000D03*
Y600000D03*
X2870000Y970000D03*
X2750000Y1070000D03*
Y1230000D03*
X2860000Y1340000D03*
Y1230000D03*
X2750000Y1340000D03*
X2860000Y1450000D03*
X2750000D03*
X2660000Y2050000D03*
X2860000D03*
X2870000Y1925000D03*
X2660000Y2450000D03*
X2840000D03*
X2640000Y2330000D03*
Y2210000D03*
X2880000Y2580000D03*
X2640000Y3160000D03*
X2880000Y3430000D03*
X2660000Y3750000D03*
X2860000D03*
X2640000Y4030000D03*
Y3910000D03*
X2880000Y4280000D03*
X2660000Y4150000D03*
X2840000D03*
X2880000Y5130000D03*
X2750000Y5000000D03*
X2660000Y5450000D03*
X2860000D03*
X2660000Y5850000D03*
X2840000D03*
X2640000Y5610000D03*
Y5730000D03*
X2880000Y5980000D03*
X2700000Y6650000D03*
X2880000Y6830000D03*
X2660000Y7150000D03*
X2860000D03*
X2640000Y7430000D03*
Y7310000D03*
X2840000Y7550000D03*
X2660000D03*
X2880000Y7680000D03*
X2600000Y8000000D03*
X2800000Y8400000D03*
X3200000Y600000D03*
X3240000Y960000D03*
X3145000Y1195000D03*
X2970000Y1340000D03*
Y1230000D03*
X3187500Y1055000D03*
X2970000Y1450000D03*
X2990000Y1930000D03*
X3110000D03*
X3200000Y2000000D03*
X3000000Y9800000D03*
X3600000Y200000D03*
Y2000000D03*
X3326550Y2226900D03*
Y3076900D03*
Y3926900D03*
Y4776900D03*
Y5626900D03*
Y6476900D03*
Y7326900D03*
X3280000Y8230000D03*
X3400000Y9000000D03*
X3970000Y100000D03*
Y530000D03*
X3860000Y970000D03*
X3920000Y1195000D03*
X3950000Y1830000D03*
X3750000Y1780000D03*
X4000000Y2200000D03*
X3870000Y2670000D03*
Y2930000D03*
Y3520000D03*
Y3780000D03*
Y4370000D03*
Y4630000D03*
Y5480000D03*
Y5220000D03*
Y6070000D03*
Y6330000D03*
Y6920000D03*
Y7180000D03*
Y7770000D03*
Y8030000D03*
X3800000Y8400000D03*
Y9800000D03*
X4400000Y100000D03*
Y530000D03*
X4200000Y800000D03*
X4090000Y1070000D03*
X4400000Y1200000D03*
X4030000Y1640000D03*
X4400000Y2000000D03*
X4320000Y2450000D03*
X4330000Y2670000D03*
Y2930000D03*
Y3520000D03*
X4320000Y3300000D03*
X4330000Y3780000D03*
Y4370000D03*
X4320000Y4150000D03*
X4330000Y4630000D03*
X4320000Y5000000D03*
X4330000Y5480000D03*
Y5220000D03*
X4280000Y5850000D03*
X4330000Y6070000D03*
Y6330000D03*
Y6920000D03*
X4280000Y6700000D03*
X4330000Y7180000D03*
Y7770000D03*
Y8030000D03*
X4400000Y8400000D03*
G54D12*
X1615000Y8960000D03*
X1869000D03*
X2123000D03*
X2377000D03*
X2631000D03*
X4100000Y8509000D03*
Y8763000D03*
Y9017000D03*
G54D13*
X2250000Y770000D03*
G54D14*
Y1370000D03*
G54D15*
X2885000Y8960000D03*
X4100000Y9271000D03*
G54D16*
X3230000Y2200000D03*
X3180000Y2260000D03*
X3170000Y2320000D03*
X3070000D03*
X3000000D03*
X2960000Y2380000D03*
Y2445000D03*
X3170000Y2570000D03*
X3180000Y2640000D03*
X3230000Y2780000D03*
Y3050000D03*
X3180000Y3110000D03*
X3170000Y3180000D03*
X3070000Y3170000D03*
X3000000D03*
X2960000Y3230000D03*
X3180000Y2980000D03*
X3010000Y2930000D03*
X2940000D03*
X2910000Y3080000D03*
X3070000Y3090000D03*
X2990000Y3080000D03*
X3170000Y3420000D03*
X2960000Y3300000D03*
X3180000Y3490000D03*
X3230000Y3900000D03*
X3180000Y3960000D03*
Y3830000D03*
X3010000Y3780000D03*
X2940000D03*
X3230000Y3630000D03*
X2910000Y3930000D03*
X3070000Y3940000D03*
X2990000Y3930000D03*
X3170000Y4270000D03*
Y4030000D03*
X3070000Y4020000D03*
X3000000D03*
X2960000Y4080000D03*
Y4150000D03*
X3180000Y4340000D03*
X3230000Y4750000D03*
X3180000Y4680000D03*
X3010000Y4630000D03*
X2940000D03*
X3230000Y4480000D03*
X2960000Y5000000D03*
Y4930000D03*
X3000000Y4870000D03*
X3070000D03*
X3170000Y4880000D03*
Y5120000D03*
X3180000Y4810000D03*
X2910000Y4780000D03*
X3070000Y4790000D03*
X2990000Y4780000D03*
X2940000Y5480000D03*
X3010000D03*
X3230000Y5330000D03*
X3180000Y5190000D03*
X3230000Y5600000D03*
X3180000Y5660000D03*
X3170000Y5730000D03*
X3070000Y5720000D03*
X3000000D03*
X2960000Y5780000D03*
Y5850000D03*
X3180000Y5530000D03*
X2990000Y5630000D03*
X3070000Y5640000D03*
X2910000Y5630000D03*
X3170000Y5970000D03*
X3180000Y6040000D03*
X3230000Y6100000D03*
X2960000Y6630000D03*
X3000000Y6570000D03*
X3070000D03*
X3170000Y6580000D03*
X3180000Y6510000D03*
X3230000Y6450000D03*
X3180000Y6380000D03*
X3010000Y6330000D03*
X2940000D03*
X2910000Y6480000D03*
X3070000Y6490000D03*
X2990000Y6480000D03*
X2960000Y6700000D03*
X3170000Y6820000D03*
X3230000Y6985000D03*
X3180000Y6890000D03*
X3230000Y7300000D03*
X2940000Y7180000D03*
X3010000D03*
X3180000Y7230000D03*
Y7360000D03*
X3000000Y7330000D03*
X3080000Y7340000D03*
X2920000Y7330000D03*
X3170000Y7430000D03*
Y7670000D03*
X3070000Y7420000D03*
X3000000D03*
X2960000Y7480000D03*
Y7550000D03*
X3180000Y7740000D03*
X3230000Y7800000D03*
X3010000Y8030000D03*
X3180000Y8080000D03*
X2940000Y8030000D03*
X2920000Y8180000D03*
X3000000D03*
X3080000Y8190000D03*
X3350000Y2140000D03*
X3480000Y2200000D03*
X3610000D03*
X3350000Y2780000D03*
X3480000D03*
X3610000D03*
X3350000Y2990000D03*
X3480000Y3050000D03*
X3610000D03*
X3350000Y3840000D03*
X3480000Y3900000D03*
X3610000D03*
X3350000Y3630000D03*
X3480000D03*
X3610000D03*
Y4750000D03*
X3480000D03*
X3350000Y4690000D03*
Y4480000D03*
X3480000D03*
X3610000D03*
Y5330000D03*
X3480000D03*
X3350000D03*
Y5540000D03*
X3480000Y5600000D03*
X3610000D03*
Y6100000D03*
X3480000D03*
X3350000D03*
X3610000Y6450000D03*
X3480000D03*
X3350000Y6380000D03*
Y6985000D03*
X3610000D03*
X3480000D03*
X3320000Y7230000D03*
X3350000Y7800000D03*
X3740000Y2190000D03*
X3790000Y2290000D03*
Y2370000D03*
X3710000Y2270000D03*
Y2330000D03*
Y2390000D03*
X3790000Y2530000D03*
X3740000Y2780000D03*
X3790000Y2690000D03*
Y2610000D03*
X3710000Y2690000D03*
Y2570000D03*
Y2510000D03*
Y2630000D03*
X3740000Y3040000D03*
X3790000Y3140000D03*
Y3220000D03*
X3710000Y3120000D03*
Y3180000D03*
Y3240000D03*
X3790000Y3380000D03*
Y3540000D03*
Y3460000D03*
X3710000Y3540000D03*
Y3420000D03*
Y3360000D03*
Y3480000D03*
X3740000Y3890000D03*
X3790000Y3990000D03*
X3740000Y3630000D03*
X3710000Y3970000D03*
X3790000Y4070000D03*
Y4230000D03*
Y4310000D03*
X3710000Y4270000D03*
Y4210000D03*
Y4030000D03*
Y4090000D03*
Y4330000D03*
X3740000Y4740000D03*
Y4480000D03*
X3790000Y4390000D03*
X3710000D03*
X3790000Y5080000D03*
Y4920000D03*
Y4840000D03*
X3710000Y4820000D03*
Y4940000D03*
Y4880000D03*
Y5060000D03*
Y5120000D03*
X3790000Y5160000D03*
Y5240000D03*
X3740000Y5330000D03*
X3710000Y5240000D03*
Y5180000D03*
X3740000Y5590000D03*
X3790000Y5690000D03*
Y5770000D03*
X3710000Y5670000D03*
Y5730000D03*
Y5790000D03*
X3790000Y6010000D03*
Y5930000D03*
X3740000Y6110000D03*
X3710000Y6030000D03*
Y5970000D03*
Y5910000D03*
X3790000Y6620000D03*
Y6540000D03*
X3740000Y6440000D03*
X3710000Y6520000D03*
Y6640000D03*
Y6580000D03*
X3790000Y6780000D03*
Y6860000D03*
X3740000Y6995000D03*
X3710000Y6880000D03*
Y6760000D03*
Y6820000D03*
X3790000Y7390000D03*
X3740000Y7290000D03*
X3625000Y7300000D03*
X3710000Y7370000D03*
X3790000Y7470000D03*
Y7630000D03*
Y7710000D03*
X3710000Y7430000D03*
Y7490000D03*
Y7610000D03*
Y7730000D03*
Y7670000D03*
X3740000Y7810000D03*
X3620000Y7800000D03*
G54D17*
X3170000Y2425000D03*
Y2475000D03*
X3075000Y2450000D03*
X3050000Y2505000D03*
X2990000Y2510000D03*
X3105000D03*
X3030000Y2810000D03*
X2985000Y2860000D03*
X3030000D03*
X3170000Y3275000D03*
Y3325000D03*
X3075000Y3300000D03*
X3050000Y3355000D03*
X2995000Y3360000D03*
X3105000D03*
X3030000Y3660000D03*
X2985000Y3710000D03*
X3030000D03*
X3075000Y4150000D03*
X3170000Y4125000D03*
Y4175000D03*
X3050000Y4205000D03*
X2995000Y4210000D03*
X3105000D03*
X3030000Y4560000D03*
X2985000D03*
X3030000Y4510000D03*
X3075000Y5000000D03*
X3170000Y5025000D03*
Y4975000D03*
X3105000Y5060000D03*
X2995000D03*
X3050000Y5055000D03*
X3030000Y5360000D03*
Y5410000D03*
X2985000D03*
X3170000Y5825000D03*
Y5875000D03*
X3075000Y5850000D03*
X3050000Y5905000D03*
X2995000Y5910000D03*
X3105000D03*
X3030000Y6210000D03*
X2985000Y6260000D03*
X3030000D03*
X3075000Y6700000D03*
X3170000Y6725000D03*
Y6675000D03*
X3105000Y6760000D03*
X2995000D03*
X3050000Y6755000D03*
X3030000Y7060000D03*
Y7110000D03*
X2985000D03*
X3075000Y7550000D03*
X3170000Y7575000D03*
Y7525000D03*
X3105000Y7610000D03*
X2995000D03*
X3050000Y7605000D03*
X3030000Y7910000D03*
Y7960000D03*
X2985000D03*
G54D18*
X3500000Y7180000D03*
Y7920000D03*
G54D19*
G01X2009980Y770000D02*
X2250000D01*
G01Y629980D02*
Y770000D01*
G01D02*
Y910020D01*
G01Y770000D02*
X2490020D01*
G01X2885000Y8819980D02*
Y8960000D01*
G01D02*
Y9100020D01*
G01Y8960000D02*
X3025020D01*
G01X3959980Y8763000D02*
X4100000D01*
G01D02*
X4240020D01*
M02*
