G04 ================== begin FILE IDENTIFICATION RECORD ==================*
G04 Layout Name:  d:/nbraam/projects/karlendean/mpmt_flash/hardware/watermon3d.brd*
G04 Film Name:    SOLDERMASK_TOP*
G04 File Format:  Gerber RS274X*
G04 File Origin:  Cadence Allegro 17.4-S013*
G04 Origin Date:  Mon Aug 14 10:05:56 2023*
G04 *
G04 Layer:  VIA CLASS/SOLDERMASK_TOP*
G04 Layer:  PIN/SOLDERMASK_TOP*
G04 Layer:  PACKAGE GEOMETRY/SOLDERMASK_TOP*
G04 Layer:  BOARD GEOMETRY/SOLDERMASK_TOP*
G04 *
G04 Offset:    (0.0000 0.0000)*
G04 Mirror:    No*
G04 Mode:      Positive*
G04 Rotation:  0*
G04 FullContactRelief:  No*
G04 UndefLineWidth:     0.0000*
G04 ================== end FILE IDENTIFICATION RECORD ====================*
%FSLAX55Y55*MOMM*%
%IR0*IPPOS*OFA0.00000B0.00000*MIA0B0*SFA1.00000B1.00000*%
%ADD42R,1.1X.3*%
%ADD37R,.3X1.1*%
%ADD26R,2.X.5*%
%ADD19R,.7X2.1*%
%ADD13R,1.X.75*%
%ADD47R,.75X1.*%
%ADD45R,1.7X.5*%
%ADD24R,1.15X.7*%
%ADD11R,.7X1.15*%
%ADD41C,.23*%
%ADD38C,.19*%
%ADD16C,.99*%
%AMMACRO39*
21,1,.19,.25,0.0,0.0,179.742*
1,1,.19,.000563,.124999*
1,1,.19,-.000563,-.124999*%
%ADD39MACRO39*%
%ADD23R,3.X3.*%
%ADD12R,1.4X1.*%
%ADD20R,1.X1.4*%
%ADD43R,1.1X1.4*%
%ADD35R,1.2X1.5*%
%ADD15R,1.04X1.04*%
%ADD50R,1.04X1.04*%
%ADD49R,1.2X1.7*%
%ADD34O,4.3X1.8*%
%ADD27R,5.6X2.3*%
%ADD18R,1.8X2.6*%
%ADD33O,3.8X1.8*%
%ADD14R,.7X.6*%
%ADD10C,3.1*%
%ADD17R,.6X.7*%
%ADD46R,1.53X3.25*%
%ADD29R,.8X.35*%
%ADD30R,.35X.8*%
%ADD25R,.44X.36*%
%ADD32C,1.8*%
%ADD28R,.36X.44*%
%ADD21R,.4X.95*%
%ADD48R,1.85X2.61*%
%ADD40O,.57X.19*%
%ADD22R,.95X.4*%
%ADD31R,3.55X3.55*%
%ADD36R,1.8X1.8*%
%ADD44R,1.67X1.99*%
G75*
%LPD*%
G75*
G36*
G01X3117500Y2992500D02*
X3092500D01*
Y2967500D01*
X3117500D01*
Y2992500D01*
G37*
G36*
G01X3067500D02*
X3042500D01*
Y2967500D01*
X3067500D01*
Y2992500D01*
G37*
G36*
G01X3095000Y2945000D02*
X3065000D01*
Y2915000D01*
X3095000D01*
Y2945000D01*
G37*
G36*
G01Y3045000D02*
X3065000D01*
Y3015000D01*
X3095000D01*
Y3045000D01*
G37*
G36*
G01X3117500Y3842500D02*
X3092500D01*
Y3817500D01*
X3117500D01*
Y3842500D01*
G37*
G36*
G01X3067500D02*
X3042500D01*
Y3817500D01*
X3067500D01*
Y3842500D01*
G37*
G36*
G01X3095000Y3795000D02*
X3065000D01*
Y3765000D01*
X3095000D01*
Y3795000D01*
G37*
G36*
G01Y3895000D02*
X3065000D01*
Y3865000D01*
X3095000D01*
Y3895000D01*
G37*
G36*
G01X3117500Y4692500D02*
X3092500D01*
Y4667500D01*
X3117500D01*
Y4692500D01*
G37*
G36*
G01X3067500D02*
X3042500D01*
Y4667500D01*
X3067500D01*
Y4692500D01*
G37*
G36*
G01X3095000Y4645000D02*
X3065000D01*
Y4615000D01*
X3095000D01*
Y4645000D01*
G37*
G36*
G01Y4745000D02*
X3065000D01*
Y4715000D01*
X3095000D01*
Y4745000D01*
G37*
G36*
G01Y5495000D02*
X3065000D01*
Y5465000D01*
X3095000D01*
Y5495000D01*
G37*
G36*
G01X3117500Y5542500D02*
X3092500D01*
Y5517500D01*
X3117500D01*
Y5542500D01*
G37*
G36*
G01X3067500D02*
X3042500D01*
Y5517500D01*
X3067500D01*
Y5542500D01*
G37*
G36*
G01X3095000Y5595000D02*
X3065000D01*
Y5565000D01*
X3095000D01*
Y5595000D01*
G37*
G36*
G01X3117500Y6392500D02*
X3092500D01*
Y6367500D01*
X3117500D01*
Y6392500D01*
G37*
G36*
G01X3067500D02*
X3042500D01*
Y6367500D01*
X3067500D01*
Y6392500D01*
G37*
G36*
G01X3095000Y6345000D02*
X3065000D01*
Y6315000D01*
X3095000D01*
Y6345000D01*
G37*
G36*
G01Y6445000D02*
X3065000D01*
Y6415000D01*
X3095000D01*
Y6445000D01*
G37*
G36*
G01X3117500Y7242500D02*
X3092500D01*
Y7217500D01*
X3117500D01*
Y7242500D01*
G37*
G36*
G01X3067500D02*
X3042500D01*
Y7217500D01*
X3067500D01*
Y7242500D01*
G37*
G36*
G01X3095000Y7195000D02*
X3065000D01*
Y7165000D01*
X3095000D01*
Y7195000D01*
G37*
G36*
G01Y7295000D02*
X3065000D01*
Y7265000D01*
X3095000D01*
Y7295000D01*
G37*
G36*
G01X3117500Y8092500D02*
X3092500D01*
Y8067500D01*
X3117500D01*
Y8092500D01*
G37*
G36*
G01X3067500D02*
X3042500D01*
Y8067500D01*
X3067500D01*
Y8092500D01*
G37*
G36*
G01X3095000Y8045000D02*
X3065000D01*
Y8015000D01*
X3095000D01*
Y8045000D01*
G37*
G36*
G01Y8145000D02*
X3065000D01*
Y8115000D01*
X3095000D01*
Y8145000D01*
G37*
G54D10*
X300000Y300000D03*
Y9700000D03*
X4200000Y300000D03*
Y9700000D03*
G54D20*
X895000Y3810000D03*
X1255000Y2110000D03*
X1105000Y3810000D03*
X1225000Y7050000D03*
X1015000D03*
X1465000Y2110000D03*
X3145000Y1310000D03*
X3355000D03*
X3915000D03*
X3705000D03*
G54D11*
X525000Y1375000D03*
Y1645000D03*
Y2125000D03*
Y2395000D03*
X715000Y1375000D03*
X620000D03*
X715000Y1645000D03*
Y2125000D03*
X620000Y2395000D03*
X715000D03*
X1655000Y1615000D03*
X1560000D03*
X1465000D03*
Y1885000D03*
X1655000D03*
G54D21*
X950000Y4650000D03*
X900000D03*
X850000D03*
X800000D03*
X750000D03*
Y5350000D03*
X800000D03*
X850000D03*
X900000D03*
X950000D03*
X1250000Y4650000D03*
X1200000D03*
X1150000D03*
X1100000D03*
X1050000D03*
X1000000D03*
Y5350000D03*
X1050000D03*
X1100000D03*
X1150000D03*
X1200000D03*
X1250000D03*
G54D30*
X1325000Y7860000D03*
X1275000D03*
X1225000D03*
X1175000D03*
X1125000D03*
Y8340000D03*
X1175000D03*
X1225000D03*
X1275000D03*
X1325000D03*
X1475000Y7860000D03*
X1425000D03*
X1375000D03*
Y8340000D03*
X1425000D03*
X1475000D03*
G54D12*
X270000Y1425000D03*
Y1635000D03*
X970000Y1385000D03*
Y1595000D03*
X1220000Y1625000D03*
Y1835000D03*
X2870000Y865000D03*
Y1075000D03*
X3950000Y865000D03*
Y1075000D03*
G54D31*
X1300000Y8100000D03*
G54D22*
X650000Y4750000D03*
Y4800000D03*
Y4850000D03*
Y4900000D03*
Y4950000D03*
Y5000000D03*
Y5050000D03*
Y5100000D03*
Y5150000D03*
Y5200000D03*
Y5250000D03*
X1350000Y4750000D03*
Y5100000D03*
Y5050000D03*
Y5000000D03*
Y4950000D03*
Y4900000D03*
Y4850000D03*
Y4800000D03*
Y5250000D03*
Y5200000D03*
Y5150000D03*
G54D40*
X3050000Y2510000D03*
Y2550000D03*
Y3360000D03*
Y3400000D03*
Y4210000D03*
Y4250000D03*
Y5060000D03*
Y5100000D03*
Y5910000D03*
Y5950000D03*
Y6760000D03*
Y6800000D03*
Y7610000D03*
Y7650000D03*
G54D13*
X300000Y2057500D03*
Y2202500D03*
X450000Y5422500D03*
Y5277500D03*
X770000Y3317500D03*
Y3462500D03*
X1550000Y4587500D03*
Y4732500D03*
Y5412500D03*
Y5267500D03*
X2760000Y2047500D03*
Y2192500D03*
Y3892500D03*
Y3747500D03*
Y5447500D03*
Y5592500D03*
Y7292500D03*
Y7147500D03*
G54D32*
X1615000Y8960000D03*
X1869000D03*
X2123000D03*
X2377000D03*
X2631000D03*
X4100000Y8509000D03*
Y8763000D03*
Y9017000D03*
G54D14*
X310000Y2320000D03*
Y2420000D03*
X480000Y5070000D03*
Y5170000D03*
X940000Y2120000D03*
Y2220000D03*
X770000Y3580000D03*
Y3680000D03*
Y6700000D03*
Y6800000D03*
X1430000Y8510000D03*
Y8610000D03*
X1880000Y1610000D03*
Y1710000D03*
X2870000Y1750000D03*
Y1850000D03*
X2750000Y2350000D03*
Y2450000D03*
Y4050000D03*
Y4150000D03*
Y5750000D03*
Y5850000D03*
Y7450000D03*
Y7550000D03*
X3110000Y1640000D03*
Y1540000D03*
X2990000Y1640000D03*
Y1540000D03*
X3110000Y1750000D03*
Y1850000D03*
X2990000Y1750000D03*
Y1850000D03*
X3530000Y850000D03*
Y950000D03*
X3770000Y850000D03*
Y950000D03*
X3650000Y850000D03*
Y950000D03*
X3950000Y1640000D03*
Y1740000D03*
X3830000Y8920000D03*
Y9020000D03*
G54D50*
X3968000Y2668000D03*
Y2932000D03*
Y3518000D03*
Y3782000D03*
Y4368000D03*
Y4632000D03*
Y5482000D03*
Y5218000D03*
Y6068000D03*
Y6332000D03*
Y6918000D03*
Y7182000D03*
Y7768000D03*
Y8032000D03*
X4232000Y2668000D03*
Y2932000D03*
Y3518000D03*
Y3782000D03*
Y4368000D03*
Y4632000D03*
Y5482000D03*
Y5218000D03*
Y6068000D03*
Y6332000D03*
Y6918000D03*
Y7182000D03*
Y7768000D03*
Y8032000D03*
G54D23*
X1000000Y5000000D03*
G54D41*
X2990000Y2770000D03*
X3030000D03*
X3070000D03*
X2990000Y2810000D03*
X3030000D03*
X3070000D03*
X2990000Y3620000D03*
X3030000D03*
X3070000D03*
X2990000Y3660000D03*
X3030000D03*
X3070000D03*
X2990000Y4470000D03*
X3030000D03*
X3070000D03*
X2990000Y4510000D03*
X3030000D03*
X3070000D03*
X2990000Y5320000D03*
X3030000D03*
X3070000D03*
X2990000Y5360000D03*
X3030000D03*
X3070000D03*
X2990000Y6170000D03*
X3030000D03*
X3070000D03*
X2990000Y6210000D03*
X3030000D03*
X3070000D03*
X2990000Y7020000D03*
X3030000D03*
X3070000D03*
X2990000Y7060000D03*
X3030000D03*
X3070000D03*
X2990000Y7870000D03*
X3030000D03*
X3070000D03*
X2990000Y7910000D03*
X3030000D03*
X3070000D03*
G54D33*
X2250000Y770000D03*
G54D15*
X542000Y3168000D03*
X278000D03*
X542000Y3432000D03*
X278000D03*
Y6568000D03*
X542000D03*
X278000Y6832000D03*
X542000D03*
G54D24*
X960000Y6605000D03*
Y6700000D03*
Y6795000D03*
X1230000Y6605000D03*
Y6795000D03*
X3085000Y865000D03*
Y1055000D03*
X3355000Y960000D03*
Y865000D03*
Y1055000D03*
G54D42*
X2940000Y3020000D03*
Y2980000D03*
Y3870000D03*
Y3830000D03*
Y4720000D03*
Y4680000D03*
Y5570000D03*
Y5530000D03*
Y6420000D03*
Y6380000D03*
Y7270000D03*
Y7230000D03*
Y8120000D03*
Y8080000D03*
G54D25*
X780000Y6924000D03*
Y6976000D03*
X3090000Y2634000D03*
Y2686000D03*
X3010000Y2634000D03*
Y2686000D03*
X2880000Y2696000D03*
Y2644000D03*
Y2816000D03*
Y2764000D03*
X3010000Y3484000D03*
Y3536000D03*
X3090000Y3484000D03*
Y3536000D03*
X2880000Y3546000D03*
Y3494000D03*
Y3614000D03*
Y3666000D03*
X3090000Y4334000D03*
X3010000D03*
X2880000Y4344000D03*
X3090000Y4386000D03*
X3010000D03*
X2880000Y4396000D03*
Y4516000D03*
Y4464000D03*
X3090000Y5184000D03*
Y5236000D03*
X3010000Y5184000D03*
Y5236000D03*
X2880000Y5246000D03*
Y5194000D03*
Y5366000D03*
Y5314000D03*
X3090000Y6034000D03*
Y6086000D03*
X3010000Y6034000D03*
Y6086000D03*
X2880000Y6096000D03*
Y6044000D03*
Y6216000D03*
Y6164000D03*
X3090000Y6884000D03*
Y6936000D03*
X3010000Y6884000D03*
Y6936000D03*
X2880000Y6946000D03*
Y6894000D03*
Y7014000D03*
Y7066000D03*
X3010000Y7734000D03*
Y7786000D03*
X3090000Y7734000D03*
Y7786000D03*
X2880000Y7744000D03*
Y7796000D03*
Y7916000D03*
Y7864000D03*
G54D34*
X2250000Y1370000D03*
G54D43*
X3450000Y620000D03*
X3770000D03*
G54D16*
X410000Y3300000D03*
Y6700000D03*
X4100000Y2800000D03*
Y3650000D03*
Y4500000D03*
Y5350000D03*
Y6200000D03*
Y7050000D03*
Y7900000D03*
G54D44*
X3530000Y1600000D03*
G54D17*
X480000Y4690000D03*
X380000D03*
Y4960000D03*
X480000D03*
Y4800000D03*
X380000D03*
X780000Y8170000D03*
X880000D03*
X990000Y2840000D03*
X1090000D03*
X1710000Y7970000D03*
X1810000D03*
X2170000Y2480000D03*
X2270000D03*
X2430000Y3280000D03*
X2170000Y4180000D03*
X2270000D03*
X2430000Y4980000D03*
X2170000Y5880000D03*
X2270000D03*
X2430000Y6680000D03*
X2170000Y7580000D03*
X2270000D03*
X2530000Y3280000D03*
Y4980000D03*
Y6680000D03*
X3550000Y2700000D03*
X3350000D03*
X3450000D03*
X3550000Y3550000D03*
X3350000D03*
X3450000D03*
X3560000Y4400000D03*
X3350000D03*
X3450000D03*
X3550000Y5250000D03*
X3350000D03*
X3450000D03*
X3550000Y5990000D03*
X3350000D03*
X3450000D03*
X3550000Y6905000D03*
X3350000D03*
X3450000D03*
X3550000Y7690000D03*
X3350000D03*
X3450000D03*
Y8350000D03*
X3350000D03*
X3450000Y8470000D03*
X3350000D03*
Y8230000D03*
X3450000D03*
X3660000Y1060000D03*
X3760000D03*
X3950000Y2450000D03*
X3760000D03*
X3860000D03*
X3650000Y2700000D03*
Y3550000D03*
X3760000Y3300000D03*
X3860000D03*
X3950000D03*
X3760000Y4150000D03*
X3860000D03*
X3950000D03*
X3660000Y4400000D03*
X3760000Y5000000D03*
X3860000D03*
X3950000D03*
X3650000Y5250000D03*
X3720000Y5850000D03*
X3820000D03*
X3910000D03*
X3650000Y5990000D03*
Y6905000D03*
X3910000Y6700000D03*
X3720000D03*
X3820000D03*
X3910000Y7550000D03*
X3720000D03*
X3820000D03*
X3650000Y7690000D03*
X4050000Y2450000D03*
X4140000D03*
X4240000D03*
X4050000Y3300000D03*
X4140000D03*
X4240000D03*
X4050000Y4150000D03*
X4140000D03*
X4240000D03*
X4050000Y5000000D03*
X4140000D03*
X4240000D03*
X4010000Y5850000D03*
X4100000D03*
X4200000D03*
X4010000Y6700000D03*
X4100000D03*
X4200000D03*
X4010000Y7550000D03*
X4100000D03*
X4200000D03*
G54D35*
X2855000Y450000D03*
X3245000D03*
G54D26*
X750000Y7780000D03*
Y8020000D03*
Y7900000D03*
G54D36*
X2885000Y8960000D03*
X4100000Y9271000D03*
G54D18*
X890000Y640000D03*
Y1040000D03*
G54D27*
X1420000Y320000D03*
Y1060000D03*
G54D45*
X3315000Y1502500D03*
Y1567500D03*
Y1632500D03*
Y1697500D03*
X3745000D03*
Y1632500D03*
Y1567500D03*
Y1502500D03*
G54D28*
X1106000Y3950000D03*
X1054000D03*
X2064000Y8700000D03*
X2116000D03*
X2254000D03*
X2306000D03*
G54D46*
X3403500Y2450000D03*
X3596500D03*
X3403500Y3300000D03*
X3596500D03*
X3403500Y4150000D03*
X3596500D03*
X3403500Y5000000D03*
X3596500D03*
G54D19*
X979500Y3060000D03*
Y3540000D03*
X1360500Y3060000D03*
X1233500D03*
X1106500D03*
Y3540000D03*
X1233500D03*
X1360500D03*
X2413500Y1790000D03*
X2286500D03*
X2159500D03*
Y2270000D03*
X2286500D03*
X2413500D03*
Y3490000D03*
X2286500D03*
X2159500D03*
Y3970000D03*
X2286500D03*
X2413500D03*
Y5190000D03*
X2286500D03*
X2159500D03*
Y5670000D03*
X2286500D03*
X2413500D03*
Y6890000D03*
X2286500D03*
X2159500D03*
Y7370000D03*
X2286500D03*
X2413500D03*
X2540500Y1790000D03*
Y2270000D03*
Y3490000D03*
Y3970000D03*
Y5190000D03*
Y5670000D03*
Y6890000D03*
Y7370000D03*
G54D37*
X3230000Y2310000D03*
Y2450000D03*
Y2590000D03*
Y3160000D03*
Y3440000D03*
Y3300000D03*
Y4010000D03*
Y4290000D03*
Y4150000D03*
Y5140000D03*
Y4860000D03*
Y5000000D03*
Y5710000D03*
Y5850000D03*
Y5990000D03*
Y6560000D03*
Y6840000D03*
Y6700000D03*
Y7410000D03*
Y7690000D03*
Y7550000D03*
X3270000Y2310000D03*
Y2450000D03*
Y2590000D03*
Y3160000D03*
Y3440000D03*
Y3300000D03*
Y4010000D03*
Y4290000D03*
Y4150000D03*
Y5140000D03*
Y4860000D03*
Y5000000D03*
Y5710000D03*
Y5850000D03*
Y5990000D03*
Y6560000D03*
Y6840000D03*
Y6700000D03*
Y7410000D03*
Y7690000D03*
Y7550000D03*
G54D29*
X1060000Y7925000D03*
Y7975000D03*
Y8025000D03*
Y8075000D03*
Y8125000D03*
Y8175000D03*
Y8225000D03*
Y8275000D03*
X1540000Y8125000D03*
Y8075000D03*
Y8025000D03*
Y7975000D03*
Y7925000D03*
Y8275000D03*
Y8225000D03*
Y8175000D03*
G54D38*
X3070000Y2390000D03*
X3030000D03*
X3070000Y3240000D03*
X3030000D03*
X3070000Y4090000D03*
X3030000D03*
X3070000Y4940000D03*
X3030000D03*
X3070000Y5790000D03*
X3030000D03*
X3070000Y6640000D03*
X3030000D03*
X3070000Y7490000D03*
X3030000D03*
G54D47*
X3427500Y5850000D03*
X3572500D03*
G54D48*
X3377500Y6700000D03*
X3622500D03*
G54D39*
X3070000Y2450000D03*
X3030000D03*
X3070000Y3300000D03*
X3030000D03*
X3070000Y4150000D03*
X3030000D03*
X3070000Y5000000D03*
X3030000D03*
X3070000Y5850000D03*
X3030000D03*
X3070000Y6700000D03*
X3030000D03*
X3070000Y7550000D03*
X3030000D03*
G54D49*
X3370000D03*
X3630000D03*
M02*
